<?xml version="1.0" encoding="utf-8" standalone="no"?>
<!DOCTYPE svg PUBLIC "-//W3C//DTD SVG 1.1//EN"
  "http://www.w3.org/Graphics/SVG/1.1/DTD/svg11.dtd">
<svg xmlns:xlink="http://www.w3.org/1999/xlink" width="1080pt" height="288pt" viewBox="0 0 1080 288" xmlns="http://www.w3.org/2000/svg" version="1.1">
 <metadata>
  <rdf:RDF xmlns:dc="http://purl.org/dc/elements/1.1/" xmlns:cc="http://creativecommons.org/ns#" xmlns:rdf="http://www.w3.org/1999/02/22-rdf-syntax-ns#">
   <cc:Work>
    <dc:type rdf:resource="http://purl.org/dc/dcmitype/StillImage"/>
    <dc:date>2023-05-07T14:58:36.747892</dc:date>
    <dc:format>image/svg+xml</dc:format>
    <dc:creator>
     <cc:Agent>
      <dc:title>Matplotlib v3.5.3, https://matplotlib.org/</dc:title>
     </cc:Agent>
    </dc:creator>
   </cc:Work>
  </rdf:RDF>
 </metadata>
 <defs>
  <style type="text/css">*{stroke-linejoin: round; stroke-linecap: butt}</style>
 </defs>
 <g id="figure_1">
  <g id="patch_1">
   <path d="M 0 288 
L 1080 288 
L 1080 0 
L 0 0 
z
" style="fill: #f0f0f0"/>
  </g>
  <g id="axes_1">
   <g id="patch_2">
    <path d="M 34.36 255.69875 
L 1064.88 255.69875 
L 1064.88 47.52405 
L 34.36 47.52405 
z
" style="fill: #f0f0f0"/>
   </g>
   <g id="matplotlib.axis_1">
    <g id="xtick_1">
     <g id="text_1">
      <!-- age -->
      <g style="fill: #262626" transform="translate(282.814453 270.443438)scale(0.11 -0.11)">
       <defs>
        <path id="ArialMT-61" d="M 2588 409 
Q 2275 144 1986 34 
Q 1697 -75 1366 -75 
Q 819 -75 525 192 
Q 231 459 231 875 
Q 231 1119 342 1320 
Q 453 1522 633 1644 
Q 813 1766 1038 1828 
Q 1203 1872 1538 1913 
Q 2219 1994 2541 2106 
Q 2544 2222 2544 2253 
Q 2544 2597 2384 2738 
Q 2169 2928 1744 2928 
Q 1347 2928 1158 2789 
Q 969 2650 878 2297 
L 328 2372 
Q 403 2725 575 2942 
Q 747 3159 1072 3276 
Q 1397 3394 1825 3394 
Q 2250 3394 2515 3294 
Q 2781 3194 2906 3042 
Q 3031 2891 3081 2659 
Q 3109 2516 3109 2141 
L 3109 1391 
Q 3109 606 3145 398 
Q 3181 191 3288 0 
L 2700 0 
Q 2613 175 2588 409 
z
M 2541 1666 
Q 2234 1541 1622 1453 
Q 1275 1403 1131 1340 
Q 988 1278 909 1158 
Q 831 1038 831 891 
Q 831 666 1001 516 
Q 1172 366 1500 366 
Q 1825 366 2078 508 
Q 2331 650 2450 897 
Q 2541 1088 2541 1459 
L 2541 1666 
z
" transform="scale(0.015625)"/>
        <path id="ArialMT-67" d="M 319 -275 
L 866 -356 
Q 900 -609 1056 -725 
Q 1266 -881 1628 -881 
Q 2019 -881 2231 -725 
Q 2444 -569 2519 -288 
Q 2563 -116 2559 434 
Q 2191 0 1641 0 
Q 956 0 581 494 
Q 206 988 206 1678 
Q 206 2153 378 2554 
Q 550 2956 876 3175 
Q 1203 3394 1644 3394 
Q 2231 3394 2613 2919 
L 2613 3319 
L 3131 3319 
L 3131 450 
Q 3131 -325 2973 -648 
Q 2816 -972 2473 -1159 
Q 2131 -1347 1631 -1347 
Q 1038 -1347 672 -1080 
Q 306 -813 319 -275 
z
M 784 1719 
Q 784 1066 1043 766 
Q 1303 466 1694 466 
Q 2081 466 2343 764 
Q 2606 1063 2606 1700 
Q 2606 2309 2336 2618 
Q 2066 2928 1684 2928 
Q 1309 2928 1046 2623 
Q 784 2319 784 1719 
z
" transform="scale(0.015625)"/>
        <path id="ArialMT-65" d="M 2694 1069 
L 3275 997 
Q 3138 488 2766 206 
Q 2394 -75 1816 -75 
Q 1088 -75 661 373 
Q 234 822 234 1631 
Q 234 2469 665 2931 
Q 1097 3394 1784 3394 
Q 2450 3394 2872 2941 
Q 3294 2488 3294 1666 
Q 3294 1616 3291 1516 
L 816 1516 
Q 847 969 1125 678 
Q 1403 388 1819 388 
Q 2128 388 2347 550 
Q 2566 713 2694 1069 
z
M 847 1978 
L 2700 1978 
Q 2663 2397 2488 2606 
Q 2219 2931 1791 2931 
Q 1403 2931 1139 2672 
Q 875 2413 847 1978 
z
" transform="scale(0.015625)"/>
       </defs>
       <use xlink:href="#ArialMT-61"/>
       <use xlink:href="#ArialMT-67" x="55.615234"/>
       <use xlink:href="#ArialMT-65" x="111.230469"/>
      </g>
     </g>
    </g>
    <g id="xtick_2">
     <g id="text_2">
      <!-- fee_cleaned -->
      <g style="fill: #262626" transform="translate(777.281875 270.706406)scale(0.11 -0.11)">
       <defs>
        <path id="ArialMT-66" d="M 556 0 
L 556 2881 
L 59 2881 
L 59 3319 
L 556 3319 
L 556 3672 
Q 556 4006 616 4169 
Q 697 4388 901 4523 
Q 1106 4659 1475 4659 
Q 1713 4659 2000 4603 
L 1916 4113 
Q 1741 4144 1584 4144 
Q 1328 4144 1222 4034 
Q 1116 3925 1116 3625 
L 1116 3319 
L 1763 3319 
L 1763 2881 
L 1116 2881 
L 1116 0 
L 556 0 
z
" transform="scale(0.015625)"/>
        <path id="ArialMT-5f" d="M -97 -1272 
L -97 -866 
L 3631 -866 
L 3631 -1272 
L -97 -1272 
z
" transform="scale(0.015625)"/>
        <path id="ArialMT-63" d="M 2588 1216 
L 3141 1144 
Q 3050 572 2676 248 
Q 2303 -75 1759 -75 
Q 1078 -75 664 370 
Q 250 816 250 1647 
Q 250 2184 428 2587 
Q 606 2991 970 3192 
Q 1334 3394 1763 3394 
Q 2303 3394 2647 3120 
Q 2991 2847 3088 2344 
L 2541 2259 
Q 2463 2594 2264 2762 
Q 2066 2931 1784 2931 
Q 1359 2931 1093 2626 
Q 828 2322 828 1663 
Q 828 994 1084 691 
Q 1341 388 1753 388 
Q 2084 388 2306 591 
Q 2528 794 2588 1216 
z
" transform="scale(0.015625)"/>
        <path id="ArialMT-6c" d="M 409 0 
L 409 4581 
L 972 4581 
L 972 0 
L 409 0 
z
" transform="scale(0.015625)"/>
        <path id="ArialMT-6e" d="M 422 0 
L 422 3319 
L 928 3319 
L 928 2847 
Q 1294 3394 1984 3394 
Q 2284 3394 2536 3286 
Q 2788 3178 2913 3003 
Q 3038 2828 3088 2588 
Q 3119 2431 3119 2041 
L 3119 0 
L 2556 0 
L 2556 2019 
Q 2556 2363 2490 2533 
Q 2425 2703 2258 2804 
Q 2091 2906 1866 2906 
Q 1506 2906 1245 2678 
Q 984 2450 984 1813 
L 984 0 
L 422 0 
z
" transform="scale(0.015625)"/>
        <path id="ArialMT-64" d="M 2575 0 
L 2575 419 
Q 2259 -75 1647 -75 
Q 1250 -75 917 144 
Q 584 363 401 755 
Q 219 1147 219 1656 
Q 219 2153 384 2558 
Q 550 2963 881 3178 
Q 1213 3394 1622 3394 
Q 1922 3394 2156 3267 
Q 2391 3141 2538 2938 
L 2538 4581 
L 3097 4581 
L 3097 0 
L 2575 0 
z
M 797 1656 
Q 797 1019 1065 703 
Q 1334 388 1700 388 
Q 2069 388 2326 689 
Q 2584 991 2584 1609 
Q 2584 2291 2321 2609 
Q 2059 2928 1675 2928 
Q 1300 2928 1048 2622 
Q 797 2316 797 1656 
z
" transform="scale(0.015625)"/>
       </defs>
       <use xlink:href="#ArialMT-66"/>
       <use xlink:href="#ArialMT-65" x="27.783203"/>
       <use xlink:href="#ArialMT-65" x="83.398438"/>
       <use xlink:href="#ArialMT-5f" x="139.013672"/>
       <use xlink:href="#ArialMT-63" x="194.628906"/>
       <use xlink:href="#ArialMT-6c" x="244.628906"/>
       <use xlink:href="#ArialMT-65" x="266.845703"/>
       <use xlink:href="#ArialMT-61" x="322.460938"/>
       <use xlink:href="#ArialMT-6e" x="378.076172"/>
       <use xlink:href="#ArialMT-65" x="433.691406"/>
       <use xlink:href="#ArialMT-64" x="489.306641"/>
      </g>
     </g>
    </g>
   </g>
   <g id="matplotlib.axis_2">
    <g id="ytick_1">
     <g id="line2d_1">
      <path d="M 34.36 228.62481 
L 1064.88 228.62481 
" clip-path="url(#pe48a0ee525)" style="fill: none; stroke: #cbcbcb"/>
     </g>
     <g id="text_3">
      <!-- 0 -->
      <g style="fill: #262626" transform="translate(21.242969 232.561607)scale(0.11 -0.11)">
       <defs>
        <path id="ArialMT-30" d="M 266 2259 
Q 266 3072 433 3567 
Q 600 4063 929 4331 
Q 1259 4600 1759 4600 
Q 2128 4600 2406 4451 
Q 2684 4303 2865 4023 
Q 3047 3744 3150 3342 
Q 3253 2941 3253 2259 
Q 3253 1453 3087 958 
Q 2922 463 2592 192 
Q 2263 -78 1759 -78 
Q 1097 -78 719 397 
Q 266 969 266 2259 
z
M 844 2259 
Q 844 1131 1108 757 
Q 1372 384 1759 384 
Q 2147 384 2411 759 
Q 2675 1134 2675 2259 
Q 2675 3391 2411 3762 
Q 2147 4134 1753 4134 
Q 1366 4134 1134 3806 
Q 844 3388 844 2259 
z
" transform="scale(0.015625)"/>
       </defs>
       <use xlink:href="#ArialMT-30"/>
      </g>
     </g>
    </g>
    <g id="ytick_2">
     <g id="line2d_2">
      <path d="M 34.36 198.494291 
L 1064.88 198.494291 
" clip-path="url(#pe48a0ee525)" style="fill: none; stroke: #cbcbcb"/>
     </g>
     <g id="text_4">
      <!-- 5 -->
      <g style="fill: #262626" transform="translate(21.242969 202.431088)scale(0.11 -0.11)">
       <defs>
        <path id="ArialMT-35" d="M 266 1200 
L 856 1250 
Q 922 819 1161 601 
Q 1400 384 1738 384 
Q 2144 384 2425 690 
Q 2706 997 2706 1503 
Q 2706 1984 2436 2262 
Q 2166 2541 1728 2541 
Q 1456 2541 1237 2417 
Q 1019 2294 894 2097 
L 366 2166 
L 809 4519 
L 3088 4519 
L 3088 3981 
L 1259 3981 
L 1013 2750 
Q 1425 3038 1878 3038 
Q 2478 3038 2890 2622 
Q 3303 2206 3303 1553 
Q 3303 931 2941 478 
Q 2500 -78 1738 -78 
Q 1113 -78 717 272 
Q 322 622 266 1200 
z
" transform="scale(0.015625)"/>
       </defs>
       <use xlink:href="#ArialMT-35"/>
      </g>
     </g>
    </g>
    <g id="ytick_3">
     <g id="line2d_3">
      <path d="M 34.36 168.363771 
L 1064.88 168.363771 
" clip-path="url(#pe48a0ee525)" style="fill: none; stroke: #cbcbcb"/>
     </g>
     <g id="text_5">
      <!-- 10 -->
      <g style="fill: #262626" transform="translate(15.125938 172.300568)scale(0.11 -0.11)">
       <defs>
        <path id="ArialMT-31" d="M 2384 0 
L 1822 0 
L 1822 3584 
Q 1619 3391 1289 3197 
Q 959 3003 697 2906 
L 697 3450 
Q 1169 3672 1522 3987 
Q 1875 4303 2022 4600 
L 2384 4600 
L 2384 0 
z
" transform="scale(0.015625)"/>
       </defs>
       <use xlink:href="#ArialMT-31"/>
       <use xlink:href="#ArialMT-30" x="55.615234"/>
      </g>
     </g>
    </g>
    <g id="ytick_4">
     <g id="line2d_4">
      <path d="M 34.36 138.233252 
L 1064.88 138.233252 
" clip-path="url(#pe48a0ee525)" style="fill: none; stroke: #cbcbcb"/>
     </g>
     <g id="text_6">
      <!-- 15 -->
      <g style="fill: #262626" transform="translate(15.125938 142.170049)scale(0.11 -0.11)">
       <use xlink:href="#ArialMT-31"/>
       <use xlink:href="#ArialMT-35" x="55.615234"/>
      </g>
     </g>
    </g>
    <g id="ytick_5">
     <g id="line2d_5">
      <path d="M 34.36 108.102732 
L 1064.88 108.102732 
" clip-path="url(#pe48a0ee525)" style="fill: none; stroke: #cbcbcb"/>
     </g>
     <g id="text_7">
      <!-- 20 -->
      <g style="fill: #262626" transform="translate(15.125938 112.039529)scale(0.11 -0.11)">
       <defs>
        <path id="ArialMT-32" d="M 3222 541 
L 3222 0 
L 194 0 
Q 188 203 259 391 
Q 375 700 629 1000 
Q 884 1300 1366 1694 
Q 2113 2306 2375 2664 
Q 2638 3022 2638 3341 
Q 2638 3675 2398 3904 
Q 2159 4134 1775 4134 
Q 1369 4134 1125 3890 
Q 881 3647 878 3216 
L 300 3275 
Q 359 3922 746 4261 
Q 1134 4600 1788 4600 
Q 2447 4600 2831 4234 
Q 3216 3869 3216 3328 
Q 3216 3053 3103 2787 
Q 2991 2522 2730 2228 
Q 2469 1934 1863 1422 
Q 1356 997 1212 845 
Q 1069 694 975 541 
L 3222 541 
z
" transform="scale(0.015625)"/>
       </defs>
       <use xlink:href="#ArialMT-32"/>
       <use xlink:href="#ArialMT-30" x="55.615234"/>
      </g>
     </g>
    </g>
    <g id="ytick_6">
     <g id="line2d_6">
      <path d="M 34.36 77.972213 
L 1064.88 77.972213 
" clip-path="url(#pe48a0ee525)" style="fill: none; stroke: #cbcbcb"/>
     </g>
     <g id="text_8">
      <!-- 25 -->
      <g style="fill: #262626" transform="translate(15.125938 81.90901)scale(0.11 -0.11)">
       <use xlink:href="#ArialMT-32"/>
       <use xlink:href="#ArialMT-35" x="55.615234"/>
      </g>
     </g>
    </g>
    <g id="ytick_7">
     <g id="line2d_7">
      <path d="M 34.36 47.841693 
L 1064.88 47.841693 
" clip-path="url(#pe48a0ee525)" style="fill: none; stroke: #cbcbcb"/>
     </g>
     <g id="text_9">
      <!-- 30 -->
      <g style="fill: #262626" transform="translate(15.125938 51.77849)scale(0.11 -0.11)">
       <defs>
        <path id="ArialMT-33" d="M 269 1209 
L 831 1284 
Q 928 806 1161 595 
Q 1394 384 1728 384 
Q 2125 384 2398 659 
Q 2672 934 2672 1341 
Q 2672 1728 2419 1979 
Q 2166 2231 1775 2231 
Q 1616 2231 1378 2169 
L 1441 2663 
Q 1497 2656 1531 2656 
Q 1891 2656 2178 2843 
Q 2466 3031 2466 3422 
Q 2466 3731 2256 3934 
Q 2047 4138 1716 4138 
Q 1388 4138 1169 3931 
Q 950 3725 888 3313 
L 325 3413 
Q 428 3978 793 4289 
Q 1159 4600 1703 4600 
Q 2078 4600 2393 4439 
Q 2709 4278 2876 4000 
Q 3044 3722 3044 3409 
Q 3044 3113 2884 2869 
Q 2725 2625 2413 2481 
Q 2819 2388 3044 2092 
Q 3269 1797 3269 1353 
Q 3269 753 2831 336 
Q 2394 -81 1725 -81 
Q 1122 -81 723 278 
Q 325 638 269 1209 
z
" transform="scale(0.015625)"/>
       </defs>
       <use xlink:href="#ArialMT-33"/>
       <use xlink:href="#ArialMT-30" x="55.615234"/>
      </g>
     </g>
    </g>
   </g>
   <g id="PolyCollection_1">
    <defs>
     <path id="m29474fe088" d="M 291.999778 -41.763736 
L 291.980222 -41.763736 
L 291.962179 -42.264541 
L 291.934599 -42.765346 
L 291.909747 -43.26615 
L 291.895341 -43.766955 
L 291.87227 -44.26776 
L 291.788427 -44.768564 
L 291.560766 -45.269369 
L 291.097158 -45.770174 
L 290.259029 -46.270978 
L 288.66746 -46.771783 
L 285.752561 -47.272588 
L 280.879373 -47.773392 
L 272.496238 -48.274197 
L 258.889649 -48.775001 
L 241.968092 -49.275806 
L 224.684557 -49.776611 
L 204.642835 -50.277415 
L 182.112317 -50.77822 
L 165.021174 -51.279025 
L 152.975105 -51.779829 
L 139.377926 -52.280634 
L 128.396107 -52.781439 
L 121.462016 -53.282243 
L 111.477364 -53.783048 
L 102.441429 -54.283853 
L 98.104238 -54.784657 
L 91.186996 -55.285462 
L 85.886 -55.786267 
L 88.965982 -56.287071 
L 91.246038 -56.787876 
L 90.589179 -57.288681 
L 92.625433 -57.789485 
L 91.735428 -58.29029 
L 89.05682 -58.791095 
L 93.174557 -59.291899 
L 98.076541 -59.792704 
L 100.780588 -60.293509 
L 109.284071 -60.794313 
L 119.369278 -61.295118 
L 125.490414 -61.795922 
L 133.373081 -62.296727 
L 141.417549 -62.797532 
L 146.302271 -63.298336 
L 154.521316 -63.799141 
L 165.413968 -64.299946 
L 173.370598 -64.80075 
L 181.808906 -65.301555 
L 191.43485 -65.80236 
L 198.269182 -66.303164 
L 204.90612 -66.803969 
L 212.629422 -67.304774 
L 218.355805 -67.805578 
L 223.950846 -68.306383 
L 230.9547 -68.807188 
L 236.634411 -69.307992 
L 241.6531 -69.808797 
L 247.529063 -70.309602 
L 252.372036 -70.810406 
L 256.171537 -71.311211 
L 260.166541 -71.812016 
L 263.421085 -72.31282 
L 266.134113 -72.813625 
L 269.437568 -73.314429 
L 272.525658 -73.815234 
L 275.035758 -74.316039 
L 277.739371 -74.816843 
L 280.2467 -75.317648 
L 282.030545 -75.818453 
L 283.43025 -76.319257 
L 284.499443 -76.820062 
L 285.290298 -77.320867 
L 286.202876 -77.821671 
L 287.157677 -78.322476 
L 287.915728 -78.823281 
L 288.627021 -79.324085 
L 289.315075 -79.82489 
L 289.844034 -80.325695 
L 290.279898 -80.826499 
L 290.674759 -81.327304 
L 290.971996 -81.828109 
L 291.195926 -82.328913 
L 291.386678 -82.829718 
L 291.531622 -83.330523 
L 291.646018 -83.831327 
L 291.750187 -84.332132 
L 291.824976 -84.832937 
L 291.854081 -85.333741 
L 291.846932 -85.834546 
L 291.831688 -86.33535 
L 291.843619 -86.836155 
L 291.889261 -87.33696 
L 291.936938 -87.837764 
L 291.956409 -88.338569 
L 291.945413 -88.839374 
L 291.924371 -89.340178 
L 291.918914 -89.840983 
L 291.936704 -90.341788 
L 291.962518 -90.842592 
L 291.98026 -91.343397 
L 291.99974 -91.343397 
L 291.99974 -91.343397 
L 292.017482 -90.842592 
L 292.043296 -90.341788 
L 292.061086 -89.840983 
L 292.055629 -89.340178 
L 292.034587 -88.839374 
L 292.023591 -88.338569 
L 292.043062 -87.837764 
L 292.090739 -87.33696 
L 292.136381 -86.836155 
L 292.148312 -86.33535 
L 292.133068 -85.834546 
L 292.125919 -85.333741 
L 292.155024 -84.832937 
L 292.229813 -84.332132 
L 292.333982 -83.831327 
L 292.448378 -83.330523 
L 292.593322 -82.829718 
L 292.784074 -82.328913 
L 293.008004 -81.828109 
L 293.305241 -81.327304 
L 293.700102 -80.826499 
L 294.135966 -80.325695 
L 294.664925 -79.82489 
L 295.352979 -79.324085 
L 296.064272 -78.823281 
L 296.822323 -78.322476 
L 297.777124 -77.821671 
L 298.689702 -77.320867 
L 299.480557 -76.820062 
L 300.54975 -76.319257 
L 301.949455 -75.818453 
L 303.7333 -75.317648 
L 306.240629 -74.816843 
L 308.944242 -74.316039 
L 311.454342 -73.815234 
L 314.542432 -73.314429 
L 317.845887 -72.813625 
L 320.558915 -72.31282 
L 323.813459 -71.812016 
L 327.808463 -71.311211 
L 331.607964 -70.810406 
L 336.450937 -70.309602 
L 342.3269 -69.808797 
L 347.345589 -69.307992 
L 353.0253 -68.807188 
L 360.029154 -68.306383 
L 365.624195 -67.805578 
L 371.350578 -67.304774 
L 379.07388 -66.803969 
L 385.710818 -66.303164 
L 392.54515 -65.80236 
L 402.171094 -65.301555 
L 410.609402 -64.80075 
L 418.566032 -64.299946 
L 429.458684 -63.799141 
L 437.677729 -63.298336 
L 442.562451 -62.797532 
L 450.606919 -62.296727 
L 458.489586 -61.795922 
L 464.610722 -61.295118 
L 474.695929 -60.794313 
L 483.199412 -60.293509 
L 485.903459 -59.792704 
L 490.805443 -59.291899 
L 494.92318 -58.791095 
L 492.244572 -58.29029 
L 491.354567 -57.789485 
L 493.390821 -57.288681 
L 492.733962 -56.787876 
L 495.014018 -56.287071 
L 498.094 -55.786267 
L 492.793004 -55.285462 
L 485.875762 -54.784657 
L 481.538571 -54.283853 
L 472.502636 -53.783048 
L 462.517984 -53.282243 
L 455.583893 -52.781439 
L 444.602074 -52.280634 
L 431.004895 -51.779829 
L 418.958826 -51.279025 
L 401.867683 -50.77822 
L 379.337165 -50.277415 
L 359.295443 -49.776611 
L 342.011908 -49.275806 
L 325.090351 -48.775001 
L 311.483762 -48.274197 
L 303.100627 -47.773392 
L 298.227439 -47.272588 
L 295.31254 -46.771783 
L 293.720971 -46.270978 
L 292.882842 -45.770174 
L 292.419234 -45.269369 
L 292.191573 -44.768564 
L 292.10773 -44.26776 
L 292.084659 -43.766955 
L 292.070253 -43.26615 
L 292.045401 -42.765346 
L 292.017821 -42.264541 
L 291.999778 -41.763736 
z
" style="stroke: #484848; stroke-width: 3"/>
    </defs>
    <g clip-path="url(#pe48a0ee525)">
     <use xlink:href="#m29474fe088" x="0" y="288" style="fill: #cb3335; stroke: #484848; stroke-width: 3"/>
    </g>
   </g>
   <g id="PolyCollection_2">
    <defs>
     <path id="mf5379d1e22" d="M 834.648243 -55.866364 
L 779.851757 -55.866364 
L 601.146 -57.635527 
L 701.012226 -59.404689 
L 787.601324 -61.173852 
L 797.826545 -62.943014 
L 802.034253 -64.712177 
L 803.547912 -66.48134 
L 804.460976 -68.250502 
L 805.495753 -70.019665 
L 806.003594 -71.788828 
L 806.3973 -73.55799 
L 806.564147 -75.327153 
L 806.619233 -77.096315 
L 806.413967 -78.865478 
L 806.753602 -80.634641 
L 806.871359 -82.403803 
L 806.528628 -84.172966 
L 806.614464 -85.942129 
L 806.880855 -87.711291 
L 807.072782 -89.480454 
L 806.894869 -91.249616 
L 807.119589 -93.018779 
L 807.215345 -94.787942 
L 807.171253 -96.557104 
L 806.994735 -98.326267 
L 807.022221 -100.09543 
L 807.140476 -101.864592 
L 807.100838 -103.633755 
L 807.017516 -105.402917 
L 807.183255 -107.17208 
L 807.12173 -108.941243 
L 807.065305 -110.710405 
L 807.045496 -112.479568 
L 807.202065 -114.24873 
L 807.238379 -116.017893 
L 807.150143 -117.787056 
L 807.169515 -119.556218 
L 807.207832 -121.325381 
L 807.237743 -123.094544 
L 807.211155 -124.863706 
L 807.235314 -126.632869 
L 807.249696 -128.402031 
L 807.25 -130.171194 
L 807.25 -131.940357 
L 807.25 -133.709519 
L 807.25 -135.478682 
L 807.25 -137.247845 
L 807.249907 -139.017007 
L 807.241722 -140.78617 
L 807.209746 -142.555332 
L 807.239304 -144.324495 
L 807.249556 -146.093658 
L 807.235643 -147.86282 
L 807.211046 -149.631983 
L 807.244225 -151.401146 
L 807.249953 -153.170308 
L 807.249955 -154.939471 
L 807.244336 -156.708633 
L 807.21115 -158.477796 
L 807.23544 -160.246959 
L 807.249702 -162.016121 
L 807.25 -163.785284 
L 807.25 -165.554447 
L 807.25 -167.323609 
L 807.25 -169.092772 
L 807.25 -170.861934 
L 807.25 -172.631097 
L 807.25 -174.40026 
L 807.25 -176.169422 
L 807.25 -177.938585 
L 807.25 -179.707747 
L 807.25 -181.47691 
L 807.25 -183.246073 
L 807.25 -185.015235 
L 807.25 -186.784398 
L 807.25 -188.553561 
L 807.25 -190.322723 
L 807.25 -192.091886 
L 807.25 -193.861048 
L 807.25 -195.630211 
L 807.25 -197.399374 
L 807.25 -199.168536 
L 807.25 -200.937699 
L 807.25 -202.706862 
L 807.25 -204.476024 
L 807.25 -206.245187 
L 807.25 -208.014349 
L 807.25 -209.783512 
L 807.25 -211.552675 
L 807.25 -213.321837 
L 807.25 -215.091 
L 807.24994 -216.860163 
L 807.243392 -218.629325 
L 807.210412 -220.398488 
L 807.237041 -222.16765 
L 807.249768 -223.936813 
L 807.249684 -225.705976 
L 807.23506 -227.475138 
L 807.211352 -229.244301 
L 807.244537 -231.013463 
L 807.255463 -231.013463 
L 807.255463 -231.013463 
L 807.288648 -229.244301 
L 807.26494 -227.475138 
L 807.250316 -225.705976 
L 807.250232 -223.936813 
L 807.262959 -222.16765 
L 807.289588 -220.398488 
L 807.256608 -218.629325 
L 807.25006 -216.860163 
L 807.25 -215.091 
L 807.25 -213.321837 
L 807.25 -211.552675 
L 807.25 -209.783512 
L 807.25 -208.014349 
L 807.25 -206.245187 
L 807.25 -204.476024 
L 807.25 -202.706862 
L 807.25 -200.937699 
L 807.25 -199.168536 
L 807.25 -197.399374 
L 807.25 -195.630211 
L 807.25 -193.861048 
L 807.25 -192.091886 
L 807.25 -190.322723 
L 807.25 -188.553561 
L 807.25 -186.784398 
L 807.25 -185.015235 
L 807.25 -183.246073 
L 807.25 -181.47691 
L 807.25 -179.707747 
L 807.25 -177.938585 
L 807.25 -176.169422 
L 807.25 -174.40026 
L 807.25 -172.631097 
L 807.25 -170.861934 
L 807.25 -169.092772 
L 807.25 -167.323609 
L 807.25 -165.554447 
L 807.25 -163.785284 
L 807.250298 -162.016121 
L 807.26456 -160.246959 
L 807.28885 -158.477796 
L 807.255664 -156.708633 
L 807.250045 -154.939471 
L 807.250047 -153.170308 
L 807.255775 -151.401146 
L 807.288954 -149.631983 
L 807.264357 -147.86282 
L 807.250444 -146.093658 
L 807.260696 -144.324495 
L 807.290254 -142.555332 
L 807.258278 -140.78617 
L 807.250093 -139.017007 
L 807.25 -137.247845 
L 807.25 -135.478682 
L 807.25 -133.709519 
L 807.25 -131.940357 
L 807.25 -130.171194 
L 807.250304 -128.402031 
L 807.264686 -126.632869 
L 807.288845 -124.863706 
L 807.262257 -123.094544 
L 807.292168 -121.325381 
L 807.330485 -119.556218 
L 807.349857 -117.787056 
L 807.261621 -116.017893 
L 807.297935 -114.24873 
L 807.454504 -112.479568 
L 807.434695 -110.710405 
L 807.37827 -108.941243 
L 807.316745 -107.17208 
L 807.482484 -105.402917 
L 807.399162 -103.633755 
L 807.359524 -101.864592 
L 807.477779 -100.09543 
L 807.505265 -98.326267 
L 807.328747 -96.557104 
L 807.284655 -94.787942 
L 807.380411 -93.018779 
L 807.605131 -91.249616 
L 807.427218 -89.480454 
L 807.619145 -87.711291 
L 807.885536 -85.942129 
L 807.971372 -84.172966 
L 807.628641 -82.403803 
L 807.746398 -80.634641 
L 808.086033 -78.865478 
L 807.880767 -77.096315 
L 807.935853 -75.327153 
L 808.1027 -73.55799 
L 808.496406 -71.788828 
L 809.004247 -70.019665 
L 810.039024 -68.250502 
L 810.952088 -66.48134 
L 812.465747 -64.712177 
L 816.673455 -62.943014 
L 826.898676 -61.173852 
L 913.487774 -59.404689 
L 1013.354 -57.635527 
L 834.648243 -55.866364 
z
" style="stroke: #484848; stroke-width: 3"/>
    </defs>
    <g clip-path="url(#pe48a0ee525)">
     <use xlink:href="#mf5379d1e22" x="0" y="288" style="fill: #477ca8; stroke: #484848; stroke-width: 3"/>
    </g>
   </g>
   <g id="line2d_8">
    <path d="M 291.99 244.600643 
L 291.99 210.641136 
" clip-path="url(#pe48a0ee525)" style="fill: none; stroke: #484848; stroke-width: 3"/>
   </g>
   <g id="line2d_9">
    <path d="M 291.99 233.795345 
L 291.99 224.533661 
" clip-path="url(#pe48a0ee525)" style="fill: none; stroke: #484848; stroke-width: 9"/>
   </g>
   <g id="line2d_10">
    <path d="M 807.25 230.058345 
L 807.25 229.318974 
" clip-path="url(#pe48a0ee525)" style="fill: none; stroke: #484848; stroke-width: 3"/>
   </g>
   <g id="line2d_11">
    <path d="M 807.25 230.058345 
L 807.25 229.755875 
" clip-path="url(#pe48a0ee525)" style="fill: none; stroke: #484848; stroke-width: 9"/>
   </g>
   <g id="patch_3">
    <path d="M 34.36 255.69875 
L 34.36 47.52405 
" style="fill: none; stroke: #f0f0f0; stroke-width: 3; stroke-linejoin: miter; stroke-linecap: square"/>
   </g>
   <g id="patch_4">
    <path d="M 1064.88 255.69875 
L 1064.88 47.52405 
" style="fill: none; stroke: #f0f0f0; stroke-width: 3; stroke-linejoin: miter; stroke-linecap: square"/>
   </g>
   <g id="patch_5">
    <path d="M 34.36 255.69875 
L 1064.88 255.69875 
" style="fill: none; stroke: #f0f0f0; stroke-width: 3; stroke-linejoin: miter; stroke-linecap: square"/>
   </g>
   <g id="patch_6">
    <path d="M 34.36 47.52405 
L 1064.88 47.52405 
" style="fill: none; stroke: #f0f0f0; stroke-width: 3; stroke-linejoin: miter; stroke-linecap: square"/>
   </g>
   <g id="PathCollection_1">
    <defs>
     <path id="m19d0bea742" d="M 0 3 
C 0.795609 3 1.55874 2.683901 2.12132 2.12132 
C 2.683901 1.55874 3 0.795609 3 0 
C 3 -0.795609 2.683901 -1.55874 2.12132 -2.12132 
C 1.55874 -2.683901 0.795609 -3 0 -3 
C -0.795609 -3 -1.55874 -2.683901 -2.12132 -2.12132 
C -2.683901 -1.55874 -3 -0.795609 -3 0 
C -3 0.795609 -2.683901 1.55874 -2.12132 2.12132 
C -1.55874 2.683901 -0.795609 3 0 3 
z
" style="stroke: #484848; stroke-width: 0.5"/>
    </defs>
    <g clip-path="url(#pe48a0ee525)">
     <use xlink:href="#m19d0bea742" x="291.99" y="229.164503" style="fill: #ffffff; stroke: #484848; stroke-width: 0.5"/>
    </g>
   </g>
   <g id="PathCollection_2">
    <g clip-path="url(#pe48a0ee525)">
     <use xlink:href="#m19d0bea742" x="807.25" y="230.058345" style="fill: #ffffff; stroke: #484848; stroke-width: 0.5"/>
    </g>
   </g>
  </g>
  <g id="text_10">
   <!-- Violin Plot of all Continuous Variables -->
   <g style="fill: #262626" transform="translate(416.035547 16.496719)scale(0.15 -0.15)">
    <defs>
     <path id="ArialMT-56" d="M 1803 0 
L 28 4581 
L 684 4581 
L 1875 1253 
Q 2019 853 2116 503 
Q 2222 878 2363 1253 
L 3600 4581 
L 4219 4581 
L 2425 0 
L 1803 0 
z
" transform="scale(0.015625)"/>
     <path id="ArialMT-69" d="M 425 3934 
L 425 4581 
L 988 4581 
L 988 3934 
L 425 3934 
z
M 425 0 
L 425 3319 
L 988 3319 
L 988 0 
L 425 0 
z
" transform="scale(0.015625)"/>
     <path id="ArialMT-6f" d="M 213 1659 
Q 213 2581 725 3025 
Q 1153 3394 1769 3394 
Q 2453 3394 2887 2945 
Q 3322 2497 3322 1706 
Q 3322 1066 3130 698 
Q 2938 331 2570 128 
Q 2203 -75 1769 -75 
Q 1072 -75 642 372 
Q 213 819 213 1659 
z
M 791 1659 
Q 791 1022 1069 705 
Q 1347 388 1769 388 
Q 2188 388 2466 706 
Q 2744 1025 2744 1678 
Q 2744 2294 2464 2611 
Q 2184 2928 1769 2928 
Q 1347 2928 1069 2612 
Q 791 2297 791 1659 
z
" transform="scale(0.015625)"/>
     <path id="ArialMT-20" transform="scale(0.015625)"/>
     <path id="ArialMT-50" d="M 494 0 
L 494 4581 
L 2222 4581 
Q 2678 4581 2919 4538 
Q 3256 4481 3484 4323 
Q 3713 4166 3852 3881 
Q 3991 3597 3991 3256 
Q 3991 2672 3619 2267 
Q 3247 1863 2275 1863 
L 1100 1863 
L 1100 0 
L 494 0 
z
M 1100 2403 
L 2284 2403 
Q 2872 2403 3119 2622 
Q 3366 2841 3366 3238 
Q 3366 3525 3220 3729 
Q 3075 3934 2838 4000 
Q 2684 4041 2272 4041 
L 1100 4041 
L 1100 2403 
z
" transform="scale(0.015625)"/>
     <path id="ArialMT-74" d="M 1650 503 
L 1731 6 
Q 1494 -44 1306 -44 
Q 1000 -44 831 53 
Q 663 150 594 308 
Q 525 466 525 972 
L 525 2881 
L 113 2881 
L 113 3319 
L 525 3319 
L 525 4141 
L 1084 4478 
L 1084 3319 
L 1650 3319 
L 1650 2881 
L 1084 2881 
L 1084 941 
Q 1084 700 1114 631 
Q 1144 563 1211 522 
Q 1278 481 1403 481 
Q 1497 481 1650 503 
z
" transform="scale(0.015625)"/>
     <path id="ArialMT-43" d="M 3763 1606 
L 4369 1453 
Q 4178 706 3683 314 
Q 3188 -78 2472 -78 
Q 1731 -78 1267 223 
Q 803 525 561 1097 
Q 319 1669 319 2325 
Q 319 3041 592 3573 
Q 866 4106 1370 4382 
Q 1875 4659 2481 4659 
Q 3169 4659 3637 4309 
Q 4106 3959 4291 3325 
L 3694 3184 
Q 3534 3684 3231 3912 
Q 2928 4141 2469 4141 
Q 1941 4141 1586 3887 
Q 1231 3634 1087 3207 
Q 944 2781 944 2328 
Q 944 1744 1114 1308 
Q 1284 872 1643 656 
Q 2003 441 2422 441 
Q 2931 441 3284 734 
Q 3638 1028 3763 1606 
z
" transform="scale(0.015625)"/>
     <path id="ArialMT-75" d="M 2597 0 
L 2597 488 
Q 2209 -75 1544 -75 
Q 1250 -75 995 37 
Q 741 150 617 320 
Q 494 491 444 738 
Q 409 903 409 1263 
L 409 3319 
L 972 3319 
L 972 1478 
Q 972 1038 1006 884 
Q 1059 663 1231 536 
Q 1403 409 1656 409 
Q 1909 409 2131 539 
Q 2353 669 2445 892 
Q 2538 1116 2538 1541 
L 2538 3319 
L 3100 3319 
L 3100 0 
L 2597 0 
z
" transform="scale(0.015625)"/>
     <path id="ArialMT-73" d="M 197 991 
L 753 1078 
Q 800 744 1014 566 
Q 1228 388 1613 388 
Q 2000 388 2187 545 
Q 2375 703 2375 916 
Q 2375 1106 2209 1216 
Q 2094 1291 1634 1406 
Q 1016 1563 777 1677 
Q 538 1791 414 1992 
Q 291 2194 291 2438 
Q 291 2659 392 2848 
Q 494 3038 669 3163 
Q 800 3259 1026 3326 
Q 1253 3394 1513 3394 
Q 1903 3394 2198 3281 
Q 2494 3169 2634 2976 
Q 2775 2784 2828 2463 
L 2278 2388 
Q 2241 2644 2061 2787 
Q 1881 2931 1553 2931 
Q 1166 2931 1000 2803 
Q 834 2675 834 2503 
Q 834 2394 903 2306 
Q 972 2216 1119 2156 
Q 1203 2125 1616 2013 
Q 2213 1853 2448 1751 
Q 2684 1650 2818 1456 
Q 2953 1263 2953 975 
Q 2953 694 2789 445 
Q 2625 197 2315 61 
Q 2006 -75 1616 -75 
Q 969 -75 630 194 
Q 291 463 197 991 
z
" transform="scale(0.015625)"/>
     <path id="ArialMT-72" d="M 416 0 
L 416 3319 
L 922 3319 
L 922 2816 
Q 1116 3169 1280 3281 
Q 1444 3394 1641 3394 
Q 1925 3394 2219 3213 
L 2025 2691 
Q 1819 2813 1613 2813 
Q 1428 2813 1281 2702 
Q 1134 2591 1072 2394 
Q 978 2094 978 1738 
L 978 0 
L 416 0 
z
" transform="scale(0.015625)"/>
     <path id="ArialMT-62" d="M 941 0 
L 419 0 
L 419 4581 
L 981 4581 
L 981 2947 
Q 1338 3394 1891 3394 
Q 2197 3394 2470 3270 
Q 2744 3147 2920 2923 
Q 3097 2700 3197 2384 
Q 3297 2069 3297 1709 
Q 3297 856 2875 390 
Q 2453 -75 1863 -75 
Q 1275 -75 941 416 
L 941 0 
z
M 934 1684 
Q 934 1088 1097 822 
Q 1363 388 1816 388 
Q 2184 388 2453 708 
Q 2722 1028 2722 1663 
Q 2722 2313 2464 2622 
Q 2206 2931 1841 2931 
Q 1472 2931 1203 2611 
Q 934 2291 934 1684 
z
" transform="scale(0.015625)"/>
    </defs>
    <use xlink:href="#ArialMT-56"/>
    <use xlink:href="#ArialMT-69" x="64.949219"/>
    <use xlink:href="#ArialMT-6f" x="87.166016"/>
    <use xlink:href="#ArialMT-6c" x="142.78125"/>
    <use xlink:href="#ArialMT-69" x="164.998047"/>
    <use xlink:href="#ArialMT-6e" x="187.214844"/>
    <use xlink:href="#ArialMT-20" x="242.830078"/>
    <use xlink:href="#ArialMT-50" x="270.613281"/>
    <use xlink:href="#ArialMT-6c" x="337.3125"/>
    <use xlink:href="#ArialMT-6f" x="359.529297"/>
    <use xlink:href="#ArialMT-74" x="415.144531"/>
    <use xlink:href="#ArialMT-20" x="442.927734"/>
    <use xlink:href="#ArialMT-6f" x="470.710938"/>
    <use xlink:href="#ArialMT-66" x="526.326172"/>
    <use xlink:href="#ArialMT-20" x="554.109375"/>
    <use xlink:href="#ArialMT-61" x="581.892578"/>
    <use xlink:href="#ArialMT-6c" x="637.507812"/>
    <use xlink:href="#ArialMT-6c" x="659.724609"/>
    <use xlink:href="#ArialMT-20" x="681.941406"/>
    <use xlink:href="#ArialMT-43" x="709.724609"/>
    <use xlink:href="#ArialMT-6f" x="781.941406"/>
    <use xlink:href="#ArialMT-6e" x="837.556641"/>
    <use xlink:href="#ArialMT-74" x="893.171875"/>
    <use xlink:href="#ArialMT-69" x="920.955078"/>
    <use xlink:href="#ArialMT-6e" x="943.171875"/>
    <use xlink:href="#ArialMT-75" x="998.787109"/>
    <use xlink:href="#ArialMT-6f" x="1054.402344"/>
    <use xlink:href="#ArialMT-75" x="1110.017578"/>
    <use xlink:href="#ArialMT-73" x="1165.632812"/>
    <use xlink:href="#ArialMT-20" x="1215.632812"/>
    <use xlink:href="#ArialMT-56" x="1243.416016"/>
    <use xlink:href="#ArialMT-61" x="1302.740234"/>
    <use xlink:href="#ArialMT-72" x="1358.355469"/>
    <use xlink:href="#ArialMT-69" x="1391.65625"/>
    <use xlink:href="#ArialMT-61" x="1413.873047"/>
    <use xlink:href="#ArialMT-62" x="1469.488281"/>
    <use xlink:href="#ArialMT-6c" x="1525.103516"/>
    <use xlink:href="#ArialMT-65" x="1547.320312"/>
    <use xlink:href="#ArialMT-73" x="1602.935547"/>
   </g>
  </g>
 </g>
 <defs>
  <clipPath id="pe48a0ee525">
   <rect x="34.36" y="47.52405" width="1030.52" height="208.1747"/>
  </clipPath>
 </defs>
</svg>
