<?xml version="1.0" encoding="utf-8" standalone="no"?>
<!DOCTYPE svg PUBLIC "-//W3C//DTD SVG 1.1//EN"
  "http://www.w3.org/Graphics/SVG/1.1/DTD/svg11.dtd">
<svg xmlns:xlink="http://www.w3.org/1999/xlink" width="1080pt" height="288pt" viewBox="0 0 1080 288" xmlns="http://www.w3.org/2000/svg" version="1.1">
 <metadata>
  <rdf:RDF xmlns:dc="http://purl.org/dc/elements/1.1/" xmlns:cc="http://creativecommons.org/ns#" xmlns:rdf="http://www.w3.org/1999/02/22-rdf-syntax-ns#">
   <cc:Work>
    <dc:type rdf:resource="http://purl.org/dc/dcmitype/StillImage"/>
    <dc:date>2023-05-07T12:44:46.673362</dc:date>
    <dc:format>image/svg+xml</dc:format>
    <dc:creator>
     <cc:Agent>
      <dc:title>Matplotlib v3.5.3, https://matplotlib.org/</dc:title>
     </cc:Agent>
    </dc:creator>
   </cc:Work>
  </rdf:RDF>
 </metadata>
 <defs>
  <style type="text/css">*{stroke-linejoin: round; stroke-linecap: butt}</style>
 </defs>
 <g id="figure_1">
  <g id="patch_1">
   <path d="M 0 288 
L 1080 288 
L 1080 0 
L 0 0 
z
" style="fill: #f0f0f0"/>
  </g>
  <g id="axes_1">
   <g id="patch_2">
    <path d="M 34.36 255.8 
L 1064.88 255.8 
L 1064.88 43.92 
L 34.36 43.92 
z
" style="fill: #f0f0f0"/>
   </g>
   <g id="matplotlib.axis_1">
    <g id="xtick_1">
     <g id="text_1">
      <!-- Min -->
      <g style="fill: #262626" transform="translate(89.905625 270.673594)scale(0.11 -0.11)">
       <defs>
        <path id="ArialMT-4d" d="M 475 0 
L 475 4581 
L 1388 4581 
L 2472 1338 
Q 2622 884 2691 659 
Q 2769 909 2934 1394 
L 4031 4581 
L 4847 4581 
L 4847 0 
L 4263 0 
L 4263 3834 
L 2931 0 
L 2384 0 
L 1059 3900 
L 1059 0 
L 475 0 
z
" transform="scale(0.015625)"/>
        <path id="ArialMT-69" d="M 425 3934 
L 425 4581 
L 988 4581 
L 988 3934 
L 425 3934 
z
M 425 0 
L 425 3319 
L 988 3319 
L 988 0 
L 425 0 
z
" transform="scale(0.015625)"/>
        <path id="ArialMT-6e" d="M 422 0 
L 422 3319 
L 928 3319 
L 928 2847 
Q 1294 3394 1984 3394 
Q 2284 3394 2536 3286 
Q 2788 3178 2913 3003 
Q 3038 2828 3088 2588 
Q 3119 2431 3119 2041 
L 3119 0 
L 2556 0 
L 2556 2019 
Q 2556 2363 2490 2533 
Q 2425 2703 2258 2804 
Q 2091 2906 1866 2906 
Q 1506 2906 1245 2678 
Q 984 2450 984 1813 
L 984 0 
L 422 0 
z
" transform="scale(0.015625)"/>
       </defs>
       <use xlink:href="#ArialMT-4d"/>
       <use xlink:href="#ArialMT-69" x="83.300781"/>
       <use xlink:href="#ArialMT-6e" x="105.517578"/>
      </g>
     </g>
    </g>
    <g id="xtick_2">
     <g id="text_2">
      <!-- Gls -->
      <g style="fill: #262626" transform="translate(219.3325 270.673594)scale(0.11 -0.11)">
       <defs>
        <path id="ArialMT-47" d="M 2638 1797 
L 2638 2334 
L 4578 2338 
L 4578 638 
Q 4131 281 3656 101 
Q 3181 -78 2681 -78 
Q 2006 -78 1454 211 
Q 903 500 622 1047 
Q 341 1594 341 2269 
Q 341 2938 620 3517 
Q 900 4097 1425 4378 
Q 1950 4659 2634 4659 
Q 3131 4659 3532 4498 
Q 3934 4338 4162 4050 
Q 4391 3763 4509 3300 
L 3963 3150 
Q 3859 3500 3706 3700 
Q 3553 3900 3268 4020 
Q 2984 4141 2638 4141 
Q 2222 4141 1919 4014 
Q 1616 3888 1430 3681 
Q 1244 3475 1141 3228 
Q 966 2803 966 2306 
Q 966 1694 1177 1281 
Q 1388 869 1791 669 
Q 2194 469 2647 469 
Q 3041 469 3416 620 
Q 3791 772 3984 944 
L 3984 1797 
L 2638 1797 
z
" transform="scale(0.015625)"/>
        <path id="ArialMT-6c" d="M 409 0 
L 409 4581 
L 972 4581 
L 972 0 
L 409 0 
z
" transform="scale(0.015625)"/>
        <path id="ArialMT-73" d="M 197 991 
L 753 1078 
Q 800 744 1014 566 
Q 1228 388 1613 388 
Q 2000 388 2187 545 
Q 2375 703 2375 916 
Q 2375 1106 2209 1216 
Q 2094 1291 1634 1406 
Q 1016 1563 777 1677 
Q 538 1791 414 1992 
Q 291 2194 291 2438 
Q 291 2659 392 2848 
Q 494 3038 669 3163 
Q 800 3259 1026 3326 
Q 1253 3394 1513 3394 
Q 1903 3394 2198 3281 
Q 2494 3169 2634 2976 
Q 2775 2784 2828 2463 
L 2278 2388 
Q 2241 2644 2061 2787 
Q 1881 2931 1553 2931 
Q 1166 2931 1000 2803 
Q 834 2675 834 2503 
Q 834 2394 903 2306 
Q 972 2216 1119 2156 
Q 1203 2125 1616 2013 
Q 2213 1853 2448 1751 
Q 2684 1650 2818 1456 
Q 2953 1263 2953 975 
Q 2953 694 2789 445 
Q 2625 197 2315 61 
Q 2006 -75 1616 -75 
Q 969 -75 630 194 
Q 291 463 197 991 
z
" transform="scale(0.015625)"/>
       </defs>
       <use xlink:href="#ArialMT-47"/>
       <use xlink:href="#ArialMT-6c" x="77.783203"/>
       <use xlink:href="#ArialMT-73" x="100"/>
      </g>
     </g>
    </g>
    <g id="xtick_3">
     <g id="text_3">
      <!-- GlsxMin -->
      <g style="fill: #262626" transform="translate(336.535625 270.673594)scale(0.11 -0.11)">
       <defs>
        <path id="ArialMT-78" d="M 47 0 
L 1259 1725 
L 138 3319 
L 841 3319 
L 1350 2541 
Q 1494 2319 1581 2169 
Q 1719 2375 1834 2534 
L 2394 3319 
L 3066 3319 
L 1919 1756 
L 3153 0 
L 2463 0 
L 1781 1031 
L 1600 1309 
L 728 0 
L 47 0 
z
" transform="scale(0.015625)"/>
       </defs>
       <use xlink:href="#ArialMT-47"/>
       <use xlink:href="#ArialMT-6c" x="77.783203"/>
       <use xlink:href="#ArialMT-73" x="100"/>
       <use xlink:href="#ArialMT-78" x="150"/>
       <use xlink:href="#ArialMT-4d" x="200"/>
       <use xlink:href="#ArialMT-69" x="283.300781"/>
       <use xlink:href="#ArialMT-6e" x="305.517578"/>
      </g>
     </g>
    </g>
    <g id="xtick_4">
     <g id="text_4">
      <!-- AstxMin -->
      <g style="fill: #262626" transform="translate(465.653984 270.673594)scale(0.11 -0.11)">
       <defs>
        <path id="ArialMT-41" d="M -9 0 
L 1750 4581 
L 2403 4581 
L 4278 0 
L 3588 0 
L 3053 1388 
L 1138 1388 
L 634 0 
L -9 0 
z
M 1313 1881 
L 2866 1881 
L 2388 3150 
Q 2169 3728 2063 4100 
Q 1975 3659 1816 3225 
L 1313 1881 
z
" transform="scale(0.015625)"/>
        <path id="ArialMT-74" d="M 1650 503 
L 1731 6 
Q 1494 -44 1306 -44 
Q 1000 -44 831 53 
Q 663 150 594 308 
Q 525 466 525 972 
L 525 2881 
L 113 2881 
L 113 3319 
L 525 3319 
L 525 4141 
L 1084 4478 
L 1084 3319 
L 1650 3319 
L 1650 2881 
L 1084 2881 
L 1084 941 
Q 1084 700 1114 631 
Q 1144 563 1211 522 
Q 1278 481 1403 481 
Q 1497 481 1650 503 
z
" transform="scale(0.015625)"/>
       </defs>
       <use xlink:href="#ArialMT-41"/>
       <use xlink:href="#ArialMT-73" x="66.699219"/>
       <use xlink:href="#ArialMT-74" x="116.699219"/>
       <use xlink:href="#ArialMT-78" x="144.482422"/>
       <use xlink:href="#ArialMT-4d" x="194.482422"/>
       <use xlink:href="#ArialMT-69" x="277.783203"/>
       <use xlink:href="#ArialMT-6e" x="300"/>
      </g>
     </g>
    </g>
    <g id="xtick_5">
     <g id="text_5">
      <!-- G+AxMin -->
      <g style="fill: #262626" transform="translate(591.256641 270.673594)scale(0.11 -0.11)">
       <defs>
        <path id="ArialMT-2b" d="M 1603 741 
L 1603 1997 
L 356 1997 
L 356 2522 
L 1603 2522 
L 1603 3769 
L 2134 3769 
L 2134 2522 
L 3381 2522 
L 3381 1997 
L 2134 1997 
L 2134 741 
L 1603 741 
z
" transform="scale(0.015625)"/>
       </defs>
       <use xlink:href="#ArialMT-47"/>
       <use xlink:href="#ArialMT-2b" x="77.783203"/>
       <use xlink:href="#ArialMT-41" x="136.181641"/>
       <use xlink:href="#ArialMT-78" x="202.880859"/>
       <use xlink:href="#ArialMT-4d" x="252.880859"/>
       <use xlink:href="#ArialMT-69" x="336.181641"/>
       <use xlink:href="#ArialMT-6e" x="358.398438"/>
      </g>
     </g>
    </g>
    <g id="xtick_6">
     <g id="text_6">
      <!-- Ast -->
      <g style="fill: #262626" transform="translate(734.895859 270.673594)scale(0.11 -0.11)">
       <use xlink:href="#ArialMT-41"/>
       <use xlink:href="#ArialMT-73" x="66.699219"/>
       <use xlink:href="#ArialMT-74" x="116.699219"/>
      </g>
     </g>
    </g>
    <g id="xtick_7">
     <g id="text_7">
      <!-- PK -->
      <g style="fill: #262626" transform="translate(864.320156 270.673594)scale(0.11 -0.11)">
       <defs>
        <path id="ArialMT-50" d="M 494 0 
L 494 4581 
L 2222 4581 
Q 2678 4581 2919 4538 
Q 3256 4481 3484 4323 
Q 3713 4166 3852 3881 
Q 3991 3597 3991 3256 
Q 3991 2672 3619 2267 
Q 3247 1863 2275 1863 
L 1100 1863 
L 1100 0 
L 494 0 
z
M 1100 2403 
L 2284 2403 
Q 2872 2403 3119 2622 
Q 3366 2841 3366 3238 
Q 3366 3525 3220 3729 
Q 3075 3934 2838 4000 
Q 2684 4041 2272 4041 
L 1100 4041 
L 1100 2403 
z
" transform="scale(0.015625)"/>
        <path id="ArialMT-4b" d="M 469 0 
L 469 4581 
L 1075 4581 
L 1075 2309 
L 3350 4581 
L 4172 4581 
L 2250 2725 
L 4256 0 
L 3456 0 
L 1825 2319 
L 1075 1588 
L 1075 0 
L 469 0 
z
" transform="scale(0.015625)"/>
       </defs>
       <use xlink:href="#ArialMT-50"/>
       <use xlink:href="#ArialMT-4b" x="66.699219"/>
      </g>
     </g>
    </g>
    <g id="xtick_8">
     <g id="text_8">
      <!-- CrdY -->
      <g style="fill: #262626" transform="translate(987.941953 270.673594)scale(0.11 -0.11)">
       <defs>
        <path id="ArialMT-43" d="M 3763 1606 
L 4369 1453 
Q 4178 706 3683 314 
Q 3188 -78 2472 -78 
Q 1731 -78 1267 223 
Q 803 525 561 1097 
Q 319 1669 319 2325 
Q 319 3041 592 3573 
Q 866 4106 1370 4382 
Q 1875 4659 2481 4659 
Q 3169 4659 3637 4309 
Q 4106 3959 4291 3325 
L 3694 3184 
Q 3534 3684 3231 3912 
Q 2928 4141 2469 4141 
Q 1941 4141 1586 3887 
Q 1231 3634 1087 3207 
Q 944 2781 944 2328 
Q 944 1744 1114 1308 
Q 1284 872 1643 656 
Q 2003 441 2422 441 
Q 2931 441 3284 734 
Q 3638 1028 3763 1606 
z
" transform="scale(0.015625)"/>
        <path id="ArialMT-72" d="M 416 0 
L 416 3319 
L 922 3319 
L 922 2816 
Q 1116 3169 1280 3281 
Q 1444 3394 1641 3394 
Q 1925 3394 2219 3213 
L 2025 2691 
Q 1819 2813 1613 2813 
Q 1428 2813 1281 2702 
Q 1134 2591 1072 2394 
Q 978 2094 978 1738 
L 978 0 
L 416 0 
z
" transform="scale(0.015625)"/>
        <path id="ArialMT-64" d="M 2575 0 
L 2575 419 
Q 2259 -75 1647 -75 
Q 1250 -75 917 144 
Q 584 363 401 755 
Q 219 1147 219 1656 
Q 219 2153 384 2558 
Q 550 2963 881 3178 
Q 1213 3394 1622 3394 
Q 1922 3394 2156 3267 
Q 2391 3141 2538 2938 
L 2538 4581 
L 3097 4581 
L 3097 0 
L 2575 0 
z
M 797 1656 
Q 797 1019 1065 703 
Q 1334 388 1700 388 
Q 2069 388 2326 689 
Q 2584 991 2584 1609 
Q 2584 2291 2321 2609 
Q 2059 2928 1675 2928 
Q 1300 2928 1048 2622 
Q 797 2316 797 1656 
z
" transform="scale(0.015625)"/>
        <path id="ArialMT-59" d="M 1784 0 
L 1784 1941 
L 19 4581 
L 756 4581 
L 1659 3200 
Q 1909 2813 2125 2425 
Q 2331 2784 2625 3234 
L 3513 4581 
L 4219 4581 
L 2391 1941 
L 2391 0 
L 1784 0 
z
" transform="scale(0.015625)"/>
       </defs>
       <use xlink:href="#ArialMT-43"/>
       <use xlink:href="#ArialMT-72" x="72.216797"/>
       <use xlink:href="#ArialMT-64" x="105.517578"/>
       <use xlink:href="#ArialMT-59" x="161.132812"/>
      </g>
     </g>
    </g>
   </g>
   <g id="matplotlib.axis_2">
    <g id="ytick_1">
     <g id="line2d_1">
      <path d="M 34.36 231.26145 
L 1064.88 231.26145 
" clip-path="url(#pb0d55523ec)" style="fill: none; stroke: #cbcbcb"/>
     </g>
     <g id="text_9">
      <!-- 0 -->
      <g style="fill: #262626" transform="translate(21.242969 235.198247)scale(0.11 -0.11)">
       <defs>
        <path id="ArialMT-30" d="M 266 2259 
Q 266 3072 433 3567 
Q 600 4063 929 4331 
Q 1259 4600 1759 4600 
Q 2128 4600 2406 4451 
Q 2684 4303 2865 4023 
Q 3047 3744 3150 3342 
Q 3253 2941 3253 2259 
Q 3253 1453 3087 958 
Q 2922 463 2592 192 
Q 2263 -78 1759 -78 
Q 1097 -78 719 397 
Q 266 969 266 2259 
z
M 844 2259 
Q 844 1131 1108 757 
Q 1372 384 1759 384 
Q 2147 384 2411 759 
Q 2675 1134 2675 2259 
Q 2675 3391 2411 3762 
Q 2147 4134 1753 4134 
Q 1366 4134 1134 3806 
Q 844 3388 844 2259 
z
" transform="scale(0.015625)"/>
       </defs>
       <use xlink:href="#ArialMT-30"/>
      </g>
     </g>
    </g>
    <g id="ytick_2">
     <g id="line2d_2">
      <path d="M 34.36 189.216921 
L 1064.88 189.216921 
" clip-path="url(#pb0d55523ec)" style="fill: none; stroke: #cbcbcb"/>
     </g>
     <g id="text_10">
      <!-- 5 -->
      <g style="fill: #262626" transform="translate(21.242969 193.153718)scale(0.11 -0.11)">
       <defs>
        <path id="ArialMT-35" d="M 266 1200 
L 856 1250 
Q 922 819 1161 601 
Q 1400 384 1738 384 
Q 2144 384 2425 690 
Q 2706 997 2706 1503 
Q 2706 1984 2436 2262 
Q 2166 2541 1728 2541 
Q 1456 2541 1237 2417 
Q 1019 2294 894 2097 
L 366 2166 
L 809 4519 
L 3088 4519 
L 3088 3981 
L 1259 3981 
L 1013 2750 
Q 1425 3038 1878 3038 
Q 2478 3038 2890 2622 
Q 3303 2206 3303 1553 
Q 3303 931 2941 478 
Q 2500 -78 1738 -78 
Q 1113 -78 717 272 
Q 322 622 266 1200 
z
" transform="scale(0.015625)"/>
       </defs>
       <use xlink:href="#ArialMT-35"/>
      </g>
     </g>
    </g>
    <g id="ytick_3">
     <g id="line2d_3">
      <path d="M 34.36 147.172392 
L 1064.88 147.172392 
" clip-path="url(#pb0d55523ec)" style="fill: none; stroke: #cbcbcb"/>
     </g>
     <g id="text_11">
      <!-- 10 -->
      <g style="fill: #262626" transform="translate(15.125938 151.109189)scale(0.11 -0.11)">
       <defs>
        <path id="ArialMT-31" d="M 2384 0 
L 1822 0 
L 1822 3584 
Q 1619 3391 1289 3197 
Q 959 3003 697 2906 
L 697 3450 
Q 1169 3672 1522 3987 
Q 1875 4303 2022 4600 
L 2384 4600 
L 2384 0 
z
" transform="scale(0.015625)"/>
       </defs>
       <use xlink:href="#ArialMT-31"/>
       <use xlink:href="#ArialMT-30" x="55.615234"/>
      </g>
     </g>
    </g>
    <g id="ytick_4">
     <g id="line2d_4">
      <path d="M 34.36 105.127864 
L 1064.88 105.127864 
" clip-path="url(#pb0d55523ec)" style="fill: none; stroke: #cbcbcb"/>
     </g>
     <g id="text_12">
      <!-- 15 -->
      <g style="fill: #262626" transform="translate(15.125938 109.064661)scale(0.11 -0.11)">
       <use xlink:href="#ArialMT-31"/>
       <use xlink:href="#ArialMT-35" x="55.615234"/>
      </g>
     </g>
    </g>
    <g id="ytick_5">
     <g id="line2d_5">
      <path d="M 34.36 63.083335 
L 1064.88 63.083335 
" clip-path="url(#pb0d55523ec)" style="fill: none; stroke: #cbcbcb"/>
     </g>
     <g id="text_13">
      <!-- 20 -->
      <g style="fill: #262626" transform="translate(15.125938 67.020132)scale(0.11 -0.11)">
       <defs>
        <path id="ArialMT-32" d="M 3222 541 
L 3222 0 
L 194 0 
Q 188 203 259 391 
Q 375 700 629 1000 
Q 884 1300 1366 1694 
Q 2113 2306 2375 2664 
Q 2638 3022 2638 3341 
Q 2638 3675 2398 3904 
Q 2159 4134 1775 4134 
Q 1369 4134 1125 3890 
Q 881 3647 878 3216 
L 300 3275 
Q 359 3922 746 4261 
Q 1134 4600 1788 4600 
Q 2447 4600 2831 4234 
Q 3216 3869 3216 3328 
Q 3216 3053 3103 2787 
Q 2991 2522 2730 2228 
Q 2469 1934 1863 1422 
Q 1356 997 1212 845 
Q 1069 694 975 541 
L 3222 541 
z
" transform="scale(0.015625)"/>
       </defs>
       <use xlink:href="#ArialMT-32"/>
       <use xlink:href="#ArialMT-30" x="55.615234"/>
      </g>
     </g>
    </g>
   </g>
   <g id="PolyCollection_1">
    <defs>
     <path id="m12568923da" d="M 101.873251 -41.830909 
L 95.661749 -41.830909 
L 94.417985 -42.212737 
L 92.811554 -42.594565 
L 90.792164 -42.976392 
L 88.322836 -43.35822 
L 85.387587 -43.740048 
L 81.998773 -44.121876 
L 78.202939 -44.503703 
L 74.083941 -44.885531 
L 69.762318 -45.267359 
L 65.390269 -45.649187 
L 61.142223 -46.031014 
L 57.201672 -46.412842 
L 53.745644 -46.79467 
L 50.928657 -47.176497 
L 48.868241 -47.558325 
L 47.633976 -47.940153 
L 47.2415 -48.321981 
L 47.652239 -48.703808 
L 48.778767 -49.085636 
L 50.494899 -49.467464 
L 52.64902 -49.849292 
L 55.078833 -50.231119 
L 57.625666 -50.612947 
L 60.146779 -50.994775 
L 62.524515 -51.376603 
L 64.671755 -51.75843 
L 66.533605 -52.140258 
L 68.085771 -52.522086 
L 69.33034 -52.903914 
L 70.289894 -53.285741 
L 71.000891 -53.667569 
L 71.507168 -54.049397 
L 71.854251 -54.431225 
L 72.084915 -54.813052 
L 72.236227 -55.19488 
L 72.338048 -55.576708 
L 72.412792 -55.958536 
L 72.476116 -56.340363 
L 72.538159 -56.722191 
L 72.60495 -57.104019 
L 72.679693 -57.485847 
L 72.763758 -57.867674 
L 72.857304 -58.249502 
L 72.959587 -58.63133 
L 73.069062 -59.013158 
L 73.183398 -59.394985 
L 73.299525 -59.776813 
L 73.413757 -60.158641 
L 73.522 -60.540468 
L 73.620018 -60.922296 
L 73.703708 -61.304124 
L 73.769346 -61.685952 
L 73.813803 -62.067779 
L 73.834751 -62.449607 
L 73.830898 -62.831435 
L 73.80229 -63.213263 
L 73.750701 -63.59509 
L 73.680064 -63.976918 
L 73.596898 -64.358746 
L 73.510608 -64.740574 
L 73.433537 -65.122401 
L 73.38069 -65.504229 
L 73.369048 -65.886057 
L 73.416498 -66.267885 
L 73.540458 -66.649712 
L 73.756349 -67.03154 
L 74.076124 -67.413368 
L 74.507077 -67.795196 
L 75.051114 -68.177023 
L 75.704638 -68.558851 
L 76.459071 -68.940679 
L 77.301949 -69.322507 
L 78.218414 -69.704334 
L 79.192878 -70.086162 
L 80.210568 -70.46799 
L 81.25872 -70.849818 
L 82.327248 -71.231645 
L 83.40881 -71.613473 
L 84.49832 -71.995301 
L 85.592047 -72.377129 
L 86.686518 -72.758956 
L 87.77746 -73.140784 
L 88.858996 -73.522612 
L 89.923242 -73.904439 
L 90.960368 -74.286267 
L 91.959102 -74.668095 
L 92.907562 -75.049923 
L 93.794268 -75.43175 
L 94.609169 -75.813578 
L 95.344504 -76.195406 
L 95.995418 -76.577234 
L 96.560236 -76.959061 
L 97.040412 -77.340889 
L 97.440184 -77.722717 
L 97.76602 -78.104545 
L 98.025944 -78.486372 
L 98.228831 -78.8682 
L 98.383767 -79.250028 
L 98.499501 -79.631856 
L 99.035499 -79.631856 
L 99.035499 -79.631856 
L 99.151233 -79.250028 
L 99.306169 -78.8682 
L 99.509056 -78.486372 
L 99.76898 -78.104545 
L 100.094816 -77.722717 
L 100.494588 -77.340889 
L 100.974764 -76.959061 
L 101.539582 -76.577234 
L 102.190496 -76.195406 
L 102.925831 -75.813578 
L 103.740732 -75.43175 
L 104.627438 -75.049923 
L 105.575898 -74.668095 
L 106.574632 -74.286267 
L 107.611758 -73.904439 
L 108.676004 -73.522612 
L 109.75754 -73.140784 
L 110.848482 -72.758956 
L 111.942953 -72.377129 
L 113.03668 -71.995301 
L 114.12619 -71.613473 
L 115.207752 -71.231645 
L 116.27628 -70.849818 
L 117.324432 -70.46799 
L 118.342122 -70.086162 
L 119.316586 -69.704334 
L 120.233051 -69.322507 
L 121.075929 -68.940679 
L 121.830362 -68.558851 
L 122.483886 -68.177023 
L 123.027923 -67.795196 
L 123.458876 -67.413368 
L 123.778651 -67.03154 
L 123.994542 -66.649712 
L 124.118502 -66.267885 
L 124.165952 -65.886057 
L 124.15431 -65.504229 
L 124.101463 -65.122401 
L 124.024392 -64.740574 
L 123.938102 -64.358746 
L 123.854936 -63.976918 
L 123.784299 -63.59509 
L 123.73271 -63.213263 
L 123.704102 -62.831435 
L 123.700249 -62.449607 
L 123.721197 -62.067779 
L 123.765654 -61.685952 
L 123.831292 -61.304124 
L 123.914982 -60.922296 
L 124.013 -60.540468 
L 124.121243 -60.158641 
L 124.235475 -59.776813 
L 124.351602 -59.394985 
L 124.465938 -59.013158 
L 124.575413 -58.63133 
L 124.677696 -58.249502 
L 124.771242 -57.867674 
L 124.855307 -57.485847 
L 124.93005 -57.104019 
L 124.996841 -56.722191 
L 125.058884 -56.340363 
L 125.122208 -55.958536 
L 125.196952 -55.576708 
L 125.298773 -55.19488 
L 125.450085 -54.813052 
L 125.680749 -54.431225 
L 126.027832 -54.049397 
L 126.534109 -53.667569 
L 127.245106 -53.285741 
L 128.20466 -52.903914 
L 129.449229 -52.522086 
L 131.001395 -52.140258 
L 132.863245 -51.75843 
L 135.010485 -51.376603 
L 137.388221 -50.994775 
L 139.909334 -50.612947 
L 142.456167 -50.231119 
L 144.88598 -49.849292 
L 147.040101 -49.467464 
L 148.756233 -49.085636 
L 149.882761 -48.703808 
L 150.2935 -48.321981 
L 149.901024 -47.940153 
L 148.666759 -47.558325 
L 146.606343 -47.176497 
L 143.789356 -46.79467 
L 140.333328 -46.412842 
L 136.392777 -46.031014 
L 132.144731 -45.649187 
L 127.772682 -45.267359 
L 123.451059 -44.885531 
L 119.332061 -44.503703 
L 115.536227 -44.121876 
L 112.147413 -43.740048 
L 109.212164 -43.35822 
L 106.742836 -42.976392 
L 104.723446 -42.594565 
L 103.117015 -42.212737 
L 101.873251 -41.830909 
z
" style="stroke: #3e3e3e; stroke-width: 3"/>
    </defs>
    <g clip-path="url(#pb0d55523ec)">
     <use xlink:href="#m12568923da" x="0" y="288" style="fill: #cb3335; stroke: #3e3e3e; stroke-width: 3"/>
    </g>
   </g>
   <g id="PolyCollection_2">
    <defs>
     <path id="m01ab8c65b0" d="M 233.07697 -47.534549 
L 222.08803 -47.534549 
L 218.158202 -48.231488 
L 212.615961 -48.928426 
L 205.556375 -49.625365 
L 197.506412 -50.322303 
L 189.417383 -51.019241 
L 182.479395 -51.71618 
L 177.797736 -52.413118 
L 176.0565 -53.110056 
L 177.31892 -53.806995 
L 181.052062 -54.503933 
L 186.351126 -55.200872 
L 192.246631 -55.89781 
L 197.959361 -56.594748 
L 203.02158 -57.291687 
L 207.262843 -57.988625 
L 210.714786 -58.685563 
L 213.500956 -59.382502 
L 215.756098 -60.07944 
L 217.588373 -60.776379 
L 219.075398 -61.473317 
L 220.276226 -62.170255 
L 221.243568 -62.867194 
L 222.028193 -63.564132 
L 222.675679 -64.26107 
L 223.220731 -64.958009 
L 223.6847 -65.654947 
L 224.078441 -66.351886 
L 224.408508 -67.048824 
L 224.682652 -67.745762 
L 224.911864 -68.442701 
L 225.108998 -69.139639 
L 225.286045 -69.836577 
L 225.45204 -70.533516 
L 225.612325 -71.230454 
L 225.768845 -71.927393 
L 225.921024 -72.624331 
L 226.06696 -73.321269 
L 226.204622 -74.018208 
L 226.332465 -74.715146 
L 226.449038 -75.412084 
L 226.551877 -76.109023 
L 226.636624 -76.805961 
L 226.697385 -77.5029 
L 226.728538 -78.199838 
L 226.727302 -78.896776 
L 226.69578 -79.593715 
L 226.641359 -80.290653 
L 226.575002 -80.987591 
L 226.507989 -81.68453 
L 226.448483 -82.381468 
L 226.399707 -83.078407 
L 226.360822 -83.775345 
L 226.3302 -84.472283 
L 226.309115 -85.169222 
L 226.303336 -85.86616 
L 226.321154 -86.563098 
L 226.36871 -87.260037 
L 226.445494 -87.956975 
L 226.543065 -88.653914 
L 226.648069 -89.350852 
L 226.747839 -90.04779 
L 226.835191 -90.744729 
L 226.909673 -91.441667 
L 226.974965 -92.138605 
L 227.03451 -92.835544 
L 227.088378 -93.532482 
L 227.133259 -94.229421 
L 227.165314 -94.926359 
L 227.183813 -95.623297 
L 227.19312 -96.320236 
L 227.201707 -97.017174 
L 227.218727 -97.714112 
L 227.250088 -98.411051 
L 227.296113 -99.107989 
L 227.351801 -99.804928 
L 227.409198 -100.501866 
L 227.460399 -101.198804 
L 227.499714 -101.895743 
L 227.524341 -102.592681 
L 227.533852 -103.28962 
L 227.529274 -103.986558 
L 227.512466 -104.683496 
L 227.485984 -105.380435 
L 227.453186 -106.077373 
L 227.418126 -106.774311 
L 227.385048 -107.47125 
L 227.357637 -108.168188 
L 227.338462 -108.865127 
L 227.328899 -109.562065 
L 227.329462 -110.259003 
L 227.34013 -110.955942 
L 227.36033 -111.65288 
L 227.388608 -112.349818 
L 227.422366 -113.046757 
L 227.458074 -113.743695 
L 227.492002 -114.440634 
L 227.521135 -115.137572 
L 227.543824 -115.83451 
L 227.559893 -116.531449 
L 227.605107 -116.531449 
L 227.605107 -116.531449 
L 227.621176 -115.83451 
L 227.643865 -115.137572 
L 227.672998 -114.440634 
L 227.706926 -113.743695 
L 227.742634 -113.046757 
L 227.776392 -112.349818 
L 227.80467 -111.65288 
L 227.82487 -110.955942 
L 227.835538 -110.259003 
L 227.836101 -109.562065 
L 227.826538 -108.865127 
L 227.807363 -108.168188 
L 227.779952 -107.47125 
L 227.746874 -106.774311 
L 227.711814 -106.077373 
L 227.679016 -105.380435 
L 227.652534 -104.683496 
L 227.635726 -103.986558 
L 227.631148 -103.28962 
L 227.640659 -102.592681 
L 227.665286 -101.895743 
L 227.704601 -101.198804 
L 227.755802 -100.501866 
L 227.813199 -99.804928 
L 227.868887 -99.107989 
L 227.914912 -98.411051 
L 227.946273 -97.714112 
L 227.963293 -97.017174 
L 227.97188 -96.320236 
L 227.981187 -95.623297 
L 227.999686 -94.926359 
L 228.031741 -94.229421 
L 228.076622 -93.532482 
L 228.13049 -92.835544 
L 228.190035 -92.138605 
L 228.255327 -91.441667 
L 228.329809 -90.744729 
L 228.417161 -90.04779 
L 228.516931 -89.350852 
L 228.621935 -88.653914 
L 228.719506 -87.956975 
L 228.79629 -87.260037 
L 228.843846 -86.563098 
L 228.861664 -85.86616 
L 228.855885 -85.169222 
L 228.8348 -84.472283 
L 228.804178 -83.775345 
L 228.765293 -83.078407 
L 228.716517 -82.381468 
L 228.657011 -81.68453 
L 228.589998 -80.987591 
L 228.523641 -80.290653 
L 228.46922 -79.593715 
L 228.437698 -78.896776 
L 228.436462 -78.199838 
L 228.467615 -77.5029 
L 228.528376 -76.805961 
L 228.613123 -76.109023 
L 228.715962 -75.412084 
L 228.832535 -74.715146 
L 228.960378 -74.018208 
L 229.09804 -73.321269 
L 229.243976 -72.624331 
L 229.396155 -71.927393 
L 229.552675 -71.230454 
L 229.71296 -70.533516 
L 229.878955 -69.836577 
L 230.056002 -69.139639 
L 230.253136 -68.442701 
L 230.482348 -67.745762 
L 230.756492 -67.048824 
L 231.086559 -66.351886 
L 231.4803 -65.654947 
L 231.944269 -64.958009 
L 232.489321 -64.26107 
L 233.136807 -63.564132 
L 233.921432 -62.867194 
L 234.888774 -62.170255 
L 236.089602 -61.473317 
L 237.576627 -60.776379 
L 239.408902 -60.07944 
L 241.664044 -59.382502 
L 244.450214 -58.685563 
L 247.902157 -57.988625 
L 252.14342 -57.291687 
L 257.205639 -56.594748 
L 262.918369 -55.89781 
L 268.813874 -55.200872 
L 274.112938 -54.503933 
L 277.84608 -53.806995 
L 279.1085 -53.110056 
L 277.367264 -52.413118 
L 272.685605 -51.71618 
L 265.747617 -51.019241 
L 257.658588 -50.322303 
L 249.608625 -49.625365 
L 242.549039 -48.928426 
L 237.006798 -48.231488 
L 233.07697 -47.534549 
z
" style="stroke: #3e3e3e; stroke-width: 3"/>
    </defs>
    <g clip-path="url(#pb0d55523ec)">
     <use xlink:href="#m01ab8c65b0" x="0" y="288" style="fill: #477ca8; stroke: #3e3e3e; stroke-width: 3"/>
    </g>
   </g>
   <g id="PolyCollection_3">
    <defs>
     <path id="m98ec91c1c9" d="M 361.738099 -50.31544 
L 351.056901 -50.31544 
L 336.931848 -52.175376 
L 315.229015 -54.035312 
L 304.8715 -55.895248 
L 316.544647 -57.755184 
L 335.379559 -59.61512 
L 347.342314 -61.475056 
L 352.648612 -63.334992 
L 354.886094 -65.194927 
L 355.757277 -67.054863 
L 356.044785 -68.914799 
L 356.172818 -70.774735 
L 356.279501 -72.634671 
L 356.355917 -74.494607 
L 356.388552 -76.354543 
L 356.396373 -78.214478 
L 356.397418 -80.074414 
L 356.397465 -81.93435 
L 356.396981 -83.794286 
L 356.392719 -85.654222 
L 356.372617 -87.514158 
L 356.324363 -89.374094 
L 356.276089 -91.234029 
L 356.283669 -93.093965 
L 356.337223 -94.953901 
L 356.379473 -96.813837 
L 356.394455 -98.673773 
L 356.39721 -100.533709 
L 356.397484 -102.393645 
L 356.3975 -104.253581 
L 356.3975 -106.113516 
L 356.3975 -107.973452 
L 356.3975 -109.833388 
L 356.3975 -111.693324 
L 356.3975 -113.55326 
L 356.3975 -115.413196 
L 356.3975 -117.273132 
L 356.3975 -119.133067 
L 356.3975 -120.993003 
L 356.3975 -122.852939 
L 356.3975 -124.712875 
L 356.3975 -126.572811 
L 356.3975 -128.432747 
L 356.3975 -130.292683 
L 356.3975 -132.152618 
L 356.3975 -134.012554 
L 356.3975 -135.87249 
L 356.3975 -137.732426 
L 356.3975 -139.592362 
L 356.3975 -141.452298 
L 356.3975 -143.312234 
L 356.3975 -145.172169 
L 356.3975 -147.032105 
L 356.3975 -148.892041 
L 356.3975 -150.751977 
L 356.3975 -152.611913 
L 356.3975 -154.471849 
L 356.3975 -156.331785 
L 356.3975 -158.191721 
L 356.3975 -160.051656 
L 356.3975 -161.911592 
L 356.3975 -163.771528 
L 356.3975 -165.631464 
L 356.3975 -167.4914 
L 356.3975 -169.351336 
L 356.3975 -171.211272 
L 356.3975 -173.071207 
L 356.3975 -174.931143 
L 356.3975 -176.791079 
L 356.3975 -178.651015 
L 356.3975 -180.510951 
L 356.3975 -182.370887 
L 356.3975 -184.230823 
L 356.3975 -186.090758 
L 356.3975 -187.950694 
L 356.3975 -189.81063 
L 356.3975 -191.670566 
L 356.3975 -193.530502 
L 356.3975 -195.390438 
L 356.3975 -197.250374 
L 356.3975 -199.11031 
L 356.3975 -200.970245 
L 356.3975 -202.830181 
L 356.3975 -204.690117 
L 356.3975 -206.550053 
L 356.3975 -208.409989 
L 356.3975 -210.269925 
L 356.3975 -212.129861 
L 356.3975 -213.989796 
L 356.3975 -215.849732 
L 356.397499 -217.709668 
L 356.397465 -219.569604 
L 356.396936 -221.42954 
L 356.392403 -223.289476 
L 356.371473 -225.149412 
L 356.322437 -227.009347 
L 356.275233 -228.869283 
L 356.285019 -230.729219 
L 356.339057 -232.589155 
L 356.38035 -234.449091 
L 356.41465 -234.449091 
L 356.41465 -234.449091 
L 356.455943 -232.589155 
L 356.509981 -230.729219 
L 356.519767 -228.869283 
L 356.472563 -227.009347 
L 356.423527 -225.149412 
L 356.402597 -223.289476 
L 356.398064 -221.42954 
L 356.397535 -219.569604 
L 356.397501 -217.709668 
L 356.3975 -215.849732 
L 356.3975 -213.989796 
L 356.3975 -212.129861 
L 356.3975 -210.269925 
L 356.3975 -208.409989 
L 356.3975 -206.550053 
L 356.3975 -204.690117 
L 356.3975 -202.830181 
L 356.3975 -200.970245 
L 356.3975 -199.11031 
L 356.3975 -197.250374 
L 356.3975 -195.390438 
L 356.3975 -193.530502 
L 356.3975 -191.670566 
L 356.3975 -189.81063 
L 356.3975 -187.950694 
L 356.3975 -186.090758 
L 356.3975 -184.230823 
L 356.3975 -182.370887 
L 356.3975 -180.510951 
L 356.3975 -178.651015 
L 356.3975 -176.791079 
L 356.3975 -174.931143 
L 356.3975 -173.071207 
L 356.3975 -171.211272 
L 356.3975 -169.351336 
L 356.3975 -167.4914 
L 356.3975 -165.631464 
L 356.3975 -163.771528 
L 356.3975 -161.911592 
L 356.3975 -160.051656 
L 356.3975 -158.191721 
L 356.3975 -156.331785 
L 356.3975 -154.471849 
L 356.3975 -152.611913 
L 356.3975 -150.751977 
L 356.3975 -148.892041 
L 356.3975 -147.032105 
L 356.3975 -145.172169 
L 356.3975 -143.312234 
L 356.3975 -141.452298 
L 356.3975 -139.592362 
L 356.3975 -137.732426 
L 356.3975 -135.87249 
L 356.3975 -134.012554 
L 356.3975 -132.152618 
L 356.3975 -130.292683 
L 356.3975 -128.432747 
L 356.3975 -126.572811 
L 356.3975 -124.712875 
L 356.3975 -122.852939 
L 356.3975 -120.993003 
L 356.3975 -119.133067 
L 356.3975 -117.273132 
L 356.3975 -115.413196 
L 356.3975 -113.55326 
L 356.3975 -111.693324 
L 356.3975 -109.833388 
L 356.3975 -107.973452 
L 356.3975 -106.113516 
L 356.3975 -104.253581 
L 356.397516 -102.393645 
L 356.39779 -100.533709 
L 356.400545 -98.673773 
L 356.415527 -96.813837 
L 356.457777 -94.953901 
L 356.511331 -93.093965 
L 356.518911 -91.234029 
L 356.470637 -89.374094 
L 356.422383 -87.514158 
L 356.402281 -85.654222 
L 356.398019 -83.794286 
L 356.397535 -81.93435 
L 356.397582 -80.074414 
L 356.398627 -78.214478 
L 356.406448 -76.354543 
L 356.439083 -74.494607 
L 356.515499 -72.634671 
L 356.622182 -70.774735 
L 356.750215 -68.914799 
L 357.037723 -67.054863 
L 357.908906 -65.194927 
L 360.146388 -63.334992 
L 365.452686 -61.475056 
L 377.415441 -59.61512 
L 396.250353 -57.755184 
L 407.9235 -55.895248 
L 397.565985 -54.035312 
L 375.863152 -52.175376 
L 361.738099 -50.31544 
z
" style="stroke: #3e3e3e; stroke-width: 3"/>
    </defs>
    <g clip-path="url(#pb0d55523ec)">
     <use xlink:href="#m98ec91c1c9" x="0" y="288" style="fill: #59a257; stroke: #3e3e3e; stroke-width: 3"/>
    </g>
   </g>
   <g id="PolyCollection_4">
    <defs>
     <path id="m61a5855b35" d="M 491.337448 -47.585055 
L 479.087552 -47.585055 
L 471.355221 -48.702625 
L 459.560991 -49.820195 
L 446.219751 -50.937766 
L 436.216763 -52.055336 
L 433.6865 -53.172906 
L 438.778869 -54.290477 
L 447.781733 -55.408047 
L 456.353682 -56.525617 
L 462.336843 -57.643187 
L 465.959927 -58.760758 
L 468.408293 -59.878328 
L 470.598571 -60.995898 
L 472.823015 -62.113468 
L 474.950741 -63.231039 
L 476.757538 -64.348609 
L 478.156587 -65.466179 
L 479.245276 -66.583749 
L 480.189431 -67.70132 
L 481.073086 -68.81889 
L 481.856778 -69.93646 
L 482.466449 -71.05403 
L 482.900556 -72.171601 
L 483.24144 -73.289171 
L 483.576845 -74.406741 
L 483.929023 -75.524312 
L 484.256723 -76.641882 
L 484.507096 -77.759452 
L 484.661219 -78.877022 
L 484.744107 -79.994593 
L 484.801268 -81.112163 
L 484.862185 -82.229733 
L 484.9207 -83.347303 
L 484.949128 -84.464874 
L 484.930646 -85.582444 
L 484.877823 -86.700014 
L 484.82203 -87.817584 
L 484.788172 -88.935155 
L 484.78089 -90.052725 
L 484.792398 -91.170295 
L 484.818276 -92.287866 
L 484.862367 -93.405436 
L 484.927948 -94.523006 
L 485.007897 -95.640576 
L 485.085732 -96.758147 
L 485.146081 -97.875717 
L 485.18345 -98.993287 
L 485.201986 -100.110857 
L 485.209369 -101.228428 
L 485.211736 -102.345998 
L 485.212348 -103.463568 
L 485.212475 -104.581138 
L 485.212497 -105.698709 
L 485.2125 -106.816279 
L 485.2125 -107.933849 
L 485.2125 -109.05142 
L 485.2125 -110.16899 
L 485.2125 -111.28656 
L 485.2125 -112.40413 
L 485.2125 -113.521701 
L 485.2125 -114.639271 
L 485.2125 -115.756841 
L 485.2125 -116.874411 
L 485.2125 -117.991982 
L 485.212497 -119.109552 
L 485.21248 -120.227122 
L 485.212375 -121.344692 
L 485.211864 -122.462263 
L 485.209869 -123.579833 
L 485.203651 -124.697403 
L 485.188283 -125.814974 
L 485.158579 -126.932544 
L 485.114818 -128.050114 
L 485.068525 -129.167684 
L 485.039844 -130.285255 
L 485.04404 -131.402825 
L 485.078769 -132.520395 
L 485.126125 -133.637965 
L 485.16711 -134.755536 
L 485.193093 -135.873106 
L 485.205749 -136.990676 
L 485.210589 -138.108246 
L 485.21206 -139.225817 
L 485.212417 -140.343387 
L 485.212486 -141.460957 
L 485.212485 -142.578527 
L 485.212414 -143.696098 
L 485.212044 -144.813668 
L 485.210528 -145.931238 
L 485.205567 -147.048809 
L 485.192664 -148.166379 
L 485.166327 -149.283949 
L 485.125051 -150.401519 
L 485.077746 -151.51909 
L 485.043554 -152.63666 
L 485.040164 -153.75423 
L 485.069472 -154.8718 
L 485.115919 -155.989371 
L 485.159439 -157.106941 
L 485.188782 -158.224511 
L 485.236218 -158.224511 
L 485.236218 -158.224511 
L 485.265561 -157.106941 
L 485.309081 -155.989371 
L 485.355528 -154.8718 
L 485.384836 -153.75423 
L 485.381446 -152.63666 
L 485.347254 -151.51909 
L 485.299949 -150.401519 
L 485.258673 -149.283949 
L 485.232336 -148.166379 
L 485.219433 -147.048809 
L 485.214472 -145.931238 
L 485.212956 -144.813668 
L 485.212586 -143.696098 
L 485.212515 -142.578527 
L 485.212514 -141.460957 
L 485.212583 -140.343387 
L 485.21294 -139.225817 
L 485.214411 -138.108246 
L 485.219251 -136.990676 
L 485.231907 -135.873106 
L 485.25789 -134.755536 
L 485.298875 -133.637965 
L 485.346231 -132.520395 
L 485.38096 -131.402825 
L 485.385156 -130.285255 
L 485.356475 -129.167684 
L 485.310182 -128.050114 
L 485.266421 -126.932544 
L 485.236717 -125.814974 
L 485.221349 -124.697403 
L 485.215131 -123.579833 
L 485.213136 -122.462263 
L 485.212625 -121.344692 
L 485.21252 -120.227122 
L 485.212503 -119.109552 
L 485.2125 -117.991982 
L 485.2125 -116.874411 
L 485.2125 -115.756841 
L 485.2125 -114.639271 
L 485.2125 -113.521701 
L 485.2125 -112.40413 
L 485.2125 -111.28656 
L 485.2125 -110.16899 
L 485.2125 -109.05142 
L 485.2125 -107.933849 
L 485.2125 -106.816279 
L 485.212503 -105.698709 
L 485.212525 -104.581138 
L 485.212652 -103.463568 
L 485.213264 -102.345998 
L 485.215631 -101.228428 
L 485.223014 -100.110857 
L 485.24155 -98.993287 
L 485.278919 -97.875717 
L 485.339268 -96.758147 
L 485.417103 -95.640576 
L 485.497052 -94.523006 
L 485.562633 -93.405436 
L 485.606724 -92.287866 
L 485.632602 -91.170295 
L 485.64411 -90.052725 
L 485.636828 -88.935155 
L 485.60297 -87.817584 
L 485.547177 -86.700014 
L 485.494354 -85.582444 
L 485.475872 -84.464874 
L 485.5043 -83.347303 
L 485.562815 -82.229733 
L 485.623732 -81.112163 
L 485.680893 -79.994593 
L 485.763781 -78.877022 
L 485.917904 -77.759452 
L 486.168277 -76.641882 
L 486.495977 -75.524312 
L 486.848155 -74.406741 
L 487.18356 -73.289171 
L 487.524444 -72.171601 
L 487.958551 -71.05403 
L 488.568222 -69.93646 
L 489.351914 -68.81889 
L 490.235569 -67.70132 
L 491.179724 -66.583749 
L 492.268413 -65.466179 
L 493.667462 -64.348609 
L 495.474259 -63.231039 
L 497.601985 -62.113468 
L 499.826429 -60.995898 
L 502.016707 -59.878328 
L 504.465073 -58.760758 
L 508.088157 -57.643187 
L 514.071318 -56.525617 
L 522.643267 -55.408047 
L 531.646131 -54.290477 
L 536.7385 -53.172906 
L 534.208237 -52.055336 
L 524.205249 -50.937766 
L 510.864009 -49.820195 
L 499.069779 -48.702625 
L 491.337448 -47.585055 
z
" style="stroke: #3e3e3e; stroke-width: 3"/>
    </defs>
    <g clip-path="url(#pb0d55523ec)">
     <use xlink:href="#m61a5855b35" x="0" y="288" style="fill: #905998; stroke: #3e3e3e; stroke-width: 3"/>
    </g>
   </g>
   <g id="PolyCollection_5">
    <defs>
     <path id="m16d5aacf0b" d="M 618.726872 -49.633797 
L 609.328128 -49.633797 
L 596.727897 -51.472432 
L 575.998568 -53.311067 
L 562.5015 -55.149702 
L 568.277958 -56.988338 
L 584.289572 -58.826973 
L 597.687696 -60.665608 
L 605.890966 -62.504244 
L 610.479203 -64.342879 
L 612.585466 -66.181514 
L 613.300709 -68.02015 
L 613.543939 -69.858785 
L 613.719662 -71.69742 
L 613.881676 -73.536056 
L 613.982239 -75.374691 
L 614.018862 -77.213326 
L 614.026516 -79.051962 
L 614.027394 -80.890597 
L 614.026872 -82.729232 
L 614.021968 -84.567867 
L 613.999497 -86.406503 
L 613.946388 -88.245138 
L 613.893071 -90.083773 
L 613.900022 -91.922409 
L 613.958331 -93.761044 
L 614.006025 -95.599679 
L 614.023685 -97.438315 
L 614.027112 -99.27695 
L 614.027477 -101.115585 
L 614.027499 -102.954221 
L 614.0275 -104.792856 
L 614.0275 -106.631491 
L 614.0275 -108.470127 
L 614.0275 -110.308762 
L 614.0275 -112.147397 
L 614.0275 -113.986033 
L 614.0275 -115.824668 
L 614.0275 -117.663303 
L 614.0275 -119.501938 
L 614.0275 -121.340574 
L 614.0275 -123.179209 
L 614.0275 -125.017844 
L 614.0275 -126.85648 
L 614.0275 -128.695115 
L 614.0275 -130.53375 
L 614.0275 -132.372386 
L 614.0275 -134.211021 
L 614.0275 -136.049656 
L 614.0275 -137.888292 
L 614.0275 -139.726927 
L 614.0275 -141.565562 
L 614.0275 -143.404198 
L 614.0275 -145.242833 
L 614.0275 -147.081468 
L 614.0275 -148.920103 
L 614.0275 -150.758739 
L 614.0275 -152.597374 
L 614.0275 -154.436009 
L 614.0275 -156.274645 
L 614.0275 -158.11328 
L 614.0275 -159.951915 
L 614.0275 -161.790551 
L 614.0275 -163.629186 
L 614.0275 -165.467821 
L 614.0275 -167.306457 
L 614.0275 -169.145092 
L 614.0275 -170.983727 
L 614.0275 -172.822363 
L 614.0275 -174.660998 
L 614.0275 -176.499633 
L 614.0275 -178.338269 
L 614.0275 -180.176904 
L 614.0275 -182.015539 
L 614.0275 -183.854174 
L 614.0275 -185.69281 
L 614.0275 -187.531445 
L 614.0275 -189.37008 
L 614.0275 -191.208716 
L 614.0275 -193.047351 
L 614.0275 -194.885986 
L 614.0275 -196.724622 
L 614.0275 -198.563257 
L 614.0275 -200.401892 
L 614.0275 -202.240528 
L 614.0275 -204.079163 
L 614.0275 -205.917798 
L 614.0275 -207.756434 
L 614.0275 -209.595069 
L 614.0275 -211.433704 
L 614.0275 -213.272339 
L 614.027498 -215.110975 
L 614.027448 -216.94961 
L 614.026737 -218.788245 
L 614.021052 -220.626881 
L 613.996313 -222.465516 
L 613.941188 -224.304151 
L 613.890823 -226.142787 
L 613.903661 -227.981422 
L 613.963298 -229.820057 
L 614.008455 -231.658693 
L 614.046545 -231.658693 
L 614.046545 -231.658693 
L 614.091702 -229.820057 
L 614.151339 -227.981422 
L 614.164177 -226.142787 
L 614.113812 -224.304151 
L 614.058687 -222.465516 
L 614.033948 -220.626881 
L 614.028263 -218.788245 
L 614.027552 -216.94961 
L 614.027502 -215.110975 
L 614.0275 -213.272339 
L 614.0275 -211.433704 
L 614.0275 -209.595069 
L 614.0275 -207.756434 
L 614.0275 -205.917798 
L 614.0275 -204.079163 
L 614.0275 -202.240528 
L 614.0275 -200.401892 
L 614.0275 -198.563257 
L 614.0275 -196.724622 
L 614.0275 -194.885986 
L 614.0275 -193.047351 
L 614.0275 -191.208716 
L 614.0275 -189.37008 
L 614.0275 -187.531445 
L 614.0275 -185.69281 
L 614.0275 -183.854174 
L 614.0275 -182.015539 
L 614.0275 -180.176904 
L 614.0275 -178.338269 
L 614.0275 -176.499633 
L 614.0275 -174.660998 
L 614.0275 -172.822363 
L 614.0275 -170.983727 
L 614.0275 -169.145092 
L 614.0275 -167.306457 
L 614.0275 -165.467821 
L 614.0275 -163.629186 
L 614.0275 -161.790551 
L 614.0275 -159.951915 
L 614.0275 -158.11328 
L 614.0275 -156.274645 
L 614.0275 -154.436009 
L 614.0275 -152.597374 
L 614.0275 -150.758739 
L 614.0275 -148.920103 
L 614.0275 -147.081468 
L 614.0275 -145.242833 
L 614.0275 -143.404198 
L 614.0275 -141.565562 
L 614.0275 -139.726927 
L 614.0275 -137.888292 
L 614.0275 -136.049656 
L 614.0275 -134.211021 
L 614.0275 -132.372386 
L 614.0275 -130.53375 
L 614.0275 -128.695115 
L 614.0275 -126.85648 
L 614.0275 -125.017844 
L 614.0275 -123.179209 
L 614.0275 -121.340574 
L 614.0275 -119.501938 
L 614.0275 -117.663303 
L 614.0275 -115.824668 
L 614.0275 -113.986033 
L 614.0275 -112.147397 
L 614.0275 -110.308762 
L 614.0275 -108.470127 
L 614.0275 -106.631491 
L 614.0275 -104.792856 
L 614.027501 -102.954221 
L 614.027523 -101.115585 
L 614.027888 -99.27695 
L 614.031315 -97.438315 
L 614.048975 -95.599679 
L 614.096669 -93.761044 
L 614.154978 -91.922409 
L 614.161929 -90.083773 
L 614.108612 -88.245138 
L 614.055503 -86.406503 
L 614.033032 -84.567867 
L 614.028128 -82.729232 
L 614.027606 -80.890597 
L 614.028484 -79.051962 
L 614.036138 -77.213326 
L 614.072761 -75.374691 
L 614.173324 -73.536056 
L 614.335338 -71.69742 
L 614.511061 -69.858785 
L 614.754291 -68.02015 
L 615.469534 -66.181514 
L 617.575797 -64.342879 
L 622.164034 -62.504244 
L 630.367304 -60.665608 
L 643.765428 -58.826973 
L 659.777042 -56.988338 
L 665.5535 -55.149702 
L 652.056432 -53.311067 
L 631.327103 -51.472432 
L 618.726872 -49.633797 
z
" style="stroke: #3e3e3e; stroke-width: 3"/>
    </defs>
    <g clip-path="url(#pb0d55523ec)">
     <use xlink:href="#m16d5aacf0b" x="0" y="288" style="fill: #df7f20; stroke: #3e3e3e; stroke-width: 3"/>
    </g>
   </g>
   <g id="PolyCollection_6">
    <defs>
     <path id="mb0cb50a418" d="M 749.03379 -46.660733 
L 736.65121 -46.660733 
L 732.558135 -47.325338 
L 726.93653 -47.989943 
L 719.923352 -48.654548 
L 712.048257 -49.319153 
L 704.214651 -49.983758 
L 697.529151 -50.648363 
L 693.015341 -51.312968 
L 691.3165 -51.977573 
L 692.512498 -52.642178 
L 696.128209 -53.306783 
L 701.319618 -53.971388 
L 707.144745 -54.635993 
L 712.80426 -55.300598 
L 717.775004 -55.965203 
L 721.824592 -56.629808 
L 724.945454 -57.294414 
L 727.261737 -57.959019 
L 728.948772 -58.623624 
L 730.181039 -59.288229 
L 731.106448 -59.952834 
L 731.837466 -60.617439 
L 732.45081 -61.282044 
L 732.99161 -61.946649 
L 733.480879 -62.611254 
L 733.925375 -63.275859 
L 734.327825 -63.940464 
L 734.694824 -64.605069 
L 735.04039 -65.269674 
L 735.3845 -65.934279 
L 735.747496 -66.598884 
L 736.142629 -67.263489 
L 736.570082 -67.928094 
L 737.015552 -68.592699 
L 737.454607 -69.257304 
L 737.861141 -69.921909 
L 738.216283 -70.586515 
L 738.514093 -71.25112 
L 738.762212 -71.915725 
L 738.977911 -72.58033 
L 739.181697 -73.244935 
L 739.391167 -73.90954 
L 739.61724 -74.574145 
L 739.863494 -75.23875 
L 740.127847 -75.903355 
L 740.404998 -76.56796 
L 740.688339 -77.232565 
L 740.970882 -77.89717 
L 741.245458 -78.561775 
L 741.504553 -79.22638 
L 741.740026 -79.890985 
L 741.942997 -80.55559 
L 742.104342 -81.220195 
L 742.216185 -81.8848 
L 742.274227 -82.549405 
L 742.280035 -83.21401 
L 742.24211 -83.878616 
L 742.17495 -84.543221 
L 742.09629 -85.207826 
L 742.0236 -85.872431 
L 741.971112 -86.537036 
L 741.94814 -87.201641 
L 741.958569 -87.866246 
L 742.000861 -88.530851 
L 742.068194 -89.195456 
L 742.14898 -89.860061 
L 742.228475 -90.524666 
L 742.2919 -91.189271 
L 742.328556 -91.853876 
L 742.335505 -92.518481 
L 742.319104 -93.183086 
L 742.293365 -93.847691 
L 742.275471 -94.512296 
L 742.280079 -95.176901 
L 742.314673 -95.841506 
L 742.377736 -96.506111 
L 742.460249 -97.170717 
L 742.549489 -97.835322 
L 742.633325 -98.499927 
L 742.703287 -99.164532 
L 742.755598 -99.829137 
L 742.790399 -100.493742 
L 742.810028 -101.158347 
L 742.81731 -101.822952 
L 742.814486 -102.487557 
L 742.802975 -103.152162 
L 742.783827 -103.816767 
L 742.75852 -104.481372 
L 742.729665 -105.145977 
L 742.701208 -105.810582 
L 742.677915 -106.475187 
L 742.66424 -107.139792 
L 742.663004 -107.804397 
L 742.674473 -108.469002 
L 742.696273 -109.133607 
L 742.724197 -109.798212 
L 742.753522 -110.462818 
L 742.780286 -111.127423 
L 742.80206 -111.792028 
L 742.818062 -112.456633 
L 742.866938 -112.456633 
L 742.866938 -112.456633 
L 742.88294 -111.792028 
L 742.904714 -111.127423 
L 742.931478 -110.462818 
L 742.960803 -109.798212 
L 742.988727 -109.133607 
L 743.010527 -108.469002 
L 743.021996 -107.804397 
L 743.02076 -107.139792 
L 743.007085 -106.475187 
L 742.983792 -105.810582 
L 742.955335 -105.145977 
L 742.92648 -104.481372 
L 742.901173 -103.816767 
L 742.882025 -103.152162 
L 742.870514 -102.487557 
L 742.86769 -101.822952 
L 742.874972 -101.158347 
L 742.894601 -100.493742 
L 742.929402 -99.829137 
L 742.981713 -99.164532 
L 743.051675 -98.499927 
L 743.135511 -97.835322 
L 743.224751 -97.170717 
L 743.307264 -96.506111 
L 743.370327 -95.841506 
L 743.404921 -95.176901 
L 743.409529 -94.512296 
L 743.391635 -93.847691 
L 743.365896 -93.183086 
L 743.349495 -92.518481 
L 743.356444 -91.853876 
L 743.3931 -91.189271 
L 743.456525 -90.524666 
L 743.53602 -89.860061 
L 743.616806 -89.195456 
L 743.684139 -88.530851 
L 743.726431 -87.866246 
L 743.73686 -87.201641 
L 743.713888 -86.537036 
L 743.6614 -85.872431 
L 743.58871 -85.207826 
L 743.51005 -84.543221 
L 743.44289 -83.878616 
L 743.404965 -83.21401 
L 743.410773 -82.549405 
L 743.468815 -81.8848 
L 743.580658 -81.220195 
L 743.742003 -80.55559 
L 743.944974 -79.890985 
L 744.180447 -79.22638 
L 744.439542 -78.561775 
L 744.714118 -77.89717 
L 744.996661 -77.232565 
L 745.280002 -76.56796 
L 745.557153 -75.903355 
L 745.821506 -75.23875 
L 746.06776 -74.574145 
L 746.293833 -73.90954 
L 746.503303 -73.244935 
L 746.707089 -72.58033 
L 746.922788 -71.915725 
L 747.170907 -71.25112 
L 747.468717 -70.586515 
L 747.823859 -69.921909 
L 748.230393 -69.257304 
L 748.669448 -68.592699 
L 749.114918 -67.928094 
L 749.542371 -67.263489 
L 749.937504 -66.598884 
L 750.3005 -65.934279 
L 750.64461 -65.269674 
L 750.990176 -64.605069 
L 751.357175 -63.940464 
L 751.759625 -63.275859 
L 752.204121 -62.611254 
L 752.69339 -61.946649 
L 753.23419 -61.282044 
L 753.847534 -60.617439 
L 754.578552 -59.952834 
L 755.503961 -59.288229 
L 756.736228 -58.623624 
L 758.423263 -57.959019 
L 760.739546 -57.294414 
L 763.860408 -56.629808 
L 767.909996 -55.965203 
L 772.88074 -55.300598 
L 778.540255 -54.635993 
L 784.365382 -53.971388 
L 789.556791 -53.306783 
L 793.172502 -52.642178 
L 794.3685 -51.977573 
L 792.669659 -51.312968 
L 788.155849 -50.648363 
L 781.470349 -49.983758 
L 773.636743 -49.319153 
L 765.761648 -48.654548 
L 758.74847 -47.989943 
L 753.126865 -47.325338 
L 749.03379 -46.660733 
z
" style="stroke: #3e3e3e; stroke-width: 3"/>
    </defs>
    <g clip-path="url(#pb0d55523ec)">
     <use xlink:href="#mb0cb50a418" x="0" y="288" style="fill: #e6e64c; stroke: #3e3e3e; stroke-width: 3"/>
    </g>
   </g>
   <g id="PolyCollection_7">
    <defs>
     <path id="md9ef03ced2" d="M 878.703804 -50.112566 
L 864.611196 -50.112566 
L 856.493525 -51.16845 
L 844.516006 -52.224334 
L 831.253259 -53.280218 
L 821.630278 -54.336102 
L 820.1315 -55.391985 
L 827.490036 -56.447869 
L 840.086722 -57.503753 
L 852.694728 -58.559637 
L 861.806968 -59.615521 
L 866.796717 -60.671404 
L 868.887173 -61.727288 
L 869.619672 -62.783172 
L 870.00204 -63.839056 
L 870.405729 -64.89494 
L 870.818413 -65.950823 
L 871.12645 -67.006707 
L 871.27652 -68.062591 
L 871.303903 -69.118475 
L 871.287481 -70.174359 
L 871.293212 -71.230242 
L 871.340208 -72.286126 
L 871.401102 -73.34201 
L 871.429923 -74.397894 
L 871.397053 -75.453778 
L 871.311422 -76.509661 
L 871.218893 -77.565545 
L 871.175437 -78.621429 
L 871.209571 -79.677313 
L 871.302604 -80.733197 
L 871.40386 -81.78908 
L 871.466525 -82.844964 
L 871.474714 -83.900848 
L 871.446612 -84.956732 
L 871.417702 -86.012616 
L 871.415943 -87.0685 
L 871.442949 -88.124383 
L 871.472896 -89.180267 
L 871.469906 -90.236151 
L 871.412925 -91.292035 
L 871.313983 -92.347919 
L 871.217681 -93.403802 
L 871.176651 -94.459686 
L 871.215996 -95.51557 
L 871.315661 -96.571454 
L 871.426978 -97.627338 
L 871.507015 -98.683221 
L 871.541185 -99.739105 
L 871.542273 -100.794989 
L 871.534771 -101.850873 
L 871.537811 -102.906757 
L 871.555464 -103.96264 
L 871.577905 -105.018524 
L 871.590836 -106.074408 
L 871.585968 -107.130292 
L 871.566463 -108.186176 
L 871.545043 -109.242059 
L 871.5357 -110.297943 
L 871.543531 -111.353827 
L 871.559934 -112.409711 
L 871.567326 -113.465595 
L 871.550529 -114.521478 
L 871.507958 -115.577362 
L 871.455905 -116.633246 
L 871.421219 -117.68913 
L 871.424453 -118.745014 
L 871.465752 -119.800897 
L 871.526185 -120.856781 
L 871.582692 -121.912665 
L 871.622054 -122.968549 
L 871.643531 -124.024433 
L 871.652921 -125.080316 
L 871.656252 -126.1362 
L 871.657217 -127.192084 
L 871.657447 -128.247968 
L 871.657492 -129.303852 
L 871.657499 -130.359735 
L 871.6575 -131.415619 
L 871.6575 -132.471503 
L 871.6575 -133.527387 
L 871.6575 -134.583271 
L 871.6575 -135.639154 
L 871.6575 -136.695038 
L 871.657499 -137.750922 
L 871.657494 -138.806806 
L 871.657461 -139.86269 
L 871.657303 -140.918573 
L 871.656665 -141.974457 
L 871.654555 -143.030341 
L 871.648859 -144.086225 
L 871.636415 -145.142109 
L 871.614706 -146.197992 
L 871.585264 -147.253876 
L 871.556086 -148.30976 
L 871.539085 -149.365644 
L 871.542504 -150.421528 
L 871.564618 -151.477411 
L 871.595106 -152.533295 
L 871.62264 -153.589179 
L 871.641302 -154.645063 
L 871.673698 -154.645063 
L 871.673698 -154.645063 
L 871.69236 -153.589179 
L 871.719894 -152.533295 
L 871.750382 -151.477411 
L 871.772496 -150.421528 
L 871.775915 -149.365644 
L 871.758914 -148.30976 
L 871.729736 -147.253876 
L 871.700294 -146.197992 
L 871.678585 -145.142109 
L 871.666141 -144.086225 
L 871.660445 -143.030341 
L 871.658335 -141.974457 
L 871.657697 -140.918573 
L 871.657539 -139.86269 
L 871.657506 -138.806806 
L 871.657501 -137.750922 
L 871.6575 -136.695038 
L 871.6575 -135.639154 
L 871.6575 -134.583271 
L 871.6575 -133.527387 
L 871.6575 -132.471503 
L 871.6575 -131.415619 
L 871.657501 -130.359735 
L 871.657508 -129.303852 
L 871.657553 -128.247968 
L 871.657783 -127.192084 
L 871.658748 -126.1362 
L 871.662079 -125.080316 
L 871.671469 -124.024433 
L 871.692946 -122.968549 
L 871.732308 -121.912665 
L 871.788815 -120.856781 
L 871.849248 -119.800897 
L 871.890547 -118.745014 
L 871.893781 -117.68913 
L 871.859095 -116.633246 
L 871.807042 -115.577362 
L 871.764471 -114.521478 
L 871.747674 -113.465595 
L 871.755066 -112.409711 
L 871.771469 -111.353827 
L 871.7793 -110.297943 
L 871.769957 -109.242059 
L 871.748537 -108.186176 
L 871.729032 -107.130292 
L 871.724164 -106.074408 
L 871.737095 -105.018524 
L 871.759536 -103.96264 
L 871.777189 -102.906757 
L 871.780229 -101.850873 
L 871.772727 -100.794989 
L 871.773815 -99.739105 
L 871.807985 -98.683221 
L 871.888022 -97.627338 
L 871.999339 -96.571454 
L 872.099004 -95.51557 
L 872.138349 -94.459686 
L 872.097319 -93.403802 
L 872.001017 -92.347919 
L 871.902075 -91.292035 
L 871.845094 -90.236151 
L 871.842104 -89.180267 
L 871.872051 -88.124383 
L 871.899057 -87.0685 
L 871.897298 -86.012616 
L 871.868388 -84.956732 
L 871.840286 -83.900848 
L 871.848475 -82.844964 
L 871.91114 -81.78908 
L 872.012396 -80.733197 
L 872.105429 -79.677313 
L 872.139563 -78.621429 
L 872.096107 -77.565545 
L 872.003578 -76.509661 
L 871.917947 -75.453778 
L 871.885077 -74.397894 
L 871.913898 -73.34201 
L 871.974792 -72.286126 
L 872.021788 -71.230242 
L 872.027519 -70.174359 
L 872.011097 -69.118475 
L 872.03848 -68.062591 
L 872.18855 -67.006707 
L 872.496587 -65.950823 
L 872.909271 -64.89494 
L 873.31296 -63.839056 
L 873.695328 -62.783172 
L 874.427827 -61.727288 
L 876.518283 -60.671404 
L 881.508032 -59.615521 
L 890.620272 -58.559637 
L 903.228278 -57.503753 
L 915.824964 -56.447869 
L 923.1835 -55.391985 
L 921.684722 -54.336102 
L 912.061741 -53.280218 
L 898.798994 -52.224334 
L 886.821475 -51.16845 
L 878.703804 -50.112566 
z
" style="stroke: #3e3e3e; stroke-width: 3"/>
    </defs>
    <g clip-path="url(#pb0d55523ec)">
     <use xlink:href="#md9ef03ced2" x="0" y="288" style="fill: #965a38; stroke: #3e3e3e; stroke-width: 3"/>
    </g>
   </g>
   <g id="PolyCollection_8">
    <defs>
     <path id="m6005990c47" d="M 1005.809485 -44.191001 
L 995.135515 -44.191001 
L 992.532649 -44.699055 
L 989.134541 -45.207109 
L 984.924578 -45.715162 
L 979.984858 -46.223216 
L 974.510728 -46.73127 
L 968.803735 -47.239323 
L 963.239698 -47.747377 
L 958.215772 -48.255431 
L 954.087523 -48.763484 
L 951.111309 -49.271538 
L 949.406507 -49.779592 
L 948.9465 -50.287645 
L 949.578722 -50.795699 
L 951.065894 -51.303753 
L 953.135867 -51.811806 
L 955.527353 -52.31986 
L 958.02268 -52.827914 
L 960.464134 -53.335967 
L 962.755421 -53.844021 
L 964.852679 -54.352075 
L 966.750266 -54.860128 
L 968.465802 -55.368182 
L 970.027458 -55.876236 
L 971.464944 -56.384289 
L 972.804255 -56.892343 
L 974.065381 -57.400397 
L 975.261782 -57.90845 
L 976.400649 -58.416504 
L 977.483477 -58.924558 
L 978.506955 -59.432611 
L 979.464416 -59.940665 
L 980.347896 -60.448719 
L 981.150563 -60.956772 
L 981.869015 -61.464826 
L 982.504945 -61.97288 
L 983.065841 -62.480933 
L 983.564628 -62.988987 
L 984.018373 -63.497041 
L 984.446348 -64.005094 
L 984.867845 -64.513148 
L 985.300193 -65.021202 
L 985.757361 -65.529255 
L 986.249262 -66.037309 
L 986.781626 -66.545362 
L 987.356079 -67.053416 
L 987.970173 -67.56147 
L 988.61732 -68.069523 
L 989.2869 -68.577577 
L 989.964905 -69.085631 
L 990.635319 -69.593684 
L 991.282084 -70.101738 
L 991.891253 -70.609792 
L 992.452758 -71.117845 
L 992.96142 -71.625899 
L 993.417038 -72.133953 
L 993.823679 -72.642006 
L 994.188443 -73.15006 
L 994.520028 -73.658114 
L 994.827389 -74.166167 
L 995.118697 -74.674221 
L 995.400698 -75.182275 
L 995.678428 -75.690328 
L 995.955173 -76.198382 
L 996.232503 -76.706436 
L 996.51032 -77.214489 
L 996.786927 -77.722543 
L 997.059216 -78.230597 
L 997.323073 -78.73865 
L 997.573997 -79.246704 
L 997.807838 -79.754758 
L 998.021479 -80.262811 
L 998.213294 -80.770865 
L 998.383303 -81.278919 
L 998.533014 -81.786972 
L 998.665038 -82.295026 
L 998.782592 -82.80308 
L 998.889006 -83.311133 
L 998.987334 -83.819187 
L 999.080105 -84.327241 
L 999.169244 -84.835294 
L 999.256111 -85.343348 
L 999.341612 -85.851402 
L 999.426309 -86.359455 
L 999.510516 -86.867509 
L 999.594342 -87.375563 
L 999.677728 -87.883616 
L 999.760444 -88.39167 
L 999.8421 -88.899724 
L 999.922126 -89.407777 
L 999.999755 -89.915831 
L 1000.074022 -90.423885 
L 1000.143797 -90.931938 
L 1000.20788 -91.439992 
L 1000.265159 -91.948046 
L 1000.314776 -92.456099 
L 1000.356284 -92.964153 
L 1000.38972 -93.472207 
L 1000.415598 -93.98026 
L 1000.434806 -94.488314 
L 1000.510194 -94.488314 
L 1000.510194 -94.488314 
L 1000.529402 -93.98026 
L 1000.55528 -93.472207 
L 1000.588716 -92.964153 
L 1000.630224 -92.456099 
L 1000.679841 -91.948046 
L 1000.73712 -91.439992 
L 1000.801203 -90.931938 
L 1000.870978 -90.423885 
L 1000.945245 -89.915831 
L 1001.022874 -89.407777 
L 1001.1029 -88.899724 
L 1001.184556 -88.39167 
L 1001.267272 -87.883616 
L 1001.350658 -87.375563 
L 1001.434484 -86.867509 
L 1001.518691 -86.359455 
L 1001.603388 -85.851402 
L 1001.688889 -85.343348 
L 1001.775756 -84.835294 
L 1001.864895 -84.327241 
L 1001.957666 -83.819187 
L 1002.055994 -83.311133 
L 1002.162408 -82.80308 
L 1002.279962 -82.295026 
L 1002.411986 -81.786972 
L 1002.561697 -81.278919 
L 1002.731706 -80.770865 
L 1002.923521 -80.262811 
L 1003.137162 -79.754758 
L 1003.371003 -79.246704 
L 1003.621927 -78.73865 
L 1003.885784 -78.230597 
L 1004.158073 -77.722543 
L 1004.43468 -77.214489 
L 1004.712497 -76.706436 
L 1004.989827 -76.198382 
L 1005.266572 -75.690328 
L 1005.544302 -75.182275 
L 1005.826303 -74.674221 
L 1006.117611 -74.166167 
L 1006.424972 -73.658114 
L 1006.756557 -73.15006 
L 1007.121321 -72.642006 
L 1007.527962 -72.133953 
L 1007.98358 -71.625899 
L 1008.492242 -71.117845 
L 1009.053747 -70.609792 
L 1009.662916 -70.101738 
L 1010.309681 -69.593684 
L 1010.980095 -69.085631 
L 1011.6581 -68.577577 
L 1012.32768 -68.069523 
L 1012.974827 -67.56147 
L 1013.588921 -67.053416 
L 1014.163374 -66.545362 
L 1014.695738 -66.037309 
L 1015.187639 -65.529255 
L 1015.644807 -65.021202 
L 1016.077155 -64.513148 
L 1016.498652 -64.005094 
L 1016.926627 -63.497041 
L 1017.380372 -62.988987 
L 1017.879159 -62.480933 
L 1018.440055 -61.97288 
L 1019.075985 -61.464826 
L 1019.794437 -60.956772 
L 1020.597104 -60.448719 
L 1021.480584 -59.940665 
L 1022.438045 -59.432611 
L 1023.461523 -58.924558 
L 1024.544351 -58.416504 
L 1025.683218 -57.90845 
L 1026.879619 -57.400397 
L 1028.140745 -56.892343 
L 1029.480056 -56.384289 
L 1030.917542 -55.876236 
L 1032.479198 -55.368182 
L 1034.194734 -54.860128 
L 1036.092321 -54.352075 
L 1038.189579 -53.844021 
L 1040.480866 -53.335967 
L 1042.92232 -52.827914 
L 1045.417647 -52.31986 
L 1047.809133 -51.811806 
L 1049.879106 -51.303753 
L 1051.366278 -50.795699 
L 1051.9985 -50.287645 
L 1051.538493 -49.779592 
L 1049.833691 -49.271538 
L 1046.857477 -48.763484 
L 1042.729228 -48.255431 
L 1037.705302 -47.747377 
L 1032.141265 -47.239323 
L 1026.434272 -46.73127 
L 1020.960142 -46.223216 
L 1016.020422 -45.715162 
L 1011.810459 -45.207109 
L 1008.412351 -44.699055 
L 1005.809485 -44.191001 
z
" style="stroke: #3e3e3e; stroke-width: 3"/>
    </defs>
    <g clip-path="url(#pb0d55523ec)">
     <use xlink:href="#m6005990c47" x="0" y="288" style="fill: #e890be; stroke: #3e3e3e; stroke-width: 3"/>
    </g>
   </g>
   <g id="line2d_6">
    <path d="M 98.7675 241.24765 
L 98.7675 213.289586 
" clip-path="url(#pb0d55523ec)" style="fill: none; stroke: #3e3e3e; stroke-width: 3"/>
   </g>
   <g id="line2d_7">
    <path d="M 98.7675 239.61166 
L 98.7675 223.998922 
" clip-path="url(#pb0d55523ec)" style="fill: none; stroke: #3e3e3e; stroke-width: 9"/>
   </g>
   <g id="line2d_8">
    <path d="M 227.5825 235.546119 
L 227.5825 223.366482 
" clip-path="url(#pb0d55523ec)" style="fill: none; stroke: #3e3e3e; stroke-width: 3"/>
   </g>
   <g id="line2d_9">
    <path d="M 227.5825 235.546119 
L 227.5825 230.326275 
" clip-path="url(#pb0d55523ec)" style="fill: none; stroke: #3e3e3e; stroke-width: 9"/>
   </g>
   <g id="line2d_10">
    <path d="M 356.3975 232.763118 
L 356.3975 229.800175 
" clip-path="url(#pb0d55523ec)" style="fill: none; stroke: #3e3e3e; stroke-width: 3"/>
   </g>
   <g id="line2d_11">
    <path d="M 356.3975 232.763118 
L 356.3975 231.543083 
" clip-path="url(#pb0d55523ec)" style="fill: none; stroke: #3e3e3e; stroke-width: 9"/>
   </g>
   <g id="line2d_12">
    <path d="M 485.2125 235.493504 
L 485.2125 219.505082 
" clip-path="url(#pb0d55523ec)" style="fill: none; stroke: #3e3e3e; stroke-width: 3"/>
   </g>
   <g id="line2d_13">
    <path d="M 485.2125 235.493504 
L 485.2125 228.88959 
" clip-path="url(#pb0d55523ec)" style="fill: none; stroke: #3e3e3e; stroke-width: 9"/>
   </g>
   <g id="line2d_14">
    <path d="M 614.0275 233.444762 
L 614.0275 226.787058 
" clip-path="url(#pb0d55523ec)" style="fill: none; stroke: #3e3e3e; stroke-width: 3"/>
   </g>
   <g id="line2d_15">
    <path d="M 614.0275 233.444762 
L 614.0275 230.747244 
" clip-path="url(#pb0d55523ec)" style="fill: none; stroke: #3e3e3e; stroke-width: 9"/>
   </g>
   <g id="line2d_16">
    <path d="M 742.8425 236.417826 
L 742.8425 223.983822 
" clip-path="url(#pb0d55523ec)" style="fill: none; stroke: #3e3e3e; stroke-width: 3"/>
   </g>
   <g id="line2d_17">
    <path d="M 742.8425 236.417826 
L 742.8425 230.200824 
" clip-path="url(#pb0d55523ec)" style="fill: none; stroke: #3e3e3e; stroke-width: 9"/>
   </g>
   <g id="line2d_18">
    <path d="M 871.6575 232.968102 
L 871.6575 232.968102 
" clip-path="url(#pb0d55523ec)" style="fill: none; stroke: #3e3e3e; stroke-width: 3"/>
   </g>
   <g id="line2d_19">
    <path d="M 871.6575 232.968102 
L 871.6575 232.968102 
" clip-path="url(#pb0d55523ec)" style="fill: none; stroke: #3e3e3e; stroke-width: 9"/>
   </g>
   <g id="line2d_20">
    <path d="M 1000.4725 238.887558 
L 1000.4725 207.768765 
" clip-path="url(#pb0d55523ec)" style="fill: none; stroke: #3e3e3e; stroke-width: 3"/>
   </g>
   <g id="line2d_21">
    <path d="M 1000.4725 238.887558 
L 1000.4725 226.440041 
" clip-path="url(#pb0d55523ec)" style="fill: none; stroke: #3e3e3e; stroke-width: 9"/>
   </g>
   <g id="patch_3">
    <path d="M 34.36 255.8 
L 34.36 43.92 
" style="fill: none; stroke: #f0f0f0; stroke-width: 3; stroke-linejoin: miter; stroke-linecap: square"/>
   </g>
   <g id="patch_4">
    <path d="M 1064.88 255.8 
L 1064.88 43.92 
" style="fill: none; stroke: #f0f0f0; stroke-width: 3; stroke-linejoin: miter; stroke-linecap: square"/>
   </g>
   <g id="patch_5">
    <path d="M 34.36 255.8 
L 1064.88 255.8 
" style="fill: none; stroke: #f0f0f0; stroke-width: 3; stroke-linejoin: miter; stroke-linecap: square"/>
   </g>
   <g id="patch_6">
    <path d="M 34.36 43.92 
L 1064.88 43.92 
" style="fill: none; stroke: #f0f0f0; stroke-width: 3; stroke-linejoin: miter; stroke-linecap: square"/>
   </g>
   <g id="PathCollection_1">
    <defs>
     <path id="medb0565ae2" d="M 0 3 
C 0.795609 3 1.55874 2.683901 2.12132 2.12132 
C 2.683901 1.55874 3 0.795609 3 0 
C 3 -0.795609 2.683901 -1.55874 2.12132 -2.12132 
C 1.55874 -2.683901 0.795609 -3 0 -3 
C -0.795609 -3 -1.55874 -2.683901 -2.12132 -2.12132 
C -2.683901 -1.55874 -3 -0.795609 -3 0 
C -3 0.795609 -2.683901 1.55874 -2.12132 2.12132 
C -1.55874 2.683901 -0.795609 3 0 3 
z
" style="stroke: #3e3e3e; stroke-width: 0.5"/>
    </defs>
    <g clip-path="url(#pb0d55523ec)">
     <use xlink:href="#medb0565ae2" x="98.7675" y="232.852919" style="fill: #ffffff; stroke: #3e3e3e; stroke-width: 0.5"/>
    </g>
   </g>
   <g id="PathCollection_2">
    <g clip-path="url(#pb0d55523ec)">
     <use xlink:href="#medb0565ae2" x="227.5825" y="235.546119" style="fill: #ffffff; stroke: #3e3e3e; stroke-width: 0.5"/>
    </g>
   </g>
   <g id="PathCollection_3">
    <g clip-path="url(#pb0d55523ec)">
     <use xlink:href="#medb0565ae2" x="356.3975" y="232.763118" style="fill: #ffffff; stroke: #3e3e3e; stroke-width: 0.5"/>
    </g>
   </g>
   <g id="PathCollection_4">
    <g clip-path="url(#pb0d55523ec)">
     <use xlink:href="#medb0565ae2" x="485.2125" y="235.493504" style="fill: #ffffff; stroke: #3e3e3e; stroke-width: 0.5"/>
    </g>
   </g>
   <g id="PathCollection_5">
    <g clip-path="url(#pb0d55523ec)">
     <use xlink:href="#medb0565ae2" x="614.0275" y="232.69864" style="fill: #ffffff; stroke: #3e3e3e; stroke-width: 0.5"/>
    </g>
   </g>
   <g id="PathCollection_6">
    <g clip-path="url(#pb0d55523ec)">
     <use xlink:href="#medb0565ae2" x="742.8425" y="236.417826" style="fill: #ffffff; stroke: #3e3e3e; stroke-width: 0.5"/>
    </g>
   </g>
   <g id="PathCollection_7">
    <g clip-path="url(#pb0d55523ec)">
     <use xlink:href="#medb0565ae2" x="871.6575" y="232.968102" style="fill: #ffffff; stroke: #3e3e3e; stroke-width: 0.5"/>
    </g>
   </g>
   <g id="PathCollection_8">
    <g clip-path="url(#pb0d55523ec)">
     <use xlink:href="#medb0565ae2" x="1000.4725" y="232.663799" style="fill: #ffffff; stroke: #3e3e3e; stroke-width: 0.5"/>
    </g>
   </g>
  </g>
  <g id="text_14">
   <!-- Violin Plot of all Continuous Variables -->
   <g style="fill: #262626" transform="translate(416.035547 16.496719)scale(0.15 -0.15)">
    <defs>
     <path id="ArialMT-56" d="M 1803 0 
L 28 4581 
L 684 4581 
L 1875 1253 
Q 2019 853 2116 503 
Q 2222 878 2363 1253 
L 3600 4581 
L 4219 4581 
L 2425 0 
L 1803 0 
z
" transform="scale(0.015625)"/>
     <path id="ArialMT-6f" d="M 213 1659 
Q 213 2581 725 3025 
Q 1153 3394 1769 3394 
Q 2453 3394 2887 2945 
Q 3322 2497 3322 1706 
Q 3322 1066 3130 698 
Q 2938 331 2570 128 
Q 2203 -75 1769 -75 
Q 1072 -75 642 372 
Q 213 819 213 1659 
z
M 791 1659 
Q 791 1022 1069 705 
Q 1347 388 1769 388 
Q 2188 388 2466 706 
Q 2744 1025 2744 1678 
Q 2744 2294 2464 2611 
Q 2184 2928 1769 2928 
Q 1347 2928 1069 2612 
Q 791 2297 791 1659 
z
" transform="scale(0.015625)"/>
     <path id="ArialMT-20" transform="scale(0.015625)"/>
     <path id="ArialMT-66" d="M 556 0 
L 556 2881 
L 59 2881 
L 59 3319 
L 556 3319 
L 556 3672 
Q 556 4006 616 4169 
Q 697 4388 901 4523 
Q 1106 4659 1475 4659 
Q 1713 4659 2000 4603 
L 1916 4113 
Q 1741 4144 1584 4144 
Q 1328 4144 1222 4034 
Q 1116 3925 1116 3625 
L 1116 3319 
L 1763 3319 
L 1763 2881 
L 1116 2881 
L 1116 0 
L 556 0 
z
" transform="scale(0.015625)"/>
     <path id="ArialMT-61" d="M 2588 409 
Q 2275 144 1986 34 
Q 1697 -75 1366 -75 
Q 819 -75 525 192 
Q 231 459 231 875 
Q 231 1119 342 1320 
Q 453 1522 633 1644 
Q 813 1766 1038 1828 
Q 1203 1872 1538 1913 
Q 2219 1994 2541 2106 
Q 2544 2222 2544 2253 
Q 2544 2597 2384 2738 
Q 2169 2928 1744 2928 
Q 1347 2928 1158 2789 
Q 969 2650 878 2297 
L 328 2372 
Q 403 2725 575 2942 
Q 747 3159 1072 3276 
Q 1397 3394 1825 3394 
Q 2250 3394 2515 3294 
Q 2781 3194 2906 3042 
Q 3031 2891 3081 2659 
Q 3109 2516 3109 2141 
L 3109 1391 
Q 3109 606 3145 398 
Q 3181 191 3288 0 
L 2700 0 
Q 2613 175 2588 409 
z
M 2541 1666 
Q 2234 1541 1622 1453 
Q 1275 1403 1131 1340 
Q 988 1278 909 1158 
Q 831 1038 831 891 
Q 831 666 1001 516 
Q 1172 366 1500 366 
Q 1825 366 2078 508 
Q 2331 650 2450 897 
Q 2541 1088 2541 1459 
L 2541 1666 
z
" transform="scale(0.015625)"/>
     <path id="ArialMT-75" d="M 2597 0 
L 2597 488 
Q 2209 -75 1544 -75 
Q 1250 -75 995 37 
Q 741 150 617 320 
Q 494 491 444 738 
Q 409 903 409 1263 
L 409 3319 
L 972 3319 
L 972 1478 
Q 972 1038 1006 884 
Q 1059 663 1231 536 
Q 1403 409 1656 409 
Q 1909 409 2131 539 
Q 2353 669 2445 892 
Q 2538 1116 2538 1541 
L 2538 3319 
L 3100 3319 
L 3100 0 
L 2597 0 
z
" transform="scale(0.015625)"/>
     <path id="ArialMT-62" d="M 941 0 
L 419 0 
L 419 4581 
L 981 4581 
L 981 2947 
Q 1338 3394 1891 3394 
Q 2197 3394 2470 3270 
Q 2744 3147 2920 2923 
Q 3097 2700 3197 2384 
Q 3297 2069 3297 1709 
Q 3297 856 2875 390 
Q 2453 -75 1863 -75 
Q 1275 -75 941 416 
L 941 0 
z
M 934 1684 
Q 934 1088 1097 822 
Q 1363 388 1816 388 
Q 2184 388 2453 708 
Q 2722 1028 2722 1663 
Q 2722 2313 2464 2622 
Q 2206 2931 1841 2931 
Q 1472 2931 1203 2611 
Q 934 2291 934 1684 
z
" transform="scale(0.015625)"/>
     <path id="ArialMT-65" d="M 2694 1069 
L 3275 997 
Q 3138 488 2766 206 
Q 2394 -75 1816 -75 
Q 1088 -75 661 373 
Q 234 822 234 1631 
Q 234 2469 665 2931 
Q 1097 3394 1784 3394 
Q 2450 3394 2872 2941 
Q 3294 2488 3294 1666 
Q 3294 1616 3291 1516 
L 816 1516 
Q 847 969 1125 678 
Q 1403 388 1819 388 
Q 2128 388 2347 550 
Q 2566 713 2694 1069 
z
M 847 1978 
L 2700 1978 
Q 2663 2397 2488 2606 
Q 2219 2931 1791 2931 
Q 1403 2931 1139 2672 
Q 875 2413 847 1978 
z
" transform="scale(0.015625)"/>
    </defs>
    <use xlink:href="#ArialMT-56"/>
    <use xlink:href="#ArialMT-69" x="64.949219"/>
    <use xlink:href="#ArialMT-6f" x="87.166016"/>
    <use xlink:href="#ArialMT-6c" x="142.78125"/>
    <use xlink:href="#ArialMT-69" x="164.998047"/>
    <use xlink:href="#ArialMT-6e" x="187.214844"/>
    <use xlink:href="#ArialMT-20" x="242.830078"/>
    <use xlink:href="#ArialMT-50" x="270.613281"/>
    <use xlink:href="#ArialMT-6c" x="337.3125"/>
    <use xlink:href="#ArialMT-6f" x="359.529297"/>
    <use xlink:href="#ArialMT-74" x="415.144531"/>
    <use xlink:href="#ArialMT-20" x="442.927734"/>
    <use xlink:href="#ArialMT-6f" x="470.710938"/>
    <use xlink:href="#ArialMT-66" x="526.326172"/>
    <use xlink:href="#ArialMT-20" x="554.109375"/>
    <use xlink:href="#ArialMT-61" x="581.892578"/>
    <use xlink:href="#ArialMT-6c" x="637.507812"/>
    <use xlink:href="#ArialMT-6c" x="659.724609"/>
    <use xlink:href="#ArialMT-20" x="681.941406"/>
    <use xlink:href="#ArialMT-43" x="709.724609"/>
    <use xlink:href="#ArialMT-6f" x="781.941406"/>
    <use xlink:href="#ArialMT-6e" x="837.556641"/>
    <use xlink:href="#ArialMT-74" x="893.171875"/>
    <use xlink:href="#ArialMT-69" x="920.955078"/>
    <use xlink:href="#ArialMT-6e" x="943.171875"/>
    <use xlink:href="#ArialMT-75" x="998.787109"/>
    <use xlink:href="#ArialMT-6f" x="1054.402344"/>
    <use xlink:href="#ArialMT-75" x="1110.017578"/>
    <use xlink:href="#ArialMT-73" x="1165.632812"/>
    <use xlink:href="#ArialMT-20" x="1215.632812"/>
    <use xlink:href="#ArialMT-56" x="1243.416016"/>
    <use xlink:href="#ArialMT-61" x="1302.740234"/>
    <use xlink:href="#ArialMT-72" x="1358.355469"/>
    <use xlink:href="#ArialMT-69" x="1391.65625"/>
    <use xlink:href="#ArialMT-61" x="1413.873047"/>
    <use xlink:href="#ArialMT-62" x="1469.488281"/>
    <use xlink:href="#ArialMT-6c" x="1525.103516"/>
    <use xlink:href="#ArialMT-65" x="1547.320312"/>
    <use xlink:href="#ArialMT-73" x="1602.935547"/>
   </g>
  </g>
 </g>
 <defs>
  <clipPath id="pb0d55523ec">
   <rect x="34.36" y="43.92" width="1030.52" height="211.88"/>
  </clipPath>
 </defs>
</svg>
