<?xml version="1.0" encoding="utf-8" standalone="no"?>
<!DOCTYPE svg PUBLIC "-//W3C//DTD SVG 1.1//EN"
  "http://www.w3.org/Graphics/SVG/1.1/DTD/svg11.dtd">
<svg xmlns:xlink="http://www.w3.org/1999/xlink" width="1080pt" height="288pt" viewBox="0 0 1080 288" xmlns="http://www.w3.org/2000/svg" version="1.1">
 <metadata>
  <rdf:RDF xmlns:dc="http://purl.org/dc/elements/1.1/" xmlns:cc="http://creativecommons.org/ns#" xmlns:rdf="http://www.w3.org/1999/02/22-rdf-syntax-ns#">
   <cc:Work>
    <dc:type rdf:resource="http://purl.org/dc/dcmitype/StillImage"/>
    <dc:date>2023-04-25T14:55:44.066867</dc:date>
    <dc:format>image/svg+xml</dc:format>
    <dc:creator>
     <cc:Agent>
      <dc:title>Matplotlib v3.5.3, https://matplotlib.org/</dc:title>
     </cc:Agent>
    </dc:creator>
   </cc:Work>
  </rdf:RDF>
 </metadata>
 <defs>
  <style type="text/css">*{stroke-linejoin: round; stroke-linecap: butt}</style>
 </defs>
 <g id="figure_1">
  <g id="patch_1">
   <path d="M 0 288 
L 1080 288 
L 1080 0 
L 0 0 
z
" style="fill: #f0f0f0"/>
  </g>
  <g id="axes_1">
   <g id="patch_2">
    <path d="M 34.63 255.69875 
L 1064.88 255.69875 
L 1064.88 43.92 
L 34.63 43.92 
z
" style="fill: #f0f0f0"/>
   </g>
   <g id="matplotlib.axis_1">
    <g id="xtick_1">
     <g id="text_1">
      <!-- cum_Min -->
      <g style="fill: #262626" transform="translate(76.710391 270.572344)scale(0.11 -0.11)">
       <defs>
        <path id="ArialMT-63" d="M 2588 1216 
L 3141 1144 
Q 3050 572 2676 248 
Q 2303 -75 1759 -75 
Q 1078 -75 664 370 
Q 250 816 250 1647 
Q 250 2184 428 2587 
Q 606 2991 970 3192 
Q 1334 3394 1763 3394 
Q 2303 3394 2647 3120 
Q 2991 2847 3088 2344 
L 2541 2259 
Q 2463 2594 2264 2762 
Q 2066 2931 1784 2931 
Q 1359 2931 1093 2626 
Q 828 2322 828 1663 
Q 828 994 1084 691 
Q 1341 388 1753 388 
Q 2084 388 2306 591 
Q 2528 794 2588 1216 
z
" transform="scale(0.015625)"/>
        <path id="ArialMT-75" d="M 2597 0 
L 2597 488 
Q 2209 -75 1544 -75 
Q 1250 -75 995 37 
Q 741 150 617 320 
Q 494 491 444 738 
Q 409 903 409 1263 
L 409 3319 
L 972 3319 
L 972 1478 
Q 972 1038 1006 884 
Q 1059 663 1231 536 
Q 1403 409 1656 409 
Q 1909 409 2131 539 
Q 2353 669 2445 892 
Q 2538 1116 2538 1541 
L 2538 3319 
L 3100 3319 
L 3100 0 
L 2597 0 
z
" transform="scale(0.015625)"/>
        <path id="ArialMT-6d" d="M 422 0 
L 422 3319 
L 925 3319 
L 925 2853 
Q 1081 3097 1340 3245 
Q 1600 3394 1931 3394 
Q 2300 3394 2536 3241 
Q 2772 3088 2869 2813 
Q 3263 3394 3894 3394 
Q 4388 3394 4653 3120 
Q 4919 2847 4919 2278 
L 4919 0 
L 4359 0 
L 4359 2091 
Q 4359 2428 4304 2576 
Q 4250 2725 4106 2815 
Q 3963 2906 3769 2906 
Q 3419 2906 3187 2673 
Q 2956 2441 2956 1928 
L 2956 0 
L 2394 0 
L 2394 2156 
Q 2394 2531 2256 2718 
Q 2119 2906 1806 2906 
Q 1569 2906 1367 2781 
Q 1166 2656 1075 2415 
Q 984 2175 984 1722 
L 984 0 
L 422 0 
z
" transform="scale(0.015625)"/>
        <path id="ArialMT-5f" d="M -97 -1272 
L -97 -866 
L 3631 -866 
L 3631 -1272 
L -97 -1272 
z
" transform="scale(0.015625)"/>
        <path id="ArialMT-4d" d="M 475 0 
L 475 4581 
L 1388 4581 
L 2472 1338 
Q 2622 884 2691 659 
Q 2769 909 2934 1394 
L 4031 4581 
L 4847 4581 
L 4847 0 
L 4263 0 
L 4263 3834 
L 2931 0 
L 2384 0 
L 1059 3900 
L 1059 0 
L 475 0 
z
" transform="scale(0.015625)"/>
        <path id="ArialMT-69" d="M 425 3934 
L 425 4581 
L 988 4581 
L 988 3934 
L 425 3934 
z
M 425 0 
L 425 3319 
L 988 3319 
L 988 0 
L 425 0 
z
" transform="scale(0.015625)"/>
        <path id="ArialMT-6e" d="M 422 0 
L 422 3319 
L 928 3319 
L 928 2847 
Q 1294 3394 1984 3394 
Q 2284 3394 2536 3286 
Q 2788 3178 2913 3003 
Q 3038 2828 3088 2588 
Q 3119 2431 3119 2041 
L 3119 0 
L 2556 0 
L 2556 2019 
Q 2556 2363 2490 2533 
Q 2425 2703 2258 2804 
Q 2091 2906 1866 2906 
Q 1506 2906 1245 2678 
Q 984 2450 984 1813 
L 984 0 
L 422 0 
z
" transform="scale(0.015625)"/>
       </defs>
       <use xlink:href="#ArialMT-63"/>
       <use xlink:href="#ArialMT-75" x="50"/>
       <use xlink:href="#ArialMT-6d" x="105.615234"/>
       <use xlink:href="#ArialMT-5f" x="188.916016"/>
       <use xlink:href="#ArialMT-4d" x="244.53125"/>
       <use xlink:href="#ArialMT-69" x="327.832031"/>
       <use xlink:href="#ArialMT-6e" x="350.048828"/>
      </g>
     </g>
    </g>
    <g id="xtick_2">
     <g id="text_2">
      <!-- cum_Gls -->
      <g style="fill: #262626" transform="translate(206.103516 270.706406)scale(0.11 -0.11)">
       <defs>
        <path id="ArialMT-47" d="M 2638 1797 
L 2638 2334 
L 4578 2338 
L 4578 638 
Q 4131 281 3656 101 
Q 3181 -78 2681 -78 
Q 2006 -78 1454 211 
Q 903 500 622 1047 
Q 341 1594 341 2269 
Q 341 2938 620 3517 
Q 900 4097 1425 4378 
Q 1950 4659 2634 4659 
Q 3131 4659 3532 4498 
Q 3934 4338 4162 4050 
Q 4391 3763 4509 3300 
L 3963 3150 
Q 3859 3500 3706 3700 
Q 3553 3900 3268 4020 
Q 2984 4141 2638 4141 
Q 2222 4141 1919 4014 
Q 1616 3888 1430 3681 
Q 1244 3475 1141 3228 
Q 966 2803 966 2306 
Q 966 1694 1177 1281 
Q 1388 869 1791 669 
Q 2194 469 2647 469 
Q 3041 469 3416 620 
Q 3791 772 3984 944 
L 3984 1797 
L 2638 1797 
z
" transform="scale(0.015625)"/>
        <path id="ArialMT-6c" d="M 409 0 
L 409 4581 
L 972 4581 
L 972 0 
L 409 0 
z
" transform="scale(0.015625)"/>
        <path id="ArialMT-73" d="M 197 991 
L 753 1078 
Q 800 744 1014 566 
Q 1228 388 1613 388 
Q 2000 388 2187 545 
Q 2375 703 2375 916 
Q 2375 1106 2209 1216 
Q 2094 1291 1634 1406 
Q 1016 1563 777 1677 
Q 538 1791 414 1992 
Q 291 2194 291 2438 
Q 291 2659 392 2848 
Q 494 3038 669 3163 
Q 800 3259 1026 3326 
Q 1253 3394 1513 3394 
Q 1903 3394 2198 3281 
Q 2494 3169 2634 2976 
Q 2775 2784 2828 2463 
L 2278 2388 
Q 2241 2644 2061 2787 
Q 1881 2931 1553 2931 
Q 1166 2931 1000 2803 
Q 834 2675 834 2503 
Q 834 2394 903 2306 
Q 972 2216 1119 2156 
Q 1203 2125 1616 2013 
Q 2213 1853 2448 1751 
Q 2684 1650 2818 1456 
Q 2953 1263 2953 975 
Q 2953 694 2789 445 
Q 2625 197 2315 61 
Q 2006 -75 1616 -75 
Q 969 -75 630 194 
Q 291 463 197 991 
z
" transform="scale(0.015625)"/>
       </defs>
       <use xlink:href="#ArialMT-63"/>
       <use xlink:href="#ArialMT-75" x="50"/>
       <use xlink:href="#ArialMT-6d" x="105.615234"/>
       <use xlink:href="#ArialMT-5f" x="188.916016"/>
       <use xlink:href="#ArialMT-47" x="244.53125"/>
       <use xlink:href="#ArialMT-6c" x="322.314453"/>
       <use xlink:href="#ArialMT-73" x="344.53125"/>
      </g>
     </g>
    </g>
    <g id="xtick_3">
     <g id="text_3">
      <!-- cum_Ast -->
      <g style="fill: #262626" transform="translate(335.188125 270.572344)scale(0.11 -0.11)">
       <defs>
        <path id="ArialMT-41" d="M -9 0 
L 1750 4581 
L 2403 4581 
L 4278 0 
L 3588 0 
L 3053 1388 
L 1138 1388 
L 634 0 
L -9 0 
z
M 1313 1881 
L 2866 1881 
L 2388 3150 
Q 2169 3728 2063 4100 
Q 1975 3659 1816 3225 
L 1313 1881 
z
" transform="scale(0.015625)"/>
        <path id="ArialMT-74" d="M 1650 503 
L 1731 6 
Q 1494 -44 1306 -44 
Q 1000 -44 831 53 
Q 663 150 594 308 
Q 525 466 525 972 
L 525 2881 
L 113 2881 
L 113 3319 
L 525 3319 
L 525 4141 
L 1084 4478 
L 1084 3319 
L 1650 3319 
L 1650 2881 
L 1084 2881 
L 1084 941 
Q 1084 700 1114 631 
Q 1144 563 1211 522 
Q 1278 481 1403 481 
Q 1497 481 1650 503 
z
" transform="scale(0.015625)"/>
       </defs>
       <use xlink:href="#ArialMT-63"/>
       <use xlink:href="#ArialMT-75" x="50"/>
       <use xlink:href="#ArialMT-6d" x="105.615234"/>
       <use xlink:href="#ArialMT-5f" x="188.916016"/>
       <use xlink:href="#ArialMT-41" x="244.53125"/>
       <use xlink:href="#ArialMT-73" x="311.230469"/>
       <use xlink:href="#ArialMT-74" x="361.230469"/>
      </g>
     </g>
    </g>
    <g id="xtick_4">
     <g id="text_4">
      <!-- cum_CrdY -->
      <g style="fill: #262626" transform="translate(459.385469 270.706406)scale(0.11 -0.11)">
       <defs>
        <path id="ArialMT-43" d="M 3763 1606 
L 4369 1453 
Q 4178 706 3683 314 
Q 3188 -78 2472 -78 
Q 1731 -78 1267 223 
Q 803 525 561 1097 
Q 319 1669 319 2325 
Q 319 3041 592 3573 
Q 866 4106 1370 4382 
Q 1875 4659 2481 4659 
Q 3169 4659 3637 4309 
Q 4106 3959 4291 3325 
L 3694 3184 
Q 3534 3684 3231 3912 
Q 2928 4141 2469 4141 
Q 1941 4141 1586 3887 
Q 1231 3634 1087 3207 
Q 944 2781 944 2328 
Q 944 1744 1114 1308 
Q 1284 872 1643 656 
Q 2003 441 2422 441 
Q 2931 441 3284 734 
Q 3638 1028 3763 1606 
z
" transform="scale(0.015625)"/>
        <path id="ArialMT-72" d="M 416 0 
L 416 3319 
L 922 3319 
L 922 2816 
Q 1116 3169 1280 3281 
Q 1444 3394 1641 3394 
Q 1925 3394 2219 3213 
L 2025 2691 
Q 1819 2813 1613 2813 
Q 1428 2813 1281 2702 
Q 1134 2591 1072 2394 
Q 978 2094 978 1738 
L 978 0 
L 416 0 
z
" transform="scale(0.015625)"/>
        <path id="ArialMT-64" d="M 2575 0 
L 2575 419 
Q 2259 -75 1647 -75 
Q 1250 -75 917 144 
Q 584 363 401 755 
Q 219 1147 219 1656 
Q 219 2153 384 2558 
Q 550 2963 881 3178 
Q 1213 3394 1622 3394 
Q 1922 3394 2156 3267 
Q 2391 3141 2538 2938 
L 2538 4581 
L 3097 4581 
L 3097 0 
L 2575 0 
z
M 797 1656 
Q 797 1019 1065 703 
Q 1334 388 1700 388 
Q 2069 388 2326 689 
Q 2584 991 2584 1609 
Q 2584 2291 2321 2609 
Q 2059 2928 1675 2928 
Q 1300 2928 1048 2622 
Q 797 2316 797 1656 
z
" transform="scale(0.015625)"/>
        <path id="ArialMT-59" d="M 1784 0 
L 1784 1941 
L 19 4581 
L 756 4581 
L 1659 3200 
Q 1909 2813 2125 2425 
Q 2331 2784 2625 3234 
L 3513 4581 
L 4219 4581 
L 2391 1941 
L 2391 0 
L 1784 0 
z
" transform="scale(0.015625)"/>
       </defs>
       <use xlink:href="#ArialMT-63"/>
       <use xlink:href="#ArialMT-75" x="50"/>
       <use xlink:href="#ArialMT-6d" x="105.615234"/>
       <use xlink:href="#ArialMT-5f" x="188.916016"/>
       <use xlink:href="#ArialMT-43" x="244.53125"/>
       <use xlink:href="#ArialMT-72" x="316.748047"/>
       <use xlink:href="#ArialMT-64" x="350.048828"/>
       <use xlink:href="#ArialMT-59" x="405.664062"/>
      </g>
     </g>
    </g>
    <g id="xtick_5">
     <g id="text_5">
      <!-- days_remaining -->
      <g style="fill: #262626" transform="translate(575.320781 270.572344)scale(0.11 -0.11)">
       <defs>
        <path id="ArialMT-61" d="M 2588 409 
Q 2275 144 1986 34 
Q 1697 -75 1366 -75 
Q 819 -75 525 192 
Q 231 459 231 875 
Q 231 1119 342 1320 
Q 453 1522 633 1644 
Q 813 1766 1038 1828 
Q 1203 1872 1538 1913 
Q 2219 1994 2541 2106 
Q 2544 2222 2544 2253 
Q 2544 2597 2384 2738 
Q 2169 2928 1744 2928 
Q 1347 2928 1158 2789 
Q 969 2650 878 2297 
L 328 2372 
Q 403 2725 575 2942 
Q 747 3159 1072 3276 
Q 1397 3394 1825 3394 
Q 2250 3394 2515 3294 
Q 2781 3194 2906 3042 
Q 3031 2891 3081 2659 
Q 3109 2516 3109 2141 
L 3109 1391 
Q 3109 606 3145 398 
Q 3181 191 3288 0 
L 2700 0 
Q 2613 175 2588 409 
z
M 2541 1666 
Q 2234 1541 1622 1453 
Q 1275 1403 1131 1340 
Q 988 1278 909 1158 
Q 831 1038 831 891 
Q 831 666 1001 516 
Q 1172 366 1500 366 
Q 1825 366 2078 508 
Q 2331 650 2450 897 
Q 2541 1088 2541 1459 
L 2541 1666 
z
" transform="scale(0.015625)"/>
        <path id="ArialMT-79" d="M 397 -1278 
L 334 -750 
Q 519 -800 656 -800 
Q 844 -800 956 -737 
Q 1069 -675 1141 -563 
Q 1194 -478 1313 -144 
Q 1328 -97 1363 -6 
L 103 3319 
L 709 3319 
L 1400 1397 
Q 1534 1031 1641 628 
Q 1738 1016 1872 1384 
L 2581 3319 
L 3144 3319 
L 1881 -56 
Q 1678 -603 1566 -809 
Q 1416 -1088 1222 -1217 
Q 1028 -1347 759 -1347 
Q 597 -1347 397 -1278 
z
" transform="scale(0.015625)"/>
        <path id="ArialMT-65" d="M 2694 1069 
L 3275 997 
Q 3138 488 2766 206 
Q 2394 -75 1816 -75 
Q 1088 -75 661 373 
Q 234 822 234 1631 
Q 234 2469 665 2931 
Q 1097 3394 1784 3394 
Q 2450 3394 2872 2941 
Q 3294 2488 3294 1666 
Q 3294 1616 3291 1516 
L 816 1516 
Q 847 969 1125 678 
Q 1403 388 1819 388 
Q 2128 388 2347 550 
Q 2566 713 2694 1069 
z
M 847 1978 
L 2700 1978 
Q 2663 2397 2488 2606 
Q 2219 2931 1791 2931 
Q 1403 2931 1139 2672 
Q 875 2413 847 1978 
z
" transform="scale(0.015625)"/>
        <path id="ArialMT-67" d="M 319 -275 
L 866 -356 
Q 900 -609 1056 -725 
Q 1266 -881 1628 -881 
Q 2019 -881 2231 -725 
Q 2444 -569 2519 -288 
Q 2563 -116 2559 434 
Q 2191 0 1641 0 
Q 956 0 581 494 
Q 206 988 206 1678 
Q 206 2153 378 2554 
Q 550 2956 876 3175 
Q 1203 3394 1644 3394 
Q 2231 3394 2613 2919 
L 2613 3319 
L 3131 3319 
L 3131 450 
Q 3131 -325 2973 -648 
Q 2816 -972 2473 -1159 
Q 2131 -1347 1631 -1347 
Q 1038 -1347 672 -1080 
Q 306 -813 319 -275 
z
M 784 1719 
Q 784 1066 1043 766 
Q 1303 466 1694 466 
Q 2081 466 2343 764 
Q 2606 1063 2606 1700 
Q 2606 2309 2336 2618 
Q 2066 2928 1684 2928 
Q 1309 2928 1046 2623 
Q 784 2319 784 1719 
z
" transform="scale(0.015625)"/>
       </defs>
       <use xlink:href="#ArialMT-64"/>
       <use xlink:href="#ArialMT-61" x="55.615234"/>
       <use xlink:href="#ArialMT-79" x="111.230469"/>
       <use xlink:href="#ArialMT-73" x="161.230469"/>
       <use xlink:href="#ArialMT-5f" x="211.230469"/>
       <use xlink:href="#ArialMT-72" x="266.845703"/>
       <use xlink:href="#ArialMT-65" x="300.146484"/>
       <use xlink:href="#ArialMT-6d" x="355.761719"/>
       <use xlink:href="#ArialMT-61" x="439.0625"/>
       <use xlink:href="#ArialMT-69" x="494.677734"/>
       <use xlink:href="#ArialMT-6e" x="516.894531"/>
       <use xlink:href="#ArialMT-69" x="572.509766"/>
       <use xlink:href="#ArialMT-6e" x="594.726562"/>
       <use xlink:href="#ArialMT-67" x="650.341797"/>
      </g>
     </g>
    </g>
    <g id="xtick_6">
     <g id="text_6">
      <!-- age -->
      <g style="fill: #262626" transform="translate(733.751328 270.443438)scale(0.11 -0.11)">
       <use xlink:href="#ArialMT-61"/>
       <use xlink:href="#ArialMT-67" x="55.615234"/>
       <use xlink:href="#ArialMT-65" x="111.230469"/>
      </g>
     </g>
    </g>
    <g id="xtick_7">
     <g id="text_7">
      <!-- cum_PK -->
      <g style="fill: #262626" transform="translate(850.922422 270.572344)scale(0.11 -0.11)">
       <defs>
        <path id="ArialMT-50" d="M 494 0 
L 494 4581 
L 2222 4581 
Q 2678 4581 2919 4538 
Q 3256 4481 3484 4323 
Q 3713 4166 3852 3881 
Q 3991 3597 3991 3256 
Q 3991 2672 3619 2267 
Q 3247 1863 2275 1863 
L 1100 1863 
L 1100 0 
L 494 0 
z
M 1100 2403 
L 2284 2403 
Q 2872 2403 3119 2622 
Q 3366 2841 3366 3238 
Q 3366 3525 3220 3729 
Q 3075 3934 2838 4000 
Q 2684 4041 2272 4041 
L 1100 4041 
L 1100 2403 
z
" transform="scale(0.015625)"/>
        <path id="ArialMT-4b" d="M 469 0 
L 469 4581 
L 1075 4581 
L 1075 2309 
L 3350 4581 
L 4172 4581 
L 2250 2725 
L 4256 0 
L 3456 0 
L 1825 2319 
L 1075 1588 
L 1075 0 
L 469 0 
z
" transform="scale(0.015625)"/>
       </defs>
       <use xlink:href="#ArialMT-63"/>
       <use xlink:href="#ArialMT-75" x="50"/>
       <use xlink:href="#ArialMT-6d" x="105.615234"/>
       <use xlink:href="#ArialMT-5f" x="188.916016"/>
       <use xlink:href="#ArialMT-50" x="244.53125"/>
       <use xlink:href="#ArialMT-4b" x="311.230469"/>
      </g>
     </g>
    </g>
    <g id="xtick_8">
     <g id="text_8">
      <!-- cum_CrdR -->
      <g style="fill: #262626" transform="translate(974.207109 270.706406)scale(0.11 -0.11)">
       <defs>
        <path id="ArialMT-52" d="M 503 0 
L 503 4581 
L 2534 4581 
Q 3147 4581 3465 4457 
Q 3784 4334 3975 4021 
Q 4166 3709 4166 3331 
Q 4166 2844 3850 2509 
Q 3534 2175 2875 2084 
Q 3116 1969 3241 1856 
Q 3506 1613 3744 1247 
L 4541 0 
L 3778 0 
L 3172 953 
Q 2906 1366 2734 1584 
Q 2563 1803 2427 1890 
Q 2291 1978 2150 2013 
Q 2047 2034 1813 2034 
L 1109 2034 
L 1109 0 
L 503 0 
z
M 1109 2559 
L 2413 2559 
Q 2828 2559 3062 2645 
Q 3297 2731 3419 2920 
Q 3541 3109 3541 3331 
Q 3541 3656 3305 3865 
Q 3069 4075 2559 4075 
L 1109 4075 
L 1109 2559 
z
" transform="scale(0.015625)"/>
       </defs>
       <use xlink:href="#ArialMT-63"/>
       <use xlink:href="#ArialMT-75" x="50"/>
       <use xlink:href="#ArialMT-6d" x="105.615234"/>
       <use xlink:href="#ArialMT-5f" x="188.916016"/>
       <use xlink:href="#ArialMT-43" x="244.53125"/>
       <use xlink:href="#ArialMT-72" x="316.748047"/>
       <use xlink:href="#ArialMT-64" x="350.048828"/>
       <use xlink:href="#ArialMT-52" x="405.664062"/>
      </g>
     </g>
    </g>
   </g>
   <g id="matplotlib.axis_2">
    <g id="ytick_1">
     <g id="line2d_1">
      <path d="M 34.63 220.587786 
L 1064.88 220.587786 
" clip-path="url(#p19e616e579)" style="fill: none; stroke: #cbcbcb"/>
     </g>
     <g id="text_9">
      <!-- −2 -->
      <g style="fill: #262626" transform="translate(15.088281 224.524583)scale(0.11 -0.11)">
       <defs>
        <path id="ArialMT-2212" d="M 3381 1997 
L 356 1997 
L 356 2522 
L 3381 2522 
L 3381 1997 
z
" transform="scale(0.015625)"/>
        <path id="ArialMT-32" d="M 3222 541 
L 3222 0 
L 194 0 
Q 188 203 259 391 
Q 375 700 629 1000 
Q 884 1300 1366 1694 
Q 2113 2306 2375 2664 
Q 2638 3022 2638 3341 
Q 2638 3675 2398 3904 
Q 2159 4134 1775 4134 
Q 1369 4134 1125 3890 
Q 881 3647 878 3216 
L 300 3275 
Q 359 3922 746 4261 
Q 1134 4600 1788 4600 
Q 2447 4600 2831 4234 
Q 3216 3869 3216 3328 
Q 3216 3053 3103 2787 
Q 2991 2522 2730 2228 
Q 2469 1934 1863 1422 
Q 1356 997 1212 845 
Q 1069 694 975 541 
L 3222 541 
z
" transform="scale(0.015625)"/>
       </defs>
       <use xlink:href="#ArialMT-2212"/>
       <use xlink:href="#ArialMT-32" x="58.398438"/>
      </g>
     </g>
    </g>
    <g id="ytick_2">
     <g id="line2d_2">
      <path d="M 34.63 175.364495 
L 1064.88 175.364495 
" clip-path="url(#p19e616e579)" style="fill: none; stroke: #cbcbcb"/>
     </g>
     <g id="text_10">
      <!-- 0 -->
      <g style="fill: #262626" transform="translate(21.512969 179.301291)scale(0.11 -0.11)">
       <defs>
        <path id="ArialMT-30" d="M 266 2259 
Q 266 3072 433 3567 
Q 600 4063 929 4331 
Q 1259 4600 1759 4600 
Q 2128 4600 2406 4451 
Q 2684 4303 2865 4023 
Q 3047 3744 3150 3342 
Q 3253 2941 3253 2259 
Q 3253 1453 3087 958 
Q 2922 463 2592 192 
Q 2263 -78 1759 -78 
Q 1097 -78 719 397 
Q 266 969 266 2259 
z
M 844 2259 
Q 844 1131 1108 757 
Q 1372 384 1759 384 
Q 2147 384 2411 759 
Q 2675 1134 2675 2259 
Q 2675 3391 2411 3762 
Q 2147 4134 1753 4134 
Q 1366 4134 1134 3806 
Q 844 3388 844 2259 
z
" transform="scale(0.015625)"/>
       </defs>
       <use xlink:href="#ArialMT-30"/>
      </g>
     </g>
    </g>
    <g id="ytick_3">
     <g id="line2d_3">
      <path d="M 34.63 130.141203 
L 1064.88 130.141203 
" clip-path="url(#p19e616e579)" style="fill: none; stroke: #cbcbcb"/>
     </g>
     <g id="text_11">
      <!-- 2 -->
      <g style="fill: #262626" transform="translate(21.512969 134.078)scale(0.11 -0.11)">
       <use xlink:href="#ArialMT-32"/>
      </g>
     </g>
    </g>
    <g id="ytick_4">
     <g id="line2d_4">
      <path d="M 34.63 84.917912 
L 1064.88 84.917912 
" clip-path="url(#p19e616e579)" style="fill: none; stroke: #cbcbcb"/>
     </g>
     <g id="text_12">
      <!-- 4 -->
      <g style="fill: #262626" transform="translate(21.512969 88.854709)scale(0.11 -0.11)">
       <defs>
        <path id="ArialMT-34" d="M 2069 0 
L 2069 1097 
L 81 1097 
L 81 1613 
L 2172 4581 
L 2631 4581 
L 2631 1613 
L 3250 1613 
L 3250 1097 
L 2631 1097 
L 2631 0 
L 2069 0 
z
M 2069 1613 
L 2069 3678 
L 634 1613 
L 2069 1613 
z
" transform="scale(0.015625)"/>
       </defs>
       <use xlink:href="#ArialMT-34"/>
      </g>
     </g>
    </g>
   </g>
   <g id="PolyCollection_1">
    <defs>
     <path id="m5ee5c0bc98" d="M 100.769873 -54.648444 
L 97.271377 -54.648444 
L 96.760836 -55.88374 
L 96.138717 -57.119035 
L 95.392164 -58.354331 
L 94.510028 -59.589626 
L 93.483824 -60.824922 
L 92.308698 -62.060217 
L 90.984333 -63.295513 
L 89.5157 -64.530808 
L 87.913566 -65.766104 
L 86.194678 -67.001399 
L 84.381566 -68.236695 
L 82.501935 -69.471991 
L 80.587648 -70.707286 
L 78.673358 -71.942582 
L 76.794866 -73.177877 
L 74.987337 -74.413173 
L 73.283503 -75.648468 
L 71.712005 -76.883764 
L 70.296012 -78.119059 
L 69.052222 -79.354355 
L 67.990324 -80.58965 
L 67.112934 -81.824946 
L 66.415992 -83.060242 
L 65.889549 -84.295537 
L 65.518833 -85.530833 
L 65.285484 -86.766128 
L 65.168815 -88.001424 
L 65.147 -89.236719 
L 65.198075 -90.472015 
L 65.300706 -91.70731 
L 65.434685 -92.942606 
L 65.581183 -94.177901 
L 65.722771 -95.413197 
L 65.843295 -96.648493 
L 65.927659 -97.883788 
L 65.961599 -99.119084 
L 65.931497 -100.354379 
L 65.82431 -101.589675 
L 65.62763 -102.82497 
L 65.329893 -104.060266 
L 64.920754 -105.295561 
L 64.391591 -106.530857 
L 63.736124 -107.766152 
L 62.951106 -109.001448 
L 62.037042 -110.236744 
L 60.99888 -111.472039 
L 59.846616 -112.707335 
L 58.595753 -113.94263 
L 57.267549 -115.177926 
L 55.888999 -116.413221 
L 54.4925 -117.648517 
L 53.115173 -118.883812 
L 51.797823 -120.119108 
L 50.583568 -121.354404 
L 49.516182 -122.589699 
L 48.638237 -123.824995 
L 47.989148 -125.06029 
L 47.603264 -126.295586 
L 47.508125 -127.530881 
L 47.723023 -128.766177 
L 48.25798 -130.001472 
L 49.113225 -131.236768 
L 50.279197 -132.472063 
L 51.737088 -133.707359 
L 53.459864 -134.942655 
L 55.413694 -136.17795 
L 57.559658 -137.413246 
L 59.855624 -138.648541 
L 62.25815 -139.883837 
L 64.724293 -141.119132 
L 67.213223 -142.354428 
L 69.687562 -143.589723 
L 72.11439 -144.825019 
L 74.465912 -146.060314 
L 76.719778 -147.29561 
L 78.859087 -148.530906 
L 80.872122 -149.766201 
L 82.75188 -151.001497 
L 84.49544 -152.236792 
L 86.10325 -153.472088 
L 87.578391 -154.707383 
L 88.925858 -155.942679 
L 90.151913 -157.177974 
L 91.26353 -158.41327 
L 92.267954 -159.648565 
L 93.172384 -160.883861 
L 93.983763 -162.119157 
L 94.708673 -163.354452 
L 95.353303 -164.589748 
L 95.923485 -165.825043 
L 96.42475 -167.060339 
L 96.862407 -168.295634 
L 97.241608 -169.53093 
L 97.567401 -170.766225 
L 97.844756 -172.001521 
L 98.078566 -173.236816 
L 98.27362 -174.472112 
L 98.434566 -175.707408 
L 98.565855 -176.942703 
L 99.475395 -176.942703 
L 99.475395 -176.942703 
L 99.606684 -175.707408 
L 99.76763 -174.472112 
L 99.962684 -173.236816 
L 100.196494 -172.001521 
L 100.473849 -170.766225 
L 100.799642 -169.53093 
L 101.178843 -168.295634 
L 101.6165 -167.060339 
L 102.117765 -165.825043 
L 102.687947 -164.589748 
L 103.332577 -163.354452 
L 104.057487 -162.119157 
L 104.868866 -160.883861 
L 105.773296 -159.648565 
L 106.77772 -158.41327 
L 107.889337 -157.177974 
L 109.115392 -155.942679 
L 110.462859 -154.707383 
L 111.938 -153.472088 
L 113.54581 -152.236792 
L 115.28937 -151.001497 
L 117.169128 -149.766201 
L 119.182163 -148.530906 
L 121.321472 -147.29561 
L 123.575338 -146.060314 
L 125.92686 -144.825019 
L 128.353688 -143.589723 
L 130.828027 -142.354428 
L 133.316957 -141.119132 
L 135.7831 -139.883837 
L 138.185626 -138.648541 
L 140.481592 -137.413246 
L 142.627556 -136.17795 
L 144.581386 -134.942655 
L 146.304162 -133.707359 
L 147.762053 -132.472063 
L 148.928025 -131.236768 
L 149.78327 -130.001472 
L 150.318227 -128.766177 
L 150.533125 -127.530881 
L 150.437986 -126.295586 
L 150.052102 -125.06029 
L 149.403013 -123.824995 
L 148.525068 -122.589699 
L 147.457682 -121.354404 
L 146.243427 -120.119108 
L 144.926077 -118.883812 
L 143.54875 -117.648517 
L 142.152251 -116.413221 
L 140.773701 -115.177926 
L 139.445497 -113.94263 
L 138.194634 -112.707335 
L 137.04237 -111.472039 
L 136.004208 -110.236744 
L 135.090144 -109.001448 
L 134.305126 -107.766152 
L 133.649659 -106.530857 
L 133.120496 -105.295561 
L 132.711357 -104.060266 
L 132.41362 -102.82497 
L 132.21694 -101.589675 
L 132.109753 -100.354379 
L 132.079651 -99.119084 
L 132.113591 -97.883788 
L 132.197955 -96.648493 
L 132.318479 -95.413197 
L 132.460067 -94.177901 
L 132.606565 -92.942606 
L 132.740544 -91.70731 
L 132.843175 -90.472015 
L 132.89425 -89.236719 
L 132.872435 -88.001424 
L 132.755766 -86.766128 
L 132.522417 -85.530833 
L 132.151701 -84.295537 
L 131.625258 -83.060242 
L 130.928316 -81.824946 
L 130.050926 -80.58965 
L 128.989028 -79.354355 
L 127.745238 -78.119059 
L 126.329245 -76.883764 
L 124.757747 -75.648468 
L 123.053913 -74.413173 
L 121.246384 -73.177877 
L 119.367892 -71.942582 
L 117.453602 -70.707286 
L 115.539315 -69.471991 
L 113.659684 -68.236695 
L 111.846572 -67.001399 
L 110.127684 -65.766104 
L 108.52555 -64.530808 
L 107.056917 -63.295513 
L 105.732552 -62.060217 
L 104.557426 -60.824922 
L 103.531222 -59.589626 
L 102.649086 -58.354331 
L 101.902533 -57.119035 
L 101.280414 -55.88374 
L 100.769873 -54.648444 
z
" style="stroke: #3e3e3e; stroke-width: 3"/>
    </defs>
    <g clip-path="url(#p19e616e579)">
     <use xlink:href="#m5ee5c0bc98" x="0" y="288" style="fill: #cb3335; stroke: #3e3e3e; stroke-width: 3"/>
    </g>
   </g>
   <g id="PolyCollection_2">
    <defs>
     <path id="m5683252f82" d="M 231.635927 -76.431407 
L 223.967823 -76.431407 
L 222.830496 -77.744015 
L 221.448433 -79.056624 
L 219.798138 -80.369233 
L 217.862258 -81.681841 
L 215.632034 -82.99445 
L 213.109633 -84.307058 
L 210.310128 -85.619667 
L 207.262882 -86.932275 
L 204.012103 -88.244884 
L 200.616415 -89.557492 
L 197.147332 -90.870101 
L 193.686671 -92.18271 
L 190.323001 -93.495318 
L 187.147364 -94.807927 
L 184.248591 -96.120535 
L 181.70858 -97.433144 
L 179.597917 -98.745752 
L 177.972222 -100.058361 
L 176.869494 -101.370969 
L 176.308658 -102.683578 
L 176.289375 -103.996187 
L 176.79308 -105.308795 
L 177.785065 -106.621404 
L 179.217371 -107.934012 
L 181.032183 -109.246621 
L 183.165421 -110.559229 
L 185.55023 -111.871838 
L 188.120121 -113.184446 
L 190.81161 -114.497055 
L 193.566233 -115.809664 
L 196.331923 -117.122272 
L 199.063788 -118.434881 
L 201.724352 -119.747489 
L 204.283386 -121.060098 
L 206.717428 -122.372706 
L 209.009103 -123.685315 
L 211.146351 -124.997923 
L 213.121624 -126.310532 
L 214.931118 -127.623141 
L 216.574077 -128.935749 
L 218.052189 -130.248358 
L 219.36908 -131.560966 
L 220.529912 -132.873575 
L 221.541072 -134.186183 
L 222.409939 -135.498792 
L 223.144712 -136.811401 
L 223.754287 -138.124009 
L 224.248145 -139.436618 
L 224.636255 -140.749226 
L 224.928952 -142.061835 
L 225.136792 -143.374443 
L 225.270381 -144.687052 
L 225.340165 -145.99966 
L 225.356204 -147.312269 
L 225.327936 -148.624878 
L 225.26396 -149.937486 
L 225.171842 -151.250095 
L 225.057991 -152.562703 
L 224.927588 -153.875312 
L 224.784615 -155.18792 
L 224.63195 -156.500529 
L 224.471557 -157.813137 
L 224.304727 -159.125746 
L 224.132376 -160.438355 
L 223.955352 -161.750963 
L 223.774744 -163.063572 
L 223.592147 -164.37618 
L 223.40987 -165.688789 
L 223.231062 -167.001397 
L 223.059742 -168.314006 
L 222.900725 -169.626614 
L 222.759453 -170.939223 
L 222.64173 -172.251832 
L 222.553398 -173.56444 
L 222.499963 -174.877049 
L 222.486213 -176.189657 
L 222.515861 -177.502266 
L 222.591239 -178.814874 
L 222.713076 -180.127483 
L 222.88038 -181.440091 
L 223.090432 -182.7527 
L 223.338898 -184.065309 
L 223.620046 -185.377917 
L 223.927053 -186.690526 
L 224.252371 -188.003134 
L 224.588123 -189.315743 
L 224.926507 -190.628351 
L 225.260162 -191.94096 
L 225.582485 -193.253569 
L 225.887874 -194.566177 
L 226.171892 -195.878786 
L 226.431336 -197.191394 
L 226.664236 -198.504003 
L 226.869776 -199.816611 
L 227.048162 -201.12922 
L 227.200453 -202.441828 
L 227.328366 -203.754437 
L 227.434086 -205.067046 
L 227.520077 -206.379654 
L 228.083673 -206.379654 
L 228.083673 -206.379654 
L 228.169664 -205.067046 
L 228.275384 -203.754437 
L 228.403297 -202.441828 
L 228.555588 -201.12922 
L 228.733974 -199.816611 
L 228.939514 -198.504003 
L 229.172414 -197.191394 
L 229.431858 -195.878786 
L 229.715876 -194.566177 
L 230.021265 -193.253569 
L 230.343588 -191.94096 
L 230.677243 -190.628351 
L 231.015627 -189.315743 
L 231.351379 -188.003134 
L 231.676697 -186.690526 
L 231.983704 -185.377917 
L 232.264852 -184.065309 
L 232.513318 -182.7527 
L 232.72337 -181.440091 
L 232.890674 -180.127483 
L 233.012511 -178.814874 
L 233.087889 -177.502266 
L 233.117537 -176.189657 
L 233.103787 -174.877049 
L 233.050352 -173.56444 
L 232.96202 -172.251832 
L 232.844297 -170.939223 
L 232.703025 -169.626614 
L 232.544008 -168.314006 
L 232.372688 -167.001397 
L 232.19388 -165.688789 
L 232.011603 -164.37618 
L 231.829006 -163.063572 
L 231.648398 -161.750963 
L 231.471374 -160.438355 
L 231.299023 -159.125746 
L 231.132193 -157.813137 
L 230.9718 -156.500529 
L 230.819135 -155.18792 
L 230.676162 -153.875312 
L 230.545759 -152.562703 
L 230.431908 -151.250095 
L 230.33979 -149.937486 
L 230.275814 -148.624878 
L 230.247546 -147.312269 
L 230.263585 -145.99966 
L 230.333369 -144.687052 
L 230.466958 -143.374443 
L 230.674798 -142.061835 
L 230.967495 -140.749226 
L 231.355605 -139.436618 
L 231.849463 -138.124009 
L 232.459038 -136.811401 
L 233.193811 -135.498792 
L 234.062678 -134.186183 
L 235.073838 -132.873575 
L 236.23467 -131.560966 
L 237.551561 -130.248358 
L 239.029673 -128.935749 
L 240.672632 -127.623141 
L 242.482126 -126.310532 
L 244.457399 -124.997923 
L 246.594647 -123.685315 
L 248.886322 -122.372706 
L 251.320364 -121.060098 
L 253.879398 -119.747489 
L 256.539962 -118.434881 
L 259.271827 -117.122272 
L 262.037517 -115.809664 
L 264.79214 -114.497055 
L 267.483629 -113.184446 
L 270.05352 -111.871838 
L 272.438329 -110.559229 
L 274.571567 -109.246621 
L 276.386379 -107.934012 
L 277.818685 -106.621404 
L 278.81067 -105.308795 
L 279.314375 -103.996187 
L 279.295092 -102.683578 
L 278.734256 -101.370969 
L 277.631528 -100.058361 
L 276.005833 -98.745752 
L 273.89517 -97.433144 
L 271.355159 -96.120535 
L 268.456386 -94.807927 
L 265.280749 -93.495318 
L 261.917079 -92.18271 
L 258.456418 -90.870101 
L 254.987335 -89.557492 
L 251.591647 -88.244884 
L 248.340868 -86.932275 
L 245.293622 -85.619667 
L 242.494117 -84.307058 
L 239.971716 -82.99445 
L 237.741492 -81.681841 
L 235.805612 -80.369233 
L 234.155317 -79.056624 
L 232.773254 -77.744015 
L 231.635927 -76.431407 
z
" style="stroke: #3e3e3e; stroke-width: 3"/>
    </defs>
    <g clip-path="url(#p19e616e579)">
     <use xlink:href="#m5683252f82" x="0" y="288" style="fill: #477ca8; stroke: #3e3e3e; stroke-width: 3"/>
    </g>
   </g>
   <g id="PolyCollection_3">
    <defs>
     <path id="m2fb92880cc" d="M 360.527844 -71.875882 
L 352.638406 -71.875882 
L 351.292834 -73.388998 
L 349.622827 -74.902114 
L 347.597822 -76.41523 
L 345.199689 -77.928346 
L 342.427235 -79.441462 
L 339.300061 -80.954578 
L 335.861165 -82.467694 
L 332.177715 -83.98081 
L 328.339602 -85.493926 
L 324.455586 -87.007042 
L 320.647157 -88.520158 
L 317.040555 -90.033274 
L 313.75766 -91.54639 
L 310.906691 -93.059506 
L 308.573713 -94.572622 
L 306.815964 -96.085738 
L 305.657781 -97.598855 
L 305.089662 -99.111971 
L 305.070625 -100.625087 
L 305.533628 -102.138203 
L 306.393446 -103.651319 
L 307.556091 -105.164435 
L 308.928648 -106.677551 
L 310.428352 -108.190667 
L 311.989793 -109.703783 
L 313.569403 -111.216899 
L 315.146712 -112.730015 
L 316.722334 -114.243131 
L 318.313088 -115.756247 
L 319.945076 -117.269363 
L 321.645831 -118.782479 
L 323.43677 -120.295595 
L 325.327088 -121.808711 
L 327.309989 -123.321827 
L 329.361718 -124.834943 
L 331.443424 -126.348059 
L 333.505409 -127.861175 
L 335.492973 -129.374292 
L 337.352881 -130.887408 
L 339.039442 -132.400524 
L 340.519339 -133.91364 
L 341.774642 -135.426756 
L 342.803733 -136.939872 
L 343.620266 -138.452988 
L 344.250506 -139.966104 
L 344.729616 -141.47922 
L 345.097508 -142.992336 
L 345.394835 -144.505452 
L 345.659578 -146.018568 
L 345.924514 -147.531684 
L 346.215652 -149.0448 
L 346.551609 -150.557916 
L 346.943717 -152.071032 
L 347.396682 -153.584148 
L 347.909535 -155.097264 
L 348.476707 -156.61038 
L 349.089094 -158.123496 
L 349.73504 -159.636612 
L 350.401233 -161.149728 
L 351.073506 -162.662845 
L 351.737579 -164.175961 
L 352.379741 -165.689077 
L 352.987464 -167.202193 
L 353.549909 -168.715309 
L 354.058319 -170.228425 
L 354.506233 -171.741541 
L 354.889535 -173.254657 
L 355.206335 -174.767773 
L 355.456715 -176.280889 
L 355.642406 -177.794005 
L 355.766449 -179.307121 
L 355.832892 -180.820237 
L 355.846591 -182.333353 
L 355.813098 -183.846469 
L 355.738659 -185.359585 
L 355.630263 -186.872701 
L 355.495697 -188.385817 
L 355.343552 -189.898933 
L 355.183109 -191.412049 
L 355.024094 -192.925165 
L 354.876269 -194.438282 
L 354.748905 -195.951398 
L 354.650184 -197.464514 
L 354.586602 -198.97763 
L 354.562462 -200.490746 
L 354.579543 -202.003862 
L 354.63698 -203.516978 
L 354.731401 -205.030094 
L 354.857293 -206.54321 
L 355.007566 -208.056326 
L 355.174221 -209.569442 
L 355.349064 -211.082558 
L 355.524362 -212.595674 
L 355.693376 -214.10879 
L 355.850735 -215.621906 
L 355.99262 -217.135022 
L 356.116777 -218.648138 
L 356.222378 -220.161254 
L 356.309786 -221.67437 
L 356.856464 -221.67437 
L 356.856464 -221.67437 
L 356.943872 -220.161254 
L 357.049473 -218.648138 
L 357.17363 -217.135022 
L 357.315515 -215.621906 
L 357.472874 -214.10879 
L 357.641888 -212.595674 
L 357.817186 -211.082558 
L 357.992029 -209.569442 
L 358.158684 -208.056326 
L 358.308957 -206.54321 
L 358.434849 -205.030094 
L 358.52927 -203.516978 
L 358.586707 -202.003862 
L 358.603788 -200.490746 
L 358.579648 -198.97763 
L 358.516066 -197.464514 
L 358.417345 -195.951398 
L 358.289981 -194.438282 
L 358.142156 -192.925165 
L 357.983141 -191.412049 
L 357.822698 -189.898933 
L 357.670553 -188.385817 
L 357.535987 -186.872701 
L 357.427591 -185.359585 
L 357.353152 -183.846469 
L 357.319659 -182.333353 
L 357.333358 -180.820237 
L 357.399801 -179.307121 
L 357.523844 -177.794005 
L 357.709535 -176.280889 
L 357.959915 -174.767773 
L 358.276715 -173.254657 
L 358.660017 -171.741541 
L 359.107931 -170.228425 
L 359.616341 -168.715309 
L 360.178786 -167.202193 
L 360.786509 -165.689077 
L 361.428671 -164.175961 
L 362.092744 -162.662845 
L 362.765017 -161.149728 
L 363.43121 -159.636612 
L 364.077156 -158.123496 
L 364.689543 -156.61038 
L 365.256715 -155.097264 
L 365.769568 -153.584148 
L 366.222533 -152.071032 
L 366.614641 -150.557916 
L 366.950598 -149.0448 
L 367.241736 -147.531684 
L 367.506672 -146.018568 
L 367.771415 -144.505452 
L 368.068742 -142.992336 
L 368.436634 -141.47922 
L 368.915744 -139.966104 
L 369.545984 -138.452988 
L 370.362517 -136.939872 
L 371.391608 -135.426756 
L 372.646911 -133.91364 
L 374.126808 -132.400524 
L 375.813369 -130.887408 
L 377.673277 -129.374292 
L 379.660841 -127.861175 
L 381.722826 -126.348059 
L 383.804532 -124.834943 
L 385.856261 -123.321827 
L 387.839162 -121.808711 
L 389.72948 -120.295595 
L 391.520419 -118.782479 
L 393.221174 -117.269363 
L 394.853162 -115.756247 
L 396.443916 -114.243131 
L 398.019538 -112.730015 
L 399.596847 -111.216899 
L 401.176457 -109.703783 
L 402.737898 -108.190667 
L 404.237602 -106.677551 
L 405.610159 -105.164435 
L 406.772804 -103.651319 
L 407.632622 -102.138203 
L 408.095625 -100.625087 
L 408.076588 -99.111971 
L 407.508469 -97.598855 
L 406.350286 -96.085738 
L 404.592537 -94.572622 
L 402.259559 -93.059506 
L 399.40859 -91.54639 
L 396.125695 -90.033274 
L 392.519093 -88.520158 
L 388.710664 -87.007042 
L 384.826648 -85.493926 
L 380.988535 -83.98081 
L 377.305085 -82.467694 
L 373.866189 -80.954578 
L 370.739015 -79.441462 
L 367.966561 -77.928346 
L 365.568428 -76.41523 
L 363.543423 -74.902114 
L 361.873416 -73.388998 
L 360.527844 -71.875882 
z
" style="stroke: #3e3e3e; stroke-width: 3"/>
    </defs>
    <g clip-path="url(#p19e616e579)">
     <use xlink:href="#m2fb92880cc" x="0" y="288" style="fill: #59a257; stroke: #3e3e3e; stroke-width: 3"/>
    </g>
   </g>
   <g id="PolyCollection_4">
    <defs>
     <path id="me0607a317b" d="M 488.532422 -65.269451 
L 482.196328 -65.269451 
L 481.301998 -66.537682 
L 480.224646 -67.805914 
L 478.947474 -69.074145 
L 477.457649 -70.342376 
L 475.74774 -71.610607 
L 473.817014 -72.878838 
L 471.672474 -74.14707 
L 469.329496 -75.415301 
L 466.811957 -76.683532 
L 464.15178 -77.951763 
L 461.387879 -79.219994 
L 458.56456 -80.488226 
L 455.729469 -81.756457 
L 452.931283 -83.024688 
L 450.217321 -84.292919 
L 447.631322 -85.56115 
L 445.211585 -86.829381 
L 442.989648 -88.097613 
L 440.989613 -89.365844 
L 439.228137 -90.634075 
L 437.71504 -91.902306 
L 436.454394 -93.170537 
L 435.445909 -94.438769 
L 434.686395 -95.707 
L 434.171093 -96.975231 
L 433.894685 -98.243462 
L 433.851875 -99.511693 
L 434.037475 -100.779924 
L 434.446033 -102.048156 
L 435.071096 -103.316387 
L 435.904251 -104.584618 
L 436.934128 -105.852849 
L 438.14552 -107.12108 
L 439.518793 -108.389312 
L 441.029675 -109.657543 
L 442.649489 -110.925774 
L 444.345816 -112.194005 
L 446.083542 -113.462236 
L 447.82619 -114.730468 
L 449.537411 -115.998699 
L 451.18252 -117.26693 
L 452.729944 -118.535161 
L 454.152489 -119.803392 
L 455.428343 -121.071623 
L 456.541784 -122.339855 
L 457.483563 -123.608086 
L 458.250988 -124.876317 
L 458.847732 -126.144548 
L 459.283407 -127.412779 
L 459.572969 -128.681011 
L 459.735982 -129.949242 
L 459.795805 -131.217473 
L 459.778718 -132.485704 
L 459.713028 -133.753935 
L 459.628146 -135.022166 
L 459.553663 -136.290398 
L 459.518407 -137.558629 
L 459.549498 -138.82686 
L 459.671402 -140.095091 
L 459.905019 -141.363322 
L 460.266824 -142.631554 
L 460.768126 -143.899785 
L 461.41449 -145.168016 
L 462.205393 -146.436247 
L 463.134162 -147.704478 
L 464.188227 -148.972709 
L 465.349719 -150.240941 
L 466.596391 -151.509172 
L 467.902809 -152.777403 
L 469.241752 -154.045634 
L 470.585709 -155.313865 
L 471.908368 -156.582097 
L 473.185971 -157.850328 
L 474.39845 -159.118559 
L 475.530232 -160.38679 
L 476.570693 -161.655021 
L 477.514225 -162.923253 
L 478.359941 -164.191484 
L 479.111077 -165.459715 
L 479.774162 -166.727946 
L 480.358055 -167.996177 
L 480.872949 -169.264408 
L 481.329419 -170.53264 
L 481.737606 -171.800871 
L 482.106585 -173.069102 
L 482.443935 -174.337333 
L 482.755538 -175.605564 
L 483.045559 -176.873796 
L 483.316597 -178.142027 
L 483.569952 -179.410258 
L 483.805954 -180.678489 
L 484.024319 -181.94672 
L 484.224474 -183.214951 
L 484.405844 -184.483183 
L 484.568063 -185.751414 
L 484.711109 -187.019645 
L 484.835375 -188.287876 
L 484.941663 -189.556107 
L 485.031144 -190.824339 
L 485.697606 -190.824339 
L 485.697606 -190.824339 
L 485.787087 -189.556107 
L 485.893375 -188.287876 
L 486.017641 -187.019645 
L 486.160687 -185.751414 
L 486.322906 -184.483183 
L 486.504276 -183.214951 
L 486.704431 -181.94672 
L 486.922796 -180.678489 
L 487.158798 -179.410258 
L 487.412153 -178.142027 
L 487.683191 -176.873796 
L 487.973212 -175.605564 
L 488.284815 -174.337333 
L 488.622165 -173.069102 
L 488.991144 -171.800871 
L 489.399331 -170.53264 
L 489.855801 -169.264408 
L 490.370695 -167.996177 
L 490.954588 -166.727946 
L 491.617673 -165.459715 
L 492.368809 -164.191484 
L 493.214525 -162.923253 
L 494.158057 -161.655021 
L 495.198518 -160.38679 
L 496.3303 -159.118559 
L 497.542779 -157.850328 
L 498.820382 -156.582097 
L 500.143041 -155.313865 
L 501.486998 -154.045634 
L 502.825941 -152.777403 
L 504.132359 -151.509172 
L 505.379031 -150.240941 
L 506.540523 -148.972709 
L 507.594588 -147.704478 
L 508.523357 -146.436247 
L 509.31426 -145.168016 
L 509.960624 -143.899785 
L 510.461926 -142.631554 
L 510.823731 -141.363322 
L 511.057348 -140.095091 
L 511.179252 -138.82686 
L 511.210343 -137.558629 
L 511.175087 -136.290398 
L 511.100604 -135.022166 
L 511.015722 -133.753935 
L 510.950032 -132.485704 
L 510.932945 -131.217473 
L 510.992768 -129.949242 
L 511.155781 -128.681011 
L 511.445343 -127.412779 
L 511.881018 -126.144548 
L 512.477762 -124.876317 
L 513.245187 -123.608086 
L 514.186966 -122.339855 
L 515.300407 -121.071623 
L 516.576261 -119.803392 
L 517.998806 -118.535161 
L 519.54623 -117.26693 
L 521.191339 -115.998699 
L 522.90256 -114.730468 
L 524.645208 -113.462236 
L 526.382934 -112.194005 
L 528.079261 -110.925774 
L 529.699075 -109.657543 
L 531.209957 -108.389312 
L 532.58323 -107.12108 
L 533.794622 -105.852849 
L 534.824499 -104.584618 
L 535.657654 -103.316387 
L 536.282717 -102.048156 
L 536.691275 -100.779924 
L 536.876875 -99.511693 
L 536.834065 -98.243462 
L 536.557657 -96.975231 
L 536.042355 -95.707 
L 535.282841 -94.438769 
L 534.274356 -93.170537 
L 533.01371 -91.902306 
L 531.500613 -90.634075 
L 529.739137 -89.365844 
L 527.739102 -88.097613 
L 525.517165 -86.829381 
L 523.097428 -85.56115 
L 520.511429 -84.292919 
L 517.797467 -83.024688 
L 514.999281 -81.756457 
L 512.16419 -80.488226 
L 509.340871 -79.219994 
L 506.57697 -77.951763 
L 503.916793 -76.683532 
L 501.399254 -75.415301 
L 499.056276 -74.14707 
L 496.911736 -72.878838 
L 494.98101 -71.610607 
L 493.271101 -70.342376 
L 491.781276 -69.074145 
L 490.504104 -67.805914 
L 489.426752 -66.537682 
L 488.532422 -65.269451 
z
" style="stroke: #3e3e3e; stroke-width: 3"/>
    </defs>
    <g clip-path="url(#p19e616e579)">
     <use xlink:href="#me0607a317b" x="0" y="288" style="fill: #905998; stroke: #3e3e3e; stroke-width: 3"/>
    </g>
   </g>
   <g id="PolyCollection_5">
    <defs>
     <path id="m732dfe9cb7" d="M 614.757185 -41.927557 
L 613.534065 -41.927557 
L 613.336765 -43.34242 
L 613.093161 -44.757284 
L 612.797997 -46.172148 
L 612.44694 -47.587011 
L 612.036928 -49.001875 
L 611.566434 -50.416739 
L 611.035598 -51.831602 
L 610.446176 -53.246466 
L 609.801302 -54.661329 
L 609.105065 -56.076193 
L 608.361956 -57.491057 
L 607.576252 -58.90592 
L 606.751453 -60.320784 
L 605.889858 -61.735648 
L 604.992392 -63.150511 
L 604.058729 -64.565375 
L 603.087728 -65.980238 
L 602.078114 -67.395102 
L 601.029313 -68.809966 
L 599.942265 -70.224829 
L 598.820056 -71.639693 
L 597.668206 -73.054557 
L 596.494523 -74.46942 
L 595.308493 -75.884284 
L 594.120278 -77.299147 
L 592.939509 -78.714011 
L 591.77409 -80.128875 
L 590.629284 -81.543738 
L 589.507309 -82.958602 
L 588.407574 -84.373465 
L 587.327592 -85.788329 
L 586.264412 -87.203193 
L 585.216315 -88.618056 
L 584.184386 -90.03292 
L 583.173583 -91.447784 
L 582.19295 -92.862647 
L 581.254774 -94.277511 
L 580.372683 -95.692374 
L 579.558912 -97.107238 
L 578.821157 -98.522102 
L 578.159603 -99.936965 
L 577.564729 -101.351829 
L 577.016453 -102.766693 
L 576.484963 -104.181556 
L 575.933324 -105.59642 
L 575.321659 -107.011283 
L 574.612381 -108.426147 
L 573.775774 -109.841011 
L 572.795096 -111.255874 
L 571.670445 -112.670738 
L 570.420773 -114.085602 
L 569.083726 -115.500465 
L 567.713305 -116.915329 
L 566.375672 -118.330192 
L 565.143653 -119.745056 
L 564.090686 -121.15992 
L 563.284962 -122.574783 
L 562.784426 -123.989647 
L 562.633125 -125.404511 
L 562.859151 -126.819374 
L 563.474161 -128.234238 
L 564.474269 -129.649101 
L 565.841946 -131.063965 
L 567.548479 -132.478829 
L 569.556611 -133.893692 
L 571.823013 -135.308556 
L 574.300398 -136.723419 
L 576.939215 -138.138283 
L 579.688961 -139.553147 
L 582.499258 -140.96801 
L 585.320821 -142.382874 
L 588.10647 -143.797738 
L 590.812261 -145.212601 
L 593.398717 -146.627465 
L 595.832111 -148.042328 
L 598.085636 -149.457192 
L 600.140333 -150.872056 
L 601.985601 -152.286919 
L 603.619195 -153.701783 
L 605.046663 -155.116647 
L 606.280255 -156.53151 
L 607.337412 -157.946374 
L 608.238998 -159.361237 
L 609.007451 -160.776101 
L 609.665059 -162.190965 
L 610.232509 -163.605828 
L 610.727822 -165.020692 
L 611.165736 -166.435556 
L 611.557514 -167.850419 
L 611.91113 -169.265283 
L 612.231746 -170.680146 
L 612.522337 -172.09501 
L 612.7844 -173.509874 
L 613.018605 -174.924737 
L 613.225353 -176.339601 
L 613.405186 -177.754465 
L 613.559035 -179.169328 
L 613.688324 -180.584192 
L 613.794959 -181.999055 
L 614.496291 -181.999055 
L 614.496291 -181.999055 
L 614.602926 -180.584192 
L 614.732215 -179.169328 
L 614.886064 -177.754465 
L 615.065897 -176.339601 
L 615.272645 -174.924737 
L 615.50685 -173.509874 
L 615.768913 -172.09501 
L 616.059504 -170.680146 
L 616.38012 -169.265283 
L 616.733736 -167.850419 
L 617.125514 -166.435556 
L 617.563428 -165.020692 
L 618.058741 -163.605828 
L 618.626191 -162.190965 
L 619.283799 -160.776101 
L 620.052252 -159.361237 
L 620.953838 -157.946374 
L 622.010995 -156.53151 
L 623.244587 -155.116647 
L 624.672055 -153.701783 
L 626.305649 -152.286919 
L 628.150917 -150.872056 
L 630.205614 -149.457192 
L 632.459139 -148.042328 
L 634.892533 -146.627465 
L 637.478989 -145.212601 
L 640.18478 -143.797738 
L 642.970429 -142.382874 
L 645.791992 -140.96801 
L 648.602289 -139.553147 
L 651.352035 -138.138283 
L 653.990852 -136.723419 
L 656.468237 -135.308556 
L 658.734639 -133.893692 
L 660.742771 -132.478829 
L 662.449304 -131.063965 
L 663.816981 -129.649101 
L 664.817089 -128.234238 
L 665.432099 -126.819374 
L 665.658125 -125.404511 
L 665.506824 -123.989647 
L 665.006288 -122.574783 
L 664.200564 -121.15992 
L 663.147597 -119.745056 
L 661.915578 -118.330192 
L 660.577945 -116.915329 
L 659.207524 -115.500465 
L 657.870477 -114.085602 
L 656.620805 -112.670738 
L 655.496154 -111.255874 
L 654.515476 -109.841011 
L 653.678869 -108.426147 
L 652.969591 -107.011283 
L 652.357926 -105.59642 
L 651.806287 -104.181556 
L 651.274797 -102.766693 
L 650.726521 -101.351829 
L 650.131647 -99.936965 
L 649.470093 -98.522102 
L 648.732338 -97.107238 
L 647.918567 -95.692374 
L 647.036476 -94.277511 
L 646.0983 -92.862647 
L 645.117667 -91.447784 
L 644.106864 -90.03292 
L 643.074935 -88.618056 
L 642.026838 -87.203193 
L 640.963658 -85.788329 
L 639.883676 -84.373465 
L 638.783941 -82.958602 
L 637.661966 -81.543738 
L 636.51716 -80.128875 
L 635.351741 -78.714011 
L 634.170972 -77.299147 
L 632.982757 -75.884284 
L 631.796727 -74.46942 
L 630.623044 -73.054557 
L 629.471194 -71.639693 
L 628.348985 -70.224829 
L 627.261937 -68.809966 
L 626.213136 -67.395102 
L 625.203522 -65.980238 
L 624.232521 -64.565375 
L 623.298858 -63.150511 
L 622.401392 -61.735648 
L 621.539797 -60.320784 
L 620.714998 -58.90592 
L 619.929294 -57.491057 
L 619.186185 -56.076193 
L 618.489948 -54.661329 
L 617.845074 -53.246466 
L 617.255652 -51.831602 
L 616.724816 -50.416739 
L 616.254322 -49.001875 
L 615.84431 -47.587011 
L 615.493253 -46.172148 
L 615.198089 -44.757284 
L 614.954485 -43.34242 
L 614.757185 -41.927557 
z
" style="stroke: #3e3e3e; stroke-width: 3"/>
    </defs>
    <g clip-path="url(#p19e616e579)">
     <use xlink:href="#m732dfe9cb7" x="0" y="288" style="fill: #df7f20; stroke: #3e3e3e; stroke-width: 3"/>
    </g>
   </g>
   <g id="PolyCollection_6">
    <defs>
     <path id="m533a0baff1" d="M 743.343649 -43.247865 
L 742.510101 -43.247865 
L 742.364433 -44.750007 
L 742.180881 -46.252149 
L 741.954005 -47.754291 
L 741.6788 -49.256433 
L 741.350993 -50.758575 
L 740.9673 -52.260717 
L 740.525596 -53.762859 
L 740.024972 -55.265002 
L 739.465657 -56.767144 
L 738.848802 -58.269286 
L 738.176149 -59.771428 
L 737.449614 -61.27357 
L 736.670842 -62.775712 
L 735.840769 -64.277854 
L 734.959245 -65.779996 
L 734.024731 -67.282138 
L 733.034097 -68.78428 
L 731.982496 -70.286423 
L 730.863317 -71.788565 
L 729.668205 -73.290707 
L 728.387167 -74.792849 
L 727.008814 -76.294991 
L 725.5208 -77.797133 
L 723.910573 -79.299275 
L 722.166497 -80.801417 
L 720.279421 -82.303559 
L 718.244641 -83.805702 
L 716.064141 -85.307844 
L 713.748844 -86.809986 
L 711.320544 -88.312128 
L 708.813076 -89.81427 
L 706.272353 -91.316412 
L 703.754948 -92.818554 
L 701.32512 -94.320696 
L 699.050415 -95.822838 
L 696.996242 -97.32498 
L 695.220083 -98.827123 
L 693.766123 -100.329265 
L 692.661097 -101.831407 
L 691.912055 -103.333549 
L 691.506417 -104.835691 
L 691.414375 -106.337833 
L 691.5933 -107.839975 
L 691.993477 -109.342117 
L 692.564295 -110.844259 
L 693.25998 -112.346401 
L 694.044055 -113.848544 
L 694.892006 -115.350686 
L 695.791932 -116.852828 
L 696.74332 -118.35497 
L 697.754362 -119.857112 
L 698.838408 -121.359254 
L 700.010201 -122.861396 
L 701.282476 -124.363538 
L 702.663363 -125.86568 
L 704.154804 -127.367823 
L 705.752048 -128.869965 
L 707.444073 -130.372107 
L 709.214707 -131.874249 
L 711.044157 -133.376391 
L 712.910651 -134.878533 
L 714.79197 -136.380675 
L 716.666678 -137.882817 
L 718.514971 -139.384959 
L 720.319135 -140.887101 
L 722.063646 -142.389244 
L 723.735038 -143.891386 
L 725.321655 -145.393528 
L 726.81341 -146.89567 
L 728.20168 -148.397812 
L 729.479394 -149.899954 
L 730.641329 -151.402096 
L 731.68458 -152.904238 
L 732.609099 -154.40638 
L 733.418184 -155.908522 
L 734.118776 -157.410665 
L 734.721461 -158.912807 
L 735.240086 -160.414949 
L 735.691005 -161.917091 
L 736.091986 -163.419233 
L 736.46092 -164.921375 
L 736.81446 -166.423517 
L 737.166776 -167.925659 
L 737.528567 -169.427801 
L 737.906454 -170.929944 
L 738.302798 -172.432086 
L 738.715961 -173.934228 
L 739.140939 -175.43637 
L 739.570262 -176.938512 
L 739.995051 -178.440654 
L 740.406072 -179.942796 
L 740.794697 -181.444938 
L 741.153655 -182.94708 
L 741.477544 -184.449222 
L 741.763063 -185.951365 
L 742.009013 -187.453507 
L 742.216084 -188.955649 
L 742.386518 -190.457791 
L 742.523682 -191.959933 
L 743.330068 -191.959933 
L 743.330068 -191.959933 
L 743.467232 -190.457791 
L 743.637666 -188.955649 
L 743.844737 -187.453507 
L 744.090687 -185.951365 
L 744.376206 -184.449222 
L 744.700095 -182.94708 
L 745.059053 -181.444938 
L 745.447678 -179.942796 
L 745.858699 -178.440654 
L 746.283488 -176.938512 
L 746.712811 -175.43637 
L 747.137789 -173.934228 
L 747.550952 -172.432086 
L 747.947296 -170.929944 
L 748.325183 -169.427801 
L 748.686974 -167.925659 
L 749.03929 -166.423517 
L 749.39283 -164.921375 
L 749.761764 -163.419233 
L 750.162745 -161.917091 
L 750.613664 -160.414949 
L 751.132289 -158.912807 
L 751.734974 -157.410665 
L 752.435566 -155.908522 
L 753.244651 -154.40638 
L 754.16917 -152.904238 
L 755.212421 -151.402096 
L 756.374356 -149.899954 
L 757.65207 -148.397812 
L 759.04034 -146.89567 
L 760.532095 -145.393528 
L 762.118712 -143.891386 
L 763.790104 -142.389244 
L 765.534615 -140.887101 
L 767.338779 -139.384959 
L 769.187072 -137.882817 
L 771.06178 -136.380675 
L 772.943099 -134.878533 
L 774.809593 -133.376391 
L 776.639043 -131.874249 
L 778.409677 -130.372107 
L 780.101702 -128.869965 
L 781.698946 -127.367823 
L 783.190387 -125.86568 
L 784.571274 -124.363538 
L 785.843549 -122.861396 
L 787.015342 -121.359254 
L 788.099388 -119.857112 
L 789.11043 -118.35497 
L 790.061818 -116.852828 
L 790.961744 -115.350686 
L 791.809695 -113.848544 
L 792.59377 -112.346401 
L 793.289455 -110.844259 
L 793.860273 -109.342117 
L 794.26045 -107.839975 
L 794.439375 -106.337833 
L 794.347333 -104.835691 
L 793.941695 -103.333549 
L 793.192653 -101.831407 
L 792.087627 -100.329265 
L 790.633667 -98.827123 
L 788.857508 -97.32498 
L 786.803335 -95.822838 
L 784.52863 -94.320696 
L 782.098802 -92.818554 
L 779.581397 -91.316412 
L 777.040674 -89.81427 
L 774.533206 -88.312128 
L 772.104906 -86.809986 
L 769.789609 -85.307844 
L 767.609109 -83.805702 
L 765.574329 -82.303559 
L 763.687253 -80.801417 
L 761.943177 -79.299275 
L 760.33295 -77.797133 
L 758.844936 -76.294991 
L 757.466583 -74.792849 
L 756.185545 -73.290707 
L 754.990433 -71.788565 
L 753.871254 -70.286423 
L 752.819653 -68.78428 
L 751.829019 -67.282138 
L 750.894505 -65.779996 
L 750.012981 -64.277854 
L 749.182908 -62.775712 
L 748.404136 -61.27357 
L 747.677601 -59.771428 
L 747.004948 -58.269286 
L 746.388093 -56.767144 
L 745.828778 -55.265002 
L 745.328154 -53.762859 
L 744.88645 -52.260717 
L 744.502757 -50.758575 
L 744.17495 -49.256433 
L 743.899745 -47.754291 
L 743.672869 -46.252149 
L 743.489317 -44.750007 
L 743.343649 -43.247865 
z
" style="stroke: #3e3e3e; stroke-width: 3"/>
    </defs>
    <g clip-path="url(#p19e616e579)">
     <use xlink:href="#m533a0baff1" x="0" y="288" style="fill: #e6e64c; stroke: #3e3e3e; stroke-width: 3"/>
    </g>
   </g>
   <g id="PolyCollection_7">
    <defs>
     <path id="mda746a3cc5" d="M 878.545327 -84.060241 
L 864.870923 -84.060241 
L 862.67097 -85.579367 
L 860.009184 -87.098493 
L 856.875181 -88.617618 
L 853.288556 -90.136744 
L 849.304961 -91.65587 
L 845.019574 -93.174996 
L 840.566862 -94.694121 
L 836.115881 -96.213247 
L 831.860905 -97.732373 
L 828.007856 -99.251499 
L 824.757717 -100.770625 
L 822.288736 -102.28975 
L 820.739576 -103.808876 
L 820.195625 -105.328002 
L 820.680356 -106.847128 
L 822.152954 -108.366253 
L 824.512582 -109.885379 
L 827.608693 -111.404505 
L 831.255966 -112.923631 
L 835.251868 -114.442757 
L 839.394573 -115.961882 
L 843.499116 -117.481008 
L 847.410068 -119.000134 
L 851.009686 -120.51926 
L 854.221195 -122.038385 
L 857.007567 -123.557511 
L 859.366645 -125.076637 
L 861.323823 -126.595763 
L 862.923553 -128.114889 
L 864.220855 -129.634014 
L 865.273774 -131.15314 
L 866.137402 -132.672266 
L 866.859748 -134.191392 
L 867.479467 -135.710517 
L 868.025218 -137.229643 
L 868.516281 -138.748769 
L 868.964028 -140.267895 
L 869.373813 -141.787021 
L 869.746943 -143.306146 
L 870.082458 -144.825272 
L 870.378553 -146.344398 
L 870.633566 -147.863524 
L 870.84655 -149.382649 
L 871.017485 -150.901775 
L 871.147215 -152.420901 
L 871.23725 -153.940027 
L 871.289495 -155.459153 
L 871.306021 -156.978278 
L 871.288912 -158.497404 
L 871.240225 -160.01653 
L 871.162061 -161.535656 
L 871.056722 -163.054782 
L 870.926926 -164.573907 
L 870.776018 -166.093033 
L 870.60815 -167.612159 
L 870.428376 -169.131285 
L 870.242633 -170.65041 
L 870.057604 -172.169536 
L 869.880451 -173.688662 
L 869.718446 -175.207788 
L 869.57853 -176.726914 
L 869.466838 -178.246039 
L 869.388238 -179.765165 
L 869.345934 -181.284291 
L 869.341172 -182.803417 
L 869.373077 -184.322542 
L 869.438651 -185.841668 
L 869.532937 -187.360794 
L 869.649329 -188.87992 
L 869.780035 -190.399046 
L 869.916633 -191.918171 
L 870.050693 -193.437297 
L 870.174411 -194.956423 
L 870.281206 -196.475549 
L 870.366219 -197.994674 
L 870.426676 -199.5138 
L 870.462079 -201.032926 
L 870.474191 -202.552052 
L 870.46683 -204.071178 
L 870.445469 -205.590303 
L 870.416692 -207.109429 
L 870.38755 -208.628555 
L 870.364888 -210.147681 
L 870.35471 -211.666806 
L 870.361657 -213.185932 
L 870.388637 -214.705058 
L 870.436659 -216.224184 
L 870.504869 -217.74331 
L 870.590776 -219.262435 
L 870.690622 -220.781561 
L 870.79985 -222.300687 
L 870.913598 -223.819813 
L 871.027162 -225.338939 
L 871.136379 -226.858064 
L 871.237899 -228.37719 
L 871.329329 -229.896316 
L 871.409256 -231.415442 
L 871.477174 -232.934567 
L 871.533336 -234.453693 
L 871.882914 -234.453693 
L 871.882914 -234.453693 
L 871.939076 -232.934567 
L 872.006994 -231.415442 
L 872.086921 -229.896316 
L 872.178351 -228.37719 
L 872.279871 -226.858064 
L 872.389088 -225.338939 
L 872.502652 -223.819813 
L 872.6164 -222.300687 
L 872.725628 -220.781561 
L 872.825474 -219.262435 
L 872.911381 -217.74331 
L 872.979591 -216.224184 
L 873.027613 -214.705058 
L 873.054593 -213.185932 
L 873.06154 -211.666806 
L 873.051362 -210.147681 
L 873.0287 -208.628555 
L 872.999558 -207.109429 
L 872.970781 -205.590303 
L 872.94942 -204.071178 
L 872.942059 -202.552052 
L 872.954171 -201.032926 
L 872.989574 -199.5138 
L 873.050031 -197.994674 
L 873.135044 -196.475549 
L 873.241839 -194.956423 
L 873.365557 -193.437297 
L 873.499617 -191.918171 
L 873.636215 -190.399046 
L 873.766921 -188.87992 
L 873.883313 -187.360794 
L 873.977599 -185.841668 
L 874.043173 -184.322542 
L 874.075078 -182.803417 
L 874.070316 -181.284291 
L 874.028012 -179.765165 
L 873.949412 -178.246039 
L 873.83772 -176.726914 
L 873.697804 -175.207788 
L 873.535799 -173.688662 
L 873.358646 -172.169536 
L 873.173617 -170.65041 
L 872.987874 -169.131285 
L 872.8081 -167.612159 
L 872.640232 -166.093033 
L 872.489324 -164.573907 
L 872.359528 -163.054782 
L 872.254189 -161.535656 
L 872.176025 -160.01653 
L 872.127338 -158.497404 
L 872.110229 -156.978278 
L 872.126755 -155.459153 
L 872.179 -153.940027 
L 872.269035 -152.420901 
L 872.398765 -150.901775 
L 872.5697 -149.382649 
L 872.782684 -147.863524 
L 873.037697 -146.344398 
L 873.333792 -144.825272 
L 873.669307 -143.306146 
L 874.042437 -141.787021 
L 874.452222 -140.267895 
L 874.899969 -138.748769 
L 875.391032 -137.229643 
L 875.936783 -135.710517 
L 876.556502 -134.191392 
L 877.278848 -132.672266 
L 878.142476 -131.15314 
L 879.195395 -129.634014 
L 880.492697 -128.114889 
L 882.092427 -126.595763 
L 884.049605 -125.076637 
L 886.408683 -123.557511 
L 889.195055 -122.038385 
L 892.406564 -120.51926 
L 896.006182 -119.000134 
L 899.917134 -117.481008 
L 904.021677 -115.961882 
L 908.164382 -114.442757 
L 912.160284 -112.923631 
L 915.807557 -111.404505 
L 918.903668 -109.885379 
L 921.263296 -108.366253 
L 922.735894 -106.847128 
L 923.220625 -105.328002 
L 922.676674 -103.808876 
L 921.127514 -102.28975 
L 918.658533 -100.770625 
L 915.408394 -99.251499 
L 911.555345 -97.732373 
L 907.300369 -96.213247 
L 902.849388 -94.694121 
L 898.396676 -93.174996 
L 894.111289 -91.65587 
L 890.127694 -90.136744 
L 886.541069 -88.617618 
L 883.407066 -87.098493 
L 880.74528 -85.579367 
L 878.545327 -84.060241 
z
" style="stroke: #3e3e3e; stroke-width: 3"/>
    </defs>
    <g clip-path="url(#p19e616e579)">
     <use xlink:href="#mda746a3cc5" x="0" y="288" style="fill: #965a38; stroke: #3e3e3e; stroke-width: 3"/>
    </g>
   </g>
   <g id="PolyCollection_8">
    <defs>
     <path id="m59950b5408" d="M 1007.248278 -80.927149 
L 993.730472 -80.927149 
L 992.054736 -82.123347 
L 990.098309 -83.319544 
L 987.851889 -84.515742 
L 985.316333 -85.71194 
L 982.504757 -86.908137 
L 979.444204 -88.104335 
L 976.176653 -89.300532 
L 972.759161 -90.49673 
L 969.262999 -91.692927 
L 965.771681 -92.889125 
L 962.377908 -94.085322 
L 959.179543 -95.28152 
L 956.274839 -96.477717 
L 953.757226 -97.673915 
L 951.710063 -98.870112 
L 950.201747 -100.06631 
L 949.281597 -101.262508 
L 948.976875 -102.458705 
L 949.291191 -103.654903 
L 950.204446 -104.8511 
L 951.674311 -106.047298 
L 953.639096 -107.243495 
L 956.021764 -108.439693 
L 958.734721 -109.63589 
L 961.684978 -110.832088 
L 964.779257 -112.028285 
L 967.928669 -113.224483 
L 971.052617 -114.42068 
L 974.081737 -115.616878 
L 976.959735 -116.813076 
L 979.644142 -118.009273 
L 982.10606 -119.205471 
L 984.329109 -120.401668 
L 986.307754 -121.597866 
L 988.045293 -122.794063 
L 989.551712 -123.990261 
L 990.841634 -125.186458 
L 991.932488 -126.382656 
L 992.843034 -127.578853 
L 993.592258 -128.775051 
L 994.198651 -129.971248 
L 994.679816 -131.167446 
L 995.052336 -132.363644 
L 995.331821 -133.559841 
L 995.533033 -134.756039 
L 995.670031 -135.952236 
L 995.756257 -137.148434 
L 995.804548 -138.344631 
L 995.827027 -139.540829 
L 995.834918 -140.737026 
L 995.838266 -141.933224 
L 995.845633 -143.129421 
L 995.863781 -144.325619 
L 995.89741 -145.521817 
L 995.948972 -146.718014 
L 996.018596 -147.914212 
L 996.104146 -149.110409 
L 996.20142 -150.306607 
L 996.304481 -151.502804 
L 996.40611 -152.699002 
L 996.498348 -153.895199 
L 996.5731 -155.091397 
L 996.622763 -156.287594 
L 996.640827 -157.483792 
L 996.622421 -158.679989 
L 996.56476 -159.876187 
L 996.467464 -161.072385 
L 996.332718 -162.268582 
L 996.165271 -163.46478 
L 995.972255 -164.660977 
L 995.762849 -165.857175 
L 995.54779 -167.053372 
L 995.338778 -168.24957 
L 995.147799 -169.445767 
L 994.986432 -170.641965 
L 994.865165 -171.838162 
L 994.792789 -173.03436 
L 994.775902 -174.230557 
L 994.818559 -175.426755 
L 994.922093 -176.622953 
L 995.085113 -177.81915 
L 995.303672 -179.015348 
L 995.57159 -180.211545 
L 995.880898 -181.407743 
L 996.222363 -182.60394 
L 996.586053 -183.800138 
L 996.961899 -184.996335 
L 997.340211 -186.192533 
L 997.712119 -187.38873 
L 998.069921 -188.584928 
L 998.407311 -189.781125 
L 998.719498 -190.977323 
L 999.003228 -192.173521 
L 999.256697 -193.369718 
L 999.47941 -194.565916 
L 999.67198 -195.762113 
L 999.835904 -196.958311 
L 999.973326 -198.154508 
L 1000.086821 -199.350706 
L 1000.891929 -199.350706 
L 1000.891929 -199.350706 
L 1001.005424 -198.154508 
L 1001.142846 -196.958311 
L 1001.30677 -195.762113 
L 1001.49934 -194.565916 
L 1001.722053 -193.369718 
L 1001.975522 -192.173521 
L 1002.259252 -190.977323 
L 1002.571439 -189.781125 
L 1002.908829 -188.584928 
L 1003.266631 -187.38873 
L 1003.638539 -186.192533 
L 1004.016851 -184.996335 
L 1004.392697 -183.800138 
L 1004.756387 -182.60394 
L 1005.097852 -181.407743 
L 1005.40716 -180.211545 
L 1005.675078 -179.015348 
L 1005.893637 -177.81915 
L 1006.056657 -176.622953 
L 1006.160191 -175.426755 
L 1006.202848 -174.230557 
L 1006.185961 -173.03436 
L 1006.113585 -171.838162 
L 1005.992318 -170.641965 
L 1005.830951 -169.445767 
L 1005.639972 -168.24957 
L 1005.43096 -167.053372 
L 1005.215901 -165.857175 
L 1005.006495 -164.660977 
L 1004.813479 -163.46478 
L 1004.646032 -162.268582 
L 1004.511286 -161.072385 
L 1004.41399 -159.876187 
L 1004.356329 -158.679989 
L 1004.337923 -157.483792 
L 1004.355987 -156.287594 
L 1004.40565 -155.091397 
L 1004.480402 -153.895199 
L 1004.57264 -152.699002 
L 1004.674269 -151.502804 
L 1004.77733 -150.306607 
L 1004.874604 -149.110409 
L 1004.960154 -147.914212 
L 1005.029778 -146.718014 
L 1005.08134 -145.521817 
L 1005.114969 -144.325619 
L 1005.133117 -143.129421 
L 1005.140484 -141.933224 
L 1005.143832 -140.737026 
L 1005.151723 -139.540829 
L 1005.174202 -138.344631 
L 1005.222493 -137.148434 
L 1005.308719 -135.952236 
L 1005.445717 -134.756039 
L 1005.646929 -133.559841 
L 1005.926414 -132.363644 
L 1006.298934 -131.167446 
L 1006.780099 -129.971248 
L 1007.386492 -128.775051 
L 1008.135716 -127.578853 
L 1009.046262 -126.382656 
L 1010.137116 -125.186458 
L 1011.427038 -123.990261 
L 1012.933457 -122.794063 
L 1014.670996 -121.597866 
L 1016.649641 -120.401668 
L 1018.87269 -119.205471 
L 1021.334608 -118.009273 
L 1024.019015 -116.813076 
L 1026.897013 -115.616878 
L 1029.926133 -114.42068 
L 1033.050081 -113.224483 
L 1036.199493 -112.028285 
L 1039.293772 -110.832088 
L 1042.244029 -109.63589 
L 1044.956986 -108.439693 
L 1047.339654 -107.243495 
L 1049.304439 -106.047298 
L 1050.774304 -104.8511 
L 1051.687559 -103.654903 
L 1052.001875 -102.458705 
L 1051.697153 -101.262508 
L 1050.777003 -100.06631 
L 1049.268687 -98.870112 
L 1047.221524 -97.673915 
L 1044.703911 -96.477717 
L 1041.799207 -95.28152 
L 1038.600842 -94.085322 
L 1035.207069 -92.889125 
L 1031.715751 -91.692927 
L 1028.219589 -90.49673 
L 1024.802097 -89.300532 
L 1021.534546 -88.104335 
L 1018.473993 -86.908137 
L 1015.662417 -85.71194 
L 1013.126861 -84.515742 
L 1010.880441 -83.319544 
L 1008.924014 -82.123347 
L 1007.248278 -80.927149 
z
" style="stroke: #3e3e3e; stroke-width: 3"/>
    </defs>
    <g clip-path="url(#p19e616e579)">
     <use xlink:href="#m59950b5408" x="0" y="288" style="fill: #e890be; stroke: #3e3e3e; stroke-width: 3"/>
    </g>
   </g>
   <g id="line2d_5">
    <path d="M 99.020625 212.322944 
L 99.020625 132.085909 
" clip-path="url(#p19e616e579)" style="fill: none; stroke: #3e3e3e; stroke-width: 3"/>
   </g>
   <g id="line2d_6">
    <path d="M 99.020625 194.165296 
L 99.020625 158.788939 
" clip-path="url(#p19e616e579)" style="fill: none; stroke: #3e3e3e; stroke-width: 9"/>
   </g>
   <g id="line2d_7">
    <path d="M 227.801875 190.539981 
L 227.801875 158.717369 
" clip-path="url(#p19e616e579)" style="fill: none; stroke: #3e3e3e; stroke-width: 3"/>
   </g>
   <g id="line2d_8">
    <path d="M 227.801875 189.887049 
L 227.801875 172.409752 
" clip-path="url(#p19e616e579)" style="fill: none; stroke: #3e3e3e; stroke-width: 9"/>
   </g>
   <g id="line2d_9">
    <path d="M 356.583125 195.095507 
L 356.583125 129.399613 
" clip-path="url(#p19e616e579)" style="fill: none; stroke: #3e3e3e; stroke-width: 3"/>
   </g>
   <g id="line2d_10">
    <path d="M 356.583125 194.121371 
L 356.583125 167.503231 
" clip-path="url(#p19e616e579)" style="fill: none; stroke: #3e3e3e; stroke-width: 9"/>
   </g>
   <g id="line2d_11">
    <path d="M 485.364375 201.701937 
L 485.364375 118.204273 
" clip-path="url(#p19e616e579)" style="fill: none; stroke: #3e3e3e; stroke-width: 3"/>
   </g>
   <g id="line2d_12">
    <path d="M 485.364375 194.173459 
L 485.364375 156.987341 
" clip-path="url(#p19e616e579)" style="fill: none; stroke: #3e3e3e; stroke-width: 9"/>
   </g>
   <g id="line2d_13">
    <path d="M 614.145625 225.043832 
L 614.145625 127.029556 
" clip-path="url(#p19e616e579)" style="fill: none; stroke: #3e3e3e; stroke-width: 3"/>
   </g>
   <g id="line2d_14">
    <path d="M 614.145625 188.381295 
L 614.145625 157.738574 
" clip-path="url(#p19e616e579)" style="fill: none; stroke: #3e3e3e; stroke-width: 9"/>
   </g>
   <g id="line2d_15">
    <path d="M 742.926875 216.10532 
L 742.926875 139.923288 
" clip-path="url(#p19e616e579)" style="fill: none; stroke: #3e3e3e; stroke-width: 3"/>
   </g>
   <g id="line2d_16">
    <path d="M 742.926875 185.632508 
L 742.926875 162.777898 
" clip-path="url(#p19e616e579)" style="fill: none; stroke: #3e3e3e; stroke-width: 9"/>
   </g>
   <g id="line2d_17">
    <path d="M 871.708125 182.911147 
L 871.708125 182.911147 
" clip-path="url(#p19e616e579)" style="fill: none; stroke: #3e3e3e; stroke-width: 3"/>
   </g>
   <g id="line2d_18">
    <path d="M 871.708125 182.911147 
L 871.708125 182.911147 
" clip-path="url(#p19e616e579)" style="fill: none; stroke: #3e3e3e; stroke-width: 9"/>
   </g>
   <g id="line2d_19">
    <path d="M 1000.489375 186.044239 
L 1000.489375 186.044239 
" clip-path="url(#p19e616e579)" style="fill: none; stroke: #3e3e3e; stroke-width: 3"/>
   </g>
   <g id="line2d_20">
    <path d="M 1000.489375 186.044239 
L 1000.489375 186.044239 
" clip-path="url(#p19e616e579)" style="fill: none; stroke: #3e3e3e; stroke-width: 9"/>
   </g>
   <g id="patch_3">
    <path d="M 34.63 255.69875 
L 34.63 43.92 
" style="fill: none; stroke: #f0f0f0; stroke-width: 3; stroke-linejoin: miter; stroke-linecap: square"/>
   </g>
   <g id="patch_4">
    <path d="M 1064.88 255.69875 
L 1064.88 43.92 
" style="fill: none; stroke: #f0f0f0; stroke-width: 3; stroke-linejoin: miter; stroke-linecap: square"/>
   </g>
   <g id="patch_5">
    <path d="M 34.63 255.69875 
L 1064.88 255.69875 
" style="fill: none; stroke: #f0f0f0; stroke-width: 3; stroke-linejoin: miter; stroke-linecap: square"/>
   </g>
   <g id="patch_6">
    <path d="M 34.63 43.92 
L 1064.88 43.92 
" style="fill: none; stroke: #f0f0f0; stroke-width: 3; stroke-linejoin: miter; stroke-linecap: square"/>
   </g>
   <g id="PathCollection_1">
    <defs>
     <path id="m4322ff3d1a" d="M 0 3 
C 0.795609 3 1.55874 2.683901 2.12132 2.12132 
C 2.683901 1.55874 3 0.795609 3 0 
C 3 -0.795609 2.683901 -1.55874 2.12132 -2.12132 
C 1.55874 -2.683901 0.795609 -3 0 -3 
C -0.795609 -3 -1.55874 -2.683901 -2.12132 -2.12132 
C -2.683901 -1.55874 -3 -0.795609 -3 0 
C -3 0.795609 -2.683901 1.55874 -2.12132 2.12132 
C -1.55874 2.683901 -0.795609 3 0 3 
z
" style="stroke: #3e3e3e; stroke-width: 0.5"/>
    </defs>
    <g clip-path="url(#p19e616e579)">
     <use xlink:href="#m4322ff3d1a" x="99.020625" y="172.313797" style="fill: #ffffff; stroke: #3e3e3e; stroke-width: 0.5"/>
    </g>
   </g>
   <g id="PathCollection_2">
    <g clip-path="url(#p19e616e579)">
     <use xlink:href="#m4322ff3d1a" x="227.801875" y="182.421968" style="fill: #ffffff; stroke: #3e3e3e; stroke-width: 0.5"/>
    </g>
   </g>
   <g id="PathCollection_3">
    <g clip-path="url(#p19e616e579)">
     <use xlink:href="#m4322ff3d1a" x="356.583125" y="184.058597" style="fill: #ffffff; stroke: #3e3e3e; stroke-width: 0.5"/>
    </g>
   </g>
   <g id="PathCollection_4">
    <g clip-path="url(#p19e616e579)">
     <use xlink:href="#m4322ff3d1a" x="485.364375" y="182.538539" style="fill: #ffffff; stroke: #3e3e3e; stroke-width: 0.5"/>
    </g>
   </g>
   <g id="PathCollection_5">
    <g clip-path="url(#p19e616e579)">
     <use xlink:href="#m4322ff3d1a" x="614.145625" y="167.630167" style="fill: #ffffff; stroke: #3e3e3e; stroke-width: 0.5"/>
    </g>
   </g>
   <g id="PathCollection_6">
    <g clip-path="url(#p19e616e579)">
     <use xlink:href="#m4322ff3d1a" x="742.926875" y="178.014304" style="fill: #ffffff; stroke: #3e3e3e; stroke-width: 0.5"/>
    </g>
   </g>
   <g id="PathCollection_7">
    <g clip-path="url(#p19e616e579)">
     <use xlink:href="#m4322ff3d1a" x="871.708125" y="182.911147" style="fill: #ffffff; stroke: #3e3e3e; stroke-width: 0.5"/>
    </g>
   </g>
   <g id="PathCollection_8">
    <g clip-path="url(#p19e616e579)">
     <use xlink:href="#m4322ff3d1a" x="1000.489375" y="186.044239" style="fill: #ffffff; stroke: #3e3e3e; stroke-width: 0.5"/>
    </g>
   </g>
  </g>
  <g id="text_13">
   <!-- Violin Plot of all Continuous Variables -->
   <g style="fill: #262626" transform="translate(416.035547 16.496719)scale(0.15 -0.15)">
    <defs>
     <path id="ArialMT-56" d="M 1803 0 
L 28 4581 
L 684 4581 
L 1875 1253 
Q 2019 853 2116 503 
Q 2222 878 2363 1253 
L 3600 4581 
L 4219 4581 
L 2425 0 
L 1803 0 
z
" transform="scale(0.015625)"/>
     <path id="ArialMT-6f" d="M 213 1659 
Q 213 2581 725 3025 
Q 1153 3394 1769 3394 
Q 2453 3394 2887 2945 
Q 3322 2497 3322 1706 
Q 3322 1066 3130 698 
Q 2938 331 2570 128 
Q 2203 -75 1769 -75 
Q 1072 -75 642 372 
Q 213 819 213 1659 
z
M 791 1659 
Q 791 1022 1069 705 
Q 1347 388 1769 388 
Q 2188 388 2466 706 
Q 2744 1025 2744 1678 
Q 2744 2294 2464 2611 
Q 2184 2928 1769 2928 
Q 1347 2928 1069 2612 
Q 791 2297 791 1659 
z
" transform="scale(0.015625)"/>
     <path id="ArialMT-20" transform="scale(0.015625)"/>
     <path id="ArialMT-66" d="M 556 0 
L 556 2881 
L 59 2881 
L 59 3319 
L 556 3319 
L 556 3672 
Q 556 4006 616 4169 
Q 697 4388 901 4523 
Q 1106 4659 1475 4659 
Q 1713 4659 2000 4603 
L 1916 4113 
Q 1741 4144 1584 4144 
Q 1328 4144 1222 4034 
Q 1116 3925 1116 3625 
L 1116 3319 
L 1763 3319 
L 1763 2881 
L 1116 2881 
L 1116 0 
L 556 0 
z
" transform="scale(0.015625)"/>
     <path id="ArialMT-62" d="M 941 0 
L 419 0 
L 419 4581 
L 981 4581 
L 981 2947 
Q 1338 3394 1891 3394 
Q 2197 3394 2470 3270 
Q 2744 3147 2920 2923 
Q 3097 2700 3197 2384 
Q 3297 2069 3297 1709 
Q 3297 856 2875 390 
Q 2453 -75 1863 -75 
Q 1275 -75 941 416 
L 941 0 
z
M 934 1684 
Q 934 1088 1097 822 
Q 1363 388 1816 388 
Q 2184 388 2453 708 
Q 2722 1028 2722 1663 
Q 2722 2313 2464 2622 
Q 2206 2931 1841 2931 
Q 1472 2931 1203 2611 
Q 934 2291 934 1684 
z
" transform="scale(0.015625)"/>
    </defs>
    <use xlink:href="#ArialMT-56"/>
    <use xlink:href="#ArialMT-69" x="64.949219"/>
    <use xlink:href="#ArialMT-6f" x="87.166016"/>
    <use xlink:href="#ArialMT-6c" x="142.78125"/>
    <use xlink:href="#ArialMT-69" x="164.998047"/>
    <use xlink:href="#ArialMT-6e" x="187.214844"/>
    <use xlink:href="#ArialMT-20" x="242.830078"/>
    <use xlink:href="#ArialMT-50" x="270.613281"/>
    <use xlink:href="#ArialMT-6c" x="337.3125"/>
    <use xlink:href="#ArialMT-6f" x="359.529297"/>
    <use xlink:href="#ArialMT-74" x="415.144531"/>
    <use xlink:href="#ArialMT-20" x="442.927734"/>
    <use xlink:href="#ArialMT-6f" x="470.710938"/>
    <use xlink:href="#ArialMT-66" x="526.326172"/>
    <use xlink:href="#ArialMT-20" x="554.109375"/>
    <use xlink:href="#ArialMT-61" x="581.892578"/>
    <use xlink:href="#ArialMT-6c" x="637.507812"/>
    <use xlink:href="#ArialMT-6c" x="659.724609"/>
    <use xlink:href="#ArialMT-20" x="681.941406"/>
    <use xlink:href="#ArialMT-43" x="709.724609"/>
    <use xlink:href="#ArialMT-6f" x="781.941406"/>
    <use xlink:href="#ArialMT-6e" x="837.556641"/>
    <use xlink:href="#ArialMT-74" x="893.171875"/>
    <use xlink:href="#ArialMT-69" x="920.955078"/>
    <use xlink:href="#ArialMT-6e" x="943.171875"/>
    <use xlink:href="#ArialMT-75" x="998.787109"/>
    <use xlink:href="#ArialMT-6f" x="1054.402344"/>
    <use xlink:href="#ArialMT-75" x="1110.017578"/>
    <use xlink:href="#ArialMT-73" x="1165.632812"/>
    <use xlink:href="#ArialMT-20" x="1215.632812"/>
    <use xlink:href="#ArialMT-56" x="1243.416016"/>
    <use xlink:href="#ArialMT-61" x="1302.740234"/>
    <use xlink:href="#ArialMT-72" x="1358.355469"/>
    <use xlink:href="#ArialMT-69" x="1391.65625"/>
    <use xlink:href="#ArialMT-61" x="1413.873047"/>
    <use xlink:href="#ArialMT-62" x="1469.488281"/>
    <use xlink:href="#ArialMT-6c" x="1525.103516"/>
    <use xlink:href="#ArialMT-65" x="1547.320312"/>
    <use xlink:href="#ArialMT-73" x="1602.935547"/>
   </g>
  </g>
 </g>
 <defs>
  <clipPath id="p19e616e579">
   <rect x="34.63" y="43.92" width="1030.25" height="211.77875"/>
  </clipPath>
 </defs>
</svg>
