<?xml version="1.0" encoding="utf-8" standalone="no"?>
<!DOCTYPE svg PUBLIC "-//W3C//DTD SVG 1.1//EN"
  "http://www.w3.org/Graphics/SVG/1.1/DTD/svg11.dtd">
<svg xmlns:xlink="http://www.w3.org/1999/xlink" width="1080pt" height="288pt" viewBox="0 0 1080 288" xmlns="http://www.w3.org/2000/svg" version="1.1">
 <metadata>
  <rdf:RDF xmlns:dc="http://purl.org/dc/elements/1.1/" xmlns:cc="http://creativecommons.org/ns#" xmlns:rdf="http://www.w3.org/1999/02/22-rdf-syntax-ns#">
   <cc:Work>
    <dc:type rdf:resource="http://purl.org/dc/dcmitype/StillImage"/>
    <dc:date>2023-04-29T16:12:46.452893</dc:date>
    <dc:format>image/svg+xml</dc:format>
    <dc:creator>
     <cc:Agent>
      <dc:title>Matplotlib v3.5.3, https://matplotlib.org/</dc:title>
     </cc:Agent>
    </dc:creator>
   </cc:Work>
  </rdf:RDF>
 </metadata>
 <defs>
  <style type="text/css">*{stroke-linejoin: round; stroke-linecap: butt}</style>
 </defs>
 <g id="figure_1">
  <g id="patch_1">
   <path d="M 0 288 
L 1080 288 
L 1080 0 
L 0 0 
z
" style="fill: #f0f0f0"/>
  </g>
  <g id="axes_1">
   <g id="patch_2">
    <path d="M 34.63 255.69875 
L 1064.88 255.69875 
L 1064.88 43.92 
L 34.63 43.92 
z
" style="fill: #f0f0f0"/>
   </g>
   <g id="matplotlib.axis_1">
    <g id="xtick_1">
     <g id="text_1">
      <!-- cum_Min -->
      <g style="fill: #262626" transform="translate(115.344766 270.572344)scale(0.11 -0.11)">
       <defs>
        <path id="ArialMT-63" d="M 2588 1216 
L 3141 1144 
Q 3050 572 2676 248 
Q 2303 -75 1759 -75 
Q 1078 -75 664 370 
Q 250 816 250 1647 
Q 250 2184 428 2587 
Q 606 2991 970 3192 
Q 1334 3394 1763 3394 
Q 2303 3394 2647 3120 
Q 2991 2847 3088 2344 
L 2541 2259 
Q 2463 2594 2264 2762 
Q 2066 2931 1784 2931 
Q 1359 2931 1093 2626 
Q 828 2322 828 1663 
Q 828 994 1084 691 
Q 1341 388 1753 388 
Q 2084 388 2306 591 
Q 2528 794 2588 1216 
z
" transform="scale(0.015625)"/>
        <path id="ArialMT-75" d="M 2597 0 
L 2597 488 
Q 2209 -75 1544 -75 
Q 1250 -75 995 37 
Q 741 150 617 320 
Q 494 491 444 738 
Q 409 903 409 1263 
L 409 3319 
L 972 3319 
L 972 1478 
Q 972 1038 1006 884 
Q 1059 663 1231 536 
Q 1403 409 1656 409 
Q 1909 409 2131 539 
Q 2353 669 2445 892 
Q 2538 1116 2538 1541 
L 2538 3319 
L 3100 3319 
L 3100 0 
L 2597 0 
z
" transform="scale(0.015625)"/>
        <path id="ArialMT-6d" d="M 422 0 
L 422 3319 
L 925 3319 
L 925 2853 
Q 1081 3097 1340 3245 
Q 1600 3394 1931 3394 
Q 2300 3394 2536 3241 
Q 2772 3088 2869 2813 
Q 3263 3394 3894 3394 
Q 4388 3394 4653 3120 
Q 4919 2847 4919 2278 
L 4919 0 
L 4359 0 
L 4359 2091 
Q 4359 2428 4304 2576 
Q 4250 2725 4106 2815 
Q 3963 2906 3769 2906 
Q 3419 2906 3187 2673 
Q 2956 2441 2956 1928 
L 2956 0 
L 2394 0 
L 2394 2156 
Q 2394 2531 2256 2718 
Q 2119 2906 1806 2906 
Q 1569 2906 1367 2781 
Q 1166 2656 1075 2415 
Q 984 2175 984 1722 
L 984 0 
L 422 0 
z
" transform="scale(0.015625)"/>
        <path id="ArialMT-5f" d="M -97 -1272 
L -97 -866 
L 3631 -866 
L 3631 -1272 
L -97 -1272 
z
" transform="scale(0.015625)"/>
        <path id="ArialMT-4d" d="M 475 0 
L 475 4581 
L 1388 4581 
L 2472 1338 
Q 2622 884 2691 659 
Q 2769 909 2934 1394 
L 4031 4581 
L 4847 4581 
L 4847 0 
L 4263 0 
L 4263 3834 
L 2931 0 
L 2384 0 
L 1059 3900 
L 1059 0 
L 475 0 
z
" transform="scale(0.015625)"/>
        <path id="ArialMT-69" d="M 425 3934 
L 425 4581 
L 988 4581 
L 988 3934 
L 425 3934 
z
M 425 0 
L 425 3319 
L 988 3319 
L 988 0 
L 425 0 
z
" transform="scale(0.015625)"/>
        <path id="ArialMT-6e" d="M 422 0 
L 422 3319 
L 928 3319 
L 928 2847 
Q 1294 3394 1984 3394 
Q 2284 3394 2536 3286 
Q 2788 3178 2913 3003 
Q 3038 2828 3088 2588 
Q 3119 2431 3119 2041 
L 3119 0 
L 2556 0 
L 2556 2019 
Q 2556 2363 2490 2533 
Q 2425 2703 2258 2804 
Q 2091 2906 1866 2906 
Q 1506 2906 1245 2678 
Q 984 2450 984 1813 
L 984 0 
L 422 0 
z
" transform="scale(0.015625)"/>
       </defs>
       <use xlink:href="#ArialMT-63"/>
       <use xlink:href="#ArialMT-75" x="50"/>
       <use xlink:href="#ArialMT-6d" x="105.615234"/>
       <use xlink:href="#ArialMT-5f" x="188.916016"/>
       <use xlink:href="#ArialMT-4d" x="244.53125"/>
       <use xlink:href="#ArialMT-69" x="327.832031"/>
       <use xlink:href="#ArialMT-6e" x="350.048828"/>
      </g>
     </g>
    </g>
    <g id="xtick_2">
     <g id="text_2">
      <!-- cum_Gls -->
      <g style="fill: #262626" transform="translate(322.006641 270.706406)scale(0.11 -0.11)">
       <defs>
        <path id="ArialMT-47" d="M 2638 1797 
L 2638 2334 
L 4578 2338 
L 4578 638 
Q 4131 281 3656 101 
Q 3181 -78 2681 -78 
Q 2006 -78 1454 211 
Q 903 500 622 1047 
Q 341 1594 341 2269 
Q 341 2938 620 3517 
Q 900 4097 1425 4378 
Q 1950 4659 2634 4659 
Q 3131 4659 3532 4498 
Q 3934 4338 4162 4050 
Q 4391 3763 4509 3300 
L 3963 3150 
Q 3859 3500 3706 3700 
Q 3553 3900 3268 4020 
Q 2984 4141 2638 4141 
Q 2222 4141 1919 4014 
Q 1616 3888 1430 3681 
Q 1244 3475 1141 3228 
Q 966 2803 966 2306 
Q 966 1694 1177 1281 
Q 1388 869 1791 669 
Q 2194 469 2647 469 
Q 3041 469 3416 620 
Q 3791 772 3984 944 
L 3984 1797 
L 2638 1797 
z
" transform="scale(0.015625)"/>
        <path id="ArialMT-6c" d="M 409 0 
L 409 4581 
L 972 4581 
L 972 0 
L 409 0 
z
" transform="scale(0.015625)"/>
        <path id="ArialMT-73" d="M 197 991 
L 753 1078 
Q 800 744 1014 566 
Q 1228 388 1613 388 
Q 2000 388 2187 545 
Q 2375 703 2375 916 
Q 2375 1106 2209 1216 
Q 2094 1291 1634 1406 
Q 1016 1563 777 1677 
Q 538 1791 414 1992 
Q 291 2194 291 2438 
Q 291 2659 392 2848 
Q 494 3038 669 3163 
Q 800 3259 1026 3326 
Q 1253 3394 1513 3394 
Q 1903 3394 2198 3281 
Q 2494 3169 2634 2976 
Q 2775 2784 2828 2463 
L 2278 2388 
Q 2241 2644 2061 2787 
Q 1881 2931 1553 2931 
Q 1166 2931 1000 2803 
Q 834 2675 834 2503 
Q 834 2394 903 2306 
Q 972 2216 1119 2156 
Q 1203 2125 1616 2013 
Q 2213 1853 2448 1751 
Q 2684 1650 2818 1456 
Q 2953 1263 2953 975 
Q 2953 694 2789 445 
Q 2625 197 2315 61 
Q 2006 -75 1616 -75 
Q 969 -75 630 194 
Q 291 463 197 991 
z
" transform="scale(0.015625)"/>
       </defs>
       <use xlink:href="#ArialMT-63"/>
       <use xlink:href="#ArialMT-75" x="50"/>
       <use xlink:href="#ArialMT-6d" x="105.615234"/>
       <use xlink:href="#ArialMT-5f" x="188.916016"/>
       <use xlink:href="#ArialMT-47" x="244.53125"/>
       <use xlink:href="#ArialMT-6c" x="322.314453"/>
       <use xlink:href="#ArialMT-73" x="344.53125"/>
      </g>
     </g>
    </g>
    <g id="xtick_3">
     <g id="text_3">
      <!-- cum_Ast -->
      <g style="fill: #262626" transform="translate(528.36 270.572344)scale(0.11 -0.11)">
       <defs>
        <path id="ArialMT-41" d="M -9 0 
L 1750 4581 
L 2403 4581 
L 4278 0 
L 3588 0 
L 3053 1388 
L 1138 1388 
L 634 0 
L -9 0 
z
M 1313 1881 
L 2866 1881 
L 2388 3150 
Q 2169 3728 2063 4100 
Q 1975 3659 1816 3225 
L 1313 1881 
z
" transform="scale(0.015625)"/>
        <path id="ArialMT-74" d="M 1650 503 
L 1731 6 
Q 1494 -44 1306 -44 
Q 1000 -44 831 53 
Q 663 150 594 308 
Q 525 466 525 972 
L 525 2881 
L 113 2881 
L 113 3319 
L 525 3319 
L 525 4141 
L 1084 4478 
L 1084 3319 
L 1650 3319 
L 1650 2881 
L 1084 2881 
L 1084 941 
Q 1084 700 1114 631 
Q 1144 563 1211 522 
Q 1278 481 1403 481 
Q 1497 481 1650 503 
z
" transform="scale(0.015625)"/>
       </defs>
       <use xlink:href="#ArialMT-63"/>
       <use xlink:href="#ArialMT-75" x="50"/>
       <use xlink:href="#ArialMT-6d" x="105.615234"/>
       <use xlink:href="#ArialMT-5f" x="188.916016"/>
       <use xlink:href="#ArialMT-41" x="244.53125"/>
       <use xlink:href="#ArialMT-73" x="311.230469"/>
       <use xlink:href="#ArialMT-74" x="361.230469"/>
      </g>
     </g>
    </g>
    <g id="xtick_4">
     <g id="text_4">
      <!-- age -->
      <g style="fill: #262626" transform="translate(746.629453 270.443438)scale(0.11 -0.11)">
       <defs>
        <path id="ArialMT-61" d="M 2588 409 
Q 2275 144 1986 34 
Q 1697 -75 1366 -75 
Q 819 -75 525 192 
Q 231 459 231 875 
Q 231 1119 342 1320 
Q 453 1522 633 1644 
Q 813 1766 1038 1828 
Q 1203 1872 1538 1913 
Q 2219 1994 2541 2106 
Q 2544 2222 2544 2253 
Q 2544 2597 2384 2738 
Q 2169 2928 1744 2928 
Q 1347 2928 1158 2789 
Q 969 2650 878 2297 
L 328 2372 
Q 403 2725 575 2942 
Q 747 3159 1072 3276 
Q 1397 3394 1825 3394 
Q 2250 3394 2515 3294 
Q 2781 3194 2906 3042 
Q 3031 2891 3081 2659 
Q 3109 2516 3109 2141 
L 3109 1391 
Q 3109 606 3145 398 
Q 3181 191 3288 0 
L 2700 0 
Q 2613 175 2588 409 
z
M 2541 1666 
Q 2234 1541 1622 1453 
Q 1275 1403 1131 1340 
Q 988 1278 909 1158 
Q 831 1038 831 891 
Q 831 666 1001 516 
Q 1172 366 1500 366 
Q 1825 366 2078 508 
Q 2331 650 2450 897 
Q 2541 1088 2541 1459 
L 2541 1666 
z
" transform="scale(0.015625)"/>
        <path id="ArialMT-67" d="M 319 -275 
L 866 -356 
Q 900 -609 1056 -725 
Q 1266 -881 1628 -881 
Q 2019 -881 2231 -725 
Q 2444 -569 2519 -288 
Q 2563 -116 2559 434 
Q 2191 0 1641 0 
Q 956 0 581 494 
Q 206 988 206 1678 
Q 206 2153 378 2554 
Q 550 2956 876 3175 
Q 1203 3394 1644 3394 
Q 2231 3394 2613 2919 
L 2613 3319 
L 3131 3319 
L 3131 450 
Q 3131 -325 2973 -648 
Q 2816 -972 2473 -1159 
Q 2131 -1347 1631 -1347 
Q 1038 -1347 672 -1080 
Q 306 -813 319 -275 
z
M 784 1719 
Q 784 1066 1043 766 
Q 1303 466 1694 466 
Q 2081 466 2343 764 
Q 2606 1063 2606 1700 
Q 2606 2309 2336 2618 
Q 2066 2928 1684 2928 
Q 1309 2928 1046 2623 
Q 784 2319 784 1719 
z
" transform="scale(0.015625)"/>
        <path id="ArialMT-65" d="M 2694 1069 
L 3275 997 
Q 3138 488 2766 206 
Q 2394 -75 1816 -75 
Q 1088 -75 661 373 
Q 234 822 234 1631 
Q 234 2469 665 2931 
Q 1097 3394 1784 3394 
Q 2450 3394 2872 2941 
Q 3294 2488 3294 1666 
Q 3294 1616 3291 1516 
L 816 1516 
Q 847 969 1125 678 
Q 1403 388 1819 388 
Q 2128 388 2347 550 
Q 2566 713 2694 1069 
z
M 847 1978 
L 2700 1978 
Q 2663 2397 2488 2606 
Q 2219 2931 1791 2931 
Q 1403 2931 1139 2672 
Q 875 2413 847 1978 
z
" transform="scale(0.015625)"/>
       </defs>
       <use xlink:href="#ArialMT-61"/>
       <use xlink:href="#ArialMT-67" x="55.615234"/>
       <use xlink:href="#ArialMT-65" x="111.230469"/>
      </g>
     </g>
    </g>
    <g id="xtick_5">
     <g id="text_5">
      <!-- fee_cleaned -->
      <g style="fill: #262626" transform="translate(931.886875 270.706406)scale(0.11 -0.11)">
       <defs>
        <path id="ArialMT-66" d="M 556 0 
L 556 2881 
L 59 2881 
L 59 3319 
L 556 3319 
L 556 3672 
Q 556 4006 616 4169 
Q 697 4388 901 4523 
Q 1106 4659 1475 4659 
Q 1713 4659 2000 4603 
L 1916 4113 
Q 1741 4144 1584 4144 
Q 1328 4144 1222 4034 
Q 1116 3925 1116 3625 
L 1116 3319 
L 1763 3319 
L 1763 2881 
L 1116 2881 
L 1116 0 
L 556 0 
z
" transform="scale(0.015625)"/>
        <path id="ArialMT-64" d="M 2575 0 
L 2575 419 
Q 2259 -75 1647 -75 
Q 1250 -75 917 144 
Q 584 363 401 755 
Q 219 1147 219 1656 
Q 219 2153 384 2558 
Q 550 2963 881 3178 
Q 1213 3394 1622 3394 
Q 1922 3394 2156 3267 
Q 2391 3141 2538 2938 
L 2538 4581 
L 3097 4581 
L 3097 0 
L 2575 0 
z
M 797 1656 
Q 797 1019 1065 703 
Q 1334 388 1700 388 
Q 2069 388 2326 689 
Q 2584 991 2584 1609 
Q 2584 2291 2321 2609 
Q 2059 2928 1675 2928 
Q 1300 2928 1048 2622 
Q 797 2316 797 1656 
z
" transform="scale(0.015625)"/>
       </defs>
       <use xlink:href="#ArialMT-66"/>
       <use xlink:href="#ArialMT-65" x="27.783203"/>
       <use xlink:href="#ArialMT-65" x="83.398438"/>
       <use xlink:href="#ArialMT-5f" x="139.013672"/>
       <use xlink:href="#ArialMT-63" x="194.628906"/>
       <use xlink:href="#ArialMT-6c" x="244.628906"/>
       <use xlink:href="#ArialMT-65" x="266.845703"/>
       <use xlink:href="#ArialMT-61" x="322.460938"/>
       <use xlink:href="#ArialMT-6e" x="378.076172"/>
       <use xlink:href="#ArialMT-65" x="433.691406"/>
       <use xlink:href="#ArialMT-64" x="489.306641"/>
      </g>
     </g>
    </g>
   </g>
   <g id="matplotlib.axis_2">
    <g id="ytick_1">
     <g id="line2d_1">
      <path d="M 34.63 244.397042 
L 1064.88 244.397042 
" clip-path="url(#p0bb8c20be9)" style="fill: none; stroke: #cbcbcb"/>
     </g>
     <g id="text_6">
      <!-- −3 -->
      <g style="fill: #262626" transform="translate(15.088281 248.333839)scale(0.11 -0.11)">
       <defs>
        <path id="ArialMT-2212" d="M 3381 1997 
L 356 1997 
L 356 2522 
L 3381 2522 
L 3381 1997 
z
" transform="scale(0.015625)"/>
        <path id="ArialMT-33" d="M 269 1209 
L 831 1284 
Q 928 806 1161 595 
Q 1394 384 1728 384 
Q 2125 384 2398 659 
Q 2672 934 2672 1341 
Q 2672 1728 2419 1979 
Q 2166 2231 1775 2231 
Q 1616 2231 1378 2169 
L 1441 2663 
Q 1497 2656 1531 2656 
Q 1891 2656 2178 2843 
Q 2466 3031 2466 3422 
Q 2466 3731 2256 3934 
Q 2047 4138 1716 4138 
Q 1388 4138 1169 3931 
Q 950 3725 888 3313 
L 325 3413 
Q 428 3978 793 4289 
Q 1159 4600 1703 4600 
Q 2078 4600 2393 4439 
Q 2709 4278 2876 4000 
Q 3044 3722 3044 3409 
Q 3044 3113 2884 2869 
Q 2725 2625 2413 2481 
Q 2819 2388 3044 2092 
Q 3269 1797 3269 1353 
Q 3269 753 2831 336 
Q 2394 -81 1725 -81 
Q 1122 -81 723 278 
Q 325 638 269 1209 
z
" transform="scale(0.015625)"/>
       </defs>
       <use xlink:href="#ArialMT-2212"/>
       <use xlink:href="#ArialMT-33" x="58.398438"/>
      </g>
     </g>
    </g>
    <g id="ytick_2">
     <g id="line2d_2">
      <path d="M 34.63 219.998577 
L 1064.88 219.998577 
" clip-path="url(#p0bb8c20be9)" style="fill: none; stroke: #cbcbcb"/>
     </g>
     <g id="text_7">
      <!-- −2 -->
      <g style="fill: #262626" transform="translate(15.088281 223.935374)scale(0.11 -0.11)">
       <defs>
        <path id="ArialMT-32" d="M 3222 541 
L 3222 0 
L 194 0 
Q 188 203 259 391 
Q 375 700 629 1000 
Q 884 1300 1366 1694 
Q 2113 2306 2375 2664 
Q 2638 3022 2638 3341 
Q 2638 3675 2398 3904 
Q 2159 4134 1775 4134 
Q 1369 4134 1125 3890 
Q 881 3647 878 3216 
L 300 3275 
Q 359 3922 746 4261 
Q 1134 4600 1788 4600 
Q 2447 4600 2831 4234 
Q 3216 3869 3216 3328 
Q 3216 3053 3103 2787 
Q 2991 2522 2730 2228 
Q 2469 1934 1863 1422 
Q 1356 997 1212 845 
Q 1069 694 975 541 
L 3222 541 
z
" transform="scale(0.015625)"/>
       </defs>
       <use xlink:href="#ArialMT-2212"/>
       <use xlink:href="#ArialMT-32" x="58.398438"/>
      </g>
     </g>
    </g>
    <g id="ytick_3">
     <g id="line2d_3">
      <path d="M 34.63 195.600112 
L 1064.88 195.600112 
" clip-path="url(#p0bb8c20be9)" style="fill: none; stroke: #cbcbcb"/>
     </g>
     <g id="text_8">
      <!-- −1 -->
      <g style="fill: #262626" transform="translate(15.088281 199.536909)scale(0.11 -0.11)">
       <defs>
        <path id="ArialMT-31" d="M 2384 0 
L 1822 0 
L 1822 3584 
Q 1619 3391 1289 3197 
Q 959 3003 697 2906 
L 697 3450 
Q 1169 3672 1522 3987 
Q 1875 4303 2022 4600 
L 2384 4600 
L 2384 0 
z
" transform="scale(0.015625)"/>
       </defs>
       <use xlink:href="#ArialMT-2212"/>
       <use xlink:href="#ArialMT-31" x="58.398438"/>
      </g>
     </g>
    </g>
    <g id="ytick_4">
     <g id="line2d_4">
      <path d="M 34.63 171.201648 
L 1064.88 171.201648 
" clip-path="url(#p0bb8c20be9)" style="fill: none; stroke: #cbcbcb"/>
     </g>
     <g id="text_9">
      <!-- 0 -->
      <g style="fill: #262626" transform="translate(21.512969 175.138445)scale(0.11 -0.11)">
       <defs>
        <path id="ArialMT-30" d="M 266 2259 
Q 266 3072 433 3567 
Q 600 4063 929 4331 
Q 1259 4600 1759 4600 
Q 2128 4600 2406 4451 
Q 2684 4303 2865 4023 
Q 3047 3744 3150 3342 
Q 3253 2941 3253 2259 
Q 3253 1453 3087 958 
Q 2922 463 2592 192 
Q 2263 -78 1759 -78 
Q 1097 -78 719 397 
Q 266 969 266 2259 
z
M 844 2259 
Q 844 1131 1108 757 
Q 1372 384 1759 384 
Q 2147 384 2411 759 
Q 2675 1134 2675 2259 
Q 2675 3391 2411 3762 
Q 2147 4134 1753 4134 
Q 1366 4134 1134 3806 
Q 844 3388 844 2259 
z
" transform="scale(0.015625)"/>
       </defs>
       <use xlink:href="#ArialMT-30"/>
      </g>
     </g>
    </g>
    <g id="ytick_5">
     <g id="line2d_5">
      <path d="M 34.63 146.803183 
L 1064.88 146.803183 
" clip-path="url(#p0bb8c20be9)" style="fill: none; stroke: #cbcbcb"/>
     </g>
     <g id="text_10">
      <!-- 1 -->
      <g style="fill: #262626" transform="translate(21.512969 150.73998)scale(0.11 -0.11)">
       <use xlink:href="#ArialMT-31"/>
      </g>
     </g>
    </g>
    <g id="ytick_6">
     <g id="line2d_6">
      <path d="M 34.63 122.404719 
L 1064.88 122.404719 
" clip-path="url(#p0bb8c20be9)" style="fill: none; stroke: #cbcbcb"/>
     </g>
     <g id="text_11">
      <!-- 2 -->
      <g style="fill: #262626" transform="translate(21.512969 126.341516)scale(0.11 -0.11)">
       <use xlink:href="#ArialMT-32"/>
      </g>
     </g>
    </g>
    <g id="ytick_7">
     <g id="line2d_7">
      <path d="M 34.63 98.006254 
L 1064.88 98.006254 
" clip-path="url(#p0bb8c20be9)" style="fill: none; stroke: #cbcbcb"/>
     </g>
     <g id="text_12">
      <!-- 3 -->
      <g style="fill: #262626" transform="translate(21.512969 101.943051)scale(0.11 -0.11)">
       <use xlink:href="#ArialMT-33"/>
      </g>
     </g>
    </g>
    <g id="ytick_8">
     <g id="line2d_8">
      <path d="M 34.63 73.607789 
L 1064.88 73.607789 
" clip-path="url(#p0bb8c20be9)" style="fill: none; stroke: #cbcbcb"/>
     </g>
     <g id="text_13">
      <!-- 4 -->
      <g style="fill: #262626" transform="translate(21.512969 77.544586)scale(0.11 -0.11)">
       <defs>
        <path id="ArialMT-34" d="M 2069 0 
L 2069 1097 
L 81 1097 
L 81 1613 
L 2172 4581 
L 2631 4581 
L 2631 1613 
L 3250 1613 
L 3250 1097 
L 2631 1097 
L 2631 0 
L 2069 0 
z
M 2069 1613 
L 2069 3678 
L 634 1613 
L 2069 1613 
z
" transform="scale(0.015625)"/>
       </defs>
       <use xlink:href="#ArialMT-34"/>
      </g>
     </g>
    </g>
    <g id="ytick_9">
     <g id="line2d_9">
      <path d="M 34.63 49.209325 
L 1064.88 49.209325 
" clip-path="url(#p0bb8c20be9)" style="fill: none; stroke: #cbcbcb"/>
     </g>
     <g id="text_14">
      <!-- 5 -->
      <g style="fill: #262626" transform="translate(21.512969 53.146122)scale(0.11 -0.11)">
       <defs>
        <path id="ArialMT-35" d="M 266 1200 
L 856 1250 
Q 922 819 1161 601 
Q 1400 384 1738 384 
Q 2144 384 2425 690 
Q 2706 997 2706 1503 
Q 2706 1984 2436 2262 
Q 2166 2541 1728 2541 
Q 1456 2541 1237 2417 
Q 1019 2294 894 2097 
L 366 2166 
L 809 4519 
L 3088 4519 
L 3088 3981 
L 1259 3981 
L 1013 2750 
Q 1425 3038 1878 3038 
Q 2478 3038 2890 2622 
Q 3303 2206 3303 1553 
Q 3303 931 2941 478 
Q 2500 -78 1738 -78 
Q 1113 -78 717 272 
Q 322 622 266 1200 
z
" transform="scale(0.015625)"/>
       </defs>
       <use xlink:href="#ArialMT-35"/>
      </g>
     </g>
    </g>
   </g>
   <g id="PolyCollection_1">
    <defs>
     <path id="mc15cc7139d" d="M 140.453797 -54.229033 
L 134.856203 -54.229033 
L 134.039338 -55.561945 
L 133.043948 -56.894856 
L 131.849462 -58.227767 
L 130.438045 -59.560678 
L 128.796118 -60.893589 
L 126.915916 -62.2265 
L 124.796933 -63.559411 
L 122.447121 -64.892323 
L 119.883706 -66.225234 
L 117.133485 -67.558145 
L 114.232506 -68.891056 
L 111.225097 -70.223967 
L 108.162237 -71.556878 
L 105.099372 -72.889789 
L 102.093785 -74.222701 
L 99.201739 -75.555612 
L 96.475605 -76.888523 
L 93.961208 -78.221434 
L 91.695619 -79.554345 
L 89.705556 -80.887256 
L 88.006519 -82.220168 
L 86.602694 -83.553079 
L 85.487587 -84.88599 
L 84.645278 -86.218901 
L 84.052133 -87.551812 
L 83.678774 -88.884723 
L 83.492104 -90.217634 
L 83.4572 -91.550546 
L 83.538921 -92.883457 
L 83.703129 -94.216368 
L 83.917497 -95.549279 
L 84.151893 -96.88219 
L 84.378433 -98.215101 
L 84.571271 -99.548012 
L 84.706255 -100.880924 
L 84.760558 -102.213835 
L 84.712394 -103.546746 
L 84.540896 -104.879657 
L 84.226207 -106.212568 
L 83.749829 -107.545479 
L 83.095207 -108.878391 
L 82.248546 -110.211302 
L 81.199798 -111.544213 
L 79.943769 -112.877124 
L 78.481267 -114.210035 
L 76.820208 -115.542946 
L 74.976586 -116.875857 
L 72.975205 -118.208769 
L 70.850078 -119.54168 
L 68.644398 -120.874591 
L 66.41 -122.207502 
L 64.206277 -123.540413 
L 62.098517 -124.873324 
L 60.155709 -126.206235 
L 58.447892 -127.539147 
L 57.043178 -128.872058 
L 56.004636 -130.204969 
L 55.387223 -131.53788 
L 55.235 -132.870791 
L 55.578836 -134.203702 
L 56.434768 -135.536614 
L 57.80316 -136.869525 
L 59.668716 -138.202436 
L 62.001341 -139.535347 
L 64.757783 -140.868258 
L 67.88391 -142.201169 
L 71.317453 -143.53408 
L 74.990998 -144.866992 
L 78.835039 -146.199903 
L 82.780868 -147.532814 
L 86.763157 -148.865725 
L 90.722099 -150.198636 
L 94.605024 -151.531547 
L 98.36746 -152.864458 
L 101.973645 -154.19737 
L 105.396539 -155.530281 
L 108.617396 -156.863192 
L 111.625009 -158.196103 
L 114.414703 -159.529014 
L 116.987199 -160.861925 
L 119.347425 -162.194837 
L 121.503373 -163.527748 
L 123.465061 -164.860659 
L 125.243648 -166.19357 
L 126.850726 -167.526481 
L 128.297814 -168.859392 
L 129.596021 -170.192303 
L 130.755876 -171.525215 
L 131.787285 -172.858126 
L 132.699576 -174.191037 
L 133.5016 -175.523948 
L 134.201851 -176.856859 
L 134.808572 -178.18977 
L 135.329841 -179.522681 
L 135.77361 -180.855593 
L 136.147706 -182.188504 
L 136.459793 -183.521415 
L 136.717306 -184.854326 
L 136.927368 -186.187237 
L 138.382632 -186.187237 
L 138.382632 -186.187237 
L 138.592694 -184.854326 
L 138.850207 -183.521415 
L 139.162294 -182.188504 
L 139.53639 -180.855593 
L 139.980159 -179.522681 
L 140.501428 -178.18977 
L 141.108149 -176.856859 
L 141.8084 -175.523948 
L 142.610424 -174.191037 
L 143.522715 -172.858126 
L 144.554124 -171.525215 
L 145.713979 -170.192303 
L 147.012186 -168.859392 
L 148.459274 -167.526481 
L 150.066352 -166.19357 
L 151.844939 -164.860659 
L 153.806627 -163.527748 
L 155.962575 -162.194837 
L 158.322801 -160.861925 
L 160.895297 -159.529014 
L 163.684991 -158.196103 
L 166.692604 -156.863192 
L 169.913461 -155.530281 
L 173.336355 -154.19737 
L 176.94254 -152.864458 
L 180.704976 -151.531547 
L 184.587901 -150.198636 
L 188.546843 -148.865725 
L 192.529132 -147.532814 
L 196.474961 -146.199903 
L 200.319002 -144.866992 
L 203.992547 -143.53408 
L 207.42609 -142.201169 
L 210.552217 -140.868258 
L 213.308659 -139.535347 
L 215.641284 -138.202436 
L 217.50684 -136.869525 
L 218.875232 -135.536614 
L 219.731164 -134.203702 
L 220.075 -132.870791 
L 219.922777 -131.53788 
L 219.305364 -130.204969 
L 218.266822 -128.872058 
L 216.862108 -127.539147 
L 215.154291 -126.206235 
L 213.211483 -124.873324 
L 211.103723 -123.540413 
L 208.9 -122.207502 
L 206.665602 -120.874591 
L 204.459922 -119.54168 
L 202.334795 -118.208769 
L 200.333414 -116.875857 
L 198.489792 -115.542946 
L 196.828733 -114.210035 
L 195.366231 -112.877124 
L 194.110202 -111.544213 
L 193.061454 -110.211302 
L 192.214793 -108.878391 
L 191.560171 -107.545479 
L 191.083793 -106.212568 
L 190.769104 -104.879657 
L 190.597606 -103.546746 
L 190.549442 -102.213835 
L 190.603745 -100.880924 
L 190.738729 -99.548012 
L 190.931567 -98.215101 
L 191.158107 -96.88219 
L 191.392503 -95.549279 
L 191.606871 -94.216368 
L 191.771079 -92.883457 
L 191.8528 -91.550546 
L 191.817896 -90.217634 
L 191.631226 -88.884723 
L 191.257867 -87.551812 
L 190.664722 -86.218901 
L 189.822413 -84.88599 
L 188.707306 -83.553079 
L 187.303481 -82.220168 
L 185.604444 -80.887256 
L 183.614381 -79.554345 
L 181.348792 -78.221434 
L 178.834395 -76.888523 
L 176.108261 -75.555612 
L 173.216215 -74.222701 
L 170.210628 -72.889789 
L 167.147763 -71.556878 
L 164.084903 -70.223967 
L 161.077494 -68.891056 
L 158.176515 -67.558145 
L 155.426294 -66.225234 
L 152.862879 -64.892323 
L 150.513067 -63.559411 
L 148.394084 -62.2265 
L 146.513882 -60.893589 
L 144.871955 -59.560678 
L 143.460538 -58.227767 
L 142.266052 -56.894856 
L 141.270662 -55.561945 
L 140.453797 -54.229033 
z
" style="stroke: #484848; stroke-width: 3"/>
    </defs>
    <g clip-path="url(#p0bb8c20be9)">
     <use xlink:href="#mc15cc7139d" x="0" y="288" style="fill: #cb3335; stroke: #484848; stroke-width: 3"/>
    </g>
   </g>
   <g id="PolyCollection_2">
    <defs>
     <path id="m26323642f6" d="M 349.839483 -77.733331 
L 337.570517 -77.733331 
L 335.750794 -79.149664 
L 333.539493 -80.565998 
L 330.899021 -81.982332 
L 327.801613 -83.398665 
L 324.233255 -84.814999 
L 320.197412 -86.231332 
L 315.718205 -87.647666 
L 310.842611 -89.064 
L 305.641365 -90.480333 
L 300.208263 -91.896667 
L 294.657731 -93.313 
L 289.120674 -94.729334 
L 283.738802 -96.145668 
L 278.657782 -97.562001 
L 274.019746 -98.978335 
L 269.955727 -100.394668 
L 266.578666 -101.811002 
L 263.977555 -103.227336 
L 262.213191 -104.643669 
L 261.315852 -106.060003 
L 261.285 -107.476336 
L 262.090928 -108.89267 
L 263.678105 -110.309004 
L 265.969793 -111.725337 
L 268.873493 -113.141671 
L 272.286674 -114.558004 
L 276.102368 -115.974338 
L 280.214193 -117.390672 
L 284.520576 -118.807005 
L 288.927972 -120.223339 
L 293.353077 -121.639672 
L 297.724061 -123.056006 
L 301.980963 -124.47234 
L 306.075418 -125.888673 
L 309.969884 -127.305007 
L 313.636565 -128.72134 
L 317.056162 -130.137674 
L 320.216599 -131.554008 
L 323.111789 -132.970341 
L 325.740524 -134.386675 
L 328.105503 -135.803008 
L 330.212528 -137.219342 
L 332.06986 -138.635675 
L 333.687716 -140.052009 
L 335.077902 -141.468343 
L 336.253539 -142.884676 
L 337.228858 -144.30101 
L 338.019032 -145.717343 
L 338.640009 -147.133677 
L 339.108323 -148.550011 
L 339.440868 -149.966344 
L 339.65461 -151.382678 
L 339.766265 -152.799011 
L 339.791927 -154.215345 
L 339.746698 -155.631679 
L 339.644335 -157.048012 
L 339.496947 -158.464346 
L 339.314785 -159.880679 
L 339.106141 -161.297013 
L 338.877384 -162.713347 
L 338.633121 -164.12968 
L 338.376491 -165.546014 
L 338.109563 -166.962347 
L 337.833801 -168.378681 
L 337.550563 -169.795015 
L 337.26159 -171.211348 
L 336.969435 -172.627682 
L 336.677791 -174.044015 
L 336.391699 -175.460349 
L 336.117586 -176.876683 
L 335.86316 -178.293016 
L 335.637125 -179.70935 
L 335.448769 -181.125683 
L 335.307438 -182.542017 
L 335.221941 -183.958351 
L 335.199941 -185.374684 
L 335.247377 -186.791018 
L 335.367982 -188.207351 
L 335.562922 -189.623685 
L 335.830608 -191.040019 
L 336.166691 -192.456352 
L 336.564236 -193.872686 
L 337.014074 -195.289019 
L 337.505286 -196.705353 
L 338.025794 -198.121687 
L 338.562997 -199.53802 
L 339.104411 -200.954354 
L 339.638259 -202.370687 
L 340.153975 -203.787021 
L 340.642599 -205.203354 
L 341.097027 -206.619688 
L 341.512138 -208.036022 
L 341.884778 -209.452355 
L 342.213642 -210.868689 
L 342.49906 -212.285022 
L 342.742724 -213.701356 
L 342.947386 -215.11769 
L 343.116538 -216.534023 
L 343.254123 -217.950357 
L 344.155877 -217.950357 
L 344.155877 -217.950357 
L 344.293462 -216.534023 
L 344.462614 -215.11769 
L 344.667276 -213.701356 
L 344.91094 -212.285022 
L 345.196358 -210.868689 
L 345.525222 -209.452355 
L 345.897862 -208.036022 
L 346.312973 -206.619688 
L 346.767401 -205.203354 
L 347.256025 -203.787021 
L 347.771741 -202.370687 
L 348.305589 -200.954354 
L 348.847003 -199.53802 
L 349.384206 -198.121687 
L 349.904714 -196.705353 
L 350.395926 -195.289019 
L 350.845764 -193.872686 
L 351.243309 -192.456352 
L 351.579392 -191.040019 
L 351.847078 -189.623685 
L 352.042018 -188.207351 
L 352.162623 -186.791018 
L 352.210059 -185.374684 
L 352.188059 -183.958351 
L 352.102562 -182.542017 
L 351.961231 -181.125683 
L 351.772875 -179.70935 
L 351.54684 -178.293016 
L 351.292414 -176.876683 
L 351.018301 -175.460349 
L 350.732209 -174.044015 
L 350.440565 -172.627682 
L 350.14841 -171.211348 
L 349.859437 -169.795015 
L 349.576199 -168.378681 
L 349.300437 -166.962347 
L 349.033509 -165.546014 
L 348.776879 -164.12968 
L 348.532616 -162.713347 
L 348.303859 -161.297013 
L 348.095215 -159.880679 
L 347.913053 -158.464346 
L 347.765665 -157.048012 
L 347.663302 -155.631679 
L 347.618073 -154.215345 
L 347.643735 -152.799011 
L 347.75539 -151.382678 
L 347.969132 -149.966344 
L 348.301677 -148.550011 
L 348.769991 -147.133677 
L 349.390968 -145.717343 
L 350.181142 -144.30101 
L 351.156461 -142.884676 
L 352.332098 -141.468343 
L 353.722284 -140.052009 
L 355.34014 -138.635675 
L 357.197472 -137.219342 
L 359.304497 -135.803008 
L 361.669476 -134.386675 
L 364.298211 -132.970341 
L 367.193401 -131.554008 
L 370.353838 -130.137674 
L 373.773435 -128.72134 
L 377.440116 -127.305007 
L 381.334582 -125.888673 
L 385.429037 -124.47234 
L 389.685939 -123.056006 
L 394.056923 -121.639672 
L 398.482028 -120.223339 
L 402.889424 -118.807005 
L 407.195807 -117.390672 
L 411.307632 -115.974338 
L 415.123326 -114.558004 
L 418.536507 -113.141671 
L 421.440207 -111.725337 
L 423.731895 -110.309004 
L 425.319072 -108.89267 
L 426.125 -107.476336 
L 426.094148 -106.060003 
L 425.196809 -104.643669 
L 423.432445 -103.227336 
L 420.831334 -101.811002 
L 417.454273 -100.394668 
L 413.390254 -98.978335 
L 408.752218 -97.562001 
L 403.671198 -96.145668 
L 398.289326 -94.729334 
L 392.752269 -93.313 
L 387.201737 -91.896667 
L 381.768635 -90.480333 
L 376.567389 -89.064 
L 371.691795 -87.647666 
L 367.212588 -86.231332 
L 363.176745 -84.814999 
L 359.608387 -83.398665 
L 356.510979 -81.982332 
L 353.870507 -80.565998 
L 351.659206 -79.149664 
L 349.839483 -77.733331 
z
" style="stroke: #484848; stroke-width: 3"/>
    </defs>
    <g clip-path="url(#p0bb8c20be9)">
     <use xlink:href="#m26323642f6" x="0" y="288" style="fill: #477ca8; stroke: #484848; stroke-width: 3"/>
    </g>
   </g>
   <g id="PolyCollection_3">
    <defs>
     <path id="m78b1490185" d="M 556.06655 -72.817819 
L 543.44345 -72.817819 
L 541.290534 -74.450504 
L 538.618522 -76.08319 
L 535.378516 -77.715876 
L 531.541503 -79.348561 
L 527.105575 -80.981247 
L 522.102097 -82.613932 
L 516.599864 -84.246618 
L 510.706344 -85.879304 
L 504.565364 -87.511989 
L 498.350938 -89.144675 
L 492.257451 -90.77736 
L 486.486887 -92.410046 
L 481.234257 -94.042732 
L 476.672705 -95.675417 
L 472.939941 -97.308103 
L 470.127543 -98.940788 
L 468.27445 -100.573474 
L 467.365459 -102.20616 
L 467.335 -103.838845 
L 468.075804 -105.471531 
L 469.451513 -107.104216 
L 471.311745 -108.736902 
L 473.507837 -110.369588 
L 475.907364 -112.002273 
L 478.40567 -113.634959 
L 480.933045 -115.267644 
L 483.456739 -116.90033 
L 485.977734 -118.533016 
L 488.522942 -120.165701 
L 491.134122 -121.798387 
L 493.85533 -123.431072 
L 496.720832 -125.063758 
L 499.745341 -126.696444 
L 502.917982 -128.329129 
L 506.200748 -129.961815 
L 509.531479 -131.5945 
L 512.830654 -133.227186 
L 516.010757 -134.859872 
L 518.98661 -136.492557 
L 521.685107 -138.125243 
L 524.052943 -139.757928 
L 526.061427 -141.390614 
L 527.707973 -143.0233 
L 529.014426 -144.655985 
L 530.02281 -146.288671 
L 530.789386 -147.921356 
L 531.378013 -149.554042 
L 531.853736 -151.186728 
L 532.277325 -152.819413 
L 532.701222 -154.452099 
L 533.167044 -156.084784 
L 533.704574 -157.71747 
L 534.331948 -159.350156 
L 535.056692 -160.982841 
L 535.877256 -162.615527 
L 536.784731 -164.248212 
L 537.76455 -165.880898 
L 538.798065 -167.513584 
L 539.863973 -169.146269 
L 540.939609 -170.778955 
L 542.002126 -172.41164 
L 543.029586 -174.044326 
L 544.001942 -175.677012 
L 544.901855 -177.309697 
L 545.71531 -178.942383 
L 546.431973 -180.575068 
L 547.045257 -182.207754 
L 547.552136 -183.84044 
L 547.952743 -185.473125 
L 548.24985 -187.105811 
L 548.448318 -188.738496 
L 548.554628 -190.371182 
L 548.576545 -192.003868 
L 548.522957 -193.636553 
L 548.403855 -195.269239 
L 548.230421 -196.901924 
L 548.015115 -198.53461 
L 547.771683 -200.167296 
L 547.514974 -201.799981 
L 547.26055 -203.432667 
L 547.02403 -205.065352 
L 546.820249 -206.698038 
L 546.662295 -208.330724 
L 546.560563 -209.963409 
L 546.521939 -211.596095 
L 546.549268 -213.22878 
L 546.641168 -214.861466 
L 546.792241 -216.494152 
L 546.99367 -218.126837 
L 547.234105 -219.759523 
L 547.500753 -221.392208 
L 547.780503 -223.024894 
L 548.060979 -224.65758 
L 548.331401 -226.290265 
L 548.583176 -227.922951 
L 548.810192 -229.555636 
L 549.008843 -231.188322 
L 549.177805 -232.821008 
L 549.317658 -234.453693 
L 550.192342 -234.453693 
L 550.192342 -234.453693 
L 550.332195 -232.821008 
L 550.501157 -231.188322 
L 550.699808 -229.555636 
L 550.926824 -227.922951 
L 551.178599 -226.290265 
L 551.449021 -224.65758 
L 551.729497 -223.024894 
L 552.009247 -221.392208 
L 552.275895 -219.759523 
L 552.51633 -218.126837 
L 552.717759 -216.494152 
L 552.868832 -214.861466 
L 552.960732 -213.22878 
L 552.988061 -211.596095 
L 552.949437 -209.963409 
L 552.847705 -208.330724 
L 552.689751 -206.698038 
L 552.48597 -205.065352 
L 552.24945 -203.432667 
L 551.995026 -201.799981 
L 551.738317 -200.167296 
L 551.494885 -198.53461 
L 551.279579 -196.901924 
L 551.106145 -195.269239 
L 550.987043 -193.636553 
L 550.933455 -192.003868 
L 550.955372 -190.371182 
L 551.061682 -188.738496 
L 551.26015 -187.105811 
L 551.557257 -185.473125 
L 551.957864 -183.84044 
L 552.464743 -182.207754 
L 553.078027 -180.575068 
L 553.79469 -178.942383 
L 554.608145 -177.309697 
L 555.508058 -175.677012 
L 556.480414 -174.044326 
L 557.507874 -172.41164 
L 558.570391 -170.778955 
L 559.646027 -169.146269 
L 560.711935 -167.513584 
L 561.74545 -165.880898 
L 562.725269 -164.248212 
L 563.632744 -162.615527 
L 564.453308 -160.982841 
L 565.178052 -159.350156 
L 565.805426 -157.71747 
L 566.342956 -156.084784 
L 566.808778 -154.452099 
L 567.232675 -152.819413 
L 567.656264 -151.186728 
L 568.131987 -149.554042 
L 568.720614 -147.921356 
L 569.48719 -146.288671 
L 570.495574 -144.655985 
L 571.802027 -143.0233 
L 573.448573 -141.390614 
L 575.457057 -139.757928 
L 577.824893 -138.125243 
L 580.52339 -136.492557 
L 583.499243 -134.859872 
L 586.679346 -133.227186 
L 589.978521 -131.5945 
L 593.309252 -129.961815 
L 596.592018 -128.329129 
L 599.764659 -126.696444 
L 602.789168 -125.063758 
L 605.65467 -123.431072 
L 608.375878 -121.798387 
L 610.987058 -120.165701 
L 613.532266 -118.533016 
L 616.053261 -116.90033 
L 618.576955 -115.267644 
L 621.10433 -113.634959 
L 623.602636 -112.002273 
L 626.002163 -110.369588 
L 628.198255 -108.736902 
L 630.058487 -107.104216 
L 631.434196 -105.471531 
L 632.175 -103.838845 
L 632.144541 -102.20616 
L 631.23555 -100.573474 
L 629.382457 -98.940788 
L 626.570059 -97.308103 
L 622.837295 -95.675417 
L 618.275743 -94.042732 
L 613.023113 -92.410046 
L 607.252549 -90.77736 
L 601.159062 -89.144675 
L 594.944636 -87.511989 
L 588.803656 -85.879304 
L 582.910136 -84.246618 
L 577.407903 -82.613932 
L 572.404425 -80.981247 
L 567.968497 -79.348561 
L 564.131484 -77.715876 
L 560.891478 -76.08319 
L 558.219466 -74.450504 
L 556.06655 -72.817819 
z
" style="stroke: #484848; stroke-width: 3"/>
    </defs>
    <g clip-path="url(#p0bb8c20be9)">
     <use xlink:href="#m78b1490185" x="0" y="288" style="fill: #59a257; stroke: #484848; stroke-width: 3"/>
    </g>
   </g>
   <g id="PolyCollection_4">
    <defs>
     <path id="me9b516085d" d="M 756.471838 -41.927557 
L 755.138162 -41.927557 
L 754.905093 -43.548401 
L 754.611409 -45.169246 
L 754.248407 -46.79009 
L 753.80808 -48.410935 
L 753.283589 -50.031779 
L 752.66968 -51.652624 
L 751.962954 -53.273468 
L 751.161956 -54.894313 
L 750.267052 -56.515157 
L 749.280084 -58.136002 
L 748.203838 -59.756846 
L 747.041382 -61.37769 
L 745.795347 -62.998535 
L 744.467231 -64.619379 
L 743.056792 -66.240224 
L 741.56157 -67.861068 
L 739.976555 -69.481913 
L 738.293994 -71.102757 
L 736.503307 -72.723602 
L 734.591127 -74.344446 
L 732.541467 -75.965291 
L 730.336102 -77.586135 
L 727.95528 -79.20698 
L 725.378916 -80.827824 
L 722.588395 -82.448669 
L 719.569073 -84.069513 
L 716.313426 -85.690358 
L 712.824625 -87.311202 
L 709.120151 -88.932047 
L 705.234871 -90.552891 
L 701.222922 -92.173735 
L 697.157765 -93.79458 
L 693.129916 -95.415424 
L 689.242192 -97.036269 
L 685.602664 -98.657113 
L 682.315987 -100.277958 
L 679.474133 -101.898802 
L 677.147796 -103.519647 
L 675.379755 -105.140491 
L 674.181289 -106.761336 
L 673.532267 -108.38218 
L 673.385 -110.003025 
L 673.67128 -111.623869 
L 674.311563 -113.244714 
L 675.224872 -114.865558 
L 676.337968 -116.486403 
L 677.592488 -118.107247 
L 678.94921 -119.728092 
L 680.389091 -121.348936 
L 681.911312 -122.96978 
L 683.52898 -124.590625 
L 685.263453 -126.211469 
L 687.138321 -127.832314 
L 689.173962 -129.453158 
L 691.38338 -131.074003 
L 693.769686 -132.694847 
L 696.325277 -134.315692 
L 699.032517 -135.936536 
L 701.865532 -137.557381 
L 704.792651 -139.178225 
L 707.779041 -140.79907 
L 710.789152 -142.419914 
L 713.788684 -144.040759 
L 716.745954 -145.661603 
L 719.632616 -147.282448 
L 722.423833 -148.903292 
L 725.098061 -150.524136 
L 727.636648 -152.144981 
L 730.023455 -153.765825 
L 732.244688 -155.38667 
L 734.28903 -157.007514 
L 736.148126 -158.628359 
L 737.817328 -160.249203 
L 739.296558 -161.870048 
L 740.591094 -163.490892 
L 741.712042 -165.111737 
L 742.676338 -166.732581 
L 743.506138 -168.353426 
L 744.227608 -169.97427 
L 744.869178 -171.595115 
L 745.459472 -173.215959 
L 746.025136 -174.836804 
L 746.588841 -176.457648 
L 747.167708 -178.078493 
L 747.772326 -179.699337 
L 748.406477 -181.320181 
L 749.067538 -182.941026 
L 749.747502 -184.56187 
L 750.434419 -186.182715 
L 751.114081 -187.803559 
L 751.771715 -189.424404 
L 752.393515 -191.045248 
L 752.967849 -192.666093 
L 753.486071 -194.286937 
L 753.942901 -195.907782 
L 754.33642 -197.528626 
L 754.667735 -199.149471 
L 754.940429 -200.770315 
L 755.159892 -202.39116 
L 756.450108 -202.39116 
L 756.450108 -202.39116 
L 756.669571 -200.770315 
L 756.942265 -199.149471 
L 757.27358 -197.528626 
L 757.667099 -195.907782 
L 758.123929 -194.286937 
L 758.642151 -192.666093 
L 759.216485 -191.045248 
L 759.838285 -189.424404 
L 760.495919 -187.803559 
L 761.175581 -186.182715 
L 761.862498 -184.56187 
L 762.542462 -182.941026 
L 763.203523 -181.320181 
L 763.837674 -179.699337 
L 764.442292 -178.078493 
L 765.021159 -176.457648 
L 765.584864 -174.836804 
L 766.150528 -173.215959 
L 766.740822 -171.595115 
L 767.382392 -169.97427 
L 768.103862 -168.353426 
L 768.933662 -166.732581 
L 769.897958 -165.111737 
L 771.018906 -163.490892 
L 772.313442 -161.870048 
L 773.792672 -160.249203 
L 775.461874 -158.628359 
L 777.32097 -157.007514 
L 779.365312 -155.38667 
L 781.586545 -153.765825 
L 783.973352 -152.144981 
L 786.511939 -150.524136 
L 789.186167 -148.903292 
L 791.977384 -147.282448 
L 794.864046 -145.661603 
L 797.821316 -144.040759 
L 800.820848 -142.419914 
L 803.830959 -140.79907 
L 806.817349 -139.178225 
L 809.744468 -137.557381 
L 812.577483 -135.936536 
L 815.284723 -134.315692 
L 817.840314 -132.694847 
L 820.22662 -131.074003 
L 822.436038 -129.453158 
L 824.471679 -127.832314 
L 826.346547 -126.211469 
L 828.08102 -124.590625 
L 829.698688 -122.96978 
L 831.220909 -121.348936 
L 832.66079 -119.728092 
L 834.017512 -118.107247 
L 835.272032 -116.486403 
L 836.385128 -114.865558 
L 837.298437 -113.244714 
L 837.93872 -111.623869 
L 838.225 -110.003025 
L 838.077733 -108.38218 
L 837.428711 -106.761336 
L 836.230245 -105.140491 
L 834.462204 -103.519647 
L 832.135867 -101.898802 
L 829.294013 -100.277958 
L 826.007336 -98.657113 
L 822.367808 -97.036269 
L 818.480084 -95.415424 
L 814.452235 -93.79458 
L 810.387078 -92.173735 
L 806.375129 -90.552891 
L 802.489849 -88.932047 
L 798.785375 -87.311202 
L 795.296574 -85.690358 
L 792.040927 -84.069513 
L 789.021605 -82.448669 
L 786.231084 -80.827824 
L 783.65472 -79.20698 
L 781.273898 -77.586135 
L 779.068533 -75.965291 
L 777.018873 -74.344446 
L 775.106693 -72.723602 
L 773.316006 -71.102757 
L 771.633445 -69.481913 
L 770.04843 -67.861068 
L 768.553208 -66.240224 
L 767.142769 -64.619379 
L 765.814653 -62.998535 
L 764.568618 -61.37769 
L 763.406162 -59.756846 
L 762.329916 -58.136002 
L 761.342948 -56.515157 
L 760.448044 -54.894313 
L 759.647046 -53.273468 
L 758.94032 -51.652624 
L 758.326411 -50.031779 
L 757.80192 -48.410935 
L 757.361593 -46.79009 
L 756.998591 -45.169246 
L 756.704907 -43.548401 
L 756.471838 -41.927557 
z
" style="stroke: #484848; stroke-width: 3"/>
    </defs>
    <g clip-path="url(#p0bb8c20be9)">
     <use xlink:href="#me9b516085d" x="0" y="288" style="fill: #905998; stroke: #484848; stroke-width: 3"/>
    </g>
   </g>
   <g id="PolyCollection_5">
    <defs>
     <path id="mccd3d448b0" d="M 966.683356 -75.134609 
L 957.026644 -75.134609 
L 955.314383 -76.72704 
L 953.157133 -78.319472 
L 950.498846 -79.911903 
L 947.295992 -81.504335 
L 943.524227 -83.096766 
L 939.184815 -84.689197 
L 934.309945 -86.281629 
L 928.966091 -87.87406 
L 923.254617 -89.466492 
L 917.30911 -91.058923 
L 911.289295 -92.651354 
L 905.371845 -94.243786 
L 899.73887 -95.836217 
L 894.565272 -97.428649 
L 890.00637 -99.02108 
L 886.187271 -100.613511 
L 883.195225 -102.205943 
L 881.075819 -103.798374 
L 879.833336 -105.390806 
L 879.435 -106.983237 
L 879.818322 -108.575668 
L 880.900366 -110.1681 
L 882.587606 -111.760531 
L 884.785058 -113.352963 
L 887.403645 -114.945394 
L 890.365126 -116.537825 
L 893.604329 -118.130257 
L 897.068896 -119.722688 
L 900.717036 -121.31512 
L 904.514016 -122.907551 
L 908.428164 -124.499983 
L 912.427132 -126.092414 
L 916.475002 -127.684845 
L 920.530593 -129.277277 
L 924.547145 -130.869708 
L 928.473316 -132.46214 
L 932.255277 -134.054571 
L 935.839573 -135.647002 
L 939.176358 -137.239434 
L 942.222608 -138.831865 
L 944.944959 -140.424297 
L 947.321871 -142.016728 
L 949.344936 -143.609159 
L 951.019215 -145.201591 
L 952.36262 -146.794022 
L 953.404416 -148.386454 
L 954.183004 -149.978885 
L 954.743187 -151.571316 
L 955.133153 -153.163748 
L 955.401423 -154.756179 
L 955.593987 -156.348611 
L 955.751831 -157.941042 
L 955.909019 -159.533473 
L 956.091432 -161.125905 
L 956.316207 -162.718336 
L 956.591857 -164.310768 
L 956.919002 -165.903199 
L 957.291574 -167.49563 
L 957.698336 -169.088062 
L 958.124553 -170.680493 
L 958.553626 -172.272925 
L 958.968566 -173.865356 
L 959.353189 -175.457787 
L 959.692997 -177.050219 
L 959.975729 -178.64265 
L 960.191638 -180.235082 
L 960.333568 -181.827513 
L 960.396919 -183.419944 
L 960.379588 -185.012376 
L 960.281954 -186.604807 
L 960.106934 -188.197239 
L 959.860112 -189.78967 
L 959.549891 -191.382101 
L 959.187587 -192.974533 
L 958.787404 -194.566964 
L 958.366172 -196.159396 
L 957.942826 -197.751827 
L 957.537577 -199.344258 
L 957.170825 -200.93669 
L 956.861885 -202.529121 
L 956.627641 -204.121553 
L 956.481292 -205.713984 
L 956.431322 -207.306415 
L 956.480839 -208.898847 
L 956.627363 -210.491278 
L 956.863103 -212.08371 
L 957.175686 -213.676141 
L 957.549263 -215.268572 
L 957.965853 -216.861004 
L 958.406778 -218.453435 
L 958.854026 -220.045867 
L 959.291421 -221.638298 
L 959.705491 -223.230729 
L 960.085991 -224.823161 
L 960.426078 -226.415592 
L 960.722174 -228.008024 
L 960.973582 -229.600455 
L 961.181941 -231.192887 
L 961.350613 -232.785318 
L 962.359387 -232.785318 
L 962.359387 -232.785318 
L 962.528059 -231.192887 
L 962.736418 -229.600455 
L 962.987826 -228.008024 
L 963.283922 -226.415592 
L 963.624009 -224.823161 
L 964.004509 -223.230729 
L 964.418579 -221.638298 
L 964.855974 -220.045867 
L 965.303222 -218.453435 
L 965.744147 -216.861004 
L 966.160737 -215.268572 
L 966.534314 -213.676141 
L 966.846897 -212.08371 
L 967.082637 -210.491278 
L 967.229161 -208.898847 
L 967.278678 -207.306415 
L 967.228708 -205.713984 
L 967.082359 -204.121553 
L 966.848115 -202.529121 
L 966.539175 -200.93669 
L 966.172423 -199.344258 
L 965.767174 -197.751827 
L 965.343828 -196.159396 
L 964.922596 -194.566964 
L 964.522413 -192.974533 
L 964.160109 -191.382101 
L 963.849888 -189.78967 
L 963.603066 -188.197239 
L 963.428046 -186.604807 
L 963.330412 -185.012376 
L 963.313081 -183.419944 
L 963.376432 -181.827513 
L 963.518362 -180.235082 
L 963.734271 -178.64265 
L 964.017003 -177.050219 
L 964.356811 -175.457787 
L 964.741434 -173.865356 
L 965.156374 -172.272925 
L 965.585447 -170.680493 
L 966.011664 -169.088062 
L 966.418426 -167.49563 
L 966.790998 -165.903199 
L 967.118143 -164.310768 
L 967.393793 -162.718336 
L 967.618568 -161.125905 
L 967.800981 -159.533473 
L 967.958169 -157.941042 
L 968.116013 -156.348611 
L 968.308577 -154.756179 
L 968.576847 -153.163748 
L 968.966813 -151.571316 
L 969.526996 -149.978885 
L 970.305584 -148.386454 
L 971.34738 -146.794022 
L 972.690785 -145.201591 
L 974.365064 -143.609159 
L 976.388129 -142.016728 
L 978.765041 -140.424297 
L 981.487392 -138.831865 
L 984.533642 -137.239434 
L 987.870427 -135.647002 
L 991.454723 -134.054571 
L 995.236684 -132.46214 
L 999.162855 -130.869708 
L 1003.179407 -129.277277 
L 1007.234998 -127.684845 
L 1011.282868 -126.092414 
L 1015.281836 -124.499983 
L 1019.195984 -122.907551 
L 1022.992964 -121.31512 
L 1026.641104 -119.722688 
L 1030.105671 -118.130257 
L 1033.344874 -116.537825 
L 1036.306355 -114.945394 
L 1038.924942 -113.352963 
L 1041.122394 -111.760531 
L 1042.809634 -110.1681 
L 1043.891678 -108.575668 
L 1044.275 -106.983237 
L 1043.876664 -105.390806 
L 1042.634181 -103.798374 
L 1040.514775 -102.205943 
L 1037.522729 -100.613511 
L 1033.70363 -99.02108 
L 1029.144728 -97.428649 
L 1023.97113 -95.836217 
L 1018.338155 -94.243786 
L 1012.420705 -92.651354 
L 1006.40089 -91.058923 
L 1000.455383 -89.466492 
L 994.743909 -87.87406 
L 989.400055 -86.281629 
L 984.525185 -84.689197 
L 980.185773 -83.096766 
L 976.414008 -81.504335 
L 973.211154 -79.911903 
L 970.552867 -78.319472 
L 968.395617 -76.72704 
L 966.683356 -75.134609 
z
" style="stroke: #484848; stroke-width: 3"/>
    </defs>
    <g clip-path="url(#p0bb8c20be9)">
     <use xlink:href="#mccd3d448b0" x="0" y="288" style="fill: #df7f20; stroke: #484848; stroke-width: 3"/>
    </g>
   </g>
   <g id="line2d_10">
    <path d="M 137.655 211.080631 
L 137.655 124.503099 
" clip-path="url(#p0bb8c20be9)" style="fill: none; stroke: #484848; stroke-width: 3"/>
   </g>
   <g id="line2d_11">
    <path d="M 137.655 191.488128 
L 137.655 153.316258 
" clip-path="url(#p0bb8c20be9)" style="fill: none; stroke: #484848; stroke-width: 9"/>
   </g>
   <g id="line2d_12">
    <path d="M 343.705 187.576333 
L 343.705 153.239033 
" clip-path="url(#p0bb8c20be9)" style="fill: none; stroke: #484848; stroke-width: 3"/>
   </g>
   <g id="line2d_13">
    <path d="M 343.705 186.871804 
L 343.705 168.013415 
" clip-path="url(#p0bb8c20be9)" style="fill: none; stroke: #484848; stroke-width: 9"/>
   </g>
   <g id="line2d_14">
    <path d="M 549.755 192.491845 
L 549.755 121.604527 
" clip-path="url(#p0bb8c20be9)" style="fill: none; stroke: #484848; stroke-width: 3"/>
   </g>
   <g id="line2d_15">
    <path d="M 549.755 191.440731 
L 549.755 162.719171 
" clip-path="url(#p0bb8c20be9)" style="fill: none; stroke: #484848; stroke-width: 9"/>
   </g>
   <g id="line2d_16">
    <path d="M 755.805 215.161898 
L 755.805 132.959804 
" clip-path="url(#p0bb8c20be9)" style="fill: none; stroke: #484848; stroke-width: 3"/>
   </g>
   <g id="line2d_17">
    <path d="M 755.805 182.28106 
L 755.805 157.620432 
" clip-path="url(#p0bb8c20be9)" style="fill: none; stroke: #484848; stroke-width: 9"/>
   </g>
   <g id="line2d_18">
    <path d="M 961.855 190.175055 
L 961.855 155.788449 
" clip-path="url(#p0bb8c20be9)" style="fill: none; stroke: #484848; stroke-width: 3"/>
   </g>
   <g id="line2d_19">
    <path d="M 961.855 187.049 
L 961.855 165.836483 
" clip-path="url(#p0bb8c20be9)" style="fill: none; stroke: #484848; stroke-width: 9"/>
   </g>
   <g id="patch_3">
    <path d="M 34.63 255.69875 
L 34.63 43.92 
" style="fill: none; stroke: #f0f0f0; stroke-width: 3; stroke-linejoin: miter; stroke-linecap: square"/>
   </g>
   <g id="patch_4">
    <path d="M 1064.88 255.69875 
L 1064.88 43.92 
" style="fill: none; stroke: #f0f0f0; stroke-width: 3; stroke-linejoin: miter; stroke-linecap: square"/>
   </g>
   <g id="patch_5">
    <path d="M 34.63 255.69875 
L 1064.88 255.69875 
" style="fill: none; stroke: #f0f0f0; stroke-width: 3; stroke-linejoin: miter; stroke-linecap: square"/>
   </g>
   <g id="patch_6">
    <path d="M 34.63 43.92 
L 1064.88 43.92 
" style="fill: none; stroke: #f0f0f0; stroke-width: 3; stroke-linejoin: miter; stroke-linecap: square"/>
   </g>
   <g id="PathCollection_1">
    <defs>
     <path id="m0e70ff1aa3" d="M 0 3 
C 0.795609 3 1.55874 2.683901 2.12132 2.12132 
C 2.683901 1.55874 3 0.795609 3 0 
C 3 -0.795609 2.683901 -1.55874 2.12132 -2.12132 
C 1.55874 -2.683901 0.795609 -3 0 -3 
C -0.795609 -3 -1.55874 -2.683901 -2.12132 -2.12132 
C -2.683901 -1.55874 -3 -0.795609 -3 0 
C -3 0.795609 -2.683901 1.55874 -2.12132 2.12132 
C -1.55874 2.683901 -0.795609 3 0 3 
z
" style="stroke: #484848; stroke-width: 0.5"/>
    </defs>
    <g clip-path="url(#p0bb8c20be9)">
     <use xlink:href="#m0e70ff1aa3" x="137.655" y="167.909878" style="fill: #ffffff; stroke: #484848; stroke-width: 0.5"/>
    </g>
   </g>
   <g id="PathCollection_2">
    <g clip-path="url(#p0bb8c20be9)">
     <use xlink:href="#m0e70ff1aa3" x="343.705" y="178.816818" style="fill: #ffffff; stroke: #484848; stroke-width: 0.5"/>
    </g>
   </g>
   <g id="PathCollection_3">
    <g clip-path="url(#p0bb8c20be9)">
     <use xlink:href="#m0e70ff1aa3" x="549.755" y="180.582776" style="fill: #ffffff; stroke: #484848; stroke-width: 0.5"/>
    </g>
   </g>
   <g id="PathCollection_4">
    <g clip-path="url(#p0bb8c20be9)">
     <use xlink:href="#m0e70ff1aa3" x="755.805" y="174.060851" style="fill: #ffffff; stroke: #484848; stroke-width: 0.5"/>
    </g>
   </g>
   <g id="PathCollection_5">
    <g clip-path="url(#p0bb8c20be9)">
     <use xlink:href="#m0e70ff1aa3" x="961.855" y="177.670835" style="fill: #ffffff; stroke: #484848; stroke-width: 0.5"/>
    </g>
   </g>
  </g>
  <g id="text_15">
   <!-- Violin Plot of all Continuous Variables -->
   <g style="fill: #262626" transform="translate(416.035547 16.496719)scale(0.15 -0.15)">
    <defs>
     <path id="ArialMT-56" d="M 1803 0 
L 28 4581 
L 684 4581 
L 1875 1253 
Q 2019 853 2116 503 
Q 2222 878 2363 1253 
L 3600 4581 
L 4219 4581 
L 2425 0 
L 1803 0 
z
" transform="scale(0.015625)"/>
     <path id="ArialMT-6f" d="M 213 1659 
Q 213 2581 725 3025 
Q 1153 3394 1769 3394 
Q 2453 3394 2887 2945 
Q 3322 2497 3322 1706 
Q 3322 1066 3130 698 
Q 2938 331 2570 128 
Q 2203 -75 1769 -75 
Q 1072 -75 642 372 
Q 213 819 213 1659 
z
M 791 1659 
Q 791 1022 1069 705 
Q 1347 388 1769 388 
Q 2188 388 2466 706 
Q 2744 1025 2744 1678 
Q 2744 2294 2464 2611 
Q 2184 2928 1769 2928 
Q 1347 2928 1069 2612 
Q 791 2297 791 1659 
z
" transform="scale(0.015625)"/>
     <path id="ArialMT-20" transform="scale(0.015625)"/>
     <path id="ArialMT-50" d="M 494 0 
L 494 4581 
L 2222 4581 
Q 2678 4581 2919 4538 
Q 3256 4481 3484 4323 
Q 3713 4166 3852 3881 
Q 3991 3597 3991 3256 
Q 3991 2672 3619 2267 
Q 3247 1863 2275 1863 
L 1100 1863 
L 1100 0 
L 494 0 
z
M 1100 2403 
L 2284 2403 
Q 2872 2403 3119 2622 
Q 3366 2841 3366 3238 
Q 3366 3525 3220 3729 
Q 3075 3934 2838 4000 
Q 2684 4041 2272 4041 
L 1100 4041 
L 1100 2403 
z
" transform="scale(0.015625)"/>
     <path id="ArialMT-43" d="M 3763 1606 
L 4369 1453 
Q 4178 706 3683 314 
Q 3188 -78 2472 -78 
Q 1731 -78 1267 223 
Q 803 525 561 1097 
Q 319 1669 319 2325 
Q 319 3041 592 3573 
Q 866 4106 1370 4382 
Q 1875 4659 2481 4659 
Q 3169 4659 3637 4309 
Q 4106 3959 4291 3325 
L 3694 3184 
Q 3534 3684 3231 3912 
Q 2928 4141 2469 4141 
Q 1941 4141 1586 3887 
Q 1231 3634 1087 3207 
Q 944 2781 944 2328 
Q 944 1744 1114 1308 
Q 1284 872 1643 656 
Q 2003 441 2422 441 
Q 2931 441 3284 734 
Q 3638 1028 3763 1606 
z
" transform="scale(0.015625)"/>
     <path id="ArialMT-72" d="M 416 0 
L 416 3319 
L 922 3319 
L 922 2816 
Q 1116 3169 1280 3281 
Q 1444 3394 1641 3394 
Q 1925 3394 2219 3213 
L 2025 2691 
Q 1819 2813 1613 2813 
Q 1428 2813 1281 2702 
Q 1134 2591 1072 2394 
Q 978 2094 978 1738 
L 978 0 
L 416 0 
z
" transform="scale(0.015625)"/>
     <path id="ArialMT-62" d="M 941 0 
L 419 0 
L 419 4581 
L 981 4581 
L 981 2947 
Q 1338 3394 1891 3394 
Q 2197 3394 2470 3270 
Q 2744 3147 2920 2923 
Q 3097 2700 3197 2384 
Q 3297 2069 3297 1709 
Q 3297 856 2875 390 
Q 2453 -75 1863 -75 
Q 1275 -75 941 416 
L 941 0 
z
M 934 1684 
Q 934 1088 1097 822 
Q 1363 388 1816 388 
Q 2184 388 2453 708 
Q 2722 1028 2722 1663 
Q 2722 2313 2464 2622 
Q 2206 2931 1841 2931 
Q 1472 2931 1203 2611 
Q 934 2291 934 1684 
z
" transform="scale(0.015625)"/>
    </defs>
    <use xlink:href="#ArialMT-56"/>
    <use xlink:href="#ArialMT-69" x="64.949219"/>
    <use xlink:href="#ArialMT-6f" x="87.166016"/>
    <use xlink:href="#ArialMT-6c" x="142.78125"/>
    <use xlink:href="#ArialMT-69" x="164.998047"/>
    <use xlink:href="#ArialMT-6e" x="187.214844"/>
    <use xlink:href="#ArialMT-20" x="242.830078"/>
    <use xlink:href="#ArialMT-50" x="270.613281"/>
    <use xlink:href="#ArialMT-6c" x="337.3125"/>
    <use xlink:href="#ArialMT-6f" x="359.529297"/>
    <use xlink:href="#ArialMT-74" x="415.144531"/>
    <use xlink:href="#ArialMT-20" x="442.927734"/>
    <use xlink:href="#ArialMT-6f" x="470.710938"/>
    <use xlink:href="#ArialMT-66" x="526.326172"/>
    <use xlink:href="#ArialMT-20" x="554.109375"/>
    <use xlink:href="#ArialMT-61" x="581.892578"/>
    <use xlink:href="#ArialMT-6c" x="637.507812"/>
    <use xlink:href="#ArialMT-6c" x="659.724609"/>
    <use xlink:href="#ArialMT-20" x="681.941406"/>
    <use xlink:href="#ArialMT-43" x="709.724609"/>
    <use xlink:href="#ArialMT-6f" x="781.941406"/>
    <use xlink:href="#ArialMT-6e" x="837.556641"/>
    <use xlink:href="#ArialMT-74" x="893.171875"/>
    <use xlink:href="#ArialMT-69" x="920.955078"/>
    <use xlink:href="#ArialMT-6e" x="943.171875"/>
    <use xlink:href="#ArialMT-75" x="998.787109"/>
    <use xlink:href="#ArialMT-6f" x="1054.402344"/>
    <use xlink:href="#ArialMT-75" x="1110.017578"/>
    <use xlink:href="#ArialMT-73" x="1165.632812"/>
    <use xlink:href="#ArialMT-20" x="1215.632812"/>
    <use xlink:href="#ArialMT-56" x="1243.416016"/>
    <use xlink:href="#ArialMT-61" x="1302.740234"/>
    <use xlink:href="#ArialMT-72" x="1358.355469"/>
    <use xlink:href="#ArialMT-69" x="1391.65625"/>
    <use xlink:href="#ArialMT-61" x="1413.873047"/>
    <use xlink:href="#ArialMT-62" x="1469.488281"/>
    <use xlink:href="#ArialMT-6c" x="1525.103516"/>
    <use xlink:href="#ArialMT-65" x="1547.320312"/>
    <use xlink:href="#ArialMT-73" x="1602.935547"/>
   </g>
  </g>
 </g>
 <defs>
  <clipPath id="p0bb8c20be9">
   <rect x="34.63" y="43.92" width="1030.25" height="211.77875"/>
  </clipPath>
 </defs>
</svg>
