<?xml version="1.0" encoding="utf-8" standalone="no"?>
<!DOCTYPE svg PUBLIC "-//W3C//DTD SVG 1.1//EN"
  "http://www.w3.org/Graphics/SVG/1.1/DTD/svg11.dtd">
<svg xmlns:xlink="http://www.w3.org/1999/xlink" width="1080pt" height="288pt" viewBox="0 0 1080 288" xmlns="http://www.w3.org/2000/svg" version="1.1">
 <metadata>
  <rdf:RDF xmlns:dc="http://purl.org/dc/elements/1.1/" xmlns:cc="http://creativecommons.org/ns#" xmlns:rdf="http://www.w3.org/1999/02/22-rdf-syntax-ns#">
   <cc:Work>
    <dc:type rdf:resource="http://purl.org/dc/dcmitype/StillImage"/>
    <dc:date>2023-05-04T12:03:49.239615</dc:date>
    <dc:format>image/svg+xml</dc:format>
    <dc:creator>
     <cc:Agent>
      <dc:title>Matplotlib v3.5.3, https://matplotlib.org/</dc:title>
     </cc:Agent>
    </dc:creator>
   </cc:Work>
  </rdf:RDF>
 </metadata>
 <defs>
  <style type="text/css">*{stroke-linejoin: round; stroke-linecap: butt}</style>
 </defs>
 <g id="figure_1">
  <g id="patch_1">
   <path d="M 0 288 
L 1080 288 
L 1080 0 
L 0 0 
z
" style="fill: #f0f0f0"/>
  </g>
  <g id="axes_1">
   <g id="patch_2">
    <path d="M 34.63 255.69875 
L 1064.88 255.69875 
L 1064.88 43.92 
L 34.63 43.92 
z
" style="fill: #f0f0f0"/>
   </g>
   <g id="matplotlib.axis_1">
    <g id="xtick_1">
     <g id="text_1">
      <!-- cum_Min -->
      <g style="fill: #262626" transform="translate(76.710391 270.572344)scale(0.11 -0.11)">
       <defs>
        <path id="ArialMT-63" d="M 2588 1216 
L 3141 1144 
Q 3050 572 2676 248 
Q 2303 -75 1759 -75 
Q 1078 -75 664 370 
Q 250 816 250 1647 
Q 250 2184 428 2587 
Q 606 2991 970 3192 
Q 1334 3394 1763 3394 
Q 2303 3394 2647 3120 
Q 2991 2847 3088 2344 
L 2541 2259 
Q 2463 2594 2264 2762 
Q 2066 2931 1784 2931 
Q 1359 2931 1093 2626 
Q 828 2322 828 1663 
Q 828 994 1084 691 
Q 1341 388 1753 388 
Q 2084 388 2306 591 
Q 2528 794 2588 1216 
z
" transform="scale(0.015625)"/>
        <path id="ArialMT-75" d="M 2597 0 
L 2597 488 
Q 2209 -75 1544 -75 
Q 1250 -75 995 37 
Q 741 150 617 320 
Q 494 491 444 738 
Q 409 903 409 1263 
L 409 3319 
L 972 3319 
L 972 1478 
Q 972 1038 1006 884 
Q 1059 663 1231 536 
Q 1403 409 1656 409 
Q 1909 409 2131 539 
Q 2353 669 2445 892 
Q 2538 1116 2538 1541 
L 2538 3319 
L 3100 3319 
L 3100 0 
L 2597 0 
z
" transform="scale(0.015625)"/>
        <path id="ArialMT-6d" d="M 422 0 
L 422 3319 
L 925 3319 
L 925 2853 
Q 1081 3097 1340 3245 
Q 1600 3394 1931 3394 
Q 2300 3394 2536 3241 
Q 2772 3088 2869 2813 
Q 3263 3394 3894 3394 
Q 4388 3394 4653 3120 
Q 4919 2847 4919 2278 
L 4919 0 
L 4359 0 
L 4359 2091 
Q 4359 2428 4304 2576 
Q 4250 2725 4106 2815 
Q 3963 2906 3769 2906 
Q 3419 2906 3187 2673 
Q 2956 2441 2956 1928 
L 2956 0 
L 2394 0 
L 2394 2156 
Q 2394 2531 2256 2718 
Q 2119 2906 1806 2906 
Q 1569 2906 1367 2781 
Q 1166 2656 1075 2415 
Q 984 2175 984 1722 
L 984 0 
L 422 0 
z
" transform="scale(0.015625)"/>
        <path id="ArialMT-5f" d="M -97 -1272 
L -97 -866 
L 3631 -866 
L 3631 -1272 
L -97 -1272 
z
" transform="scale(0.015625)"/>
        <path id="ArialMT-4d" d="M 475 0 
L 475 4581 
L 1388 4581 
L 2472 1338 
Q 2622 884 2691 659 
Q 2769 909 2934 1394 
L 4031 4581 
L 4847 4581 
L 4847 0 
L 4263 0 
L 4263 3834 
L 2931 0 
L 2384 0 
L 1059 3900 
L 1059 0 
L 475 0 
z
" transform="scale(0.015625)"/>
        <path id="ArialMT-69" d="M 425 3934 
L 425 4581 
L 988 4581 
L 988 3934 
L 425 3934 
z
M 425 0 
L 425 3319 
L 988 3319 
L 988 0 
L 425 0 
z
" transform="scale(0.015625)"/>
        <path id="ArialMT-6e" d="M 422 0 
L 422 3319 
L 928 3319 
L 928 2847 
Q 1294 3394 1984 3394 
Q 2284 3394 2536 3286 
Q 2788 3178 2913 3003 
Q 3038 2828 3088 2588 
Q 3119 2431 3119 2041 
L 3119 0 
L 2556 0 
L 2556 2019 
Q 2556 2363 2490 2533 
Q 2425 2703 2258 2804 
Q 2091 2906 1866 2906 
Q 1506 2906 1245 2678 
Q 984 2450 984 1813 
L 984 0 
L 422 0 
z
" transform="scale(0.015625)"/>
       </defs>
       <use xlink:href="#ArialMT-63"/>
       <use xlink:href="#ArialMT-75" x="50"/>
       <use xlink:href="#ArialMT-6d" x="105.615234"/>
       <use xlink:href="#ArialMT-5f" x="188.916016"/>
       <use xlink:href="#ArialMT-4d" x="244.53125"/>
       <use xlink:href="#ArialMT-69" x="327.832031"/>
       <use xlink:href="#ArialMT-6e" x="350.048828"/>
      </g>
     </g>
    </g>
    <g id="xtick_2">
     <g id="text_2">
      <!-- cum_Gls -->
      <g style="fill: #262626" transform="translate(206.103516 270.706406)scale(0.11 -0.11)">
       <defs>
        <path id="ArialMT-47" d="M 2638 1797 
L 2638 2334 
L 4578 2338 
L 4578 638 
Q 4131 281 3656 101 
Q 3181 -78 2681 -78 
Q 2006 -78 1454 211 
Q 903 500 622 1047 
Q 341 1594 341 2269 
Q 341 2938 620 3517 
Q 900 4097 1425 4378 
Q 1950 4659 2634 4659 
Q 3131 4659 3532 4498 
Q 3934 4338 4162 4050 
Q 4391 3763 4509 3300 
L 3963 3150 
Q 3859 3500 3706 3700 
Q 3553 3900 3268 4020 
Q 2984 4141 2638 4141 
Q 2222 4141 1919 4014 
Q 1616 3888 1430 3681 
Q 1244 3475 1141 3228 
Q 966 2803 966 2306 
Q 966 1694 1177 1281 
Q 1388 869 1791 669 
Q 2194 469 2647 469 
Q 3041 469 3416 620 
Q 3791 772 3984 944 
L 3984 1797 
L 2638 1797 
z
" transform="scale(0.015625)"/>
        <path id="ArialMT-6c" d="M 409 0 
L 409 4581 
L 972 4581 
L 972 0 
L 409 0 
z
" transform="scale(0.015625)"/>
        <path id="ArialMT-73" d="M 197 991 
L 753 1078 
Q 800 744 1014 566 
Q 1228 388 1613 388 
Q 2000 388 2187 545 
Q 2375 703 2375 916 
Q 2375 1106 2209 1216 
Q 2094 1291 1634 1406 
Q 1016 1563 777 1677 
Q 538 1791 414 1992 
Q 291 2194 291 2438 
Q 291 2659 392 2848 
Q 494 3038 669 3163 
Q 800 3259 1026 3326 
Q 1253 3394 1513 3394 
Q 1903 3394 2198 3281 
Q 2494 3169 2634 2976 
Q 2775 2784 2828 2463 
L 2278 2388 
Q 2241 2644 2061 2787 
Q 1881 2931 1553 2931 
Q 1166 2931 1000 2803 
Q 834 2675 834 2503 
Q 834 2394 903 2306 
Q 972 2216 1119 2156 
Q 1203 2125 1616 2013 
Q 2213 1853 2448 1751 
Q 2684 1650 2818 1456 
Q 2953 1263 2953 975 
Q 2953 694 2789 445 
Q 2625 197 2315 61 
Q 2006 -75 1616 -75 
Q 969 -75 630 194 
Q 291 463 197 991 
z
" transform="scale(0.015625)"/>
       </defs>
       <use xlink:href="#ArialMT-63"/>
       <use xlink:href="#ArialMT-75" x="50"/>
       <use xlink:href="#ArialMT-6d" x="105.615234"/>
       <use xlink:href="#ArialMT-5f" x="188.916016"/>
       <use xlink:href="#ArialMT-47" x="244.53125"/>
       <use xlink:href="#ArialMT-6c" x="322.314453"/>
       <use xlink:href="#ArialMT-73" x="344.53125"/>
      </g>
     </g>
    </g>
    <g id="xtick_3">
     <g id="text_3">
      <!-- cum_Ast -->
      <g style="fill: #262626" transform="translate(335.188125 270.572344)scale(0.11 -0.11)">
       <defs>
        <path id="ArialMT-41" d="M -9 0 
L 1750 4581 
L 2403 4581 
L 4278 0 
L 3588 0 
L 3053 1388 
L 1138 1388 
L 634 0 
L -9 0 
z
M 1313 1881 
L 2866 1881 
L 2388 3150 
Q 2169 3728 2063 4100 
Q 1975 3659 1816 3225 
L 1313 1881 
z
" transform="scale(0.015625)"/>
        <path id="ArialMT-74" d="M 1650 503 
L 1731 6 
Q 1494 -44 1306 -44 
Q 1000 -44 831 53 
Q 663 150 594 308 
Q 525 466 525 972 
L 525 2881 
L 113 2881 
L 113 3319 
L 525 3319 
L 525 4141 
L 1084 4478 
L 1084 3319 
L 1650 3319 
L 1650 2881 
L 1084 2881 
L 1084 941 
Q 1084 700 1114 631 
Q 1144 563 1211 522 
Q 1278 481 1403 481 
Q 1497 481 1650 503 
z
" transform="scale(0.015625)"/>
       </defs>
       <use xlink:href="#ArialMT-63"/>
       <use xlink:href="#ArialMT-75" x="50"/>
       <use xlink:href="#ArialMT-6d" x="105.615234"/>
       <use xlink:href="#ArialMT-5f" x="188.916016"/>
       <use xlink:href="#ArialMT-41" x="244.53125"/>
       <use xlink:href="#ArialMT-73" x="311.230469"/>
       <use xlink:href="#ArialMT-74" x="361.230469"/>
      </g>
     </g>
    </g>
    <g id="xtick_4">
     <g id="text_4">
      <!-- cum_CrdY -->
      <g style="fill: #262626" transform="translate(459.385469 270.706406)scale(0.11 -0.11)">
       <defs>
        <path id="ArialMT-43" d="M 3763 1606 
L 4369 1453 
Q 4178 706 3683 314 
Q 3188 -78 2472 -78 
Q 1731 -78 1267 223 
Q 803 525 561 1097 
Q 319 1669 319 2325 
Q 319 3041 592 3573 
Q 866 4106 1370 4382 
Q 1875 4659 2481 4659 
Q 3169 4659 3637 4309 
Q 4106 3959 4291 3325 
L 3694 3184 
Q 3534 3684 3231 3912 
Q 2928 4141 2469 4141 
Q 1941 4141 1586 3887 
Q 1231 3634 1087 3207 
Q 944 2781 944 2328 
Q 944 1744 1114 1308 
Q 1284 872 1643 656 
Q 2003 441 2422 441 
Q 2931 441 3284 734 
Q 3638 1028 3763 1606 
z
" transform="scale(0.015625)"/>
        <path id="ArialMT-72" d="M 416 0 
L 416 3319 
L 922 3319 
L 922 2816 
Q 1116 3169 1280 3281 
Q 1444 3394 1641 3394 
Q 1925 3394 2219 3213 
L 2025 2691 
Q 1819 2813 1613 2813 
Q 1428 2813 1281 2702 
Q 1134 2591 1072 2394 
Q 978 2094 978 1738 
L 978 0 
L 416 0 
z
" transform="scale(0.015625)"/>
        <path id="ArialMT-64" d="M 2575 0 
L 2575 419 
Q 2259 -75 1647 -75 
Q 1250 -75 917 144 
Q 584 363 401 755 
Q 219 1147 219 1656 
Q 219 2153 384 2558 
Q 550 2963 881 3178 
Q 1213 3394 1622 3394 
Q 1922 3394 2156 3267 
Q 2391 3141 2538 2938 
L 2538 4581 
L 3097 4581 
L 3097 0 
L 2575 0 
z
M 797 1656 
Q 797 1019 1065 703 
Q 1334 388 1700 388 
Q 2069 388 2326 689 
Q 2584 991 2584 1609 
Q 2584 2291 2321 2609 
Q 2059 2928 1675 2928 
Q 1300 2928 1048 2622 
Q 797 2316 797 1656 
z
" transform="scale(0.015625)"/>
        <path id="ArialMT-59" d="M 1784 0 
L 1784 1941 
L 19 4581 
L 756 4581 
L 1659 3200 
Q 1909 2813 2125 2425 
Q 2331 2784 2625 3234 
L 3513 4581 
L 4219 4581 
L 2391 1941 
L 2391 0 
L 1784 0 
z
" transform="scale(0.015625)"/>
       </defs>
       <use xlink:href="#ArialMT-63"/>
       <use xlink:href="#ArialMT-75" x="50"/>
       <use xlink:href="#ArialMT-6d" x="105.615234"/>
       <use xlink:href="#ArialMT-5f" x="188.916016"/>
       <use xlink:href="#ArialMT-43" x="244.53125"/>
       <use xlink:href="#ArialMT-72" x="316.748047"/>
       <use xlink:href="#ArialMT-64" x="350.048828"/>
       <use xlink:href="#ArialMT-59" x="405.664062"/>
      </g>
     </g>
    </g>
    <g id="xtick_5">
     <g id="text_5">
      <!-- days_remaining -->
      <g style="fill: #262626" transform="translate(575.320781 270.572344)scale(0.11 -0.11)">
       <defs>
        <path id="ArialMT-61" d="M 2588 409 
Q 2275 144 1986 34 
Q 1697 -75 1366 -75 
Q 819 -75 525 192 
Q 231 459 231 875 
Q 231 1119 342 1320 
Q 453 1522 633 1644 
Q 813 1766 1038 1828 
Q 1203 1872 1538 1913 
Q 2219 1994 2541 2106 
Q 2544 2222 2544 2253 
Q 2544 2597 2384 2738 
Q 2169 2928 1744 2928 
Q 1347 2928 1158 2789 
Q 969 2650 878 2297 
L 328 2372 
Q 403 2725 575 2942 
Q 747 3159 1072 3276 
Q 1397 3394 1825 3394 
Q 2250 3394 2515 3294 
Q 2781 3194 2906 3042 
Q 3031 2891 3081 2659 
Q 3109 2516 3109 2141 
L 3109 1391 
Q 3109 606 3145 398 
Q 3181 191 3288 0 
L 2700 0 
Q 2613 175 2588 409 
z
M 2541 1666 
Q 2234 1541 1622 1453 
Q 1275 1403 1131 1340 
Q 988 1278 909 1158 
Q 831 1038 831 891 
Q 831 666 1001 516 
Q 1172 366 1500 366 
Q 1825 366 2078 508 
Q 2331 650 2450 897 
Q 2541 1088 2541 1459 
L 2541 1666 
z
" transform="scale(0.015625)"/>
        <path id="ArialMT-79" d="M 397 -1278 
L 334 -750 
Q 519 -800 656 -800 
Q 844 -800 956 -737 
Q 1069 -675 1141 -563 
Q 1194 -478 1313 -144 
Q 1328 -97 1363 -6 
L 103 3319 
L 709 3319 
L 1400 1397 
Q 1534 1031 1641 628 
Q 1738 1016 1872 1384 
L 2581 3319 
L 3144 3319 
L 1881 -56 
Q 1678 -603 1566 -809 
Q 1416 -1088 1222 -1217 
Q 1028 -1347 759 -1347 
Q 597 -1347 397 -1278 
z
" transform="scale(0.015625)"/>
        <path id="ArialMT-65" d="M 2694 1069 
L 3275 997 
Q 3138 488 2766 206 
Q 2394 -75 1816 -75 
Q 1088 -75 661 373 
Q 234 822 234 1631 
Q 234 2469 665 2931 
Q 1097 3394 1784 3394 
Q 2450 3394 2872 2941 
Q 3294 2488 3294 1666 
Q 3294 1616 3291 1516 
L 816 1516 
Q 847 969 1125 678 
Q 1403 388 1819 388 
Q 2128 388 2347 550 
Q 2566 713 2694 1069 
z
M 847 1978 
L 2700 1978 
Q 2663 2397 2488 2606 
Q 2219 2931 1791 2931 
Q 1403 2931 1139 2672 
Q 875 2413 847 1978 
z
" transform="scale(0.015625)"/>
        <path id="ArialMT-67" d="M 319 -275 
L 866 -356 
Q 900 -609 1056 -725 
Q 1266 -881 1628 -881 
Q 2019 -881 2231 -725 
Q 2444 -569 2519 -288 
Q 2563 -116 2559 434 
Q 2191 0 1641 0 
Q 956 0 581 494 
Q 206 988 206 1678 
Q 206 2153 378 2554 
Q 550 2956 876 3175 
Q 1203 3394 1644 3394 
Q 2231 3394 2613 2919 
L 2613 3319 
L 3131 3319 
L 3131 450 
Q 3131 -325 2973 -648 
Q 2816 -972 2473 -1159 
Q 2131 -1347 1631 -1347 
Q 1038 -1347 672 -1080 
Q 306 -813 319 -275 
z
M 784 1719 
Q 784 1066 1043 766 
Q 1303 466 1694 466 
Q 2081 466 2343 764 
Q 2606 1063 2606 1700 
Q 2606 2309 2336 2618 
Q 2066 2928 1684 2928 
Q 1309 2928 1046 2623 
Q 784 2319 784 1719 
z
" transform="scale(0.015625)"/>
       </defs>
       <use xlink:href="#ArialMT-64"/>
       <use xlink:href="#ArialMT-61" x="55.615234"/>
       <use xlink:href="#ArialMT-79" x="111.230469"/>
       <use xlink:href="#ArialMT-73" x="161.230469"/>
       <use xlink:href="#ArialMT-5f" x="211.230469"/>
       <use xlink:href="#ArialMT-72" x="266.845703"/>
       <use xlink:href="#ArialMT-65" x="300.146484"/>
       <use xlink:href="#ArialMT-6d" x="355.761719"/>
       <use xlink:href="#ArialMT-61" x="439.0625"/>
       <use xlink:href="#ArialMT-69" x="494.677734"/>
       <use xlink:href="#ArialMT-6e" x="516.894531"/>
       <use xlink:href="#ArialMT-69" x="572.509766"/>
       <use xlink:href="#ArialMT-6e" x="594.726562"/>
       <use xlink:href="#ArialMT-67" x="650.341797"/>
      </g>
     </g>
    </g>
    <g id="xtick_6">
     <g id="text_6">
      <!-- age -->
      <g style="fill: #262626" transform="translate(733.751328 270.443438)scale(0.11 -0.11)">
       <use xlink:href="#ArialMT-61"/>
       <use xlink:href="#ArialMT-67" x="55.615234"/>
       <use xlink:href="#ArialMT-65" x="111.230469"/>
      </g>
     </g>
    </g>
    <g id="xtick_7">
     <g id="text_7">
      <!-- cum_CrdR -->
      <g style="fill: #262626" transform="translate(845.425859 270.706406)scale(0.11 -0.11)">
       <defs>
        <path id="ArialMT-52" d="M 503 0 
L 503 4581 
L 2534 4581 
Q 3147 4581 3465 4457 
Q 3784 4334 3975 4021 
Q 4166 3709 4166 3331 
Q 4166 2844 3850 2509 
Q 3534 2175 2875 2084 
Q 3116 1969 3241 1856 
Q 3506 1613 3744 1247 
L 4541 0 
L 3778 0 
L 3172 953 
Q 2906 1366 2734 1584 
Q 2563 1803 2427 1890 
Q 2291 1978 2150 2013 
Q 2047 2034 1813 2034 
L 1109 2034 
L 1109 0 
L 503 0 
z
M 1109 2559 
L 2413 2559 
Q 2828 2559 3062 2645 
Q 3297 2731 3419 2920 
Q 3541 3109 3541 3331 
Q 3541 3656 3305 3865 
Q 3069 4075 2559 4075 
L 1109 4075 
L 1109 2559 
z
" transform="scale(0.015625)"/>
       </defs>
       <use xlink:href="#ArialMT-63"/>
       <use xlink:href="#ArialMT-75" x="50"/>
       <use xlink:href="#ArialMT-6d" x="105.615234"/>
       <use xlink:href="#ArialMT-5f" x="188.916016"/>
       <use xlink:href="#ArialMT-43" x="244.53125"/>
       <use xlink:href="#ArialMT-72" x="316.748047"/>
       <use xlink:href="#ArialMT-64" x="350.048828"/>
       <use xlink:href="#ArialMT-52" x="405.664062"/>
      </g>
     </g>
    </g>
    <g id="xtick_8">
     <g id="text_8">
      <!-- fee_cleaned -->
      <g style="fill: #262626" transform="translate(970.52125 270.706406)scale(0.11 -0.11)">
       <defs>
        <path id="ArialMT-66" d="M 556 0 
L 556 2881 
L 59 2881 
L 59 3319 
L 556 3319 
L 556 3672 
Q 556 4006 616 4169 
Q 697 4388 901 4523 
Q 1106 4659 1475 4659 
Q 1713 4659 2000 4603 
L 1916 4113 
Q 1741 4144 1584 4144 
Q 1328 4144 1222 4034 
Q 1116 3925 1116 3625 
L 1116 3319 
L 1763 3319 
L 1763 2881 
L 1116 2881 
L 1116 0 
L 556 0 
z
" transform="scale(0.015625)"/>
       </defs>
       <use xlink:href="#ArialMT-66"/>
       <use xlink:href="#ArialMT-65" x="27.783203"/>
       <use xlink:href="#ArialMT-65" x="83.398438"/>
       <use xlink:href="#ArialMT-5f" x="139.013672"/>
       <use xlink:href="#ArialMT-63" x="194.628906"/>
       <use xlink:href="#ArialMT-6c" x="244.628906"/>
       <use xlink:href="#ArialMT-65" x="266.845703"/>
       <use xlink:href="#ArialMT-61" x="322.460938"/>
       <use xlink:href="#ArialMT-6e" x="378.076172"/>
       <use xlink:href="#ArialMT-65" x="433.691406"/>
       <use xlink:href="#ArialMT-64" x="489.306641"/>
      </g>
     </g>
    </g>
   </g>
   <g id="matplotlib.axis_2">
    <g id="ytick_1">
     <g id="line2d_1">
      <path d="M 34.63 243.013004 
L 1064.88 243.013004 
" clip-path="url(#p17e0deb758)" style="fill: none; stroke: #cbcbcb"/>
     </g>
     <g id="text_9">
      <!-- −3 -->
      <g style="fill: #262626" transform="translate(15.088281 246.949801)scale(0.11 -0.11)">
       <defs>
        <path id="ArialMT-2212" d="M 3381 1997 
L 356 1997 
L 356 2522 
L 3381 2522 
L 3381 1997 
z
" transform="scale(0.015625)"/>
        <path id="ArialMT-33" d="M 269 1209 
L 831 1284 
Q 928 806 1161 595 
Q 1394 384 1728 384 
Q 2125 384 2398 659 
Q 2672 934 2672 1341 
Q 2672 1728 2419 1979 
Q 2166 2231 1775 2231 
Q 1616 2231 1378 2169 
L 1441 2663 
Q 1497 2656 1531 2656 
Q 1891 2656 2178 2843 
Q 2466 3031 2466 3422 
Q 2466 3731 2256 3934 
Q 2047 4138 1716 4138 
Q 1388 4138 1169 3931 
Q 950 3725 888 3313 
L 325 3413 
Q 428 3978 793 4289 
Q 1159 4600 1703 4600 
Q 2078 4600 2393 4439 
Q 2709 4278 2876 4000 
Q 3044 3722 3044 3409 
Q 3044 3113 2884 2869 
Q 2725 2625 2413 2481 
Q 2819 2388 3044 2092 
Q 3269 1797 3269 1353 
Q 3269 753 2831 336 
Q 2394 -81 1725 -81 
Q 1122 -81 723 278 
Q 325 638 269 1209 
z
" transform="scale(0.015625)"/>
       </defs>
       <use xlink:href="#ArialMT-2212"/>
       <use xlink:href="#ArialMT-33" x="58.398438"/>
      </g>
     </g>
    </g>
    <g id="ytick_2">
     <g id="line2d_2">
      <path d="M 34.63 218.934104 
L 1064.88 218.934104 
" clip-path="url(#p17e0deb758)" style="fill: none; stroke: #cbcbcb"/>
     </g>
     <g id="text_10">
      <!-- −2 -->
      <g style="fill: #262626" transform="translate(15.088281 222.870901)scale(0.11 -0.11)">
       <defs>
        <path id="ArialMT-32" d="M 3222 541 
L 3222 0 
L 194 0 
Q 188 203 259 391 
Q 375 700 629 1000 
Q 884 1300 1366 1694 
Q 2113 2306 2375 2664 
Q 2638 3022 2638 3341 
Q 2638 3675 2398 3904 
Q 2159 4134 1775 4134 
Q 1369 4134 1125 3890 
Q 881 3647 878 3216 
L 300 3275 
Q 359 3922 746 4261 
Q 1134 4600 1788 4600 
Q 2447 4600 2831 4234 
Q 3216 3869 3216 3328 
Q 3216 3053 3103 2787 
Q 2991 2522 2730 2228 
Q 2469 1934 1863 1422 
Q 1356 997 1212 845 
Q 1069 694 975 541 
L 3222 541 
z
" transform="scale(0.015625)"/>
       </defs>
       <use xlink:href="#ArialMT-2212"/>
       <use xlink:href="#ArialMT-32" x="58.398438"/>
      </g>
     </g>
    </g>
    <g id="ytick_3">
     <g id="line2d_3">
      <path d="M 34.63 194.855204 
L 1064.88 194.855204 
" clip-path="url(#p17e0deb758)" style="fill: none; stroke: #cbcbcb"/>
     </g>
     <g id="text_11">
      <!-- −1 -->
      <g style="fill: #262626" transform="translate(15.088281 198.792001)scale(0.11 -0.11)">
       <defs>
        <path id="ArialMT-31" d="M 2384 0 
L 1822 0 
L 1822 3584 
Q 1619 3391 1289 3197 
Q 959 3003 697 2906 
L 697 3450 
Q 1169 3672 1522 3987 
Q 1875 4303 2022 4600 
L 2384 4600 
L 2384 0 
z
" transform="scale(0.015625)"/>
       </defs>
       <use xlink:href="#ArialMT-2212"/>
       <use xlink:href="#ArialMT-31" x="58.398438"/>
      </g>
     </g>
    </g>
    <g id="ytick_4">
     <g id="line2d_4">
      <path d="M 34.63 170.776304 
L 1064.88 170.776304 
" clip-path="url(#p17e0deb758)" style="fill: none; stroke: #cbcbcb"/>
     </g>
     <g id="text_12">
      <!-- 0 -->
      <g style="fill: #262626" transform="translate(21.512969 174.713101)scale(0.11 -0.11)">
       <defs>
        <path id="ArialMT-30" d="M 266 2259 
Q 266 3072 433 3567 
Q 600 4063 929 4331 
Q 1259 4600 1759 4600 
Q 2128 4600 2406 4451 
Q 2684 4303 2865 4023 
Q 3047 3744 3150 3342 
Q 3253 2941 3253 2259 
Q 3253 1453 3087 958 
Q 2922 463 2592 192 
Q 2263 -78 1759 -78 
Q 1097 -78 719 397 
Q 266 969 266 2259 
z
M 844 2259 
Q 844 1131 1108 757 
Q 1372 384 1759 384 
Q 2147 384 2411 759 
Q 2675 1134 2675 2259 
Q 2675 3391 2411 3762 
Q 2147 4134 1753 4134 
Q 1366 4134 1134 3806 
Q 844 3388 844 2259 
z
" transform="scale(0.015625)"/>
       </defs>
       <use xlink:href="#ArialMT-30"/>
      </g>
     </g>
    </g>
    <g id="ytick_5">
     <g id="line2d_5">
      <path d="M 34.63 146.697404 
L 1064.88 146.697404 
" clip-path="url(#p17e0deb758)" style="fill: none; stroke: #cbcbcb"/>
     </g>
     <g id="text_13">
      <!-- 1 -->
      <g style="fill: #262626" transform="translate(21.512969 150.634201)scale(0.11 -0.11)">
       <use xlink:href="#ArialMT-31"/>
      </g>
     </g>
    </g>
    <g id="ytick_6">
     <g id="line2d_6">
      <path d="M 34.63 122.618505 
L 1064.88 122.618505 
" clip-path="url(#p17e0deb758)" style="fill: none; stroke: #cbcbcb"/>
     </g>
     <g id="text_14">
      <!-- 2 -->
      <g style="fill: #262626" transform="translate(21.512969 126.555301)scale(0.11 -0.11)">
       <use xlink:href="#ArialMT-32"/>
      </g>
     </g>
    </g>
    <g id="ytick_7">
     <g id="line2d_7">
      <path d="M 34.63 98.539605 
L 1064.88 98.539605 
" clip-path="url(#p17e0deb758)" style="fill: none; stroke: #cbcbcb"/>
     </g>
     <g id="text_15">
      <!-- 3 -->
      <g style="fill: #262626" transform="translate(21.512969 102.476402)scale(0.11 -0.11)">
       <use xlink:href="#ArialMT-33"/>
      </g>
     </g>
    </g>
    <g id="ytick_8">
     <g id="line2d_8">
      <path d="M 34.63 74.460705 
L 1064.88 74.460705 
" clip-path="url(#p17e0deb758)" style="fill: none; stroke: #cbcbcb"/>
     </g>
     <g id="text_16">
      <!-- 4 -->
      <g style="fill: #262626" transform="translate(21.512969 78.397502)scale(0.11 -0.11)">
       <defs>
        <path id="ArialMT-34" d="M 2069 0 
L 2069 1097 
L 81 1097 
L 81 1613 
L 2172 4581 
L 2631 4581 
L 2631 1613 
L 3250 1613 
L 3250 1097 
L 2631 1097 
L 2631 0 
L 2069 0 
z
M 2069 1613 
L 2069 3678 
L 634 1613 
L 2069 1613 
z
" transform="scale(0.015625)"/>
       </defs>
       <use xlink:href="#ArialMT-34"/>
      </g>
     </g>
    </g>
    <g id="ytick_9">
     <g id="line2d_9">
      <path d="M 34.63 50.381805 
L 1064.88 50.381805 
" clip-path="url(#p17e0deb758)" style="fill: none; stroke: #cbcbcb"/>
     </g>
     <g id="text_17">
      <!-- 5 -->
      <g style="fill: #262626" transform="translate(21.512969 54.318602)scale(0.11 -0.11)">
       <defs>
        <path id="ArialMT-35" d="M 266 1200 
L 856 1250 
Q 922 819 1161 601 
Q 1400 384 1738 384 
Q 2144 384 2425 690 
Q 2706 997 2706 1503 
Q 2706 1984 2436 2262 
Q 2166 2541 1728 2541 
Q 1456 2541 1237 2417 
Q 1019 2294 894 2097 
L 366 2166 
L 809 4519 
L 3088 4519 
L 3088 3981 
L 1259 3981 
L 1013 2750 
Q 1425 3038 1878 3038 
Q 2478 3038 2890 2622 
Q 3303 2206 3303 1553 
Q 3303 931 2941 478 
Q 2500 -78 1738 -78 
Q 1113 -78 717 272 
Q 322 622 266 1200 
z
" transform="scale(0.015625)"/>
       </defs>
       <use xlink:href="#ArialMT-35"/>
      </g>
     </g>
    </g>
   </g>
   <g id="PolyCollection_1">
    <defs>
     <path id="m87c94c5850" d="M 101.524122 -59.764666 
L 96.517128 -59.764666 
L 95.830553 -61.019098 
L 95.00246 -62.273529 
L 94.017268 -63.527961 
L 92.861244 -64.782393 
L 91.523527 -66.036824 
L 89.99718 -67.291256 
L 88.280209 -68.545687 
L 86.376457 -69.800119 
L 84.296297 -71.05455 
L 82.057033 -72.308982 
L 79.682961 -73.563414 
L 77.205026 -74.817845 
L 74.660071 -76.072277 
L 72.089682 -77.326708 
L 69.538692 -78.58114 
L 67.053412 -79.835572 
L 64.679694 -81.090003 
L 62.460967 -82.344435 
L 60.436351 -83.598866 
L 58.638988 -84.853298 
L 57.094696 -86.10773 
L 55.821017 -87.362161 
L 54.826718 -88.616593 
L 54.111743 -89.871024 
L 53.667608 -91.125456 
L 53.478173 -92.379888 
L 53.520712 -93.634319 
L 53.767199 -94.888751 
L 54.185699 -96.143182 
L 54.74178 -97.397614 
L 55.399847 -98.652046 
L 56.124352 -99.906477 
L 56.88082 -101.160909 
L 57.636667 -102.41534 
L 58.361817 -103.669772 
L 59.029122 -104.924203 
L 59.614614 -106.178635 
L 60.097638 -107.433067 
L 60.460898 -108.687498 
L 60.690458 -109.94193 
L 60.775748 -111.196361 
L 60.70959 -112.450793 
L 60.488281 -113.705225 
L 60.11172 -114.959656 
L 59.583583 -116.214088 
L 58.911523 -117.468519 
L 58.107356 -118.722951 
L 57.187194 -119.977383 
L 56.171477 -121.231814 
L 55.08486 -122.486246 
L 53.955903 -123.740677 
L 52.816551 -124.995109 
L 51.701382 -126.249541 
L 50.646637 -127.503972 
L 49.68905 -128.758404 
L 48.864551 -130.012835 
L 48.20689 -131.267267 
L 47.746277 -132.521699 
L 47.508125 -133.77613 
L 47.511979 -135.030562 
L 47.770713 -136.284993 
L 48.290056 -137.539425 
L 49.06847 -138.793857 
L 50.097404 -140.048288 
L 51.361896 -141.30272 
L 52.841466 -142.557151 
L 54.511251 -143.811583 
L 56.343271 -145.066014 
L 58.307752 -146.320446 
L 60.374399 -147.574878 
L 62.51355 -148.829309 
L 64.697136 -150.083741 
L 66.899403 -151.338172 
L 69.097388 -152.592604 
L 71.271146 -153.847036 
L 73.403754 -155.101467 
L 75.481141 -156.355899 
L 77.491791 -157.61033 
L 79.426384 -158.864762 
L 81.277418 -160.119194 
L 83.038861 -161.373625 
L 84.705873 -162.628057 
L 86.2746 -163.882488 
L 87.742058 -165.13692 
L 89.106096 -166.391352 
L 90.365413 -167.645783 
L 91.519616 -168.900215 
L 92.569287 -170.154646 
L 93.516038 -171.409078 
L 94.362542 -172.66351 
L 95.112509 -173.917941 
L 95.770625 -175.172373 
L 96.342436 -176.426804 
L 96.834196 -177.681236 
L 97.252682 -178.935668 
L 97.604994 -180.190099 
L 97.898354 -181.444531 
L 98.139909 -182.698962 
L 98.336565 -183.953394 
L 99.704685 -183.953394 
L 99.704685 -183.953394 
L 99.901341 -182.698962 
L 100.142896 -181.444531 
L 100.436256 -180.190099 
L 100.788568 -178.935668 
L 101.207054 -177.681236 
L 101.698814 -176.426804 
L 102.270625 -175.172373 
L 102.928741 -173.917941 
L 103.678708 -172.66351 
L 104.525212 -171.409078 
L 105.471963 -170.154646 
L 106.521634 -168.900215 
L 107.675837 -167.645783 
L 108.935154 -166.391352 
L 110.299192 -165.13692 
L 111.76665 -163.882488 
L 113.335377 -162.628057 
L 115.002389 -161.373625 
L 116.763832 -160.119194 
L 118.614866 -158.864762 
L 120.549459 -157.61033 
L 122.560109 -156.355899 
L 124.637496 -155.101467 
L 126.770104 -153.847036 
L 128.943862 -152.592604 
L 131.141847 -151.338172 
L 133.344114 -150.083741 
L 135.5277 -148.829309 
L 137.666851 -147.574878 
L 139.733498 -146.320446 
L 141.697979 -145.066014 
L 143.529999 -143.811583 
L 145.199784 -142.557151 
L 146.679354 -141.30272 
L 147.943846 -140.048288 
L 148.97278 -138.793857 
L 149.751194 -137.539425 
L 150.270537 -136.284993 
L 150.529271 -135.030562 
L 150.533125 -133.77613 
L 150.294973 -132.521699 
L 149.83436 -131.267267 
L 149.176699 -130.012835 
L 148.3522 -128.758404 
L 147.394613 -127.503972 
L 146.339868 -126.249541 
L 145.224699 -124.995109 
L 144.085347 -123.740677 
L 142.95639 -122.486246 
L 141.869773 -121.231814 
L 140.854056 -119.977383 
L 139.933894 -118.722951 
L 139.129727 -117.468519 
L 138.457667 -116.214088 
L 137.92953 -114.959656 
L 137.552969 -113.705225 
L 137.33166 -112.450793 
L 137.265502 -111.196361 
L 137.350792 -109.94193 
L 137.580352 -108.687498 
L 137.943612 -107.433067 
L 138.426636 -106.178635 
L 139.012128 -104.924203 
L 139.679433 -103.669772 
L 140.404583 -102.41534 
L 141.16043 -101.160909 
L 141.916898 -99.906477 
L 142.641403 -98.652046 
L 143.29947 -97.397614 
L 143.855551 -96.143182 
L 144.274051 -94.888751 
L 144.520538 -93.634319 
L 144.563077 -92.379888 
L 144.373642 -91.125456 
L 143.929507 -89.871024 
L 143.214532 -88.616593 
L 142.220233 -87.362161 
L 140.946554 -86.10773 
L 139.402262 -84.853298 
L 137.604899 -83.598866 
L 135.580283 -82.344435 
L 133.361556 -81.090003 
L 130.987838 -79.835572 
L 128.502558 -78.58114 
L 125.951568 -77.326708 
L 123.381179 -76.072277 
L 120.836224 -74.817845 
L 118.358289 -73.563414 
L 115.984217 -72.308982 
L 113.744953 -71.05455 
L 111.664793 -69.800119 
L 109.761041 -68.545687 
L 108.04407 -67.291256 
L 106.517723 -66.036824 
L 105.180006 -64.782393 
L 104.023982 -63.527961 
L 103.03879 -62.273529 
L 102.210697 -61.019098 
L 101.524122 -59.764666 
z
" style="stroke: #3e3e3e; stroke-width: 3"/>
    </defs>
    <g clip-path="url(#p17e0deb758)">
     <use xlink:href="#m87c94c5850" x="0" y="288" style="fill: #cb3335; stroke: #3e3e3e; stroke-width: 3"/>
    </g>
   </g>
   <g id="PolyCollection_2">
    <defs>
     <path id="mc4bb9648d9" d="M 232.190532 -80.479177 
L 223.413218 -80.479177 
L 221.9654 -82.034475 
L 220.179876 -83.589774 
L 218.026688 -85.145072 
L 215.488946 -86.70037 
L 212.56752 -88.255668 
L 209.285155 -89.810966 
L 205.689396 -91.366264 
L 201.85373 -92.921562 
L 197.87649 -94.476861 
L 193.877272 -96.032159 
L 189.990906 -97.587457 
L 186.35935 -99.142755 
L 183.122178 -100.698053 
L 180.40659 -102.253351 
L 178.317966 -103.808649 
L 176.932014 -105.363948 
L 176.289375 -106.919246 
L 176.393268 -108.474544 
L 177.210399 -110.029842 
L 178.674949 -111.58514 
L 180.695096 -113.140438 
L 183.161264 -114.695736 
L 185.955131 -116.251035 
L 188.958413 -117.806333 
L 192.060584 -119.361631 
L 195.164879 -120.916929 
L 198.192225 -122.472227 
L 201.083031 -124.027525 
L 203.797008 -125.582823 
L 206.311399 -127.138122 
L 208.618107 -128.69342 
L 210.720231 -130.248718 
L 212.628484 -131.804016 
L 214.357887 -133.359314 
L 215.924993 -134.914612 
L 217.345792 -136.46991 
L 218.634313 -138.025209 
L 219.801892 -139.580507 
L 220.856975 -141.135805 
L 221.805325 -142.691103 
L 222.650499 -144.246401 
L 223.394468 -145.801699 
L 224.038272 -147.356997 
L 224.582654 -148.912295 
L 225.028617 -150.467594 
L 225.377885 -152.022892 
L 225.63326 -153.57819 
L 225.79888 -155.133488 
L 225.880379 -156.688786 
L 225.884953 -158.244084 
L 225.821338 -159.799382 
L 225.699693 -161.354681 
L 225.531396 -162.909979 
L 225.328743 -164.465277 
L 225.104577 -166.020575 
L 224.871843 -167.575873 
L 224.643109 -169.131171 
L 224.430079 -170.686469 
L 224.243131 -172.241768 
L 224.090915 -173.797066 
L 223.980045 -175.352364 
L 223.914885 -176.907662 
L 223.897466 -178.46296 
L 223.9275 -180.018258 
L 224.002509 -181.573556 
L 224.118036 -183.128855 
L 224.267938 -184.684153 
L 224.444736 -186.239451 
L 224.640021 -187.794749 
L 224.844903 -189.350047 
L 225.050494 -190.905345 
L 225.248401 -192.460643 
L 225.431221 -194.015942 
L 225.592994 -195.57124 
L 225.729583 -197.126538 
L 225.838935 -198.681836 
L 225.921202 -200.237134 
L 225.978679 -201.792432 
L 226.015564 -203.34773 
L 226.037548 -204.903029 
L 226.051266 -206.458327 
L 226.063671 -208.013625 
L 226.081379 -209.568923 
L 226.110082 -211.124221 
L 226.154059 -212.679519 
L 226.215868 -214.234817 
L 226.296219 -215.790116 
L 226.39405 -217.345414 
L 226.506769 -218.900712 
L 226.630636 -220.45601 
L 226.761208 -222.011308 
L 226.893817 -223.566606 
L 227.023996 -225.121904 
L 227.147834 -226.677202 
L 227.262218 -228.232501 
L 227.364959 -229.787799 
L 227.454816 -231.343097 
L 227.531412 -232.898395 
L 227.595104 -234.453693 
L 228.008646 -234.453693 
L 228.008646 -234.453693 
L 228.072338 -232.898395 
L 228.148934 -231.343097 
L 228.238791 -229.787799 
L 228.341532 -228.232501 
L 228.455916 -226.677202 
L 228.579754 -225.121904 
L 228.709933 -223.566606 
L 228.842542 -222.011308 
L 228.973114 -220.45601 
L 229.096981 -218.900712 
L 229.2097 -217.345414 
L 229.307531 -215.790116 
L 229.387882 -214.234817 
L 229.449691 -212.679519 
L 229.493668 -211.124221 
L 229.522371 -209.568923 
L 229.540079 -208.013625 
L 229.552484 -206.458327 
L 229.566202 -204.903029 
L 229.588186 -203.34773 
L 229.625071 -201.792432 
L 229.682548 -200.237134 
L 229.764815 -198.681836 
L 229.874167 -197.126538 
L 230.010756 -195.57124 
L 230.172529 -194.015942 
L 230.355349 -192.460643 
L 230.553256 -190.905345 
L 230.758847 -189.350047 
L 230.963729 -187.794749 
L 231.159014 -186.239451 
L 231.335812 -184.684153 
L 231.485714 -183.128855 
L 231.601241 -181.573556 
L 231.67625 -180.018258 
L 231.706284 -178.46296 
L 231.688865 -176.907662 
L 231.623705 -175.352364 
L 231.512835 -173.797066 
L 231.360619 -172.241768 
L 231.173671 -170.686469 
L 230.960641 -169.131171 
L 230.731907 -167.575873 
L 230.499173 -166.020575 
L 230.275007 -164.465277 
L 230.072354 -162.909979 
L 229.904057 -161.354681 
L 229.782412 -159.799382 
L 229.718797 -158.244084 
L 229.723371 -156.688786 
L 229.80487 -155.133488 
L 229.97049 -153.57819 
L 230.225865 -152.022892 
L 230.575133 -150.467594 
L 231.021096 -148.912295 
L 231.565478 -147.356997 
L 232.209282 -145.801699 
L 232.953251 -144.246401 
L 233.798425 -142.691103 
L 234.746775 -141.135805 
L 235.801858 -139.580507 
L 236.969437 -138.025209 
L 238.257958 -136.46991 
L 239.678757 -134.914612 
L 241.245863 -133.359314 
L 242.975266 -131.804016 
L 244.883519 -130.248718 
L 246.985643 -128.69342 
L 249.292351 -127.138122 
L 251.806742 -125.582823 
L 254.520719 -124.027525 
L 257.411525 -122.472227 
L 260.438871 -120.916929 
L 263.543166 -119.361631 
L 266.645337 -117.806333 
L 269.648619 -116.251035 
L 272.442486 -114.695736 
L 274.908654 -113.140438 
L 276.928801 -111.58514 
L 278.393351 -110.029842 
L 279.210482 -108.474544 
L 279.314375 -106.919246 
L 278.671736 -105.363948 
L 277.285784 -103.808649 
L 275.19716 -102.253351 
L 272.481572 -100.698053 
L 269.2444 -99.142755 
L 265.612844 -97.587457 
L 261.726478 -96.032159 
L 257.72726 -94.476861 
L 253.75002 -92.921562 
L 249.914354 -91.366264 
L 246.318595 -89.810966 
L 243.03623 -88.255668 
L 240.114804 -86.70037 
L 237.577062 -85.145072 
L 235.423874 -83.589774 
L 233.63835 -82.034475 
L 232.190532 -80.479177 
z
" style="stroke: #3e3e3e; stroke-width: 3"/>
    </defs>
    <g clip-path="url(#p17e0deb758)">
     <use xlink:href="#mc4bb9648d9" x="0" y="288" style="fill: #477ca8; stroke: #3e3e3e; stroke-width: 3"/>
    </g>
   </g>
   <g id="PolyCollection_3">
    <defs>
     <path id="mbc1e930483" d="M 361.985837 -69.359501 
L 351.180413 -69.359501 
L 349.762199 -70.66303 
L 348.084439 -71.966559 
L 346.132255 -73.270088 
L 343.898929 -74.573617 
L 341.388023 -75.877146 
L 338.615185 -77.180675 
L 335.609436 -78.484204 
L 332.413724 -79.787733 
L 329.084552 -81.091262 
L 325.690605 -82.394791 
L 322.310314 -83.69832 
L 319.028449 -85.001849 
L 315.931929 -86.305378 
L 313.105097 -87.608907 
L 310.624844 -88.912436 
L 308.555958 -90.215965 
L 306.947101 -91.519494 
L 305.827772 -92.823023 
L 305.206527 -94.126552 
L 305.070625 -95.430081 
L 305.387103 -96.73361 
L 306.105197 -98.037139 
L 307.159845 -99.340668 
L 308.475962 -100.644197 
L 309.973088 -101.947726 
L 311.570022 -103.251255 
L 313.189074 -104.554784 
L 314.75965 -105.858313 
L 316.220972 -107.161842 
L 317.523864 -108.465371 
L 318.631604 -109.7689 
L 319.519973 -111.072429 
L 320.176645 -112.375958 
L 320.600153 -113.679487 
L 320.798582 -114.983016 
L 320.788201 -116.286545 
L 320.592116 -117.590074 
L 320.239026 -118.893603 
L 319.762095 -120.197132 
L 319.197885 -121.500661 
L 318.585318 -122.80419 
L 317.964591 -124.107719 
L 317.375996 -125.411248 
L 316.85863 -126.714777 
L 316.449022 -128.018306 
L 316.17972 -129.321835 
L 316.077946 -130.625364 
L 316.164421 -131.928893 
L 316.452466 -133.232422 
L 316.947496 -134.535951 
L 317.646954 -135.83948 
L 318.540722 -137.143009 
L 319.611985 -138.446538 
L 320.838466 -139.750067 
L 322.193947 -141.053596 
L 323.649919 -142.357125 
L 325.177232 -143.660654 
L 326.747613 -144.964183 
L 328.334924 -146.267712 
L 329.916107 -147.571241 
L 331.471764 -148.87477 
L 332.986379 -150.178299 
L 334.448236 -151.481828 
L 335.849089 -152.785357 
L 337.183679 -154.088886 
L 338.449174 -155.392415 
L 339.644618 -156.695944 
L 340.770445 -157.999473 
L 341.828092 -159.303002 
L 342.819727 -160.606531 
L 343.748084 -161.91006 
L 344.616371 -163.213589 
L 345.428236 -164.517118 
L 346.187735 -165.820647 
L 346.899286 -167.124176 
L 347.567582 -168.427705 
L 348.197462 -169.731234 
L 348.793729 -171.034763 
L 349.360944 -172.338292 
L 349.90321 -173.641821 
L 350.423978 -174.94535 
L 350.92588 -176.248879 
L 351.410635 -177.552408 
L 351.879021 -178.855937 
L 352.330918 -180.159466 
L 352.765428 -181.462995 
L 353.181048 -182.766524 
L 353.57588 -184.070053 
L 353.947863 -185.373582 
L 354.294997 -186.677111 
L 354.615548 -187.98064 
L 354.908209 -189.284169 
L 355.172214 -190.587698 
L 355.407403 -191.891227 
L 355.614224 -193.194756 
L 355.793705 -194.498285 
L 355.947369 -195.801814 
L 356.077142 -197.105343 
L 356.185232 -198.408872 
L 356.981018 -198.408872 
L 356.981018 -198.408872 
L 357.089108 -197.105343 
L 357.218881 -195.801814 
L 357.372545 -194.498285 
L 357.552026 -193.194756 
L 357.758847 -191.891227 
L 357.994036 -190.587698 
L 358.258041 -189.284169 
L 358.550702 -187.98064 
L 358.871253 -186.677111 
L 359.218387 -185.373582 
L 359.59037 -184.070053 
L 359.985202 -182.766524 
L 360.400822 -181.462995 
L 360.835332 -180.159466 
L 361.287229 -178.855937 
L 361.755615 -177.552408 
L 362.24037 -176.248879 
L 362.742272 -174.94535 
L 363.26304 -173.641821 
L 363.805306 -172.338292 
L 364.372521 -171.034763 
L 364.968788 -169.731234 
L 365.598668 -168.427705 
L 366.266964 -167.124176 
L 366.978515 -165.820647 
L 367.738014 -164.517118 
L 368.549879 -163.213589 
L 369.418166 -161.91006 
L 370.346523 -160.606531 
L 371.338158 -159.303002 
L 372.395805 -157.999473 
L 373.521632 -156.695944 
L 374.717076 -155.392415 
L 375.982571 -154.088886 
L 377.317161 -152.785357 
L 378.718014 -151.481828 
L 380.179871 -150.178299 
L 381.694486 -148.87477 
L 383.250143 -147.571241 
L 384.831326 -146.267712 
L 386.418637 -144.964183 
L 387.989018 -143.660654 
L 389.516331 -142.357125 
L 390.972303 -141.053596 
L 392.327784 -139.750067 
L 393.554265 -138.446538 
L 394.625528 -137.143009 
L 395.519296 -135.83948 
L 396.218754 -134.535951 
L 396.713784 -133.232422 
L 397.001829 -131.928893 
L 397.088304 -130.625364 
L 396.98653 -129.321835 
L 396.717228 -128.018306 
L 396.30762 -126.714777 
L 395.790254 -125.411248 
L 395.201659 -124.107719 
L 394.580932 -122.80419 
L 393.968365 -121.500661 
L 393.404155 -120.197132 
L 392.927224 -118.893603 
L 392.574134 -117.590074 
L 392.378049 -116.286545 
L 392.367668 -114.983016 
L 392.566097 -113.679487 
L 392.989605 -112.375958 
L 393.646277 -111.072429 
L 394.534646 -109.7689 
L 395.642386 -108.465371 
L 396.945278 -107.161842 
L 398.4066 -105.858313 
L 399.977176 -104.554784 
L 401.596228 -103.251255 
L 403.193162 -101.947726 
L 404.690288 -100.644197 
L 406.006405 -99.340668 
L 407.061053 -98.037139 
L 407.779147 -96.73361 
L 408.095625 -95.430081 
L 407.959723 -94.126552 
L 407.338478 -92.823023 
L 406.219149 -91.519494 
L 404.610292 -90.215965 
L 402.541406 -88.912436 
L 400.061153 -87.608907 
L 397.234321 -86.305378 
L 394.137801 -85.001849 
L 390.855936 -83.69832 
L 387.475645 -82.394791 
L 384.081698 -81.091262 
L 380.752526 -79.787733 
L 377.556814 -78.484204 
L 374.551065 -77.180675 
L 371.778227 -75.877146 
L 369.267321 -74.573617 
L 367.033995 -73.270088 
L 365.081811 -71.966559 
L 363.404051 -70.66303 
L 361.985837 -69.359501 
z
" style="stroke: #3e3e3e; stroke-width: 3"/>
    </defs>
    <g clip-path="url(#p17e0deb758)">
     <use xlink:href="#mbc1e930483" x="0" y="288" style="fill: #59a257; stroke: #3e3e3e; stroke-width: 3"/>
    </g>
   </g>
   <g id="PolyCollection_4">
    <defs>
     <path id="m946e3bbc84" d="M 489.783325 -62.105526 
L 480.945425 -62.105526 
L 479.895077 -63.294454 
L 478.667228 -64.483383 
L 477.250616 -65.672311 
L 475.637785 -66.861239 
L 473.826082 -68.050168 
L 471.818546 -69.239096 
L 469.624594 -70.428025 
L 467.260464 -71.616953 
L 464.749304 -72.805882 
L 462.120894 -73.99481 
L 459.410954 -75.183739 
L 456.660066 -76.372667 
L 453.91223 -77.561596 
L 451.213144 -78.750524 
L 448.6083 -79.939453 
L 446.141022 -81.128381 
L 443.850566 -82.31731 
L 441.770427 -83.506238 
L 439.926944 -84.695167 
L 438.338314 -85.884095 
L 437.014054 -87.073024 
L 435.954936 -88.261952 
L 435.153373 -89.450881 
L 434.594204 -90.639809 
L 434.255796 -91.828737 
L 434.111368 -93.017666 
L 434.130434 -94.206594 
L 434.280272 -95.395523 
L 434.527334 -96.584451 
L 434.838536 -97.77338 
L 435.18239 -98.962308 
L 435.52996 -100.151237 
L 435.855646 -101.340165 
L 436.137797 -102.529094 
L 436.359176 -103.718022 
L 436.507292 -104.906951 
L 436.574597 -106.095879 
L 436.558542 -107.284808 
L 436.461481 -108.473736 
L 436.290406 -109.662665 
L 436.056479 -110.851593 
L 435.774361 -112.040522 
L 435.461319 -113.22945 
L 435.136159 -114.418378 
L 434.817996 -115.607307 
L 434.524955 -116.796235 
L 434.272877 -117.985164 
L 434.074138 -119.174092 
L 433.936689 -120.363021 
L 433.863411 -121.551949 
L 433.851875 -122.740878 
L 433.894546 -123.929806 
L 433.979457 -125.118735 
L 434.091317 -126.307663 
L 434.212979 -127.496592 
L 434.327165 -128.68552 
L 434.418305 -129.874449 
L 434.474339 -131.063377 
L 434.488313 -132.252306 
L 434.459637 -133.441234 
L 434.394872 -134.630163 
L 434.307972 -135.819091 
L 434.219942 -137.00802 
L 434.157918 -138.196948 
L 434.153747 -139.385876 
L 434.242147 -140.574805 
L 434.45861 -141.763733 
L 434.837189 -142.952662 
L 435.408334 -144.14159 
L 436.196951 -145.330519 
L 437.220797 -146.519447 
L 438.48933 -147.708376 
L 440.003079 -148.897304 
L 441.753554 -150.086233 
L 443.72368 -151.275161 
L 445.888697 -152.46409 
L 448.217449 -153.653018 
L 450.67394 -154.841947 
L 453.219058 -156.030875 
L 455.812338 -157.219804 
L 458.413658 -158.408732 
L 460.984771 -159.597661 
L 463.49062 -160.786589 
L 465.900353 -161.975517 
L 468.188053 -163.164446 
L 470.333151 -164.353374 
L 472.320561 -165.542303 
L 474.14055 -166.731231 
L 475.788402 -167.92016 
L 477.263918 -169.109088 
L 478.570804 -170.298017 
L 479.715984 -171.486945 
L 480.708904 -172.675874 
L 481.560843 -173.864802 
L 482.28427 -175.053731 
L 482.892264 -176.242659 
L 483.398021 -177.431588 
L 483.814443 -178.620516 
L 484.153817 -179.809445 
L 486.574933 -179.809445 
L 486.574933 -179.809445 
L 486.914307 -178.620516 
L 487.330729 -177.431588 
L 487.836486 -176.242659 
L 488.44448 -175.053731 
L 489.167907 -173.864802 
L 490.019846 -172.675874 
L 491.012766 -171.486945 
L 492.157946 -170.298017 
L 493.464832 -169.109088 
L 494.940348 -167.92016 
L 496.5882 -166.731231 
L 498.408189 -165.542303 
L 500.395599 -164.353374 
L 502.540697 -163.164446 
L 504.828397 -161.975517 
L 507.23813 -160.786589 
L 509.743979 -159.597661 
L 512.315092 -158.408732 
L 514.916412 -157.219804 
L 517.509692 -156.030875 
L 520.05481 -154.841947 
L 522.511301 -153.653018 
L 524.840053 -152.46409 
L 527.00507 -151.275161 
L 528.975196 -150.086233 
L 530.725671 -148.897304 
L 532.23942 -147.708376 
L 533.507953 -146.519447 
L 534.531799 -145.330519 
L 535.320416 -144.14159 
L 535.891561 -142.952662 
L 536.27014 -141.763733 
L 536.486603 -140.574805 
L 536.575003 -139.385876 
L 536.570832 -138.196948 
L 536.508808 -137.00802 
L 536.420778 -135.819091 
L 536.333878 -134.630163 
L 536.269113 -133.441234 
L 536.240437 -132.252306 
L 536.254411 -131.063377 
L 536.310445 -129.874449 
L 536.401585 -128.68552 
L 536.515771 -127.496592 
L 536.637433 -126.307663 
L 536.749293 -125.118735 
L 536.834204 -123.929806 
L 536.876875 -122.740878 
L 536.865339 -121.551949 
L 536.792061 -120.363021 
L 536.654612 -119.174092 
L 536.455873 -117.985164 
L 536.203795 -116.796235 
L 535.910754 -115.607307 
L 535.592591 -114.418378 
L 535.267431 -113.22945 
L 534.954389 -112.040522 
L 534.672271 -110.851593 
L 534.438344 -109.662665 
L 534.267269 -108.473736 
L 534.170208 -107.284808 
L 534.154153 -106.095879 
L 534.221458 -104.906951 
L 534.369574 -103.718022 
L 534.590953 -102.529094 
L 534.873104 -101.340165 
L 535.19879 -100.151237 
L 535.54636 -98.962308 
L 535.890214 -97.77338 
L 536.201416 -96.584451 
L 536.448478 -95.395523 
L 536.598316 -94.206594 
L 536.617382 -93.017666 
L 536.472954 -91.828737 
L 536.134546 -90.639809 
L 535.575377 -89.450881 
L 534.773814 -88.261952 
L 533.714696 -87.073024 
L 532.390436 -85.884095 
L 530.801806 -84.695167 
L 528.958323 -83.506238 
L 526.878184 -82.31731 
L 524.587728 -81.128381 
L 522.12045 -79.939453 
L 519.515606 -78.750524 
L 516.81652 -77.561596 
L 514.068684 -76.372667 
L 511.317796 -75.183739 
L 508.607856 -73.99481 
L 505.979446 -72.805882 
L 503.468286 -71.616953 
L 501.104156 -70.428025 
L 498.910204 -69.239096 
L 496.902668 -68.050168 
L 495.090965 -66.861239 
L 493.478134 -65.672311 
L 492.061522 -64.483383 
L 490.833673 -63.294454 
L 489.783325 -62.105526 
z
" style="stroke: #3e3e3e; stroke-width: 3"/>
    </defs>
    <g clip-path="url(#p17e0deb758)">
     <use xlink:href="#m946e3bbc84" x="0" y="288" style="fill: #905998; stroke: #3e3e3e; stroke-width: 3"/>
    </g>
   </g>
   <g id="PolyCollection_5">
    <defs>
     <path id="m86ffbe1d42" d="M 614.757185 -41.927557 
L 613.534065 -41.927557 
L 613.336765 -43.43423 
L 613.093161 -44.940903 
L 612.797997 -46.447576 
L 612.44694 -47.954249 
L 612.036928 -49.460923 
L 611.566434 -50.967596 
L 611.035598 -52.474269 
L 610.446176 -53.980942 
L 609.801302 -55.487615 
L 609.105065 -56.994288 
L 608.361956 -58.500961 
L 607.576252 -60.007635 
L 606.751453 -61.514308 
L 605.889858 -63.020981 
L 604.992392 -64.527654 
L 604.058729 -66.034327 
L 603.087728 -67.541 
L 602.078114 -69.047674 
L 601.029313 -70.554347 
L 599.942265 -72.06102 
L 598.820056 -73.567693 
L 597.668206 -75.074366 
L 596.494523 -76.581039 
L 595.308493 -78.087712 
L 594.120278 -79.594386 
L 592.939509 -81.101059 
L 591.77409 -82.607732 
L 590.629284 -84.114405 
L 589.507309 -85.621078 
L 588.407574 -87.127751 
L 587.327592 -88.634425 
L 586.264412 -90.141098 
L 585.216315 -91.647771 
L 584.184386 -93.154444 
L 583.173583 -94.661117 
L 582.19295 -96.16779 
L 581.254774 -97.674463 
L 580.372683 -99.181137 
L 579.558912 -100.68781 
L 578.821157 -102.194483 
L 578.159603 -103.701156 
L 577.564729 -105.207829 
L 577.016453 -106.714502 
L 576.484963 -108.221175 
L 575.933324 -109.727849 
L 575.321659 -111.234522 
L 574.612381 -112.741195 
L 573.775774 -114.247868 
L 572.795096 -115.754541 
L 571.670445 -117.261214 
L 570.420773 -118.767888 
L 569.083726 -120.274561 
L 567.713305 -121.781234 
L 566.375672 -123.287907 
L 565.143653 -124.79458 
L 564.090686 -126.301253 
L 563.284962 -127.807926 
L 562.784426 -129.3146 
L 562.633125 -130.821273 
L 562.859151 -132.327946 
L 563.474161 -133.834619 
L 564.474269 -135.341292 
L 565.841946 -136.847965 
L 567.548479 -138.354639 
L 569.556611 -139.861312 
L 571.823013 -141.367985 
L 574.300398 -142.874658 
L 576.939215 -144.381331 
L 579.688961 -145.888004 
L 582.499258 -147.394677 
L 585.320821 -148.901351 
L 588.10647 -150.408024 
L 590.812261 -151.914697 
L 593.398717 -153.42137 
L 595.832111 -154.928043 
L 598.085636 -156.434716 
L 600.140333 -157.941389 
L 601.985601 -159.448063 
L 603.619195 -160.954736 
L 605.046663 -162.461409 
L 606.280255 -163.968082 
L 607.337412 -165.474755 
L 608.238998 -166.981428 
L 609.007451 -168.488102 
L 609.665059 -169.994775 
L 610.232509 -171.501448 
L 610.727822 -173.008121 
L 611.165736 -174.514794 
L 611.557514 -176.021467 
L 611.91113 -177.52814 
L 612.231746 -179.034814 
L 612.522337 -180.541487 
L 612.7844 -182.04816 
L 613.018605 -183.554833 
L 613.225353 -185.061506 
L 613.405186 -186.568179 
L 613.559035 -188.074853 
L 613.688324 -189.581526 
L 613.794959 -191.088199 
L 614.496291 -191.088199 
L 614.496291 -191.088199 
L 614.602926 -189.581526 
L 614.732215 -188.074853 
L 614.886064 -186.568179 
L 615.065897 -185.061506 
L 615.272645 -183.554833 
L 615.50685 -182.04816 
L 615.768913 -180.541487 
L 616.059504 -179.034814 
L 616.38012 -177.52814 
L 616.733736 -176.021467 
L 617.125514 -174.514794 
L 617.563428 -173.008121 
L 618.058741 -171.501448 
L 618.626191 -169.994775 
L 619.283799 -168.488102 
L 620.052252 -166.981428 
L 620.953838 -165.474755 
L 622.010995 -163.968082 
L 623.244587 -162.461409 
L 624.672055 -160.954736 
L 626.305649 -159.448063 
L 628.150917 -157.941389 
L 630.205614 -156.434716 
L 632.459139 -154.928043 
L 634.892533 -153.42137 
L 637.478989 -151.914697 
L 640.18478 -150.408024 
L 642.970429 -148.901351 
L 645.791992 -147.394677 
L 648.602289 -145.888004 
L 651.352035 -144.381331 
L 653.990852 -142.874658 
L 656.468237 -141.367985 
L 658.734639 -139.861312 
L 660.742771 -138.354639 
L 662.449304 -136.847965 
L 663.816981 -135.341292 
L 664.817089 -133.834619 
L 665.432099 -132.327946 
L 665.658125 -130.821273 
L 665.506824 -129.3146 
L 665.006288 -127.807926 
L 664.200564 -126.301253 
L 663.147597 -124.79458 
L 661.915578 -123.287907 
L 660.577945 -121.781234 
L 659.207524 -120.274561 
L 657.870477 -118.767888 
L 656.620805 -117.261214 
L 655.496154 -115.754541 
L 654.515476 -114.247868 
L 653.678869 -112.741195 
L 652.969591 -111.234522 
L 652.357926 -109.727849 
L 651.806287 -108.221175 
L 651.274797 -106.714502 
L 650.726521 -105.207829 
L 650.131647 -103.701156 
L 649.470093 -102.194483 
L 648.732338 -100.68781 
L 647.918567 -99.181137 
L 647.036476 -97.674463 
L 646.0983 -96.16779 
L 645.117667 -94.661117 
L 644.106864 -93.154444 
L 643.074935 -91.647771 
L 642.026838 -90.141098 
L 640.963658 -88.634425 
L 639.883676 -87.127751 
L 638.783941 -85.621078 
L 637.661966 -84.114405 
L 636.51716 -82.607732 
L 635.351741 -81.101059 
L 634.170972 -79.594386 
L 632.982757 -78.087712 
L 631.796727 -76.581039 
L 630.623044 -75.074366 
L 629.471194 -73.567693 
L 628.348985 -72.06102 
L 627.261937 -70.554347 
L 626.213136 -69.047674 
L 625.203522 -67.541 
L 624.232521 -66.034327 
L 623.298858 -64.527654 
L 622.401392 -63.020981 
L 621.539797 -61.514308 
L 620.714998 -60.007635 
L 619.929294 -58.500961 
L 619.186185 -56.994288 
L 618.489948 -55.487615 
L 617.845074 -53.980942 
L 617.255652 -52.474269 
L 616.724816 -50.967596 
L 616.254322 -49.460923 
L 615.84431 -47.954249 
L 615.493253 -46.447576 
L 615.198089 -44.940903 
L 614.954485 -43.43423 
L 614.757185 -41.927557 
z
" style="stroke: #3e3e3e; stroke-width: 3"/>
    </defs>
    <g clip-path="url(#p17e0deb758)">
     <use xlink:href="#m86ffbe1d42" x="0" y="288" style="fill: #df7f20; stroke: #3e3e3e; stroke-width: 3"/>
    </g>
   </g>
   <g id="PolyCollection_6">
    <defs>
     <path id="m4909776c80" d="M 743.343649 -43.333539 
L 742.510101 -43.333539 
L 742.364433 -44.933154 
L 742.180881 -46.532769 
L 741.954005 -48.132384 
L 741.6788 -49.731999 
L 741.350993 -51.331614 
L 740.9673 -52.931229 
L 740.525596 -54.530844 
L 740.024972 -56.130459 
L 739.465657 -57.730074 
L 738.848802 -59.329689 
L 738.176149 -60.929304 
L 737.449614 -62.528919 
L 736.670842 -64.128535 
L 735.840769 -65.72815 
L 734.959245 -67.327765 
L 734.024731 -68.92738 
L 733.034097 -70.526995 
L 731.982496 -72.12661 
L 730.863317 -73.726225 
L 729.668205 -75.32584 
L 728.387167 -76.925455 
L 727.008814 -78.52507 
L 725.5208 -80.124685 
L 723.910573 -81.7243 
L 722.166497 -83.323915 
L 720.279421 -84.923531 
L 718.244641 -86.523146 
L 716.064141 -88.122761 
L 713.748844 -89.722376 
L 711.320544 -91.321991 
L 708.813076 -92.921606 
L 706.272353 -94.521221 
L 703.754948 -96.120836 
L 701.32512 -97.720451 
L 699.050415 -99.320066 
L 696.996242 -100.919681 
L 695.220083 -102.519296 
L 693.766123 -104.118911 
L 692.661097 -105.718526 
L 691.912055 -107.318142 
L 691.506417 -108.917757 
L 691.414375 -110.517372 
L 691.5933 -112.116987 
L 691.993477 -113.716602 
L 692.564295 -115.316217 
L 693.25998 -116.915832 
L 694.044055 -118.515447 
L 694.892006 -120.115062 
L 695.791932 -121.714677 
L 696.74332 -123.314292 
L 697.754362 -124.913907 
L 698.838408 -126.513522 
L 700.010201 -128.113138 
L 701.282476 -129.712753 
L 702.663363 -131.312368 
L 704.154804 -132.911983 
L 705.752048 -134.511598 
L 707.444073 -136.111213 
L 709.214707 -137.710828 
L 711.044157 -139.310443 
L 712.910651 -140.910058 
L 714.79197 -142.509673 
L 716.666678 -144.109288 
L 718.514971 -145.708903 
L 720.319135 -147.308518 
L 722.063646 -148.908133 
L 723.735038 -150.507749 
L 725.321655 -152.107364 
L 726.81341 -153.706979 
L 728.20168 -155.306594 
L 729.479394 -156.906209 
L 730.641329 -158.505824 
L 731.68458 -160.105439 
L 732.609099 -161.705054 
L 733.418184 -163.304669 
L 734.118776 -164.904284 
L 734.721461 -166.503899 
L 735.240086 -168.103514 
L 735.691005 -169.703129 
L 736.091986 -171.302745 
L 736.46092 -172.90236 
L 736.81446 -174.501975 
L 737.166776 -176.10159 
L 737.528567 -177.701205 
L 737.906454 -179.30082 
L 738.302798 -180.900435 
L 738.715961 -182.50005 
L 739.140939 -184.099665 
L 739.570262 -185.69928 
L 739.995051 -187.298895 
L 740.406072 -188.89851 
L 740.794697 -190.498125 
L 741.153655 -192.09774 
L 741.477544 -193.697356 
L 741.763063 -195.296971 
L 742.009013 -196.896586 
L 742.216084 -198.496201 
L 742.386518 -200.095816 
L 742.523682 -201.695431 
L 743.330068 -201.695431 
L 743.330068 -201.695431 
L 743.467232 -200.095816 
L 743.637666 -198.496201 
L 743.844737 -196.896586 
L 744.090687 -195.296971 
L 744.376206 -193.697356 
L 744.700095 -192.09774 
L 745.059053 -190.498125 
L 745.447678 -188.89851 
L 745.858699 -187.298895 
L 746.283488 -185.69928 
L 746.712811 -184.099665 
L 747.137789 -182.50005 
L 747.550952 -180.900435 
L 747.947296 -179.30082 
L 748.325183 -177.701205 
L 748.686974 -176.10159 
L 749.03929 -174.501975 
L 749.39283 -172.90236 
L 749.761764 -171.302745 
L 750.162745 -169.703129 
L 750.613664 -168.103514 
L 751.132289 -166.503899 
L 751.734974 -164.904284 
L 752.435566 -163.304669 
L 753.244651 -161.705054 
L 754.16917 -160.105439 
L 755.212421 -158.505824 
L 756.374356 -156.906209 
L 757.65207 -155.306594 
L 759.04034 -153.706979 
L 760.532095 -152.107364 
L 762.118712 -150.507749 
L 763.790104 -148.908133 
L 765.534615 -147.308518 
L 767.338779 -145.708903 
L 769.187072 -144.109288 
L 771.06178 -142.509673 
L 772.943099 -140.910058 
L 774.809593 -139.310443 
L 776.639043 -137.710828 
L 778.409677 -136.111213 
L 780.101702 -134.511598 
L 781.698946 -132.911983 
L 783.190387 -131.312368 
L 784.571274 -129.712753 
L 785.843549 -128.113138 
L 787.015342 -126.513522 
L 788.099388 -124.913907 
L 789.11043 -123.314292 
L 790.061818 -121.714677 
L 790.961744 -120.115062 
L 791.809695 -118.515447 
L 792.59377 -116.915832 
L 793.289455 -115.316217 
L 793.860273 -113.716602 
L 794.26045 -112.116987 
L 794.439375 -110.517372 
L 794.347333 -108.917757 
L 793.941695 -107.318142 
L 793.192653 -105.718526 
L 792.087627 -104.118911 
L 790.633667 -102.519296 
L 788.857508 -100.919681 
L 786.803335 -99.320066 
L 784.52863 -97.720451 
L 782.098802 -96.120836 
L 779.581397 -94.521221 
L 777.040674 -92.921606 
L 774.533206 -91.321991 
L 772.104906 -89.722376 
L 769.789609 -88.122761 
L 767.609109 -86.523146 
L 765.574329 -84.923531 
L 763.687253 -83.323915 
L 761.943177 -81.7243 
L 760.33295 -80.124685 
L 758.844936 -78.52507 
L 757.466583 -76.925455 
L 756.185545 -75.32584 
L 754.990433 -73.726225 
L 753.871254 -72.12661 
L 752.819653 -70.526995 
L 751.829019 -68.92738 
L 750.894505 -67.327765 
L 750.012981 -65.72815 
L 749.182908 -64.128535 
L 748.404136 -62.528919 
L 747.677601 -60.929304 
L 747.004948 -59.329689 
L 746.388093 -57.730074 
L 745.828778 -56.130459 
L 745.328154 -54.530844 
L 744.88645 -52.931229 
L 744.502757 -51.331614 
L 744.17495 -49.731999 
L 743.899745 -48.132384 
L 743.672869 -46.532769 
L 743.489317 -44.933154 
L 743.343649 -43.333539 
z
" style="stroke: #3e3e3e; stroke-width: 3"/>
    </defs>
    <g clip-path="url(#p17e0deb758)">
     <use xlink:href="#m4909776c80" x="0" y="288" style="fill: #e6e64c; stroke: #3e3e3e; stroke-width: 3"/>
    </g>
   </g>
   <g id="PolyCollection_7">
    <defs>
     <path id="m8977a33e22" d="M 878.227898 -84.868715 
L 865.188352 -84.868715 
L 863.327707 -86.309908 
L 861.111109 -87.7511 
L 858.525712 -89.192293 
L 855.575343 -90.633486 
L 852.284189 -92.074678 
L 848.699505 -93.515871 
L 844.892855 -94.957064 
L 840.959457 -96.398257 
L 837.015382 -97.839449 
L 833.192546 -99.280642 
L 829.63172 -100.721835 
L 826.474025 -102.163028 
L 823.851603 -103.60422 
L 821.878351 -105.045413 
L 820.641599 -106.486606 
L 820.195625 -107.927798 
L 820.557659 -109.368991 
L 821.706801 -110.810184 
L 823.585953 -112.251377 
L 826.106505 -113.692569 
L 829.155258 -115.133762 
L 832.602819 -116.574955 
L 836.312609 -118.016148 
L 840.149621 -119.45734 
L 843.98817 -120.898533 
L 847.718061 -122.339726 
L 851.248826 -123.780918 
L 854.511947 -125.222111 
L 857.461161 -126.663304 
L 860.071149 -128.104497 
L 862.335 -129.545689 
L 864.260884 -130.986882 
L 865.868368 -132.428075 
L 867.184743 -133.869267 
L 868.241634 -135.31046 
L 869.072116 -136.751653 
L 869.708405 -138.192846 
L 870.180174 -139.634038 
L 870.513465 -141.075231 
L 870.730116 -142.516424 
L 870.847642 -143.957617 
L 870.879461 -145.398809 
L 870.835401 -146.840002 
L 870.722395 -148.281195 
L 870.545309 -149.722387 
L 870.307837 -151.16358 
L 870.01341 -152.604773 
L 869.666052 -154.045966 
L 869.271138 -155.487158 
L 868.83599 -156.928351 
L 868.370253 -158.369544 
L 867.886014 -159.810737 
L 867.397642 -161.251929 
L 866.921326 -162.693122 
L 866.474353 -164.134315 
L 866.074164 -165.575507 
L 865.737273 -167.0167 
L 865.478145 -168.457893 
L 865.308147 -169.899086 
L 865.234665 -171.340278 
L 865.260508 -172.781471 
L 865.383634 -174.222664 
L 865.597255 -175.663857 
L 865.8903 -177.105049 
L 866.248199 -178.546242 
L 866.653912 -179.987435 
L 867.089093 -181.428627 
L 867.535303 -182.86982 
L 867.975151 -184.311013 
L 868.393279 -185.752206 
L 868.777127 -187.193398 
L 869.117441 -188.634591 
L 869.408494 -190.075784 
L 869.648054 -191.516977 
L 869.837121 -192.958169 
L 869.979476 -194.399362 
L 870.081098 -195.840555 
L 870.149502 -197.281747 
L 870.193063 -198.72294 
L 870.220349 -200.164133 
L 870.239527 -201.605326 
L 870.257869 -203.046518 
L 870.281369 -204.487711 
L 870.314499 -205.928904 
L 870.360107 -207.370096 
L 870.419433 -208.811289 
L 870.492252 -210.252482 
L 870.577108 -211.693675 
L 870.671603 -213.134867 
L 870.772728 -214.57606 
L 870.87719 -216.017253 
L 870.981709 -217.458446 
L 871.083275 -218.899638 
L 871.179331 -220.340831 
L 871.267892 -221.782024 
L 871.347597 -223.223216 
L 871.417697 -224.664409 
L 871.477997 -226.105602 
L 871.528766 -227.546795 
L 871.887484 -227.546795 
L 871.887484 -227.546795 
L 871.938253 -226.105602 
L 871.998553 -224.664409 
L 872.068653 -223.223216 
L 872.148358 -221.782024 
L 872.236919 -220.340831 
L 872.332975 -218.899638 
L 872.434541 -217.458446 
L 872.53906 -216.017253 
L 872.643522 -214.57606 
L 872.744647 -213.134867 
L 872.839142 -211.693675 
L 872.923998 -210.252482 
L 872.996817 -208.811289 
L 873.056143 -207.370096 
L 873.101751 -205.928904 
L 873.134881 -204.487711 
L 873.158381 -203.046518 
L 873.176723 -201.605326 
L 873.195901 -200.164133 
L 873.223187 -198.72294 
L 873.266748 -197.281747 
L 873.335152 -195.840555 
L 873.436774 -194.399362 
L 873.579129 -192.958169 
L 873.768196 -191.516977 
L 874.007756 -190.075784 
L 874.298809 -188.634591 
L 874.639123 -187.193398 
L 875.022971 -185.752206 
L 875.441099 -184.311013 
L 875.880947 -182.86982 
L 876.327157 -181.428627 
L 876.762338 -179.987435 
L 877.168051 -178.546242 
L 877.52595 -177.105049 
L 877.818995 -175.663857 
L 878.032616 -174.222664 
L 878.155742 -172.781471 
L 878.181585 -171.340278 
L 878.108103 -169.899086 
L 877.938105 -168.457893 
L 877.678977 -167.0167 
L 877.342086 -165.575507 
L 876.941897 -164.134315 
L 876.494924 -162.693122 
L 876.018608 -161.251929 
L 875.530236 -159.810737 
L 875.045997 -158.369544 
L 874.58026 -156.928351 
L 874.145112 -155.487158 
L 873.750198 -154.045966 
L 873.40284 -152.604773 
L 873.108413 -151.16358 
L 872.870941 -149.722387 
L 872.693855 -148.281195 
L 872.580849 -146.840002 
L 872.536789 -145.398809 
L 872.568608 -143.957617 
L 872.686134 -142.516424 
L 872.902785 -141.075231 
L 873.236076 -139.634038 
L 873.707845 -138.192846 
L 874.344134 -136.751653 
L 875.174616 -135.31046 
L 876.231507 -133.869267 
L 877.547882 -132.428075 
L 879.155366 -130.986882 
L 881.08125 -129.545689 
L 883.345101 -128.104497 
L 885.955089 -126.663304 
L 888.904303 -125.222111 
L 892.167424 -123.780918 
L 895.698189 -122.339726 
L 899.42808 -120.898533 
L 903.266629 -119.45734 
L 907.103641 -118.016148 
L 910.813431 -116.574955 
L 914.260992 -115.133762 
L 917.309745 -113.692569 
L 919.830297 -112.251377 
L 921.709449 -110.810184 
L 922.858591 -109.368991 
L 923.220625 -107.927798 
L 922.774651 -106.486606 
L 921.537899 -105.045413 
L 919.564647 -103.60422 
L 916.942225 -102.163028 
L 913.78453 -100.721835 
L 910.223704 -99.280642 
L 906.400868 -97.839449 
L 902.456793 -96.398257 
L 898.523395 -94.957064 
L 894.716745 -93.515871 
L 891.132061 -92.074678 
L 887.840907 -90.633486 
L 884.890538 -89.192293 
L 882.305141 -87.7511 
L 880.088543 -86.309908 
L 878.227898 -84.868715 
z
" style="stroke: #3e3e3e; stroke-width: 3"/>
    </defs>
    <g clip-path="url(#p17e0deb758)">
     <use xlink:href="#m8977a33e22" x="0" y="288" style="fill: #965a38; stroke: #3e3e3e; stroke-width: 3"/>
    </g>
   </g>
   <g id="PolyCollection_8">
    <defs>
     <path id="m0fd1f71dd2" d="M 1003.507097 -76.105653 
L 997.471653 -76.105653 
L 996.401489 -77.677228 
L 995.053208 -79.248802 
L 993.391778 -80.820376 
L 991.389995 -82.39195 
L 989.032642 -83.963524 
L 986.320509 -85.535098 
L 983.273716 -87.106673 
L 979.933807 -88.678247 
L 976.364136 -90.249821 
L 972.648194 -91.821395 
L 968.885809 -93.392969 
L 965.187403 -94.964543 
L 961.666794 -96.536117 
L 958.433295 -98.107692 
L 955.583981 -99.679266 
L 953.197045 -101.25084 
L 951.327016 -102.822414 
L 950.002387 -104.393988 
L 949.225835 -105.965562 
L 948.976875 -107.537137 
L 949.216451 -109.108711 
L 949.892729 -110.680285 
L 950.947254 -112.251859 
L 952.320661 -113.823433 
L 953.957278 -115.395007 
L 955.808204 -116.966581 
L 957.832706 -118.538156 
L 959.99806 -120.10973 
L 962.278148 -121.681304 
L 964.65126 -123.252878 
L 967.097602 -124.824452 
L 969.596958 -126.396026 
L 972.126876 -127.9676 
L 974.661621 -129.539175 
L 977.171965 -131.110749 
L 979.625822 -132.682323 
L 981.989548 -134.253897 
L 984.229733 -135.825471 
L 986.315224 -137.397045 
L 988.21913 -138.96862 
L 989.920599 -140.540194 
L 991.40617 -142.111768 
L 992.670585 -143.683342 
L 993.71701 -145.254916 
L 994.556638 -146.82649 
L 995.20776 -148.398064 
L 995.694378 -149.969639 
L 996.044492 -151.541213 
L 996.288221 -153.112787 
L 996.45589 -154.684361 
L 996.576242 -156.255935 
L 996.674894 -157.827509 
L 996.773137 -159.399083 
L 996.887145 -160.970658 
L 997.027629 -162.542232 
L 997.19991 -164.113806 
L 997.404376 -165.68538 
L 997.637234 -167.256954 
L 997.89146 -168.828528 
L 998.157846 -170.400103 
L 998.426016 -171.971677 
L 998.685354 -173.543251 
L 998.925743 -175.114825 
L 999.138123 -176.686399 
L 999.31483 -178.257973 
L 999.449773 -179.829547 
L 999.53848 -181.401122 
L 999.578074 -182.972696 
L 999.567243 -184.54427 
L 999.506221 -186.115844 
L 999.396834 -187.687418 
L 999.24257 -189.258992 
L 999.048682 -190.830567 
L 998.822242 -192.402141 
L 998.572127 -193.973715 
L 998.308858 -195.545289 
L 998.044266 -197.116863 
L 997.790985 -198.688437 
L 997.561766 -200.260011 
L 997.368678 -201.831586 
L 997.222276 -203.40316 
L 997.130807 -204.974734 
L 997.099576 -206.546308 
L 997.130524 -208.117882 
L 997.222102 -209.689456 
L 997.36944 -211.26103 
L 997.564804 -212.832605 
L 997.798289 -214.404179 
L 998.058658 -215.975753 
L 998.334236 -217.547327 
L 998.613766 -219.118901 
L 998.887138 -220.690475 
L 999.145932 -222.26205 
L 999.383744 -223.833624 
L 999.596299 -225.405198 
L 999.781359 -226.976772 
L 999.938488 -228.548346 
L 1000.068713 -230.11992 
L 1000.174133 -231.691494 
L 1000.804617 -231.691494 
L 1000.804617 -231.691494 
L 1000.910037 -230.11992 
L 1001.040262 -228.548346 
L 1001.197391 -226.976772 
L 1001.382451 -225.405198 
L 1001.595006 -223.833624 
L 1001.832818 -222.26205 
L 1002.091612 -220.690475 
L 1002.364984 -219.118901 
L 1002.644514 -217.547327 
L 1002.920092 -215.975753 
L 1003.180461 -214.404179 
L 1003.413946 -212.832605 
L 1003.60931 -211.26103 
L 1003.756648 -209.689456 
L 1003.848226 -208.117882 
L 1003.879174 -206.546308 
L 1003.847943 -204.974734 
L 1003.756474 -203.40316 
L 1003.610072 -201.831586 
L 1003.416984 -200.260011 
L 1003.187765 -198.688437 
L 1002.934484 -197.116863 
L 1002.669892 -195.545289 
L 1002.406623 -193.973715 
L 1002.156508 -192.402141 
L 1001.930068 -190.830567 
L 1001.73618 -189.258992 
L 1001.581916 -187.687418 
L 1001.472529 -186.115844 
L 1001.411507 -184.54427 
L 1001.400676 -182.972696 
L 1001.44027 -181.401122 
L 1001.528977 -179.829547 
L 1001.66392 -178.257973 
L 1001.840627 -176.686399 
L 1002.053007 -175.114825 
L 1002.293396 -173.543251 
L 1002.552734 -171.971677 
L 1002.820904 -170.400103 
L 1003.08729 -168.828528 
L 1003.341516 -167.256954 
L 1003.574374 -165.68538 
L 1003.77884 -164.113806 
L 1003.951121 -162.542232 
L 1004.091605 -160.970658 
L 1004.205613 -159.399083 
L 1004.303856 -157.827509 
L 1004.402508 -156.255935 
L 1004.52286 -154.684361 
L 1004.690529 -153.112787 
L 1004.934258 -151.541213 
L 1005.284372 -149.969639 
L 1005.77099 -148.398064 
L 1006.422112 -146.82649 
L 1007.26174 -145.254916 
L 1008.308165 -143.683342 
L 1009.57258 -142.111768 
L 1011.058151 -140.540194 
L 1012.75962 -138.96862 
L 1014.663526 -137.397045 
L 1016.749017 -135.825471 
L 1018.989202 -134.253897 
L 1021.352928 -132.682323 
L 1023.806785 -131.110749 
L 1026.317129 -129.539175 
L 1028.851874 -127.9676 
L 1031.381792 -126.396026 
L 1033.881148 -124.824452 
L 1036.32749 -123.252878 
L 1038.700602 -121.681304 
L 1040.98069 -120.10973 
L 1043.146044 -118.538156 
L 1045.170546 -116.966581 
L 1047.021472 -115.395007 
L 1048.658089 -113.823433 
L 1050.031496 -112.251859 
L 1051.086021 -110.680285 
L 1051.762299 -109.108711 
L 1052.001875 -107.537137 
L 1051.752915 -105.965562 
L 1050.976363 -104.393988 
L 1049.651734 -102.822414 
L 1047.781705 -101.25084 
L 1045.394769 -99.679266 
L 1042.545455 -98.107692 
L 1039.311956 -96.536117 
L 1035.791347 -94.964543 
L 1032.092941 -93.392969 
L 1028.330556 -91.821395 
L 1024.614614 -90.249821 
L 1021.044943 -88.678247 
L 1017.705034 -87.106673 
L 1014.658241 -85.535098 
L 1011.946108 -83.963524 
L 1009.588755 -82.39195 
L 1007.586972 -80.820376 
L 1005.925542 -79.248802 
L 1004.577261 -77.677228 
L 1003.507097 -76.105653 
z
" style="stroke: #3e3e3e; stroke-width: 3"/>
    </defs>
    <g clip-path="url(#p17e0deb758)">
     <use xlink:href="#m0fd1f71dd2" x="0" y="288" style="fill: #e890be; stroke: #3e3e3e; stroke-width: 3"/>
    </g>
   </g>
   <g id="line2d_10">
    <path d="M 99.020625 205.84219 
L 99.020625 126.43975 
" clip-path="url(#p17e0deb758)" style="fill: none; stroke: #3e3e3e; stroke-width: 3"/>
   </g>
   <g id="line2d_11">
    <path d="M 99.020625 193.934022 
L 99.020625 151.205178 
" clip-path="url(#p17e0deb758)" style="fill: none; stroke: #3e3e3e; stroke-width: 9"/>
   </g>
   <g id="line2d_12">
    <path d="M 227.801875 185.127679 
L 227.801875 148.179058 
" clip-path="url(#p17e0deb758)" style="fill: none; stroke: #3e3e3e; stroke-width: 3"/>
   </g>
   <g id="line2d_13">
    <path d="M 227.801875 185.112774 
L 227.801875 168.419014 
" clip-path="url(#p17e0deb758)" style="fill: none; stroke: #3e3e3e; stroke-width: 9"/>
   </g>
   <g id="line2d_14">
    <path d="M 356.583125 196.247355 
L 356.583125 111.984271 
" clip-path="url(#p17e0deb758)" style="fill: none; stroke: #3e3e3e; stroke-width: 3"/>
   </g>
   <g id="line2d_15">
    <path d="M 356.583125 196.197922 
L 356.583125 152.798375 
" clip-path="url(#p17e0deb758)" style="fill: none; stroke: #3e3e3e; stroke-width: 9"/>
   </g>
   <g id="line2d_16">
    <path d="M 485.364375 203.501331 
L 485.364375 130.583699 
" clip-path="url(#p17e0deb758)" style="fill: none; stroke: #3e3e3e; stroke-width: 3"/>
   </g>
   <g id="line2d_17">
    <path d="M 485.364375 191.667855 
L 485.364375 145.77332 
" clip-path="url(#p17e0deb758)" style="fill: none; stroke: #3e3e3e; stroke-width: 9"/>
   </g>
   <g id="line2d_18">
    <path d="M 614.145625 223.679299 
L 614.145625 119.304945 
" clip-path="url(#p17e0deb758)" style="fill: none; stroke: #3e3e3e; stroke-width: 3"/>
   </g>
   <g id="line2d_19">
    <path d="M 614.145625 184.637756 
L 614.145625 152.00665 
" clip-path="url(#p17e0deb758)" style="fill: none; stroke: #3e3e3e; stroke-width: 9"/>
   </g>
   <g id="line2d_20">
    <path d="M 742.926875 214.160774 
L 742.926875 133.035343 
" clip-path="url(#p17e0deb758)" style="fill: none; stroke: #3e3e3e; stroke-width: 3"/>
   </g>
   <g id="line2d_21">
    <path d="M 742.926875 181.710602 
L 742.926875 157.372972 
" clip-path="url(#p17e0deb758)" style="fill: none; stroke: #3e3e3e; stroke-width: 9"/>
   </g>
   <g id="line2d_22">
    <path d="M 871.708125 180.738141 
L 871.708125 180.738141 
" clip-path="url(#p17e0deb758)" style="fill: none; stroke: #3e3e3e; stroke-width: 3"/>
   </g>
   <g id="line2d_23">
    <path d="M 871.708125 180.738141 
L 871.708125 180.738141 
" clip-path="url(#p17e0deb758)" style="fill: none; stroke: #3e3e3e; stroke-width: 9"/>
   </g>
   <g id="line2d_24">
    <path d="M 1000.489375 189.501203 
L 1000.489375 155.564983 
" clip-path="url(#p17e0deb758)" style="fill: none; stroke: #3e3e3e; stroke-width: 3"/>
   </g>
   <g id="line2d_25">
    <path d="M 1000.489375 186.416092 
L 1000.489375 165.481411 
" clip-path="url(#p17e0deb758)" style="fill: none; stroke: #3e3e3e; stroke-width: 9"/>
   </g>
   <g id="patch_3">
    <path d="M 34.63 255.69875 
L 34.63 43.92 
" style="fill: none; stroke: #f0f0f0; stroke-width: 3; stroke-linejoin: miter; stroke-linecap: square"/>
   </g>
   <g id="patch_4">
    <path d="M 1064.88 255.69875 
L 1064.88 43.92 
" style="fill: none; stroke: #f0f0f0; stroke-width: 3; stroke-linejoin: miter; stroke-linecap: square"/>
   </g>
   <g id="patch_5">
    <path d="M 34.63 255.69875 
L 1064.88 255.69875 
" style="fill: none; stroke: #f0f0f0; stroke-width: 3; stroke-linejoin: miter; stroke-linecap: square"/>
   </g>
   <g id="patch_6">
    <path d="M 34.63 43.92 
L 1064.88 43.92 
" style="fill: none; stroke: #f0f0f0; stroke-width: 3; stroke-linejoin: miter; stroke-linecap: square"/>
   </g>
   <g id="PathCollection_1">
    <defs>
     <path id="md39b42c70f" d="M 0 3 
C 0.795609 3 1.55874 2.683901 2.12132 2.12132 
C 2.683901 1.55874 3 0.795609 3 0 
C 3 -0.795609 2.683901 -1.55874 2.12132 -2.12132 
C 1.55874 -2.683901 0.795609 -3 0 -3 
C -0.795609 -3 -1.55874 -2.683901 -2.12132 -2.12132 
C -2.683901 -1.55874 -3 -0.795609 -3 0 
C -3 0.795609 -2.683901 1.55874 -2.12132 2.12132 
C -1.55874 2.683901 -0.795609 3 0 3 
z
" style="stroke: #3e3e3e; stroke-width: 0.5"/>
    </defs>
    <g clip-path="url(#p17e0deb758)">
     <use xlink:href="#md39b42c70f" x="99.020625" y="169.309052" style="fill: #ffffff; stroke: #3e3e3e; stroke-width: 0.5"/>
    </g>
   </g>
   <g id="PathCollection_2">
    <g clip-path="url(#p17e0deb758)">
     <use xlink:href="#md39b42c70f" x="227.801875" y="180.309732" style="fill: #ffffff; stroke: #3e3e3e; stroke-width: 0.5"/>
    </g>
   </g>
   <g id="PathCollection_3">
    <g clip-path="url(#p17e0deb758)">
     <use xlink:href="#md39b42c70f" x="356.583125" y="174.522865" style="fill: #ffffff; stroke: #3e3e3e; stroke-width: 0.5"/>
    </g>
   </g>
   <g id="PathCollection_4">
    <g clip-path="url(#p17e0deb758)">
     <use xlink:href="#md39b42c70f" x="485.364375" y="168.561291" style="fill: #ffffff; stroke: #3e3e3e; stroke-width: 0.5"/>
    </g>
   </g>
   <g id="PathCollection_5">
    <g clip-path="url(#p17e0deb758)">
     <use xlink:href="#md39b42c70f" x="614.145625" y="162.540101" style="fill: #ffffff; stroke: #3e3e3e; stroke-width: 0.5"/>
    </g>
   </g>
   <g id="PathCollection_6">
    <g clip-path="url(#p17e0deb758)">
     <use xlink:href="#md39b42c70f" x="742.926875" y="173.598058" style="fill: #ffffff; stroke: #3e3e3e; stroke-width: 0.5"/>
    </g>
   </g>
   <g id="PathCollection_7">
    <g clip-path="url(#p17e0deb758)">
     <use xlink:href="#md39b42c70f" x="871.708125" y="180.738141" style="fill: #ffffff; stroke: #3e3e3e; stroke-width: 0.5"/>
    </g>
   </g>
   <g id="PathCollection_8">
    <g clip-path="url(#p17e0deb758)">
     <use xlink:href="#md39b42c70f" x="1000.489375" y="177.160759" style="fill: #ffffff; stroke: #3e3e3e; stroke-width: 0.5"/>
    </g>
   </g>
  </g>
  <g id="text_18">
   <!-- Violin Plot of all Continuous Variables -->
   <g style="fill: #262626" transform="translate(416.035547 16.496719)scale(0.15 -0.15)">
    <defs>
     <path id="ArialMT-56" d="M 1803 0 
L 28 4581 
L 684 4581 
L 1875 1253 
Q 2019 853 2116 503 
Q 2222 878 2363 1253 
L 3600 4581 
L 4219 4581 
L 2425 0 
L 1803 0 
z
" transform="scale(0.015625)"/>
     <path id="ArialMT-6f" d="M 213 1659 
Q 213 2581 725 3025 
Q 1153 3394 1769 3394 
Q 2453 3394 2887 2945 
Q 3322 2497 3322 1706 
Q 3322 1066 3130 698 
Q 2938 331 2570 128 
Q 2203 -75 1769 -75 
Q 1072 -75 642 372 
Q 213 819 213 1659 
z
M 791 1659 
Q 791 1022 1069 705 
Q 1347 388 1769 388 
Q 2188 388 2466 706 
Q 2744 1025 2744 1678 
Q 2744 2294 2464 2611 
Q 2184 2928 1769 2928 
Q 1347 2928 1069 2612 
Q 791 2297 791 1659 
z
" transform="scale(0.015625)"/>
     <path id="ArialMT-20" transform="scale(0.015625)"/>
     <path id="ArialMT-50" d="M 494 0 
L 494 4581 
L 2222 4581 
Q 2678 4581 2919 4538 
Q 3256 4481 3484 4323 
Q 3713 4166 3852 3881 
Q 3991 3597 3991 3256 
Q 3991 2672 3619 2267 
Q 3247 1863 2275 1863 
L 1100 1863 
L 1100 0 
L 494 0 
z
M 1100 2403 
L 2284 2403 
Q 2872 2403 3119 2622 
Q 3366 2841 3366 3238 
Q 3366 3525 3220 3729 
Q 3075 3934 2838 4000 
Q 2684 4041 2272 4041 
L 1100 4041 
L 1100 2403 
z
" transform="scale(0.015625)"/>
     <path id="ArialMT-62" d="M 941 0 
L 419 0 
L 419 4581 
L 981 4581 
L 981 2947 
Q 1338 3394 1891 3394 
Q 2197 3394 2470 3270 
Q 2744 3147 2920 2923 
Q 3097 2700 3197 2384 
Q 3297 2069 3297 1709 
Q 3297 856 2875 390 
Q 2453 -75 1863 -75 
Q 1275 -75 941 416 
L 941 0 
z
M 934 1684 
Q 934 1088 1097 822 
Q 1363 388 1816 388 
Q 2184 388 2453 708 
Q 2722 1028 2722 1663 
Q 2722 2313 2464 2622 
Q 2206 2931 1841 2931 
Q 1472 2931 1203 2611 
Q 934 2291 934 1684 
z
" transform="scale(0.015625)"/>
    </defs>
    <use xlink:href="#ArialMT-56"/>
    <use xlink:href="#ArialMT-69" x="64.949219"/>
    <use xlink:href="#ArialMT-6f" x="87.166016"/>
    <use xlink:href="#ArialMT-6c" x="142.78125"/>
    <use xlink:href="#ArialMT-69" x="164.998047"/>
    <use xlink:href="#ArialMT-6e" x="187.214844"/>
    <use xlink:href="#ArialMT-20" x="242.830078"/>
    <use xlink:href="#ArialMT-50" x="270.613281"/>
    <use xlink:href="#ArialMT-6c" x="337.3125"/>
    <use xlink:href="#ArialMT-6f" x="359.529297"/>
    <use xlink:href="#ArialMT-74" x="415.144531"/>
    <use xlink:href="#ArialMT-20" x="442.927734"/>
    <use xlink:href="#ArialMT-6f" x="470.710938"/>
    <use xlink:href="#ArialMT-66" x="526.326172"/>
    <use xlink:href="#ArialMT-20" x="554.109375"/>
    <use xlink:href="#ArialMT-61" x="581.892578"/>
    <use xlink:href="#ArialMT-6c" x="637.507812"/>
    <use xlink:href="#ArialMT-6c" x="659.724609"/>
    <use xlink:href="#ArialMT-20" x="681.941406"/>
    <use xlink:href="#ArialMT-43" x="709.724609"/>
    <use xlink:href="#ArialMT-6f" x="781.941406"/>
    <use xlink:href="#ArialMT-6e" x="837.556641"/>
    <use xlink:href="#ArialMT-74" x="893.171875"/>
    <use xlink:href="#ArialMT-69" x="920.955078"/>
    <use xlink:href="#ArialMT-6e" x="943.171875"/>
    <use xlink:href="#ArialMT-75" x="998.787109"/>
    <use xlink:href="#ArialMT-6f" x="1054.402344"/>
    <use xlink:href="#ArialMT-75" x="1110.017578"/>
    <use xlink:href="#ArialMT-73" x="1165.632812"/>
    <use xlink:href="#ArialMT-20" x="1215.632812"/>
    <use xlink:href="#ArialMT-56" x="1243.416016"/>
    <use xlink:href="#ArialMT-61" x="1302.740234"/>
    <use xlink:href="#ArialMT-72" x="1358.355469"/>
    <use xlink:href="#ArialMT-69" x="1391.65625"/>
    <use xlink:href="#ArialMT-61" x="1413.873047"/>
    <use xlink:href="#ArialMT-62" x="1469.488281"/>
    <use xlink:href="#ArialMT-6c" x="1525.103516"/>
    <use xlink:href="#ArialMT-65" x="1547.320312"/>
    <use xlink:href="#ArialMT-73" x="1602.935547"/>
   </g>
  </g>
 </g>
 <defs>
  <clipPath id="p17e0deb758">
   <rect x="34.63" y="43.92" width="1030.25" height="211.77875"/>
  </clipPath>
 </defs>
</svg>
