<?xml version="1.0" encoding="utf-8" standalone="no"?>
<!DOCTYPE svg PUBLIC "-//W3C//DTD SVG 1.1//EN"
  "http://www.w3.org/Graphics/SVG/1.1/DTD/svg11.dtd">
<svg xmlns:xlink="http://www.w3.org/1999/xlink" width="1080pt" height="288pt" viewBox="0 0 1080 288" xmlns="http://www.w3.org/2000/svg" version="1.1">
 <metadata>
  <rdf:RDF xmlns:dc="http://purl.org/dc/elements/1.1/" xmlns:cc="http://creativecommons.org/ns#" xmlns:rdf="http://www.w3.org/1999/02/22-rdf-syntax-ns#">
   <cc:Work>
    <dc:type rdf:resource="http://purl.org/dc/dcmitype/StillImage"/>
    <dc:date>2023-04-29T14:52:14.308320</dc:date>
    <dc:format>image/svg+xml</dc:format>
    <dc:creator>
     <cc:Agent>
      <dc:title>Matplotlib v3.5.3, https://matplotlib.org/</dc:title>
     </cc:Agent>
    </dc:creator>
   </cc:Work>
  </rdf:RDF>
 </metadata>
 <defs>
  <style type="text/css">*{stroke-linejoin: round; stroke-linecap: butt}</style>
 </defs>
 <g id="figure_1">
  <g id="patch_1">
   <path d="M 0 288 
L 1080 288 
L 1080 0 
L 0 0 
z
" style="fill: #f0f0f0"/>
  </g>
  <g id="axes_1">
   <g id="patch_2">
    <path d="M 34.63 255.69875 
L 1064.88 255.69875 
L 1064.88 43.92 
L 34.63 43.92 
z
" style="fill: #f0f0f0"/>
   </g>
   <g id="matplotlib.axis_1">
    <g id="xtick_1">
     <g id="text_1">
      <!-- days_remaining -->
      <g style="fill: #262626" transform="translate(98.830156 270.572344)scale(0.11 -0.11)">
       <defs>
        <path id="ArialMT-64" d="M 2575 0 
L 2575 419 
Q 2259 -75 1647 -75 
Q 1250 -75 917 144 
Q 584 363 401 755 
Q 219 1147 219 1656 
Q 219 2153 384 2558 
Q 550 2963 881 3178 
Q 1213 3394 1622 3394 
Q 1922 3394 2156 3267 
Q 2391 3141 2538 2938 
L 2538 4581 
L 3097 4581 
L 3097 0 
L 2575 0 
z
M 797 1656 
Q 797 1019 1065 703 
Q 1334 388 1700 388 
Q 2069 388 2326 689 
Q 2584 991 2584 1609 
Q 2584 2291 2321 2609 
Q 2059 2928 1675 2928 
Q 1300 2928 1048 2622 
Q 797 2316 797 1656 
z
" transform="scale(0.015625)"/>
        <path id="ArialMT-61" d="M 2588 409 
Q 2275 144 1986 34 
Q 1697 -75 1366 -75 
Q 819 -75 525 192 
Q 231 459 231 875 
Q 231 1119 342 1320 
Q 453 1522 633 1644 
Q 813 1766 1038 1828 
Q 1203 1872 1538 1913 
Q 2219 1994 2541 2106 
Q 2544 2222 2544 2253 
Q 2544 2597 2384 2738 
Q 2169 2928 1744 2928 
Q 1347 2928 1158 2789 
Q 969 2650 878 2297 
L 328 2372 
Q 403 2725 575 2942 
Q 747 3159 1072 3276 
Q 1397 3394 1825 3394 
Q 2250 3394 2515 3294 
Q 2781 3194 2906 3042 
Q 3031 2891 3081 2659 
Q 3109 2516 3109 2141 
L 3109 1391 
Q 3109 606 3145 398 
Q 3181 191 3288 0 
L 2700 0 
Q 2613 175 2588 409 
z
M 2541 1666 
Q 2234 1541 1622 1453 
Q 1275 1403 1131 1340 
Q 988 1278 909 1158 
Q 831 1038 831 891 
Q 831 666 1001 516 
Q 1172 366 1500 366 
Q 1825 366 2078 508 
Q 2331 650 2450 897 
Q 2541 1088 2541 1459 
L 2541 1666 
z
" transform="scale(0.015625)"/>
        <path id="ArialMT-79" d="M 397 -1278 
L 334 -750 
Q 519 -800 656 -800 
Q 844 -800 956 -737 
Q 1069 -675 1141 -563 
Q 1194 -478 1313 -144 
Q 1328 -97 1363 -6 
L 103 3319 
L 709 3319 
L 1400 1397 
Q 1534 1031 1641 628 
Q 1738 1016 1872 1384 
L 2581 3319 
L 3144 3319 
L 1881 -56 
Q 1678 -603 1566 -809 
Q 1416 -1088 1222 -1217 
Q 1028 -1347 759 -1347 
Q 597 -1347 397 -1278 
z
" transform="scale(0.015625)"/>
        <path id="ArialMT-73" d="M 197 991 
L 753 1078 
Q 800 744 1014 566 
Q 1228 388 1613 388 
Q 2000 388 2187 545 
Q 2375 703 2375 916 
Q 2375 1106 2209 1216 
Q 2094 1291 1634 1406 
Q 1016 1563 777 1677 
Q 538 1791 414 1992 
Q 291 2194 291 2438 
Q 291 2659 392 2848 
Q 494 3038 669 3163 
Q 800 3259 1026 3326 
Q 1253 3394 1513 3394 
Q 1903 3394 2198 3281 
Q 2494 3169 2634 2976 
Q 2775 2784 2828 2463 
L 2278 2388 
Q 2241 2644 2061 2787 
Q 1881 2931 1553 2931 
Q 1166 2931 1000 2803 
Q 834 2675 834 2503 
Q 834 2394 903 2306 
Q 972 2216 1119 2156 
Q 1203 2125 1616 2013 
Q 2213 1853 2448 1751 
Q 2684 1650 2818 1456 
Q 2953 1263 2953 975 
Q 2953 694 2789 445 
Q 2625 197 2315 61 
Q 2006 -75 1616 -75 
Q 969 -75 630 194 
Q 291 463 197 991 
z
" transform="scale(0.015625)"/>
        <path id="ArialMT-5f" d="M -97 -1272 
L -97 -866 
L 3631 -866 
L 3631 -1272 
L -97 -1272 
z
" transform="scale(0.015625)"/>
        <path id="ArialMT-72" d="M 416 0 
L 416 3319 
L 922 3319 
L 922 2816 
Q 1116 3169 1280 3281 
Q 1444 3394 1641 3394 
Q 1925 3394 2219 3213 
L 2025 2691 
Q 1819 2813 1613 2813 
Q 1428 2813 1281 2702 
Q 1134 2591 1072 2394 
Q 978 2094 978 1738 
L 978 0 
L 416 0 
z
" transform="scale(0.015625)"/>
        <path id="ArialMT-65" d="M 2694 1069 
L 3275 997 
Q 3138 488 2766 206 
Q 2394 -75 1816 -75 
Q 1088 -75 661 373 
Q 234 822 234 1631 
Q 234 2469 665 2931 
Q 1097 3394 1784 3394 
Q 2450 3394 2872 2941 
Q 3294 2488 3294 1666 
Q 3294 1616 3291 1516 
L 816 1516 
Q 847 969 1125 678 
Q 1403 388 1819 388 
Q 2128 388 2347 550 
Q 2566 713 2694 1069 
z
M 847 1978 
L 2700 1978 
Q 2663 2397 2488 2606 
Q 2219 2931 1791 2931 
Q 1403 2931 1139 2672 
Q 875 2413 847 1978 
z
" transform="scale(0.015625)"/>
        <path id="ArialMT-6d" d="M 422 0 
L 422 3319 
L 925 3319 
L 925 2853 
Q 1081 3097 1340 3245 
Q 1600 3394 1931 3394 
Q 2300 3394 2536 3241 
Q 2772 3088 2869 2813 
Q 3263 3394 3894 3394 
Q 4388 3394 4653 3120 
Q 4919 2847 4919 2278 
L 4919 0 
L 4359 0 
L 4359 2091 
Q 4359 2428 4304 2576 
Q 4250 2725 4106 2815 
Q 3963 2906 3769 2906 
Q 3419 2906 3187 2673 
Q 2956 2441 2956 1928 
L 2956 0 
L 2394 0 
L 2394 2156 
Q 2394 2531 2256 2718 
Q 2119 2906 1806 2906 
Q 1569 2906 1367 2781 
Q 1166 2656 1075 2415 
Q 984 2175 984 1722 
L 984 0 
L 422 0 
z
" transform="scale(0.015625)"/>
        <path id="ArialMT-69" d="M 425 3934 
L 425 4581 
L 988 4581 
L 988 3934 
L 425 3934 
z
M 425 0 
L 425 3319 
L 988 3319 
L 988 0 
L 425 0 
z
" transform="scale(0.015625)"/>
        <path id="ArialMT-6e" d="M 422 0 
L 422 3319 
L 928 3319 
L 928 2847 
Q 1294 3394 1984 3394 
Q 2284 3394 2536 3286 
Q 2788 3178 2913 3003 
Q 3038 2828 3088 2588 
Q 3119 2431 3119 2041 
L 3119 0 
L 2556 0 
L 2556 2019 
Q 2556 2363 2490 2533 
Q 2425 2703 2258 2804 
Q 2091 2906 1866 2906 
Q 1506 2906 1245 2678 
Q 984 2450 984 1813 
L 984 0 
L 422 0 
z
" transform="scale(0.015625)"/>
        <path id="ArialMT-67" d="M 319 -275 
L 866 -356 
Q 900 -609 1056 -725 
Q 1266 -881 1628 -881 
Q 2019 -881 2231 -725 
Q 2444 -569 2519 -288 
Q 2563 -116 2559 434 
Q 2191 0 1641 0 
Q 956 0 581 494 
Q 206 988 206 1678 
Q 206 2153 378 2554 
Q 550 2956 876 3175 
Q 1203 3394 1644 3394 
Q 2231 3394 2613 2919 
L 2613 3319 
L 3131 3319 
L 3131 450 
Q 3131 -325 2973 -648 
Q 2816 -972 2473 -1159 
Q 2131 -1347 1631 -1347 
Q 1038 -1347 672 -1080 
Q 306 -813 319 -275 
z
M 784 1719 
Q 784 1066 1043 766 
Q 1303 466 1694 466 
Q 2081 466 2343 764 
Q 2606 1063 2606 1700 
Q 2606 2309 2336 2618 
Q 2066 2928 1684 2928 
Q 1309 2928 1046 2623 
Q 784 2319 784 1719 
z
" transform="scale(0.015625)"/>
       </defs>
       <use xlink:href="#ArialMT-64"/>
       <use xlink:href="#ArialMT-61" x="55.615234"/>
       <use xlink:href="#ArialMT-79" x="111.230469"/>
       <use xlink:href="#ArialMT-73" x="161.230469"/>
       <use xlink:href="#ArialMT-5f" x="211.230469"/>
       <use xlink:href="#ArialMT-72" x="266.845703"/>
       <use xlink:href="#ArialMT-65" x="300.146484"/>
       <use xlink:href="#ArialMT-6d" x="355.761719"/>
       <use xlink:href="#ArialMT-61" x="439.0625"/>
       <use xlink:href="#ArialMT-69" x="494.677734"/>
       <use xlink:href="#ArialMT-6e" x="516.894531"/>
       <use xlink:href="#ArialMT-69" x="572.509766"/>
       <use xlink:href="#ArialMT-6e" x="594.726562"/>
       <use xlink:href="#ArialMT-67" x="650.341797"/>
      </g>
     </g>
    </g>
    <g id="xtick_2">
     <g id="text_2">
      <!-- age -->
      <g style="fill: #262626" transform="translate(334.529453 270.443438)scale(0.11 -0.11)">
       <use xlink:href="#ArialMT-61"/>
       <use xlink:href="#ArialMT-67" x="55.615234"/>
       <use xlink:href="#ArialMT-65" x="111.230469"/>
      </g>
     </g>
    </g>
    <g id="xtick_3">
     <g id="text_3">
      <!-- cum_PK -->
      <g style="fill: #262626" transform="translate(528.969297 270.572344)scale(0.11 -0.11)">
       <defs>
        <path id="ArialMT-63" d="M 2588 1216 
L 3141 1144 
Q 3050 572 2676 248 
Q 2303 -75 1759 -75 
Q 1078 -75 664 370 
Q 250 816 250 1647 
Q 250 2184 428 2587 
Q 606 2991 970 3192 
Q 1334 3394 1763 3394 
Q 2303 3394 2647 3120 
Q 2991 2847 3088 2344 
L 2541 2259 
Q 2463 2594 2264 2762 
Q 2066 2931 1784 2931 
Q 1359 2931 1093 2626 
Q 828 2322 828 1663 
Q 828 994 1084 691 
Q 1341 388 1753 388 
Q 2084 388 2306 591 
Q 2528 794 2588 1216 
z
" transform="scale(0.015625)"/>
        <path id="ArialMT-75" d="M 2597 0 
L 2597 488 
Q 2209 -75 1544 -75 
Q 1250 -75 995 37 
Q 741 150 617 320 
Q 494 491 444 738 
Q 409 903 409 1263 
L 409 3319 
L 972 3319 
L 972 1478 
Q 972 1038 1006 884 
Q 1059 663 1231 536 
Q 1403 409 1656 409 
Q 1909 409 2131 539 
Q 2353 669 2445 892 
Q 2538 1116 2538 1541 
L 2538 3319 
L 3100 3319 
L 3100 0 
L 2597 0 
z
" transform="scale(0.015625)"/>
        <path id="ArialMT-50" d="M 494 0 
L 494 4581 
L 2222 4581 
Q 2678 4581 2919 4538 
Q 3256 4481 3484 4323 
Q 3713 4166 3852 3881 
Q 3991 3597 3991 3256 
Q 3991 2672 3619 2267 
Q 3247 1863 2275 1863 
L 1100 1863 
L 1100 0 
L 494 0 
z
M 1100 2403 
L 2284 2403 
Q 2872 2403 3119 2622 
Q 3366 2841 3366 3238 
Q 3366 3525 3220 3729 
Q 3075 3934 2838 4000 
Q 2684 4041 2272 4041 
L 1100 4041 
L 1100 2403 
z
" transform="scale(0.015625)"/>
        <path id="ArialMT-4b" d="M 469 0 
L 469 4581 
L 1075 4581 
L 1075 2309 
L 3350 4581 
L 4172 4581 
L 2250 2725 
L 4256 0 
L 3456 0 
L 1825 2319 
L 1075 1588 
L 1075 0 
L 469 0 
z
" transform="scale(0.015625)"/>
       </defs>
       <use xlink:href="#ArialMT-63"/>
       <use xlink:href="#ArialMT-75" x="50"/>
       <use xlink:href="#ArialMT-6d" x="105.615234"/>
       <use xlink:href="#ArialMT-5f" x="188.916016"/>
       <use xlink:href="#ArialMT-50" x="244.53125"/>
       <use xlink:href="#ArialMT-4b" x="311.230469"/>
      </g>
     </g>
    </g>
    <g id="xtick_4">
     <g id="text_4">
      <!-- cum_CrdR -->
      <g style="fill: #262626" transform="translate(729.522734 270.706406)scale(0.11 -0.11)">
       <defs>
        <path id="ArialMT-43" d="M 3763 1606 
L 4369 1453 
Q 4178 706 3683 314 
Q 3188 -78 2472 -78 
Q 1731 -78 1267 223 
Q 803 525 561 1097 
Q 319 1669 319 2325 
Q 319 3041 592 3573 
Q 866 4106 1370 4382 
Q 1875 4659 2481 4659 
Q 3169 4659 3637 4309 
Q 4106 3959 4291 3325 
L 3694 3184 
Q 3534 3684 3231 3912 
Q 2928 4141 2469 4141 
Q 1941 4141 1586 3887 
Q 1231 3634 1087 3207 
Q 944 2781 944 2328 
Q 944 1744 1114 1308 
Q 1284 872 1643 656 
Q 2003 441 2422 441 
Q 2931 441 3284 734 
Q 3638 1028 3763 1606 
z
" transform="scale(0.015625)"/>
        <path id="ArialMT-52" d="M 503 0 
L 503 4581 
L 2534 4581 
Q 3147 4581 3465 4457 
Q 3784 4334 3975 4021 
Q 4166 3709 4166 3331 
Q 4166 2844 3850 2509 
Q 3534 2175 2875 2084 
Q 3116 1969 3241 1856 
Q 3506 1613 3744 1247 
L 4541 0 
L 3778 0 
L 3172 953 
Q 2906 1366 2734 1584 
Q 2563 1803 2427 1890 
Q 2291 1978 2150 2013 
Q 2047 2034 1813 2034 
L 1109 2034 
L 1109 0 
L 503 0 
z
M 1109 2559 
L 2413 2559 
Q 2828 2559 3062 2645 
Q 3297 2731 3419 2920 
Q 3541 3109 3541 3331 
Q 3541 3656 3305 3865 
Q 3069 4075 2559 4075 
L 1109 4075 
L 1109 2559 
z
" transform="scale(0.015625)"/>
       </defs>
       <use xlink:href="#ArialMT-63"/>
       <use xlink:href="#ArialMT-75" x="50"/>
       <use xlink:href="#ArialMT-6d" x="105.615234"/>
       <use xlink:href="#ArialMT-5f" x="188.916016"/>
       <use xlink:href="#ArialMT-43" x="244.53125"/>
       <use xlink:href="#ArialMT-72" x="316.748047"/>
       <use xlink:href="#ArialMT-64" x="350.048828"/>
       <use xlink:href="#ArialMT-52" x="405.664062"/>
      </g>
     </g>
    </g>
    <g id="xtick_5">
     <g id="text_5">
      <!-- fee_cleaned -->
      <g style="fill: #262626" transform="translate(931.886875 270.706406)scale(0.11 -0.11)">
       <defs>
        <path id="ArialMT-66" d="M 556 0 
L 556 2881 
L 59 2881 
L 59 3319 
L 556 3319 
L 556 3672 
Q 556 4006 616 4169 
Q 697 4388 901 4523 
Q 1106 4659 1475 4659 
Q 1713 4659 2000 4603 
L 1916 4113 
Q 1741 4144 1584 4144 
Q 1328 4144 1222 4034 
Q 1116 3925 1116 3625 
L 1116 3319 
L 1763 3319 
L 1763 2881 
L 1116 2881 
L 1116 0 
L 556 0 
z
" transform="scale(0.015625)"/>
        <path id="ArialMT-6c" d="M 409 0 
L 409 4581 
L 972 4581 
L 972 0 
L 409 0 
z
" transform="scale(0.015625)"/>
       </defs>
       <use xlink:href="#ArialMT-66"/>
       <use xlink:href="#ArialMT-65" x="27.783203"/>
       <use xlink:href="#ArialMT-65" x="83.398438"/>
       <use xlink:href="#ArialMT-5f" x="139.013672"/>
       <use xlink:href="#ArialMT-63" x="194.628906"/>
       <use xlink:href="#ArialMT-6c" x="244.628906"/>
       <use xlink:href="#ArialMT-65" x="266.845703"/>
       <use xlink:href="#ArialMT-61" x="322.460938"/>
       <use xlink:href="#ArialMT-6e" x="378.076172"/>
       <use xlink:href="#ArialMT-65" x="433.691406"/>
       <use xlink:href="#ArialMT-64" x="489.306641"/>
      </g>
     </g>
    </g>
   </g>
   <g id="matplotlib.axis_2">
    <g id="ytick_1">
     <g id="line2d_1">
      <path d="M 34.63 220.587786 
L 1064.88 220.587786 
" clip-path="url(#pff52a8c10c)" style="fill: none; stroke: #cbcbcb"/>
     </g>
     <g id="text_6">
      <!-- −2 -->
      <g style="fill: #262626" transform="translate(15.088281 224.524583)scale(0.11 -0.11)">
       <defs>
        <path id="ArialMT-2212" d="M 3381 1997 
L 356 1997 
L 356 2522 
L 3381 2522 
L 3381 1997 
z
" transform="scale(0.015625)"/>
        <path id="ArialMT-32" d="M 3222 541 
L 3222 0 
L 194 0 
Q 188 203 259 391 
Q 375 700 629 1000 
Q 884 1300 1366 1694 
Q 2113 2306 2375 2664 
Q 2638 3022 2638 3341 
Q 2638 3675 2398 3904 
Q 2159 4134 1775 4134 
Q 1369 4134 1125 3890 
Q 881 3647 878 3216 
L 300 3275 
Q 359 3922 746 4261 
Q 1134 4600 1788 4600 
Q 2447 4600 2831 4234 
Q 3216 3869 3216 3328 
Q 3216 3053 3103 2787 
Q 2991 2522 2730 2228 
Q 2469 1934 1863 1422 
Q 1356 997 1212 845 
Q 1069 694 975 541 
L 3222 541 
z
" transform="scale(0.015625)"/>
       </defs>
       <use xlink:href="#ArialMT-2212"/>
       <use xlink:href="#ArialMT-32" x="58.398438"/>
      </g>
     </g>
    </g>
    <g id="ytick_2">
     <g id="line2d_2">
      <path d="M 34.63 175.364495 
L 1064.88 175.364495 
" clip-path="url(#pff52a8c10c)" style="fill: none; stroke: #cbcbcb"/>
     </g>
     <g id="text_7">
      <!-- 0 -->
      <g style="fill: #262626" transform="translate(21.512969 179.301291)scale(0.11 -0.11)">
       <defs>
        <path id="ArialMT-30" d="M 266 2259 
Q 266 3072 433 3567 
Q 600 4063 929 4331 
Q 1259 4600 1759 4600 
Q 2128 4600 2406 4451 
Q 2684 4303 2865 4023 
Q 3047 3744 3150 3342 
Q 3253 2941 3253 2259 
Q 3253 1453 3087 958 
Q 2922 463 2592 192 
Q 2263 -78 1759 -78 
Q 1097 -78 719 397 
Q 266 969 266 2259 
z
M 844 2259 
Q 844 1131 1108 757 
Q 1372 384 1759 384 
Q 2147 384 2411 759 
Q 2675 1134 2675 2259 
Q 2675 3391 2411 3762 
Q 2147 4134 1753 4134 
Q 1366 4134 1134 3806 
Q 844 3388 844 2259 
z
" transform="scale(0.015625)"/>
       </defs>
       <use xlink:href="#ArialMT-30"/>
      </g>
     </g>
    </g>
    <g id="ytick_3">
     <g id="line2d_3">
      <path d="M 34.63 130.141203 
L 1064.88 130.141203 
" clip-path="url(#pff52a8c10c)" style="fill: none; stroke: #cbcbcb"/>
     </g>
     <g id="text_8">
      <!-- 2 -->
      <g style="fill: #262626" transform="translate(21.512969 134.078)scale(0.11 -0.11)">
       <use xlink:href="#ArialMT-32"/>
      </g>
     </g>
    </g>
    <g id="ytick_4">
     <g id="line2d_4">
      <path d="M 34.63 84.917912 
L 1064.88 84.917912 
" clip-path="url(#pff52a8c10c)" style="fill: none; stroke: #cbcbcb"/>
     </g>
     <g id="text_9">
      <!-- 4 -->
      <g style="fill: #262626" transform="translate(21.512969 88.854709)scale(0.11 -0.11)">
       <defs>
        <path id="ArialMT-34" d="M 2069 0 
L 2069 1097 
L 81 1097 
L 81 1613 
L 2172 4581 
L 2631 4581 
L 2631 1613 
L 3250 1613 
L 3250 1097 
L 2631 1097 
L 2631 0 
L 2069 0 
z
M 2069 1613 
L 2069 3678 
L 634 1613 
L 2069 1613 
z
" transform="scale(0.015625)"/>
       </defs>
       <use xlink:href="#ArialMT-34"/>
      </g>
     </g>
    </g>
   </g>
   <g id="PolyCollection_1">
    <defs>
     <path id="m6d87ba3e80" d="M 138.633496 -41.927557 
L 136.676504 -41.927557 
L 136.360825 -43.34242 
L 135.971057 -44.757284 
L 135.498795 -46.172148 
L 134.937104 -47.587011 
L 134.281085 -49.001875 
L 133.528295 -50.416739 
L 132.678957 -51.831602 
L 131.735882 -53.246466 
L 130.704083 -54.661329 
L 129.590104 -56.076193 
L 128.401129 -57.491057 
L 127.144004 -58.90592 
L 125.824325 -60.320784 
L 124.445772 -61.735648 
L 123.009827 -63.150511 
L 121.515967 -64.565375 
L 119.962364 -65.980238 
L 118.346982 -67.395102 
L 116.668901 -68.809966 
L 114.929625 -70.224829 
L 113.134089 -71.639693 
L 111.291129 -73.054557 
L 109.413237 -74.46942 
L 107.515589 -75.884284 
L 105.614445 -77.299147 
L 103.725214 -78.714011 
L 101.860544 -80.128875 
L 100.028855 -81.543738 
L 98.233694 -82.958602 
L 96.474118 -84.373465 
L 94.746147 -85.788329 
L 93.04506 -87.203193 
L 91.368104 -88.618056 
L 89.717018 -90.03292 
L 88.099733 -91.447784 
L 86.53072 -92.862647 
L 85.029638 -94.277511 
L 83.618293 -95.692374 
L 82.316259 -97.107238 
L 81.135851 -98.522102 
L 80.077364 -99.936965 
L 79.125566 -101.351829 
L 78.248325 -102.766693 
L 77.39794 -104.181556 
L 76.515318 -105.59642 
L 75.536654 -107.011283 
L 74.40181 -108.426147 
L 73.063238 -109.841011 
L 71.494154 -111.255874 
L 69.694713 -112.670738 
L 67.695237 -114.085602 
L 65.555961 -115.500465 
L 63.363288 -116.915329 
L 61.223076 -118.330192 
L 59.251845 -119.745056 
L 57.567098 -121.15992 
L 56.277939 -122.574783 
L 55.477081 -123.989647 
L 55.235 -125.404511 
L 55.596642 -126.819374 
L 56.580657 -128.234238 
L 58.180831 -129.649101 
L 60.369113 -131.063965 
L 63.099566 -132.478829 
L 66.312578 -133.893692 
L 69.938821 -135.308556 
L 73.902637 -136.723419 
L 78.124744 -138.138283 
L 82.524338 -139.553147 
L 87.020814 -140.96801 
L 91.535313 -142.382874 
L 95.992352 -143.797738 
L 100.321617 -145.212601 
L 104.459948 -146.627465 
L 108.353377 -148.042328 
L 111.959017 -149.457192 
L 115.246532 -150.872056 
L 118.198961 -152.286919 
L 120.812712 -153.701783 
L 123.096661 -155.116647 
L 125.070408 -156.53151 
L 126.76186 -157.946374 
L 128.204397 -159.361237 
L 129.433921 -160.776101 
L 130.486095 -162.190965 
L 131.394014 -163.605828 
L 132.186516 -165.020692 
L 132.887178 -166.435556 
L 133.514022 -167.850419 
L 134.079809 -169.265283 
L 134.592793 -170.680146 
L 135.05774 -172.09501 
L 135.47704 -173.509874 
L 135.851768 -174.924737 
L 136.182565 -176.339601 
L 136.470298 -177.754465 
L 136.716456 -179.169328 
L 136.923319 -180.584192 
L 137.093934 -181.999055 
L 138.216066 -181.999055 
L 138.216066 -181.999055 
L 138.386681 -180.584192 
L 138.593544 -179.169328 
L 138.839702 -177.754465 
L 139.127435 -176.339601 
L 139.458232 -174.924737 
L 139.83296 -173.509874 
L 140.25226 -172.09501 
L 140.717207 -170.680146 
L 141.230191 -169.265283 
L 141.795978 -167.850419 
L 142.422822 -166.435556 
L 143.123484 -165.020692 
L 143.915986 -163.605828 
L 144.823905 -162.190965 
L 145.876079 -160.776101 
L 147.105603 -159.361237 
L 148.54814 -157.946374 
L 150.239592 -156.53151 
L 152.213339 -155.116647 
L 154.497288 -153.701783 
L 157.111039 -152.286919 
L 160.063468 -150.872056 
L 163.350983 -149.457192 
L 166.956623 -148.042328 
L 170.850052 -146.627465 
L 174.988383 -145.212601 
L 179.317648 -143.797738 
L 183.774687 -142.382874 
L 188.289186 -140.96801 
L 192.785662 -139.553147 
L 197.185256 -138.138283 
L 201.407363 -136.723419 
L 205.371179 -135.308556 
L 208.997422 -133.893692 
L 212.210434 -132.478829 
L 214.940887 -131.063965 
L 217.129169 -129.649101 
L 218.729343 -128.234238 
L 219.713358 -126.819374 
L 220.075 -125.404511 
L 219.832919 -123.989647 
L 219.032061 -122.574783 
L 217.742902 -121.15992 
L 216.058155 -119.745056 
L 214.086924 -118.330192 
L 211.946712 -116.915329 
L 209.754039 -115.500465 
L 207.614763 -114.085602 
L 205.615287 -112.670738 
L 203.815846 -111.255874 
L 202.246762 -109.841011 
L 200.90819 -108.426147 
L 199.773346 -107.011283 
L 198.794682 -105.59642 
L 197.91206 -104.181556 
L 197.061675 -102.766693 
L 196.184434 -101.351829 
L 195.232636 -99.936965 
L 194.174149 -98.522102 
L 192.993741 -97.107238 
L 191.691707 -95.692374 
L 190.280362 -94.277511 
L 188.77928 -92.862647 
L 187.210267 -91.447784 
L 185.592982 -90.03292 
L 183.941896 -88.618056 
L 182.26494 -87.203193 
L 180.563853 -85.788329 
L 178.835882 -84.373465 
L 177.076306 -82.958602 
L 175.281145 -81.543738 
L 173.449456 -80.128875 
L 171.584786 -78.714011 
L 169.695555 -77.299147 
L 167.794411 -75.884284 
L 165.896763 -74.46942 
L 164.018871 -73.054557 
L 162.175911 -71.639693 
L 160.380375 -70.224829 
L 158.641099 -68.809966 
L 156.963018 -67.395102 
L 155.347636 -65.980238 
L 153.794033 -64.565375 
L 152.300173 -63.150511 
L 150.864228 -61.735648 
L 149.485675 -60.320784 
L 148.165996 -58.90592 
L 146.908871 -57.491057 
L 145.719896 -56.076193 
L 144.605917 -54.661329 
L 143.574118 -53.246466 
L 142.631043 -51.831602 
L 141.781705 -50.416739 
L 141.028915 -49.001875 
L 140.372896 -47.587011 
L 139.811205 -46.172148 
L 139.338943 -44.757284 
L 138.949175 -43.34242 
L 138.633496 -41.927557 
z
" style="stroke: #484848; stroke-width: 3"/>
    </defs>
    <g clip-path="url(#pff52a8c10c)">
     <use xlink:href="#m6d87ba3e80" x="0" y="288" style="fill: #cb3335; stroke: #484848; stroke-width: 3"/>
    </g>
   </g>
   <g id="PolyCollection_2">
    <defs>
     <path id="m4849da9ac3" d="M 344.371838 -43.247865 
L 343.038162 -43.247865 
L 342.805093 -44.750007 
L 342.511409 -46.252149 
L 342.148407 -47.754291 
L 341.70808 -49.256433 
L 341.183589 -50.758575 
L 340.56968 -52.260717 
L 339.862954 -53.762859 
L 339.061956 -55.265002 
L 338.167052 -56.767144 
L 337.180084 -58.269286 
L 336.103838 -59.771428 
L 334.941382 -61.27357 
L 333.695347 -62.775712 
L 332.367231 -64.277854 
L 330.956792 -65.779996 
L 329.46157 -67.282138 
L 327.876555 -68.78428 
L 326.193994 -70.286423 
L 324.403307 -71.788565 
L 322.491127 -73.290707 
L 320.441467 -74.792849 
L 318.236102 -76.294991 
L 315.85528 -77.797133 
L 313.278916 -79.299275 
L 310.488395 -80.801417 
L 307.469073 -82.303559 
L 304.213426 -83.805702 
L 300.724625 -85.307844 
L 297.020151 -86.809986 
L 293.134871 -88.312128 
L 289.122922 -89.81427 
L 285.057765 -91.316412 
L 281.029916 -92.818554 
L 277.142192 -94.320696 
L 273.502664 -95.822838 
L 270.215987 -97.32498 
L 267.374133 -98.827123 
L 265.047796 -100.329265 
L 263.279755 -101.831407 
L 262.081289 -103.333549 
L 261.432267 -104.835691 
L 261.285 -106.337833 
L 261.57128 -107.839975 
L 262.211563 -109.342117 
L 263.124872 -110.844259 
L 264.237968 -112.346401 
L 265.492488 -113.848544 
L 266.84921 -115.350686 
L 268.289091 -116.852828 
L 269.811312 -118.35497 
L 271.42898 -119.857112 
L 273.163453 -121.359254 
L 275.038321 -122.861396 
L 277.073962 -124.363538 
L 279.28338 -125.86568 
L 281.669686 -127.367823 
L 284.225277 -128.869965 
L 286.932517 -130.372107 
L 289.765532 -131.874249 
L 292.692651 -133.376391 
L 295.679041 -134.878533 
L 298.689152 -136.380675 
L 301.688684 -137.882817 
L 304.645954 -139.384959 
L 307.532616 -140.887101 
L 310.323833 -142.389244 
L 312.998061 -143.891386 
L 315.536648 -145.393528 
L 317.923455 -146.89567 
L 320.144688 -148.397812 
L 322.18903 -149.899954 
L 324.048126 -151.402096 
L 325.717328 -152.904238 
L 327.196558 -154.40638 
L 328.491094 -155.908522 
L 329.612042 -157.410665 
L 330.576338 -158.912807 
L 331.406138 -160.414949 
L 332.127608 -161.917091 
L 332.769178 -163.419233 
L 333.359472 -164.921375 
L 333.925136 -166.423517 
L 334.488841 -167.925659 
L 335.067708 -169.427801 
L 335.672326 -170.929944 
L 336.306477 -172.432086 
L 336.967538 -173.934228 
L 337.647502 -175.43637 
L 338.334419 -176.938512 
L 339.014081 -178.440654 
L 339.671715 -179.942796 
L 340.293515 -181.444938 
L 340.867849 -182.94708 
L 341.386071 -184.449222 
L 341.842901 -185.951365 
L 342.23642 -187.453507 
L 342.567735 -188.955649 
L 342.840429 -190.457791 
L 343.059892 -191.959933 
L 344.350108 -191.959933 
L 344.350108 -191.959933 
L 344.569571 -190.457791 
L 344.842265 -188.955649 
L 345.17358 -187.453507 
L 345.567099 -185.951365 
L 346.023929 -184.449222 
L 346.542151 -182.94708 
L 347.116485 -181.444938 
L 347.738285 -179.942796 
L 348.395919 -178.440654 
L 349.075581 -176.938512 
L 349.762498 -175.43637 
L 350.442462 -173.934228 
L 351.103523 -172.432086 
L 351.737674 -170.929944 
L 352.342292 -169.427801 
L 352.921159 -167.925659 
L 353.484864 -166.423517 
L 354.050528 -164.921375 
L 354.640822 -163.419233 
L 355.282392 -161.917091 
L 356.003862 -160.414949 
L 356.833662 -158.912807 
L 357.797958 -157.410665 
L 358.918906 -155.908522 
L 360.213442 -154.40638 
L 361.692672 -152.904238 
L 363.361874 -151.402096 
L 365.22097 -149.899954 
L 367.265312 -148.397812 
L 369.486545 -146.89567 
L 371.873352 -145.393528 
L 374.411939 -143.891386 
L 377.086167 -142.389244 
L 379.877384 -140.887101 
L 382.764046 -139.384959 
L 385.721316 -137.882817 
L 388.720848 -136.380675 
L 391.730959 -134.878533 
L 394.717349 -133.376391 
L 397.644468 -131.874249 
L 400.477483 -130.372107 
L 403.184723 -128.869965 
L 405.740314 -127.367823 
L 408.12662 -125.86568 
L 410.336038 -124.363538 
L 412.371679 -122.861396 
L 414.246547 -121.359254 
L 415.98102 -119.857112 
L 417.598688 -118.35497 
L 419.120909 -116.852828 
L 420.56079 -115.350686 
L 421.917512 -113.848544 
L 423.172032 -112.346401 
L 424.285128 -110.844259 
L 425.198437 -109.342117 
L 425.83872 -107.839975 
L 426.125 -106.337833 
L 425.977733 -104.835691 
L 425.328711 -103.333549 
L 424.130245 -101.831407 
L 422.362204 -100.329265 
L 420.035867 -98.827123 
L 417.194013 -97.32498 
L 413.907336 -95.822838 
L 410.267808 -94.320696 
L 406.380084 -92.818554 
L 402.352235 -91.316412 
L 398.287078 -89.81427 
L 394.275129 -88.312128 
L 390.389849 -86.809986 
L 386.685375 -85.307844 
L 383.196574 -83.805702 
L 379.940927 -82.303559 
L 376.921605 -80.801417 
L 374.131084 -79.299275 
L 371.55472 -77.797133 
L 369.173898 -76.294991 
L 366.968533 -74.792849 
L 364.918873 -73.290707 
L 363.006693 -71.788565 
L 361.216006 -70.286423 
L 359.533445 -68.78428 
L 357.94843 -67.282138 
L 356.453208 -65.779996 
L 355.042769 -64.277854 
L 353.714653 -62.775712 
L 352.468618 -61.27357 
L 351.306162 -59.771428 
L 350.229916 -58.269286 
L 349.242948 -56.767144 
L 348.348044 -55.265002 
L 347.547046 -53.762859 
L 346.84032 -52.260717 
L 346.226411 -50.758575 
L 345.70192 -49.256433 
L 345.261593 -47.754291 
L 344.898591 -46.252149 
L 344.604907 -44.750007 
L 344.371838 -43.247865 
z
" style="stroke: #484848; stroke-width: 3"/>
    </defs>
    <g clip-path="url(#pff52a8c10c)">
     <use xlink:href="#m4849da9ac3" x="0" y="288" style="fill: #477ca8; stroke: #484848; stroke-width: 3"/>
    </g>
   </g>
   <g id="PolyCollection_3">
    <defs>
     <path id="m19f5b4fa0a" d="M 560.694524 -84.060241 
L 538.815476 -84.060241 
L 535.295552 -85.579367 
L 531.036694 -87.098493 
L 526.022289 -88.617618 
L 520.28369 -90.136744 
L 513.909938 -91.65587 
L 507.053319 -93.174996 
L 499.928979 -94.694121 
L 492.807409 -96.213247 
L 485.999448 -97.732373 
L 479.834569 -99.251499 
L 474.634347 -100.770625 
L 470.683978 -102.28975 
L 468.205321 -103.808876 
L 467.335 -105.328002 
L 468.110569 -106.847128 
L 470.466726 -108.366253 
L 474.242131 -109.885379 
L 479.195909 -111.404505 
L 485.031546 -112.923631 
L 491.424989 -114.442757 
L 498.053318 -115.961882 
L 504.620586 -117.481008 
L 510.878109 -119.000134 
L 516.637497 -120.51926 
L 521.775913 -122.038385 
L 526.234108 -123.557511 
L 530.008632 -125.076637 
L 533.140117 -126.595763 
L 535.699685 -128.114889 
L 537.775368 -129.634014 
L 539.460039 -131.15314 
L 540.841843 -132.672266 
L 541.997597 -134.191392 
L 542.989148 -135.710517 
L 543.862349 -137.229643 
L 544.64805 -138.748769 
L 545.364445 -140.267895 
L 546.0201 -141.787021 
L 546.617109 -143.306146 
L 547.153933 -144.825272 
L 547.627684 -146.344398 
L 548.035705 -147.863524 
L 548.376481 -149.382649 
L 548.649975 -150.901775 
L 548.857544 -152.420901 
L 549.001599 -153.940027 
L 549.085191 -155.459153 
L 549.111633 -156.978278 
L 549.084259 -158.497404 
L 549.00636 -160.01653 
L 548.881297 -161.535656 
L 548.712756 -163.054782 
L 548.505081 -164.573907 
L 548.263628 -166.093033 
L 547.99504 -167.612159 
L 547.707401 -169.131285 
L 547.410213 -170.65041 
L 547.114166 -172.169536 
L 546.830721 -173.688662 
L 546.571513 -175.207788 
L 546.347648 -176.726914 
L 546.168941 -178.246039 
L 546.043181 -179.765165 
L 545.975495 -181.284291 
L 545.967875 -182.803417 
L 546.018923 -184.322542 
L 546.123842 -185.841668 
L 546.274698 -187.360794 
L 546.460926 -188.87992 
L 546.670056 -190.399046 
L 546.888613 -191.918171 
L 547.103108 -193.437297 
L 547.301058 -194.956423 
L 547.471929 -196.475549 
L 547.60795 -197.994674 
L 547.704682 -199.5138 
L 547.761326 -201.032926 
L 547.780706 -202.552052 
L 547.768928 -204.071178 
L 547.734751 -205.590303 
L 547.688708 -207.109429 
L 547.64208 -208.628555 
L 547.60582 -210.147681 
L 547.589537 -211.666806 
L 547.600651 -213.185932 
L 547.643819 -214.705058 
L 547.720654 -216.224184 
L 547.829791 -217.74331 
L 547.967242 -219.262435 
L 548.126995 -220.781561 
L 548.30176 -222.300687 
L 548.483757 -223.819813 
L 548.665459 -225.338939 
L 548.840206 -226.858064 
L 549.002639 -228.37719 
L 549.148926 -229.896316 
L 549.276809 -231.415442 
L 549.385478 -232.934567 
L 549.475338 -234.453693 
L 550.034662 -234.453693 
L 550.034662 -234.453693 
L 550.124522 -232.934567 
L 550.233191 -231.415442 
L 550.361074 -229.896316 
L 550.507361 -228.37719 
L 550.669794 -226.858064 
L 550.844541 -225.338939 
L 551.026243 -223.819813 
L 551.20824 -222.300687 
L 551.383005 -220.781561 
L 551.542758 -219.262435 
L 551.680209 -217.74331 
L 551.789346 -216.224184 
L 551.866181 -214.705058 
L 551.909349 -213.185932 
L 551.920463 -211.666806 
L 551.90418 -210.147681 
L 551.86792 -208.628555 
L 551.821292 -207.109429 
L 551.775249 -205.590303 
L 551.741072 -204.071178 
L 551.729294 -202.552052 
L 551.748674 -201.032926 
L 551.805318 -199.5138 
L 551.90205 -197.994674 
L 552.038071 -196.475549 
L 552.208942 -194.956423 
L 552.406892 -193.437297 
L 552.621387 -191.918171 
L 552.839944 -190.399046 
L 553.049074 -188.87992 
L 553.235302 -187.360794 
L 553.386158 -185.841668 
L 553.491077 -184.322542 
L 553.542125 -182.803417 
L 553.534505 -181.284291 
L 553.466819 -179.765165 
L 553.341059 -178.246039 
L 553.162352 -176.726914 
L 552.938487 -175.207788 
L 552.679279 -173.688662 
L 552.395834 -172.169536 
L 552.099787 -170.65041 
L 551.802599 -169.131285 
L 551.51496 -167.612159 
L 551.246372 -166.093033 
L 551.004919 -164.573907 
L 550.797244 -163.054782 
L 550.628703 -161.535656 
L 550.50364 -160.01653 
L 550.425741 -158.497404 
L 550.398367 -156.978278 
L 550.424809 -155.459153 
L 550.508401 -153.940027 
L 550.652456 -152.420901 
L 550.860025 -150.901775 
L 551.133519 -149.382649 
L 551.474295 -147.863524 
L 551.882316 -146.344398 
L 552.356067 -144.825272 
L 552.892891 -143.306146 
L 553.4899 -141.787021 
L 554.145555 -140.267895 
L 554.86195 -138.748769 
L 555.647651 -137.229643 
L 556.520852 -135.710517 
L 557.512403 -134.191392 
L 558.668157 -132.672266 
L 560.049961 -131.15314 
L 561.734632 -129.634014 
L 563.810315 -128.114889 
L 566.369883 -126.595763 
L 569.501368 -125.076637 
L 573.275892 -123.557511 
L 577.734087 -122.038385 
L 582.872503 -120.51926 
L 588.631891 -119.000134 
L 594.889414 -117.481008 
L 601.456682 -115.961882 
L 608.085011 -114.442757 
L 614.478454 -112.923631 
L 620.314091 -111.404505 
L 625.267869 -109.885379 
L 629.043274 -108.366253 
L 631.399431 -106.847128 
L 632.175 -105.328002 
L 631.304679 -103.808876 
L 628.826022 -102.28975 
L 624.875653 -100.770625 
L 619.675431 -99.251499 
L 613.510552 -97.732373 
L 606.702591 -96.213247 
L 599.581021 -94.694121 
L 592.456681 -93.174996 
L 585.600062 -91.65587 
L 579.22631 -90.136744 
L 573.487711 -88.617618 
L 568.473306 -87.098493 
L 564.214448 -85.579367 
L 560.694524 -84.060241 
z
" style="stroke: #484848; stroke-width: 3"/>
    </defs>
    <g clip-path="url(#pff52a8c10c)">
     <use xlink:href="#m19f5b4fa0a" x="0" y="288" style="fill: #59a257; stroke: #484848; stroke-width: 3"/>
    </g>
   </g>
   <g id="PolyCollection_4">
    <defs>
     <path id="m7d422a0dd3" d="M 766.619244 -80.927149 
L 744.990756 -80.927149 
L 742.309578 -82.123347 
L 739.179295 -83.319544 
L 735.585023 -84.515742 
L 731.528132 -85.71194 
L 727.02961 -86.908137 
L 722.132727 -88.104335 
L 716.904644 -89.300532 
L 711.436658 -90.49673 
L 705.842799 -91.692927 
L 700.25669 -92.889125 
L 694.826653 -94.085322 
L 689.70927 -95.28152 
L 685.061742 -96.477717 
L 681.033561 -97.673915 
L 677.758101 -98.870112 
L 675.344795 -100.06631 
L 673.872556 -101.262508 
L 673.385 -102.458705 
L 673.887905 -103.654903 
L 675.349114 -104.8511 
L 677.700898 -106.047298 
L 680.844554 -107.243495 
L 684.656823 -108.439693 
L 688.997554 -109.63589 
L 693.717964 -110.832088 
L 698.668812 -112.028285 
L 703.70787 -113.224483 
L 708.706187 -114.42068 
L 713.552779 -115.616878 
L 718.157577 -116.813076 
L 722.452627 -118.009273 
L 726.391697 -119.205471 
L 729.948575 -120.401668 
L 733.114407 -121.597866 
L 735.894469 -122.794063 
L 738.30474 -123.990261 
L 740.368614 -125.186458 
L 742.11398 -126.382656 
L 743.570854 -127.578853 
L 744.769613 -128.775051 
L 745.739842 -129.971248 
L 746.509705 -131.167446 
L 747.105737 -132.363644 
L 747.552913 -133.559841 
L 747.874853 -134.756039 
L 748.094049 -135.952236 
L 748.232012 -137.148434 
L 748.309276 -138.344631 
L 748.345243 -139.540829 
L 748.357868 -140.737026 
L 748.363226 -141.933224 
L 748.375012 -143.129421 
L 748.404049 -144.325619 
L 748.457856 -145.521817 
L 748.540356 -146.718014 
L 748.651754 -147.914212 
L 748.788634 -149.110409 
L 748.944272 -150.306607 
L 749.10917 -151.502804 
L 749.271776 -152.699002 
L 749.419356 -153.895199 
L 749.53896 -155.091397 
L 749.618421 -156.287594 
L 749.647323 -157.483792 
L 749.617873 -158.679989 
L 749.525617 -159.876187 
L 749.369943 -161.072385 
L 749.15435 -162.268582 
L 748.886434 -163.46478 
L 748.577608 -164.660977 
L 748.242559 -165.857175 
L 747.898465 -167.053372 
L 747.564045 -168.24957 
L 747.258479 -169.445767 
L 747.000291 -170.641965 
L 746.806264 -171.838162 
L 746.690462 -173.03436 
L 746.663443 -174.230557 
L 746.731694 -175.426755 
L 746.897349 -176.622953 
L 747.158181 -177.81915 
L 747.507875 -179.015348 
L 747.936544 -180.211545 
L 748.431436 -181.407743 
L 748.97778 -182.60394 
L 749.559685 -183.800138 
L 750.161038 -184.996335 
L 750.766337 -186.192533 
L 751.361391 -187.38873 
L 751.933874 -188.584928 
L 752.473697 -189.781125 
L 752.973197 -190.977323 
L 753.427164 -192.173521 
L 753.832714 -193.369718 
L 754.189055 -194.565916 
L 754.497168 -195.762113 
L 754.759446 -196.958311 
L 754.979322 -198.154508 
L 755.160913 -199.350706 
L 756.449087 -199.350706 
L 756.449087 -199.350706 
L 756.630678 -198.154508 
L 756.850554 -196.958311 
L 757.112832 -195.762113 
L 757.420945 -194.565916 
L 757.777286 -193.369718 
L 758.182836 -192.173521 
L 758.636803 -190.977323 
L 759.136303 -189.781125 
L 759.676126 -188.584928 
L 760.248609 -187.38873 
L 760.843663 -186.192533 
L 761.448962 -184.996335 
L 762.050315 -183.800138 
L 762.63222 -182.60394 
L 763.178564 -181.407743 
L 763.673456 -180.211545 
L 764.102125 -179.015348 
L 764.451819 -177.81915 
L 764.712651 -176.622953 
L 764.878306 -175.426755 
L 764.946557 -174.230557 
L 764.919538 -173.03436 
L 764.803736 -171.838162 
L 764.609709 -170.641965 
L 764.351521 -169.445767 
L 764.045955 -168.24957 
L 763.711535 -167.053372 
L 763.367441 -165.857175 
L 763.032392 -164.660977 
L 762.723566 -163.46478 
L 762.45565 -162.268582 
L 762.240057 -161.072385 
L 762.084383 -159.876187 
L 761.992127 -158.679989 
L 761.962677 -157.483792 
L 761.991579 -156.287594 
L 762.07104 -155.091397 
L 762.190644 -153.895199 
L 762.338224 -152.699002 
L 762.50083 -151.502804 
L 762.665728 -150.306607 
L 762.821366 -149.110409 
L 762.958246 -147.914212 
L 763.069644 -146.718014 
L 763.152144 -145.521817 
L 763.205951 -144.325619 
L 763.234988 -143.129421 
L 763.246774 -141.933224 
L 763.252132 -140.737026 
L 763.264757 -139.540829 
L 763.300724 -138.344631 
L 763.377988 -137.148434 
L 763.515951 -135.952236 
L 763.735147 -134.756039 
L 764.057087 -133.559841 
L 764.504263 -132.363644 
L 765.100295 -131.167446 
L 765.870158 -129.971248 
L 766.840387 -128.775051 
L 768.039146 -127.578853 
L 769.49602 -126.382656 
L 771.241386 -125.186458 
L 773.30526 -123.990261 
L 775.715531 -122.794063 
L 778.495593 -121.597866 
L 781.661425 -120.401668 
L 785.218303 -119.205471 
L 789.157373 -118.009273 
L 793.452423 -116.813076 
L 798.057221 -115.616878 
L 802.903813 -114.42068 
L 807.90213 -113.224483 
L 812.941188 -112.028285 
L 817.892036 -110.832088 
L 822.612446 -109.63589 
L 826.953177 -108.439693 
L 830.765446 -107.243495 
L 833.909102 -106.047298 
L 836.260886 -104.8511 
L 837.722095 -103.654903 
L 838.225 -102.458705 
L 837.737444 -101.262508 
L 836.265205 -100.06631 
L 833.851899 -98.870112 
L 830.576439 -97.673915 
L 826.548258 -96.477717 
L 821.90073 -95.28152 
L 816.783347 -94.085322 
L 811.35331 -92.889125 
L 805.767201 -91.692927 
L 800.173342 -90.49673 
L 794.705356 -89.300532 
L 789.477273 -88.104335 
L 784.58039 -86.908137 
L 780.081868 -85.71194 
L 776.024977 -84.515742 
L 772.430705 -83.319544 
L 769.300422 -82.123347 
L 766.619244 -80.927149 
z
" style="stroke: #484848; stroke-width: 3"/>
    </defs>
    <g clip-path="url(#pff52a8c10c)">
     <use xlink:href="#m7d422a0dd3" x="0" y="288" style="fill: #905998; stroke: #484848; stroke-width: 3"/>
    </g>
   </g>
   <g id="PolyCollection_5">
    <defs>
     <path id="m3dfe836391" d="M 966.683356 -74.023002 
L 957.026644 -74.023002 
L 955.314383 -75.498812 
L 953.157133 -76.974622 
L 950.498846 -78.450432 
L 947.295992 -79.926242 
L 943.524227 -81.402051 
L 939.184815 -82.877861 
L 934.309945 -84.353671 
L 928.966091 -85.829481 
L 923.254617 -87.305291 
L 917.30911 -88.781101 
L 911.289295 -90.256911 
L 905.371845 -91.73272 
L 899.73887 -93.20853 
L 894.565272 -94.68434 
L 890.00637 -96.16015 
L 886.187271 -97.63596 
L 883.195225 -99.11177 
L 881.075819 -100.58758 
L 879.833336 -102.063389 
L 879.435 -103.539199 
L 879.818322 -105.015009 
L 880.900366 -106.490819 
L 882.587606 -107.966629 
L 884.785058 -109.442439 
L 887.403645 -110.918249 
L 890.365126 -112.394058 
L 893.604329 -113.869868 
L 897.068896 -115.345678 
L 900.717036 -116.821488 
L 904.514016 -118.297298 
L 908.428164 -119.773108 
L 912.427132 -121.248918 
L 916.475002 -122.724728 
L 920.530593 -124.200537 
L 924.547145 -125.676347 
L 928.473316 -127.152157 
L 932.255277 -128.627967 
L 935.839573 -130.103777 
L 939.176358 -131.579587 
L 942.222608 -133.055397 
L 944.944959 -134.531206 
L 947.321871 -136.007016 
L 949.344936 -137.482826 
L 951.019215 -138.958636 
L 952.36262 -140.434446 
L 953.404416 -141.910256 
L 954.183004 -143.386066 
L 954.743187 -144.861875 
L 955.133153 -146.337685 
L 955.401423 -147.813495 
L 955.593987 -149.289305 
L 955.751831 -150.765115 
L 955.909019 -152.240925 
L 956.091432 -153.716735 
L 956.316207 -155.192544 
L 956.591857 -156.668354 
L 956.919002 -158.144164 
L 957.291574 -159.619974 
L 957.698336 -161.095784 
L 958.124553 -162.571594 
L 958.553626 -164.047404 
L 958.968566 -165.523214 
L 959.353189 -166.999023 
L 959.692997 -168.474833 
L 959.975729 -169.950643 
L 960.191638 -171.426453 
L 960.333568 -172.902263 
L 960.396919 -174.378073 
L 960.379588 -175.853883 
L 960.281954 -177.329692 
L 960.106934 -178.805502 
L 959.860112 -180.281312 
L 959.549891 -181.757122 
L 959.187587 -183.232932 
L 958.787404 -184.708742 
L 958.366172 -186.184552 
L 957.942826 -187.660361 
L 957.537577 -189.136171 
L 957.170825 -190.611981 
L 956.861885 -192.087791 
L 956.627641 -193.563601 
L 956.481292 -195.039411 
L 956.431322 -196.515221 
L 956.480839 -197.99103 
L 956.627363 -199.46684 
L 956.863103 -200.94265 
L 957.175686 -202.41846 
L 957.549263 -203.89427 
L 957.965853 -205.37008 
L 958.406778 -206.84589 
L 958.854026 -208.3217 
L 959.291421 -209.797509 
L 959.705491 -211.273319 
L 960.085991 -212.749129 
L 960.426078 -214.224939 
L 960.722174 -215.700749 
L 960.973582 -217.176559 
L 961.181941 -218.652369 
L 961.350613 -220.128178 
L 962.359387 -220.128178 
L 962.359387 -220.128178 
L 962.528059 -218.652369 
L 962.736418 -217.176559 
L 962.987826 -215.700749 
L 963.283922 -214.224939 
L 963.624009 -212.749129 
L 964.004509 -211.273319 
L 964.418579 -209.797509 
L 964.855974 -208.3217 
L 965.303222 -206.84589 
L 965.744147 -205.37008 
L 966.160737 -203.89427 
L 966.534314 -202.41846 
L 966.846897 -200.94265 
L 967.082637 -199.46684 
L 967.229161 -197.99103 
L 967.278678 -196.515221 
L 967.228708 -195.039411 
L 967.082359 -193.563601 
L 966.848115 -192.087791 
L 966.539175 -190.611981 
L 966.172423 -189.136171 
L 965.767174 -187.660361 
L 965.343828 -186.184552 
L 964.922596 -184.708742 
L 964.522413 -183.232932 
L 964.160109 -181.757122 
L 963.849888 -180.281312 
L 963.603066 -178.805502 
L 963.428046 -177.329692 
L 963.330412 -175.853883 
L 963.313081 -174.378073 
L 963.376432 -172.902263 
L 963.518362 -171.426453 
L 963.734271 -169.950643 
L 964.017003 -168.474833 
L 964.356811 -166.999023 
L 964.741434 -165.523214 
L 965.156374 -164.047404 
L 965.585447 -162.571594 
L 966.011664 -161.095784 
L 966.418426 -159.619974 
L 966.790998 -158.144164 
L 967.118143 -156.668354 
L 967.393793 -155.192544 
L 967.618568 -153.716735 
L 967.800981 -152.240925 
L 967.958169 -150.765115 
L 968.116013 -149.289305 
L 968.308577 -147.813495 
L 968.576847 -146.337685 
L 968.966813 -144.861875 
L 969.526996 -143.386066 
L 970.305584 -141.910256 
L 971.34738 -140.434446 
L 972.690785 -138.958636 
L 974.365064 -137.482826 
L 976.388129 -136.007016 
L 978.765041 -134.531206 
L 981.487392 -133.055397 
L 984.533642 -131.579587 
L 987.870427 -130.103777 
L 991.454723 -128.627967 
L 995.236684 -127.152157 
L 999.162855 -125.676347 
L 1003.179407 -124.200537 
L 1007.234998 -122.724728 
L 1011.282868 -121.248918 
L 1015.281836 -119.773108 
L 1019.195984 -118.297298 
L 1022.992964 -116.821488 
L 1026.641104 -115.345678 
L 1030.105671 -113.869868 
L 1033.344874 -112.394058 
L 1036.306355 -110.918249 
L 1038.924942 -109.442439 
L 1041.122394 -107.966629 
L 1042.809634 -106.490819 
L 1043.891678 -105.015009 
L 1044.275 -103.539199 
L 1043.876664 -102.063389 
L 1042.634181 -100.58758 
L 1040.514775 -99.11177 
L 1037.522729 -97.63596 
L 1033.70363 -96.16015 
L 1029.144728 -94.68434 
L 1023.97113 -93.20853 
L 1018.338155 -91.73272 
L 1012.420705 -90.256911 
L 1006.40089 -88.781101 
L 1000.455383 -87.305291 
L 994.743909 -85.829481 
L 989.400055 -84.353671 
L 984.525185 -82.877861 
L 980.185773 -81.402051 
L 976.414008 -79.926242 
L 973.211154 -78.450432 
L 970.552867 -76.974622 
L 968.395617 -75.498812 
L 966.683356 -74.023002 
z
" style="stroke: #484848; stroke-width: 3"/>
    </defs>
    <g clip-path="url(#pff52a8c10c)">
     <use xlink:href="#m3dfe836391" x="0" y="288" style="fill: #df7f20; stroke: #484848; stroke-width: 3"/>
    </g>
   </g>
   <g id="line2d_5">
    <path d="M 137.655 225.043832 
L 137.655 127.029556 
" clip-path="url(#pff52a8c10c)" style="fill: none; stroke: #484848; stroke-width: 3"/>
   </g>
   <g id="line2d_6">
    <path d="M 137.655 188.381295 
L 137.655 157.738574 
" clip-path="url(#pff52a8c10c)" style="fill: none; stroke: #484848; stroke-width: 9"/>
   </g>
   <g id="line2d_7">
    <path d="M 343.705 216.10532 
L 343.705 139.923288 
" clip-path="url(#pff52a8c10c)" style="fill: none; stroke: #484848; stroke-width: 3"/>
   </g>
   <g id="line2d_8">
    <path d="M 343.705 185.632508 
L 343.705 162.777898 
" clip-path="url(#pff52a8c10c)" style="fill: none; stroke: #484848; stroke-width: 9"/>
   </g>
   <g id="line2d_9">
    <path d="M 549.755 182.911147 
L 549.755 182.911147 
" clip-path="url(#pff52a8c10c)" style="fill: none; stroke: #484848; stroke-width: 3"/>
   </g>
   <g id="line2d_10">
    <path d="M 549.755 182.911147 
L 549.755 182.911147 
" clip-path="url(#pff52a8c10c)" style="fill: none; stroke: #484848; stroke-width: 9"/>
   </g>
   <g id="line2d_11">
    <path d="M 755.805 186.044239 
L 755.805 186.044239 
" clip-path="url(#pff52a8c10c)" style="fill: none; stroke: #484848; stroke-width: 3"/>
   </g>
   <g id="line2d_12">
    <path d="M 755.805 186.044239 
L 755.805 186.044239 
" clip-path="url(#pff52a8c10c)" style="fill: none; stroke: #484848; stroke-width: 9"/>
   </g>
   <g id="line2d_13">
    <path d="M 961.855 192.948386 
L 961.855 161.080079 
" clip-path="url(#pff52a8c10c)" style="fill: none; stroke: #484848; stroke-width: 3"/>
   </g>
   <g id="line2d_14">
    <path d="M 961.855 190.051267 
L 961.855 170.392247 
" clip-path="url(#pff52a8c10c)" style="fill: none; stroke: #484848; stroke-width: 9"/>
   </g>
   <g id="patch_3">
    <path d="M 34.63 255.69875 
L 34.63 43.92 
" style="fill: none; stroke: #f0f0f0; stroke-width: 3; stroke-linejoin: miter; stroke-linecap: square"/>
   </g>
   <g id="patch_4">
    <path d="M 1064.88 255.69875 
L 1064.88 43.92 
" style="fill: none; stroke: #f0f0f0; stroke-width: 3; stroke-linejoin: miter; stroke-linecap: square"/>
   </g>
   <g id="patch_5">
    <path d="M 34.63 255.69875 
L 1064.88 255.69875 
" style="fill: none; stroke: #f0f0f0; stroke-width: 3; stroke-linejoin: miter; stroke-linecap: square"/>
   </g>
   <g id="patch_6">
    <path d="M 34.63 43.92 
L 1064.88 43.92 
" style="fill: none; stroke: #f0f0f0; stroke-width: 3; stroke-linejoin: miter; stroke-linecap: square"/>
   </g>
   <g id="PathCollection_1">
    <defs>
     <path id="m9ef4cdea0b" d="M 0 3 
C 0.795609 3 1.55874 2.683901 2.12132 2.12132 
C 2.683901 1.55874 3 0.795609 3 0 
C 3 -0.795609 2.683901 -1.55874 2.12132 -2.12132 
C 1.55874 -2.683901 0.795609 -3 0 -3 
C -0.795609 -3 -1.55874 -2.683901 -2.12132 -2.12132 
C -2.683901 -1.55874 -3 -0.795609 -3 0 
C -3 0.795609 -2.683901 1.55874 -2.12132 2.12132 
C -1.55874 2.683901 -0.795609 3 0 3 
z
" style="stroke: #484848; stroke-width: 0.5"/>
    </defs>
    <g clip-path="url(#pff52a8c10c)">
     <use xlink:href="#m9ef4cdea0b" x="137.655" y="167.630167" style="fill: #ffffff; stroke: #484848; stroke-width: 0.5"/>
    </g>
   </g>
   <g id="PathCollection_2">
    <g clip-path="url(#pff52a8c10c)">
     <use xlink:href="#m9ef4cdea0b" x="343.705" y="178.014304" style="fill: #ffffff; stroke: #484848; stroke-width: 0.5"/>
    </g>
   </g>
   <g id="PathCollection_3">
    <g clip-path="url(#pff52a8c10c)">
     <use xlink:href="#m9ef4cdea0b" x="549.755" y="182.911147" style="fill: #ffffff; stroke: #484848; stroke-width: 0.5"/>
    </g>
   </g>
   <g id="PathCollection_4">
    <g clip-path="url(#pff52a8c10c)">
     <use xlink:href="#m9ef4cdea0b" x="755.805" y="186.044239" style="fill: #ffffff; stroke: #484848; stroke-width: 0.5"/>
    </g>
   </g>
   <g id="PathCollection_5">
    <g clip-path="url(#pff52a8c10c)">
     <use xlink:href="#m9ef4cdea0b" x="961.855" y="181.359911" style="fill: #ffffff; stroke: #484848; stroke-width: 0.5"/>
    </g>
   </g>
  </g>
  <g id="text_10">
   <!-- Violin Plot of all Continuous Variables -->
   <g style="fill: #262626" transform="translate(416.035547 16.496719)scale(0.15 -0.15)">
    <defs>
     <path id="ArialMT-56" d="M 1803 0 
L 28 4581 
L 684 4581 
L 1875 1253 
Q 2019 853 2116 503 
Q 2222 878 2363 1253 
L 3600 4581 
L 4219 4581 
L 2425 0 
L 1803 0 
z
" transform="scale(0.015625)"/>
     <path id="ArialMT-6f" d="M 213 1659 
Q 213 2581 725 3025 
Q 1153 3394 1769 3394 
Q 2453 3394 2887 2945 
Q 3322 2497 3322 1706 
Q 3322 1066 3130 698 
Q 2938 331 2570 128 
Q 2203 -75 1769 -75 
Q 1072 -75 642 372 
Q 213 819 213 1659 
z
M 791 1659 
Q 791 1022 1069 705 
Q 1347 388 1769 388 
Q 2188 388 2466 706 
Q 2744 1025 2744 1678 
Q 2744 2294 2464 2611 
Q 2184 2928 1769 2928 
Q 1347 2928 1069 2612 
Q 791 2297 791 1659 
z
" transform="scale(0.015625)"/>
     <path id="ArialMT-20" transform="scale(0.015625)"/>
     <path id="ArialMT-74" d="M 1650 503 
L 1731 6 
Q 1494 -44 1306 -44 
Q 1000 -44 831 53 
Q 663 150 594 308 
Q 525 466 525 972 
L 525 2881 
L 113 2881 
L 113 3319 
L 525 3319 
L 525 4141 
L 1084 4478 
L 1084 3319 
L 1650 3319 
L 1650 2881 
L 1084 2881 
L 1084 941 
Q 1084 700 1114 631 
Q 1144 563 1211 522 
Q 1278 481 1403 481 
Q 1497 481 1650 503 
z
" transform="scale(0.015625)"/>
     <path id="ArialMT-62" d="M 941 0 
L 419 0 
L 419 4581 
L 981 4581 
L 981 2947 
Q 1338 3394 1891 3394 
Q 2197 3394 2470 3270 
Q 2744 3147 2920 2923 
Q 3097 2700 3197 2384 
Q 3297 2069 3297 1709 
Q 3297 856 2875 390 
Q 2453 -75 1863 -75 
Q 1275 -75 941 416 
L 941 0 
z
M 934 1684 
Q 934 1088 1097 822 
Q 1363 388 1816 388 
Q 2184 388 2453 708 
Q 2722 1028 2722 1663 
Q 2722 2313 2464 2622 
Q 2206 2931 1841 2931 
Q 1472 2931 1203 2611 
Q 934 2291 934 1684 
z
" transform="scale(0.015625)"/>
    </defs>
    <use xlink:href="#ArialMT-56"/>
    <use xlink:href="#ArialMT-69" x="64.949219"/>
    <use xlink:href="#ArialMT-6f" x="87.166016"/>
    <use xlink:href="#ArialMT-6c" x="142.78125"/>
    <use xlink:href="#ArialMT-69" x="164.998047"/>
    <use xlink:href="#ArialMT-6e" x="187.214844"/>
    <use xlink:href="#ArialMT-20" x="242.830078"/>
    <use xlink:href="#ArialMT-50" x="270.613281"/>
    <use xlink:href="#ArialMT-6c" x="337.3125"/>
    <use xlink:href="#ArialMT-6f" x="359.529297"/>
    <use xlink:href="#ArialMT-74" x="415.144531"/>
    <use xlink:href="#ArialMT-20" x="442.927734"/>
    <use xlink:href="#ArialMT-6f" x="470.710938"/>
    <use xlink:href="#ArialMT-66" x="526.326172"/>
    <use xlink:href="#ArialMT-20" x="554.109375"/>
    <use xlink:href="#ArialMT-61" x="581.892578"/>
    <use xlink:href="#ArialMT-6c" x="637.507812"/>
    <use xlink:href="#ArialMT-6c" x="659.724609"/>
    <use xlink:href="#ArialMT-20" x="681.941406"/>
    <use xlink:href="#ArialMT-43" x="709.724609"/>
    <use xlink:href="#ArialMT-6f" x="781.941406"/>
    <use xlink:href="#ArialMT-6e" x="837.556641"/>
    <use xlink:href="#ArialMT-74" x="893.171875"/>
    <use xlink:href="#ArialMT-69" x="920.955078"/>
    <use xlink:href="#ArialMT-6e" x="943.171875"/>
    <use xlink:href="#ArialMT-75" x="998.787109"/>
    <use xlink:href="#ArialMT-6f" x="1054.402344"/>
    <use xlink:href="#ArialMT-75" x="1110.017578"/>
    <use xlink:href="#ArialMT-73" x="1165.632812"/>
    <use xlink:href="#ArialMT-20" x="1215.632812"/>
    <use xlink:href="#ArialMT-56" x="1243.416016"/>
    <use xlink:href="#ArialMT-61" x="1302.740234"/>
    <use xlink:href="#ArialMT-72" x="1358.355469"/>
    <use xlink:href="#ArialMT-69" x="1391.65625"/>
    <use xlink:href="#ArialMT-61" x="1413.873047"/>
    <use xlink:href="#ArialMT-62" x="1469.488281"/>
    <use xlink:href="#ArialMT-6c" x="1525.103516"/>
    <use xlink:href="#ArialMT-65" x="1547.320312"/>
    <use xlink:href="#ArialMT-73" x="1602.935547"/>
   </g>
  </g>
 </g>
 <defs>
  <clipPath id="pff52a8c10c">
   <rect x="34.63" y="43.92" width="1030.25" height="211.77875"/>
  </clipPath>
 </defs>
</svg>
