<?xml version="1.0" encoding="utf-8" standalone="no"?>
<!DOCTYPE svg PUBLIC "-//W3C//DTD SVG 1.1//EN"
  "http://www.w3.org/Graphics/SVG/1.1/DTD/svg11.dtd">
<svg xmlns:xlink="http://www.w3.org/1999/xlink" width="1080pt" height="288pt" viewBox="0 0 1080 288" xmlns="http://www.w3.org/2000/svg" version="1.1">
 <metadata>
  <rdf:RDF xmlns:dc="http://purl.org/dc/elements/1.1/" xmlns:cc="http://creativecommons.org/ns#" xmlns:rdf="http://www.w3.org/1999/02/22-rdf-syntax-ns#">
   <cc:Work>
    <dc:type rdf:resource="http://purl.org/dc/dcmitype/StillImage"/>
    <dc:date>2023-05-06T09:56:31.317377</dc:date>
    <dc:format>image/svg+xml</dc:format>
    <dc:creator>
     <cc:Agent>
      <dc:title>Matplotlib v3.5.3, https://matplotlib.org/</dc:title>
     </cc:Agent>
    </dc:creator>
   </cc:Work>
  </rdf:RDF>
 </metadata>
 <defs>
  <style type="text/css">*{stroke-linejoin: round; stroke-linecap: butt}</style>
 </defs>
 <g id="figure_1">
  <g id="patch_1">
   <path d="M 0 288 
L 1080 288 
L 1080 0 
L 0 0 
z
" style="fill: #f0f0f0"/>
  </g>
  <g id="axes_1">
   <g id="patch_2">
    <path d="M 34.36 255.69875 
L 1064.88 255.69875 
L 1064.88 43.92 
L 34.36 43.92 
z
" style="fill: #f0f0f0"/>
   </g>
   <g id="matplotlib.axis_1">
    <g id="xtick_1">
     <g id="text_1">
      <!-- cum_AstxMin -->
      <g style="fill: #262626" transform="translate(258.983125 270.572344)scale(0.11 -0.11)">
       <defs>
        <path id="ArialMT-63" d="M 2588 1216 
L 3141 1144 
Q 3050 572 2676 248 
Q 2303 -75 1759 -75 
Q 1078 -75 664 370 
Q 250 816 250 1647 
Q 250 2184 428 2587 
Q 606 2991 970 3192 
Q 1334 3394 1763 3394 
Q 2303 3394 2647 3120 
Q 2991 2847 3088 2344 
L 2541 2259 
Q 2463 2594 2264 2762 
Q 2066 2931 1784 2931 
Q 1359 2931 1093 2626 
Q 828 2322 828 1663 
Q 828 994 1084 691 
Q 1341 388 1753 388 
Q 2084 388 2306 591 
Q 2528 794 2588 1216 
z
" transform="scale(0.015625)"/>
        <path id="ArialMT-75" d="M 2597 0 
L 2597 488 
Q 2209 -75 1544 -75 
Q 1250 -75 995 37 
Q 741 150 617 320 
Q 494 491 444 738 
Q 409 903 409 1263 
L 409 3319 
L 972 3319 
L 972 1478 
Q 972 1038 1006 884 
Q 1059 663 1231 536 
Q 1403 409 1656 409 
Q 1909 409 2131 539 
Q 2353 669 2445 892 
Q 2538 1116 2538 1541 
L 2538 3319 
L 3100 3319 
L 3100 0 
L 2597 0 
z
" transform="scale(0.015625)"/>
        <path id="ArialMT-6d" d="M 422 0 
L 422 3319 
L 925 3319 
L 925 2853 
Q 1081 3097 1340 3245 
Q 1600 3394 1931 3394 
Q 2300 3394 2536 3241 
Q 2772 3088 2869 2813 
Q 3263 3394 3894 3394 
Q 4388 3394 4653 3120 
Q 4919 2847 4919 2278 
L 4919 0 
L 4359 0 
L 4359 2091 
Q 4359 2428 4304 2576 
Q 4250 2725 4106 2815 
Q 3963 2906 3769 2906 
Q 3419 2906 3187 2673 
Q 2956 2441 2956 1928 
L 2956 0 
L 2394 0 
L 2394 2156 
Q 2394 2531 2256 2718 
Q 2119 2906 1806 2906 
Q 1569 2906 1367 2781 
Q 1166 2656 1075 2415 
Q 984 2175 984 1722 
L 984 0 
L 422 0 
z
" transform="scale(0.015625)"/>
        <path id="ArialMT-5f" d="M -97 -1272 
L -97 -866 
L 3631 -866 
L 3631 -1272 
L -97 -1272 
z
" transform="scale(0.015625)"/>
        <path id="ArialMT-41" d="M -9 0 
L 1750 4581 
L 2403 4581 
L 4278 0 
L 3588 0 
L 3053 1388 
L 1138 1388 
L 634 0 
L -9 0 
z
M 1313 1881 
L 2866 1881 
L 2388 3150 
Q 2169 3728 2063 4100 
Q 1975 3659 1816 3225 
L 1313 1881 
z
" transform="scale(0.015625)"/>
        <path id="ArialMT-73" d="M 197 991 
L 753 1078 
Q 800 744 1014 566 
Q 1228 388 1613 388 
Q 2000 388 2187 545 
Q 2375 703 2375 916 
Q 2375 1106 2209 1216 
Q 2094 1291 1634 1406 
Q 1016 1563 777 1677 
Q 538 1791 414 1992 
Q 291 2194 291 2438 
Q 291 2659 392 2848 
Q 494 3038 669 3163 
Q 800 3259 1026 3326 
Q 1253 3394 1513 3394 
Q 1903 3394 2198 3281 
Q 2494 3169 2634 2976 
Q 2775 2784 2828 2463 
L 2278 2388 
Q 2241 2644 2061 2787 
Q 1881 2931 1553 2931 
Q 1166 2931 1000 2803 
Q 834 2675 834 2503 
Q 834 2394 903 2306 
Q 972 2216 1119 2156 
Q 1203 2125 1616 2013 
Q 2213 1853 2448 1751 
Q 2684 1650 2818 1456 
Q 2953 1263 2953 975 
Q 2953 694 2789 445 
Q 2625 197 2315 61 
Q 2006 -75 1616 -75 
Q 969 -75 630 194 
Q 291 463 197 991 
z
" transform="scale(0.015625)"/>
        <path id="ArialMT-74" d="M 1650 503 
L 1731 6 
Q 1494 -44 1306 -44 
Q 1000 -44 831 53 
Q 663 150 594 308 
Q 525 466 525 972 
L 525 2881 
L 113 2881 
L 113 3319 
L 525 3319 
L 525 4141 
L 1084 4478 
L 1084 3319 
L 1650 3319 
L 1650 2881 
L 1084 2881 
L 1084 941 
Q 1084 700 1114 631 
Q 1144 563 1211 522 
Q 1278 481 1403 481 
Q 1497 481 1650 503 
z
" transform="scale(0.015625)"/>
        <path id="ArialMT-78" d="M 47 0 
L 1259 1725 
L 138 3319 
L 841 3319 
L 1350 2541 
Q 1494 2319 1581 2169 
Q 1719 2375 1834 2534 
L 2394 3319 
L 3066 3319 
L 1919 1756 
L 3153 0 
L 2463 0 
L 1781 1031 
L 1600 1309 
L 728 0 
L 47 0 
z
" transform="scale(0.015625)"/>
        <path id="ArialMT-4d" d="M 475 0 
L 475 4581 
L 1388 4581 
L 2472 1338 
Q 2622 884 2691 659 
Q 2769 909 2934 1394 
L 4031 4581 
L 4847 4581 
L 4847 0 
L 4263 0 
L 4263 3834 
L 2931 0 
L 2384 0 
L 1059 3900 
L 1059 0 
L 475 0 
z
" transform="scale(0.015625)"/>
        <path id="ArialMT-69" d="M 425 3934 
L 425 4581 
L 988 4581 
L 988 3934 
L 425 3934 
z
M 425 0 
L 425 3319 
L 988 3319 
L 988 0 
L 425 0 
z
" transform="scale(0.015625)"/>
        <path id="ArialMT-6e" d="M 422 0 
L 422 3319 
L 928 3319 
L 928 2847 
Q 1294 3394 1984 3394 
Q 2284 3394 2536 3286 
Q 2788 3178 2913 3003 
Q 3038 2828 3088 2588 
Q 3119 2431 3119 2041 
L 3119 0 
L 2556 0 
L 2556 2019 
Q 2556 2363 2490 2533 
Q 2425 2703 2258 2804 
Q 2091 2906 1866 2906 
Q 1506 2906 1245 2678 
Q 984 2450 984 1813 
L 984 0 
L 422 0 
z
" transform="scale(0.015625)"/>
       </defs>
       <use xlink:href="#ArialMT-63"/>
       <use xlink:href="#ArialMT-75" x="50"/>
       <use xlink:href="#ArialMT-6d" x="105.615234"/>
       <use xlink:href="#ArialMT-5f" x="188.916016"/>
       <use xlink:href="#ArialMT-41" x="244.53125"/>
       <use xlink:href="#ArialMT-73" x="311.230469"/>
       <use xlink:href="#ArialMT-74" x="361.230469"/>
       <use xlink:href="#ArialMT-78" x="389.013672"/>
       <use xlink:href="#ArialMT-4d" x="439.013672"/>
       <use xlink:href="#ArialMT-69" x="522.314453"/>
       <use xlink:href="#ArialMT-6e" x="544.53125"/>
      </g>
     </g>
    </g>
    <g id="xtick_2">
     <g id="text_2">
      <!-- cum_G+AxMin -->
      <g style="fill: #262626" transform="translate(771.030781 270.706406)scale(0.11 -0.11)">
       <defs>
        <path id="ArialMT-47" d="M 2638 1797 
L 2638 2334 
L 4578 2338 
L 4578 638 
Q 4131 281 3656 101 
Q 3181 -78 2681 -78 
Q 2006 -78 1454 211 
Q 903 500 622 1047 
Q 341 1594 341 2269 
Q 341 2938 620 3517 
Q 900 4097 1425 4378 
Q 1950 4659 2634 4659 
Q 3131 4659 3532 4498 
Q 3934 4338 4162 4050 
Q 4391 3763 4509 3300 
L 3963 3150 
Q 3859 3500 3706 3700 
Q 3553 3900 3268 4020 
Q 2984 4141 2638 4141 
Q 2222 4141 1919 4014 
Q 1616 3888 1430 3681 
Q 1244 3475 1141 3228 
Q 966 2803 966 2306 
Q 966 1694 1177 1281 
Q 1388 869 1791 669 
Q 2194 469 2647 469 
Q 3041 469 3416 620 
Q 3791 772 3984 944 
L 3984 1797 
L 2638 1797 
z
" transform="scale(0.015625)"/>
        <path id="ArialMT-2b" d="M 1603 741 
L 1603 1997 
L 356 1997 
L 356 2522 
L 1603 2522 
L 1603 3769 
L 2134 3769 
L 2134 2522 
L 3381 2522 
L 3381 1997 
L 2134 1997 
L 2134 741 
L 1603 741 
z
" transform="scale(0.015625)"/>
       </defs>
       <use xlink:href="#ArialMT-63"/>
       <use xlink:href="#ArialMT-75" x="50"/>
       <use xlink:href="#ArialMT-6d" x="105.615234"/>
       <use xlink:href="#ArialMT-5f" x="188.916016"/>
       <use xlink:href="#ArialMT-47" x="244.53125"/>
       <use xlink:href="#ArialMT-2b" x="322.314453"/>
       <use xlink:href="#ArialMT-41" x="380.712891"/>
       <use xlink:href="#ArialMT-78" x="447.412109"/>
       <use xlink:href="#ArialMT-4d" x="497.412109"/>
       <use xlink:href="#ArialMT-69" x="580.712891"/>
       <use xlink:href="#ArialMT-6e" x="602.929688"/>
      </g>
     </g>
    </g>
   </g>
   <g id="matplotlib.axis_2">
    <g id="ytick_1">
     <g id="line2d_1">
      <path d="M 34.36 236.276034 
L 1064.88 236.276034 
" clip-path="url(#p4d6ca4feb7)" style="fill: none; stroke: #cbcbcb"/>
     </g>
     <g id="text_3">
      <!-- 0 -->
      <g style="fill: #262626" transform="translate(21.242969 240.212831)scale(0.11 -0.11)">
       <defs>
        <path id="ArialMT-30" d="M 266 2259 
Q 266 3072 433 3567 
Q 600 4063 929 4331 
Q 1259 4600 1759 4600 
Q 2128 4600 2406 4451 
Q 2684 4303 2865 4023 
Q 3047 3744 3150 3342 
Q 3253 2941 3253 2259 
Q 3253 1453 3087 958 
Q 2922 463 2592 192 
Q 2263 -78 1759 -78 
Q 1097 -78 719 397 
Q 266 969 266 2259 
z
M 844 2259 
Q 844 1131 1108 757 
Q 1372 384 1759 384 
Q 2147 384 2411 759 
Q 2675 1134 2675 2259 
Q 2675 3391 2411 3762 
Q 2147 4134 1753 4134 
Q 1366 4134 1134 3806 
Q 844 3388 844 2259 
z
" transform="scale(0.015625)"/>
       </defs>
       <use xlink:href="#ArialMT-30"/>
      </g>
     </g>
    </g>
    <g id="ytick_2">
     <g id="line2d_2">
      <path d="M 34.36 192.191844 
L 1064.88 192.191844 
" clip-path="url(#p4d6ca4feb7)" style="fill: none; stroke: #cbcbcb"/>
     </g>
     <g id="text_4">
      <!-- 5 -->
      <g style="fill: #262626" transform="translate(21.242969 196.128641)scale(0.11 -0.11)">
       <defs>
        <path id="ArialMT-35" d="M 266 1200 
L 856 1250 
Q 922 819 1161 601 
Q 1400 384 1738 384 
Q 2144 384 2425 690 
Q 2706 997 2706 1503 
Q 2706 1984 2436 2262 
Q 2166 2541 1728 2541 
Q 1456 2541 1237 2417 
Q 1019 2294 894 2097 
L 366 2166 
L 809 4519 
L 3088 4519 
L 3088 3981 
L 1259 3981 
L 1013 2750 
Q 1425 3038 1878 3038 
Q 2478 3038 2890 2622 
Q 3303 2206 3303 1553 
Q 3303 931 2941 478 
Q 2500 -78 1738 -78 
Q 1113 -78 717 272 
Q 322 622 266 1200 
z
" transform="scale(0.015625)"/>
       </defs>
       <use xlink:href="#ArialMT-35"/>
      </g>
     </g>
    </g>
    <g id="ytick_3">
     <g id="line2d_3">
      <path d="M 34.36 148.107655 
L 1064.88 148.107655 
" clip-path="url(#p4d6ca4feb7)" style="fill: none; stroke: #cbcbcb"/>
     </g>
     <g id="text_5">
      <!-- 10 -->
      <g style="fill: #262626" transform="translate(15.125938 152.044452)scale(0.11 -0.11)">
       <defs>
        <path id="ArialMT-31" d="M 2384 0 
L 1822 0 
L 1822 3584 
Q 1619 3391 1289 3197 
Q 959 3003 697 2906 
L 697 3450 
Q 1169 3672 1522 3987 
Q 1875 4303 2022 4600 
L 2384 4600 
L 2384 0 
z
" transform="scale(0.015625)"/>
       </defs>
       <use xlink:href="#ArialMT-31"/>
       <use xlink:href="#ArialMT-30" x="55.615234"/>
      </g>
     </g>
    </g>
    <g id="ytick_4">
     <g id="line2d_4">
      <path d="M 34.36 104.023465 
L 1064.88 104.023465 
" clip-path="url(#p4d6ca4feb7)" style="fill: none; stroke: #cbcbcb"/>
     </g>
     <g id="text_6">
      <!-- 15 -->
      <g style="fill: #262626" transform="translate(15.125938 107.960262)scale(0.11 -0.11)">
       <use xlink:href="#ArialMT-31"/>
       <use xlink:href="#ArialMT-35" x="55.615234"/>
      </g>
     </g>
    </g>
    <g id="ytick_5">
     <g id="line2d_5">
      <path d="M 34.36 59.939276 
L 1064.88 59.939276 
" clip-path="url(#p4d6ca4feb7)" style="fill: none; stroke: #cbcbcb"/>
     </g>
     <g id="text_7">
      <!-- 20 -->
      <g style="fill: #262626" transform="translate(15.125938 63.876073)scale(0.11 -0.11)">
       <defs>
        <path id="ArialMT-32" d="M 3222 541 
L 3222 0 
L 194 0 
Q 188 203 259 391 
Q 375 700 629 1000 
Q 884 1300 1366 1694 
Q 2113 2306 2375 2664 
Q 2638 3022 2638 3341 
Q 2638 3675 2398 3904 
Q 2159 4134 1775 4134 
Q 1369 4134 1125 3890 
Q 881 3647 878 3216 
L 300 3275 
Q 359 3922 746 4261 
Q 1134 4600 1788 4600 
Q 2447 4600 2831 4234 
Q 3216 3869 3216 3328 
Q 3216 3053 3103 2787 
Q 2991 2522 2730 2228 
Q 2469 1934 1863 1422 
Q 1356 997 1212 845 
Q 1069 694 975 541 
L 3222 541 
z
" transform="scale(0.015625)"/>
       </defs>
       <use xlink:href="#ArialMT-32"/>
       <use xlink:href="#ArialMT-30" x="55.615234"/>
      </g>
     </g>
    </g>
   </g>
   <g id="PolyCollection_1">
    <defs>
     <path id="m104723582b" d="M 315.039278 -41.927557 
L 268.940722 -41.927557 
L 241.161903 -43.042104 
L 198.417756 -44.156651 
L 147.753739 -45.271198 
L 104.8847 -46.385744 
L 85.886 -47.500291 
L 96.028424 -48.614838 
L 126.375878 -49.729385 
L 161.379563 -50.843932 
L 189.458779 -51.958479 
L 207.489243 -53.073026 
L 218.292009 -54.187573 
L 226.046977 -55.30212 
L 233.494009 -56.416667 
L 241.429581 -57.531214 
L 249.418641 -58.645761 
L 256.721619 -59.760308 
L 262.904855 -60.874854 
L 267.970502 -61.989401 
L 272.128956 -63.103948 
L 275.521835 -64.218495 
L 278.157659 -65.333042 
L 280.066224 -66.447589 
L 281.459059 -67.562136 
L 282.700086 -68.676683 
L 284.093082 -69.79123 
L 285.679917 -70.905777 
L 287.240185 -72.020324 
L 288.488767 -73.134871 
L 289.287916 -74.249417 
L 289.709333 -75.363964 
L 289.940145 -76.478511 
L 290.141426 -77.593058 
L 290.369565 -78.707605 
L 290.598754 -79.822152 
L 290.792519 -80.936699 
L 290.938276 -82.051246 
L 291.023491 -83.165793 
L 291.012743 -84.28034 
L 290.872975 -85.394887 
L 290.620717 -86.509434 
L 290.339897 -87.62398 
L 290.154827 -88.738527 
L 290.172879 -89.853074 
L 290.422827 -90.967621 
L 290.83055 -92.082168 
L 291.262227 -93.196715 
L 291.605431 -94.311262 
L 291.819818 -95.425809 
L 291.927146 -96.540356 
L 291.970667 -97.654903 
L 291.985054 -98.76945 
L 291.988949 -99.883997 
L 291.989814 -100.998543 
L 291.989973 -102.11309 
L 291.989997 -103.227637 
L 291.99 -104.342184 
L 291.99 -105.456731 
L 291.99 -106.571278 
L 291.99 -107.685825 
L 291.99 -108.800372 
L 291.99 -109.914919 
L 291.99 -111.029466 
L 291.99 -112.144013 
L 291.99 -113.25856 
L 291.99 -114.373106 
L 291.99 -115.487653 
L 291.99 -116.6022 
L 291.99 -117.716747 
L 291.99 -118.831294 
L 291.989997 -119.945841 
L 291.989976 -121.060388 
L 291.989844 -122.174935 
L 291.989163 -123.289482 
L 291.986278 -124.404029 
L 291.976259 -125.518576 
L 291.9479 -126.633123 
L 291.882956 -127.747669 
L 291.764125 -128.862216 
L 291.594449 -129.976763 
L 291.415137 -131.09131 
L 291.296648 -132.205857 
L 291.295981 -133.320404 
L 291.413474 -134.434951 
L 291.592513 -135.549498 
L 291.762402 -136.664045 
L 291.880989 -137.778592 
L 291.942952 -138.893139 
L 291.959889 -140.007686 
L 291.937852 -141.122232 
L 291.869261 -142.236779 
L 291.743242 -143.351326 
L 291.569024 -144.465873 
L 291.393647 -145.58042 
L 291.288871 -146.694967 
L 291.305896 -147.809514 
L 291.436046 -148.924061 
L 291.617734 -150.038608 
L 291.782384 -151.153155 
L 291.893906 -152.267702 
L 292.086094 -152.267702 
L 292.086094 -152.267702 
L 292.197616 -151.153155 
L 292.362266 -150.038608 
L 292.543954 -148.924061 
L 292.674104 -147.809514 
L 292.691129 -146.694967 
L 292.586353 -145.58042 
L 292.410976 -144.465873 
L 292.236758 -143.351326 
L 292.110739 -142.236779 
L 292.042148 -141.122232 
L 292.020111 -140.007686 
L 292.037048 -138.893139 
L 292.099011 -137.778592 
L 292.217598 -136.664045 
L 292.387487 -135.549498 
L 292.566526 -134.434951 
L 292.684019 -133.320404 
L 292.683352 -132.205857 
L 292.564863 -131.09131 
L 292.385551 -129.976763 
L 292.215875 -128.862216 
L 292.097044 -127.747669 
L 292.0321 -126.633123 
L 292.003741 -125.518576 
L 291.993722 -124.404029 
L 291.990837 -123.289482 
L 291.990156 -122.174935 
L 291.990024 -121.060388 
L 291.990003 -119.945841 
L 291.99 -118.831294 
L 291.99 -117.716747 
L 291.99 -116.6022 
L 291.99 -115.487653 
L 291.99 -114.373106 
L 291.99 -113.25856 
L 291.99 -112.144013 
L 291.99 -111.029466 
L 291.99 -109.914919 
L 291.99 -108.800372 
L 291.99 -107.685825 
L 291.99 -106.571278 
L 291.99 -105.456731 
L 291.99 -104.342184 
L 291.990003 -103.227637 
L 291.990027 -102.11309 
L 291.990186 -100.998543 
L 291.991051 -99.883997 
L 291.994946 -98.76945 
L 292.009333 -97.654903 
L 292.052854 -96.540356 
L 292.160182 -95.425809 
L 292.374569 -94.311262 
L 292.717773 -93.196715 
L 293.14945 -92.082168 
L 293.557173 -90.967621 
L 293.807121 -89.853074 
L 293.825173 -88.738527 
L 293.640103 -87.62398 
L 293.359283 -86.509434 
L 293.107025 -85.394887 
L 292.967257 -84.28034 
L 292.956509 -83.165793 
L 293.041724 -82.051246 
L 293.187481 -80.936699 
L 293.381246 -79.822152 
L 293.610435 -78.707605 
L 293.838574 -77.593058 
L 294.039855 -76.478511 
L 294.270667 -75.363964 
L 294.692084 -74.249417 
L 295.491233 -73.134871 
L 296.739815 -72.020324 
L 298.300083 -70.905777 
L 299.886918 -69.79123 
L 301.279914 -68.676683 
L 302.520941 -67.562136 
L 303.913776 -66.447589 
L 305.822341 -65.333042 
L 308.458165 -64.218495 
L 311.851044 -63.103948 
L 316.009498 -61.989401 
L 321.075145 -60.874854 
L 327.258381 -59.760308 
L 334.561359 -58.645761 
L 342.550419 -57.531214 
L 350.485991 -56.416667 
L 357.933023 -55.30212 
L 365.687991 -54.187573 
L 376.490757 -53.073026 
L 394.521221 -51.958479 
L 422.600437 -50.843932 
L 457.604122 -49.729385 
L 487.951576 -48.614838 
L 498.094 -47.500291 
L 479.0953 -46.385744 
L 436.226261 -45.271198 
L 385.562244 -44.156651 
L 342.818097 -43.042104 
L 315.039278 -41.927557 
z
" style="stroke: #484848; stroke-width: 3"/>
    </defs>
    <g clip-path="url(#p4d6ca4feb7)">
     <use xlink:href="#m104723582b" x="0" y="288" style="fill: #cb3335; stroke: #484848; stroke-width: 3"/>
    </g>
   </g>
   <g id="PolyCollection_2">
    <defs>
     <path id="mb234d5feb4" d="M 825.518146 -44.246322 
L 788.981854 -44.246322 
L 739.5345 -46.167609 
L 656.890068 -48.088895 
L 601.146 -50.010182 
L 622.25412 -51.931468 
L 686.162854 -53.852755 
L 740.892135 -55.774041 
L 774.876226 -57.695328 
L 793.707374 -59.616615 
L 801.876493 -61.537901 
L 804.366748 -63.459188 
L 805.405073 -65.380474 
L 806.341071 -67.301761 
L 806.955571 -69.223047 
L 807.159397 -71.144334 
L 807.094915 -73.065621 
L 806.869195 -74.986907 
L 806.67886 -76.908194 
L 806.698091 -78.82948 
L 806.754453 -80.750767 
L 806.683861 -82.672054 
L 806.697172 -84.59334 
L 806.912365 -86.514627 
L 807.129903 -88.435913 
L 807.225403 -90.3572 
L 807.247104 -92.278486 
L 807.249804 -94.199773 
L 807.249992 -96.12106 
L 807.25 -98.042346 
L 807.25 -99.963633 
L 807.25 -101.884919 
L 807.25 -103.806206 
L 807.25 -105.727492 
L 807.25 -107.648779 
L 807.25 -109.570066 
L 807.25 -111.491352 
L 807.25 -113.412639 
L 807.25 -115.333925 
L 807.25 -117.255212 
L 807.25 -119.176499 
L 807.25 -121.097785 
L 807.25 -123.019072 
L 807.25 -124.940358 
L 807.25 -126.861645 
L 807.25 -128.782931 
L 807.25 -130.704218 
L 807.25 -132.625505 
L 807.25 -134.546791 
L 807.25 -136.468078 
L 807.25 -138.389364 
L 807.25 -140.310651 
L 807.25 -142.231937 
L 807.25 -144.153224 
L 807.25 -146.074511 
L 807.25 -147.995797 
L 807.25 -149.917084 
L 807.25 -151.83837 
L 807.25 -153.759657 
L 807.25 -155.680943 
L 807.25 -157.60223 
L 807.25 -159.523517 
L 807.25 -161.444803 
L 807.25 -163.36609 
L 807.25 -165.287376 
L 807.25 -167.208663 
L 807.25 -169.12995 
L 807.25 -171.051236 
L 807.25 -172.972523 
L 807.25 -174.893809 
L 807.25 -176.815096 
L 807.25 -178.736382 
L 807.25 -180.657669 
L 807.25 -182.578956 
L 807.25 -184.500242 
L 807.25 -186.421529 
L 807.25 -188.342815 
L 807.25 -190.264102 
L 807.25 -192.185388 
L 807.25 -194.106675 
L 807.25 -196.027962 
L 807.25 -197.949248 
L 807.25 -199.870535 
L 807.25 -201.791821 
L 807.25 -203.713108 
L 807.25 -205.634395 
L 807.25 -207.555681 
L 807.25 -209.476968 
L 807.25 -211.398254 
L 807.25 -213.319541 
L 807.25 -215.240827 
L 807.249991 -217.162114 
L 807.249774 -219.083401 
L 807.246748 -221.004687 
L 807.223104 -222.925974 
L 807.122193 -224.84726 
L 806.901018 -226.768547 
L 806.702436 -228.689833 
L 806.756313 -230.61112 
L 806.994229 -232.532407 
L 807.173856 -234.453693 
L 807.326144 -234.453693 
L 807.326144 -234.453693 
L 807.505771 -232.532407 
L 807.743687 -230.61112 
L 807.797564 -228.689833 
L 807.598982 -226.768547 
L 807.377807 -224.84726 
L 807.276896 -222.925974 
L 807.253252 -221.004687 
L 807.250226 -219.083401 
L 807.250009 -217.162114 
L 807.25 -215.240827 
L 807.25 -213.319541 
L 807.25 -211.398254 
L 807.25 -209.476968 
L 807.25 -207.555681 
L 807.25 -205.634395 
L 807.25 -203.713108 
L 807.25 -201.791821 
L 807.25 -199.870535 
L 807.25 -197.949248 
L 807.25 -196.027962 
L 807.25 -194.106675 
L 807.25 -192.185388 
L 807.25 -190.264102 
L 807.25 -188.342815 
L 807.25 -186.421529 
L 807.25 -184.500242 
L 807.25 -182.578956 
L 807.25 -180.657669 
L 807.25 -178.736382 
L 807.25 -176.815096 
L 807.25 -174.893809 
L 807.25 -172.972523 
L 807.25 -171.051236 
L 807.25 -169.12995 
L 807.25 -167.208663 
L 807.25 -165.287376 
L 807.25 -163.36609 
L 807.25 -161.444803 
L 807.25 -159.523517 
L 807.25 -157.60223 
L 807.25 -155.680943 
L 807.25 -153.759657 
L 807.25 -151.83837 
L 807.25 -149.917084 
L 807.25 -147.995797 
L 807.25 -146.074511 
L 807.25 -144.153224 
L 807.25 -142.231937 
L 807.25 -140.310651 
L 807.25 -138.389364 
L 807.25 -136.468078 
L 807.25 -134.546791 
L 807.25 -132.625505 
L 807.25 -130.704218 
L 807.25 -128.782931 
L 807.25 -126.861645 
L 807.25 -124.940358 
L 807.25 -123.019072 
L 807.25 -121.097785 
L 807.25 -119.176499 
L 807.25 -117.255212 
L 807.25 -115.333925 
L 807.25 -113.412639 
L 807.25 -111.491352 
L 807.25 -109.570066 
L 807.25 -107.648779 
L 807.25 -105.727492 
L 807.25 -103.806206 
L 807.25 -101.884919 
L 807.25 -99.963633 
L 807.25 -98.042346 
L 807.250008 -96.12106 
L 807.250196 -94.199773 
L 807.252896 -92.278486 
L 807.274597 -90.3572 
L 807.370097 -88.435913 
L 807.587635 -86.514627 
L 807.802828 -84.59334 
L 807.816139 -82.672054 
L 807.745547 -80.750767 
L 807.801909 -78.82948 
L 807.82114 -76.908194 
L 807.630805 -74.986907 
L 807.405085 -73.065621 
L 807.340603 -71.144334 
L 807.544429 -69.223047 
L 808.158929 -67.301761 
L 809.094927 -65.380474 
L 810.133252 -63.459188 
L 812.623507 -61.537901 
L 820.792626 -59.616615 
L 839.623774 -57.695328 
L 873.607865 -55.774041 
L 928.337146 -53.852755 
L 992.24588 -51.931468 
L 1013.354 -50.010182 
L 957.609932 -48.088895 
L 874.9655 -46.167609 
L 825.518146 -44.246322 
z
" style="stroke: #484848; stroke-width: 3"/>
    </defs>
    <g clip-path="url(#p4d6ca4feb7)">
     <use xlink:href="#mb234d5feb4" x="0" y="288" style="fill: #477ca8; stroke: #484848; stroke-width: 3"/>
    </g>
   </g>
   <g id="line2d_6">
    <path d="M 291.99 240.910036 
L 291.99 223.404685 
" clip-path="url(#p4d6ca4feb7)" style="fill: none; stroke: #484848; stroke-width: 3"/>
   </g>
   <g id="line2d_7">
    <path d="M 291.99 240.910036 
L 291.99 233.674928 
" clip-path="url(#p4d6ca4feb7)" style="fill: none; stroke: #484848; stroke-width: 9"/>
   </g>
   <g id="line2d_8">
    <path d="M 807.25 238.591271 
L 807.25 231.584946 
" clip-path="url(#p4d6ca4feb7)" style="fill: none; stroke: #484848; stroke-width: 3"/>
   </g>
   <g id="line2d_9">
    <path d="M 807.25 238.591271 
L 807.25 235.714836 
" clip-path="url(#p4d6ca4feb7)" style="fill: none; stroke: #484848; stroke-width: 9"/>
   </g>
   <g id="patch_3">
    <path d="M 34.36 255.69875 
L 34.36 43.92 
" style="fill: none; stroke: #f0f0f0; stroke-width: 3; stroke-linejoin: miter; stroke-linecap: square"/>
   </g>
   <g id="patch_4">
    <path d="M 1064.88 255.69875 
L 1064.88 43.92 
" style="fill: none; stroke: #f0f0f0; stroke-width: 3; stroke-linejoin: miter; stroke-linecap: square"/>
   </g>
   <g id="patch_5">
    <path d="M 34.36 255.69875 
L 1064.88 255.69875 
" style="fill: none; stroke: #f0f0f0; stroke-width: 3; stroke-linejoin: miter; stroke-linecap: square"/>
   </g>
   <g id="patch_6">
    <path d="M 34.36 43.92 
L 1064.88 43.92 
" style="fill: none; stroke: #f0f0f0; stroke-width: 3; stroke-linejoin: miter; stroke-linecap: square"/>
   </g>
   <g id="PathCollection_1">
    <defs>
     <path id="m5efd378e5e" d="M 0 3 
C 0.795609 3 1.55874 2.683901 2.12132 2.12132 
C 2.683901 1.55874 3 0.795609 3 0 
C 3 -0.795609 2.683901 -1.55874 2.12132 -2.12132 
C 1.55874 -2.683901 0.795609 -3 0 -3 
C -0.795609 -3 -1.55874 -2.683901 -2.12132 -2.12132 
C -2.683901 -1.55874 -3 -0.795609 -3 0 
C -3 0.795609 -2.683901 1.55874 -2.12132 2.12132 
C -1.55874 2.683901 -0.795609 3 0 3 
z
" style="stroke: #484848; stroke-width: 0.5"/>
    </defs>
    <g clip-path="url(#p4d6ca4feb7)">
     <use xlink:href="#m5efd378e5e" x="291.99" y="240.381243" style="fill: #ffffff; stroke: #484848; stroke-width: 0.5"/>
    </g>
   </g>
   <g id="PathCollection_2">
    <g clip-path="url(#p4d6ca4feb7)">
     <use xlink:href="#m5efd378e5e" x="807.25" y="237.770185" style="fill: #ffffff; stroke: #484848; stroke-width: 0.5"/>
    </g>
   </g>
  </g>
  <g id="text_8">
   <!-- Violin Plot of all Continuous Variables -->
   <g style="fill: #262626" transform="translate(416.035547 16.496719)scale(0.15 -0.15)">
    <defs>
     <path id="ArialMT-56" d="M 1803 0 
L 28 4581 
L 684 4581 
L 1875 1253 
Q 2019 853 2116 503 
Q 2222 878 2363 1253 
L 3600 4581 
L 4219 4581 
L 2425 0 
L 1803 0 
z
" transform="scale(0.015625)"/>
     <path id="ArialMT-6f" d="M 213 1659 
Q 213 2581 725 3025 
Q 1153 3394 1769 3394 
Q 2453 3394 2887 2945 
Q 3322 2497 3322 1706 
Q 3322 1066 3130 698 
Q 2938 331 2570 128 
Q 2203 -75 1769 -75 
Q 1072 -75 642 372 
Q 213 819 213 1659 
z
M 791 1659 
Q 791 1022 1069 705 
Q 1347 388 1769 388 
Q 2188 388 2466 706 
Q 2744 1025 2744 1678 
Q 2744 2294 2464 2611 
Q 2184 2928 1769 2928 
Q 1347 2928 1069 2612 
Q 791 2297 791 1659 
z
" transform="scale(0.015625)"/>
     <path id="ArialMT-6c" d="M 409 0 
L 409 4581 
L 972 4581 
L 972 0 
L 409 0 
z
" transform="scale(0.015625)"/>
     <path id="ArialMT-20" transform="scale(0.015625)"/>
     <path id="ArialMT-50" d="M 494 0 
L 494 4581 
L 2222 4581 
Q 2678 4581 2919 4538 
Q 3256 4481 3484 4323 
Q 3713 4166 3852 3881 
Q 3991 3597 3991 3256 
Q 3991 2672 3619 2267 
Q 3247 1863 2275 1863 
L 1100 1863 
L 1100 0 
L 494 0 
z
M 1100 2403 
L 2284 2403 
Q 2872 2403 3119 2622 
Q 3366 2841 3366 3238 
Q 3366 3525 3220 3729 
Q 3075 3934 2838 4000 
Q 2684 4041 2272 4041 
L 1100 4041 
L 1100 2403 
z
" transform="scale(0.015625)"/>
     <path id="ArialMT-66" d="M 556 0 
L 556 2881 
L 59 2881 
L 59 3319 
L 556 3319 
L 556 3672 
Q 556 4006 616 4169 
Q 697 4388 901 4523 
Q 1106 4659 1475 4659 
Q 1713 4659 2000 4603 
L 1916 4113 
Q 1741 4144 1584 4144 
Q 1328 4144 1222 4034 
Q 1116 3925 1116 3625 
L 1116 3319 
L 1763 3319 
L 1763 2881 
L 1116 2881 
L 1116 0 
L 556 0 
z
" transform="scale(0.015625)"/>
     <path id="ArialMT-61" d="M 2588 409 
Q 2275 144 1986 34 
Q 1697 -75 1366 -75 
Q 819 -75 525 192 
Q 231 459 231 875 
Q 231 1119 342 1320 
Q 453 1522 633 1644 
Q 813 1766 1038 1828 
Q 1203 1872 1538 1913 
Q 2219 1994 2541 2106 
Q 2544 2222 2544 2253 
Q 2544 2597 2384 2738 
Q 2169 2928 1744 2928 
Q 1347 2928 1158 2789 
Q 969 2650 878 2297 
L 328 2372 
Q 403 2725 575 2942 
Q 747 3159 1072 3276 
Q 1397 3394 1825 3394 
Q 2250 3394 2515 3294 
Q 2781 3194 2906 3042 
Q 3031 2891 3081 2659 
Q 3109 2516 3109 2141 
L 3109 1391 
Q 3109 606 3145 398 
Q 3181 191 3288 0 
L 2700 0 
Q 2613 175 2588 409 
z
M 2541 1666 
Q 2234 1541 1622 1453 
Q 1275 1403 1131 1340 
Q 988 1278 909 1158 
Q 831 1038 831 891 
Q 831 666 1001 516 
Q 1172 366 1500 366 
Q 1825 366 2078 508 
Q 2331 650 2450 897 
Q 2541 1088 2541 1459 
L 2541 1666 
z
" transform="scale(0.015625)"/>
     <path id="ArialMT-43" d="M 3763 1606 
L 4369 1453 
Q 4178 706 3683 314 
Q 3188 -78 2472 -78 
Q 1731 -78 1267 223 
Q 803 525 561 1097 
Q 319 1669 319 2325 
Q 319 3041 592 3573 
Q 866 4106 1370 4382 
Q 1875 4659 2481 4659 
Q 3169 4659 3637 4309 
Q 4106 3959 4291 3325 
L 3694 3184 
Q 3534 3684 3231 3912 
Q 2928 4141 2469 4141 
Q 1941 4141 1586 3887 
Q 1231 3634 1087 3207 
Q 944 2781 944 2328 
Q 944 1744 1114 1308 
Q 1284 872 1643 656 
Q 2003 441 2422 441 
Q 2931 441 3284 734 
Q 3638 1028 3763 1606 
z
" transform="scale(0.015625)"/>
     <path id="ArialMT-72" d="M 416 0 
L 416 3319 
L 922 3319 
L 922 2816 
Q 1116 3169 1280 3281 
Q 1444 3394 1641 3394 
Q 1925 3394 2219 3213 
L 2025 2691 
Q 1819 2813 1613 2813 
Q 1428 2813 1281 2702 
Q 1134 2591 1072 2394 
Q 978 2094 978 1738 
L 978 0 
L 416 0 
z
" transform="scale(0.015625)"/>
     <path id="ArialMT-62" d="M 941 0 
L 419 0 
L 419 4581 
L 981 4581 
L 981 2947 
Q 1338 3394 1891 3394 
Q 2197 3394 2470 3270 
Q 2744 3147 2920 2923 
Q 3097 2700 3197 2384 
Q 3297 2069 3297 1709 
Q 3297 856 2875 390 
Q 2453 -75 1863 -75 
Q 1275 -75 941 416 
L 941 0 
z
M 934 1684 
Q 934 1088 1097 822 
Q 1363 388 1816 388 
Q 2184 388 2453 708 
Q 2722 1028 2722 1663 
Q 2722 2313 2464 2622 
Q 2206 2931 1841 2931 
Q 1472 2931 1203 2611 
Q 934 2291 934 1684 
z
" transform="scale(0.015625)"/>
     <path id="ArialMT-65" d="M 2694 1069 
L 3275 997 
Q 3138 488 2766 206 
Q 2394 -75 1816 -75 
Q 1088 -75 661 373 
Q 234 822 234 1631 
Q 234 2469 665 2931 
Q 1097 3394 1784 3394 
Q 2450 3394 2872 2941 
Q 3294 2488 3294 1666 
Q 3294 1616 3291 1516 
L 816 1516 
Q 847 969 1125 678 
Q 1403 388 1819 388 
Q 2128 388 2347 550 
Q 2566 713 2694 1069 
z
M 847 1978 
L 2700 1978 
Q 2663 2397 2488 2606 
Q 2219 2931 1791 2931 
Q 1403 2931 1139 2672 
Q 875 2413 847 1978 
z
" transform="scale(0.015625)"/>
    </defs>
    <use xlink:href="#ArialMT-56"/>
    <use xlink:href="#ArialMT-69" x="64.949219"/>
    <use xlink:href="#ArialMT-6f" x="87.166016"/>
    <use xlink:href="#ArialMT-6c" x="142.78125"/>
    <use xlink:href="#ArialMT-69" x="164.998047"/>
    <use xlink:href="#ArialMT-6e" x="187.214844"/>
    <use xlink:href="#ArialMT-20" x="242.830078"/>
    <use xlink:href="#ArialMT-50" x="270.613281"/>
    <use xlink:href="#ArialMT-6c" x="337.3125"/>
    <use xlink:href="#ArialMT-6f" x="359.529297"/>
    <use xlink:href="#ArialMT-74" x="415.144531"/>
    <use xlink:href="#ArialMT-20" x="442.927734"/>
    <use xlink:href="#ArialMT-6f" x="470.710938"/>
    <use xlink:href="#ArialMT-66" x="526.326172"/>
    <use xlink:href="#ArialMT-20" x="554.109375"/>
    <use xlink:href="#ArialMT-61" x="581.892578"/>
    <use xlink:href="#ArialMT-6c" x="637.507812"/>
    <use xlink:href="#ArialMT-6c" x="659.724609"/>
    <use xlink:href="#ArialMT-20" x="681.941406"/>
    <use xlink:href="#ArialMT-43" x="709.724609"/>
    <use xlink:href="#ArialMT-6f" x="781.941406"/>
    <use xlink:href="#ArialMT-6e" x="837.556641"/>
    <use xlink:href="#ArialMT-74" x="893.171875"/>
    <use xlink:href="#ArialMT-69" x="920.955078"/>
    <use xlink:href="#ArialMT-6e" x="943.171875"/>
    <use xlink:href="#ArialMT-75" x="998.787109"/>
    <use xlink:href="#ArialMT-6f" x="1054.402344"/>
    <use xlink:href="#ArialMT-75" x="1110.017578"/>
    <use xlink:href="#ArialMT-73" x="1165.632812"/>
    <use xlink:href="#ArialMT-20" x="1215.632812"/>
    <use xlink:href="#ArialMT-56" x="1243.416016"/>
    <use xlink:href="#ArialMT-61" x="1302.740234"/>
    <use xlink:href="#ArialMT-72" x="1358.355469"/>
    <use xlink:href="#ArialMT-69" x="1391.65625"/>
    <use xlink:href="#ArialMT-61" x="1413.873047"/>
    <use xlink:href="#ArialMT-62" x="1469.488281"/>
    <use xlink:href="#ArialMT-6c" x="1525.103516"/>
    <use xlink:href="#ArialMT-65" x="1547.320312"/>
    <use xlink:href="#ArialMT-73" x="1602.935547"/>
   </g>
  </g>
 </g>
 <defs>
  <clipPath id="p4d6ca4feb7">
   <rect x="34.36" y="43.92" width="1030.52" height="211.77875"/>
  </clipPath>
 </defs>
</svg>
