<?xml version="1.0" encoding="utf-8" standalone="no"?>
<!DOCTYPE svg PUBLIC "-//W3C//DTD SVG 1.1//EN"
  "http://www.w3.org/Graphics/SVG/1.1/DTD/svg11.dtd">
<svg xmlns:xlink="http://www.w3.org/1999/xlink" width="1080pt" height="288pt" viewBox="0 0 1080 288" xmlns="http://www.w3.org/2000/svg" version="1.1">
 <metadata>
  <rdf:RDF xmlns:dc="http://purl.org/dc/elements/1.1/" xmlns:cc="http://creativecommons.org/ns#" xmlns:rdf="http://www.w3.org/1999/02/22-rdf-syntax-ns#">
   <cc:Work>
    <dc:type rdf:resource="http://purl.org/dc/dcmitype/StillImage"/>
    <dc:date>2023-05-06T09:56:31.201678</dc:date>
    <dc:format>image/svg+xml</dc:format>
    <dc:creator>
     <cc:Agent>
      <dc:title>Matplotlib v3.5.3, https://matplotlib.org/</dc:title>
     </cc:Agent>
    </dc:creator>
   </cc:Work>
  </rdf:RDF>
 </metadata>
 <defs>
  <style type="text/css">*{stroke-linejoin: round; stroke-linecap: butt}</style>
 </defs>
 <g id="figure_1">
  <g id="patch_1">
   <path d="M 0 288 
L 1080 288 
L 1080 0 
L 0 0 
z
" style="fill: #f0f0f0"/>
  </g>
  <g id="axes_1">
   <g id="patch_2">
    <path d="M 34.36 255.69875 
L 1064.88 255.69875 
L 1064.88 43.92 
L 34.36 43.92 
z
" style="fill: #f0f0f0"/>
   </g>
   <g id="matplotlib.axis_1">
    <g id="xtick_1">
     <g id="text_1">
      <!-- cum_MP -->
      <g style="fill: #262626" transform="translate(77.069141 270.572344)scale(0.11 -0.11)">
       <defs>
        <path id="ArialMT-63" d="M 2588 1216 
L 3141 1144 
Q 3050 572 2676 248 
Q 2303 -75 1759 -75 
Q 1078 -75 664 370 
Q 250 816 250 1647 
Q 250 2184 428 2587 
Q 606 2991 970 3192 
Q 1334 3394 1763 3394 
Q 2303 3394 2647 3120 
Q 2991 2847 3088 2344 
L 2541 2259 
Q 2463 2594 2264 2762 
Q 2066 2931 1784 2931 
Q 1359 2931 1093 2626 
Q 828 2322 828 1663 
Q 828 994 1084 691 
Q 1341 388 1753 388 
Q 2084 388 2306 591 
Q 2528 794 2588 1216 
z
" transform="scale(0.015625)"/>
        <path id="ArialMT-75" d="M 2597 0 
L 2597 488 
Q 2209 -75 1544 -75 
Q 1250 -75 995 37 
Q 741 150 617 320 
Q 494 491 444 738 
Q 409 903 409 1263 
L 409 3319 
L 972 3319 
L 972 1478 
Q 972 1038 1006 884 
Q 1059 663 1231 536 
Q 1403 409 1656 409 
Q 1909 409 2131 539 
Q 2353 669 2445 892 
Q 2538 1116 2538 1541 
L 2538 3319 
L 3100 3319 
L 3100 0 
L 2597 0 
z
" transform="scale(0.015625)"/>
        <path id="ArialMT-6d" d="M 422 0 
L 422 3319 
L 925 3319 
L 925 2853 
Q 1081 3097 1340 3245 
Q 1600 3394 1931 3394 
Q 2300 3394 2536 3241 
Q 2772 3088 2869 2813 
Q 3263 3394 3894 3394 
Q 4388 3394 4653 3120 
Q 4919 2847 4919 2278 
L 4919 0 
L 4359 0 
L 4359 2091 
Q 4359 2428 4304 2576 
Q 4250 2725 4106 2815 
Q 3963 2906 3769 2906 
Q 3419 2906 3187 2673 
Q 2956 2441 2956 1928 
L 2956 0 
L 2394 0 
L 2394 2156 
Q 2394 2531 2256 2718 
Q 2119 2906 1806 2906 
Q 1569 2906 1367 2781 
Q 1166 2656 1075 2415 
Q 984 2175 984 1722 
L 984 0 
L 422 0 
z
" transform="scale(0.015625)"/>
        <path id="ArialMT-5f" d="M -97 -1272 
L -97 -866 
L 3631 -866 
L 3631 -1272 
L -97 -1272 
z
" transform="scale(0.015625)"/>
        <path id="ArialMT-4d" d="M 475 0 
L 475 4581 
L 1388 4581 
L 2472 1338 
Q 2622 884 2691 659 
Q 2769 909 2934 1394 
L 4031 4581 
L 4847 4581 
L 4847 0 
L 4263 0 
L 4263 3834 
L 2931 0 
L 2384 0 
L 1059 3900 
L 1059 0 
L 475 0 
z
" transform="scale(0.015625)"/>
        <path id="ArialMT-50" d="M 494 0 
L 494 4581 
L 2222 4581 
Q 2678 4581 2919 4538 
Q 3256 4481 3484 4323 
Q 3713 4166 3852 3881 
Q 3991 3597 3991 3256 
Q 3991 2672 3619 2267 
Q 3247 1863 2275 1863 
L 1100 1863 
L 1100 0 
L 494 0 
z
M 1100 2403 
L 2284 2403 
Q 2872 2403 3119 2622 
Q 3366 2841 3366 3238 
Q 3366 3525 3220 3729 
Q 3075 3934 2838 4000 
Q 2684 4041 2272 4041 
L 1100 4041 
L 1100 2403 
z
" transform="scale(0.015625)"/>
       </defs>
       <use xlink:href="#ArialMT-63"/>
       <use xlink:href="#ArialMT-75" x="50"/>
       <use xlink:href="#ArialMT-6d" x="105.615234"/>
       <use xlink:href="#ArialMT-5f" x="188.916016"/>
       <use xlink:href="#ArialMT-4d" x="244.53125"/>
       <use xlink:href="#ArialMT-50" x="327.832031"/>
      </g>
     </g>
    </g>
    <g id="xtick_2">
     <g id="text_2">
      <!-- cum_Min -->
      <g style="fill: #262626" transform="translate(205.272266 270.572344)scale(0.11 -0.11)">
       <defs>
        <path id="ArialMT-69" d="M 425 3934 
L 425 4581 
L 988 4581 
L 988 3934 
L 425 3934 
z
M 425 0 
L 425 3319 
L 988 3319 
L 988 0 
L 425 0 
z
" transform="scale(0.015625)"/>
        <path id="ArialMT-6e" d="M 422 0 
L 422 3319 
L 928 3319 
L 928 2847 
Q 1294 3394 1984 3394 
Q 2284 3394 2536 3286 
Q 2788 3178 2913 3003 
Q 3038 2828 3088 2588 
Q 3119 2431 3119 2041 
L 3119 0 
L 2556 0 
L 2556 2019 
Q 2556 2363 2490 2533 
Q 2425 2703 2258 2804 
Q 2091 2906 1866 2906 
Q 1506 2906 1245 2678 
Q 984 2450 984 1813 
L 984 0 
L 422 0 
z
" transform="scale(0.015625)"/>
       </defs>
       <use xlink:href="#ArialMT-63"/>
       <use xlink:href="#ArialMT-75" x="50"/>
       <use xlink:href="#ArialMT-6d" x="105.615234"/>
       <use xlink:href="#ArialMT-5f" x="188.916016"/>
       <use xlink:href="#ArialMT-4d" x="244.53125"/>
       <use xlink:href="#ArialMT-69" x="327.832031"/>
       <use xlink:href="#ArialMT-6e" x="350.048828"/>
      </g>
     </g>
    </g>
    <g id="xtick_3">
     <g id="text_3">
      <!-- cum_Gls -->
      <g style="fill: #262626" transform="translate(334.699141 270.706406)scale(0.11 -0.11)">
       <defs>
        <path id="ArialMT-47" d="M 2638 1797 
L 2638 2334 
L 4578 2338 
L 4578 638 
Q 4131 281 3656 101 
Q 3181 -78 2681 -78 
Q 2006 -78 1454 211 
Q 903 500 622 1047 
Q 341 1594 341 2269 
Q 341 2938 620 3517 
Q 900 4097 1425 4378 
Q 1950 4659 2634 4659 
Q 3131 4659 3532 4498 
Q 3934 4338 4162 4050 
Q 4391 3763 4509 3300 
L 3963 3150 
Q 3859 3500 3706 3700 
Q 3553 3900 3268 4020 
Q 2984 4141 2638 4141 
Q 2222 4141 1919 4014 
Q 1616 3888 1430 3681 
Q 1244 3475 1141 3228 
Q 966 2803 966 2306 
Q 966 1694 1177 1281 
Q 1388 869 1791 669 
Q 2194 469 2647 469 
Q 3041 469 3416 620 
Q 3791 772 3984 944 
L 3984 1797 
L 2638 1797 
z
" transform="scale(0.015625)"/>
        <path id="ArialMT-6c" d="M 409 0 
L 409 4581 
L 972 4581 
L 972 0 
L 409 0 
z
" transform="scale(0.015625)"/>
        <path id="ArialMT-73" d="M 197 991 
L 753 1078 
Q 800 744 1014 566 
Q 1228 388 1613 388 
Q 2000 388 2187 545 
Q 2375 703 2375 916 
Q 2375 1106 2209 1216 
Q 2094 1291 1634 1406 
Q 1016 1563 777 1677 
Q 538 1791 414 1992 
Q 291 2194 291 2438 
Q 291 2659 392 2848 
Q 494 3038 669 3163 
Q 800 3259 1026 3326 
Q 1253 3394 1513 3394 
Q 1903 3394 2198 3281 
Q 2494 3169 2634 2976 
Q 2775 2784 2828 2463 
L 2278 2388 
Q 2241 2644 2061 2787 
Q 1881 2931 1553 2931 
Q 1166 2931 1000 2803 
Q 834 2675 834 2503 
Q 834 2394 903 2306 
Q 972 2216 1119 2156 
Q 1203 2125 1616 2013 
Q 2213 1853 2448 1751 
Q 2684 1650 2818 1456 
Q 2953 1263 2953 975 
Q 2953 694 2789 445 
Q 2625 197 2315 61 
Q 2006 -75 1616 -75 
Q 969 -75 630 194 
Q 291 463 197 991 
z
" transform="scale(0.015625)"/>
       </defs>
       <use xlink:href="#ArialMT-63"/>
       <use xlink:href="#ArialMT-75" x="50"/>
       <use xlink:href="#ArialMT-6d" x="105.615234"/>
       <use xlink:href="#ArialMT-5f" x="188.916016"/>
       <use xlink:href="#ArialMT-47" x="244.53125"/>
       <use xlink:href="#ArialMT-6c" x="322.314453"/>
       <use xlink:href="#ArialMT-73" x="344.53125"/>
      </g>
     </g>
    </g>
    <g id="xtick_4">
     <g id="text_4">
      <!-- cum_Ast -->
      <g style="fill: #262626" transform="translate(463.8175 270.572344)scale(0.11 -0.11)">
       <defs>
        <path id="ArialMT-41" d="M -9 0 
L 1750 4581 
L 2403 4581 
L 4278 0 
L 3588 0 
L 3053 1388 
L 1138 1388 
L 634 0 
L -9 0 
z
M 1313 1881 
L 2866 1881 
L 2388 3150 
Q 2169 3728 2063 4100 
Q 1975 3659 1816 3225 
L 1313 1881 
z
" transform="scale(0.015625)"/>
        <path id="ArialMT-74" d="M 1650 503 
L 1731 6 
Q 1494 -44 1306 -44 
Q 1000 -44 831 53 
Q 663 150 594 308 
Q 525 466 525 972 
L 525 2881 
L 113 2881 
L 113 3319 
L 525 3319 
L 525 4141 
L 1084 4478 
L 1084 3319 
L 1650 3319 
L 1650 2881 
L 1084 2881 
L 1084 941 
Q 1084 700 1114 631 
Q 1144 563 1211 522 
Q 1278 481 1403 481 
Q 1497 481 1650 503 
z
" transform="scale(0.015625)"/>
       </defs>
       <use xlink:href="#ArialMT-63"/>
       <use xlink:href="#ArialMT-75" x="50"/>
       <use xlink:href="#ArialMT-6d" x="105.615234"/>
       <use xlink:href="#ArialMT-5f" x="188.916016"/>
       <use xlink:href="#ArialMT-41" x="244.53125"/>
       <use xlink:href="#ArialMT-73" x="311.230469"/>
       <use xlink:href="#ArialMT-74" x="361.230469"/>
      </g>
     </g>
    </g>
    <g id="xtick_5">
     <g id="text_5">
      <!-- cum_PK -->
      <g style="fill: #262626" transform="translate(593.241797 270.572344)scale(0.11 -0.11)">
       <defs>
        <path id="ArialMT-4b" d="M 469 0 
L 469 4581 
L 1075 4581 
L 1075 2309 
L 3350 4581 
L 4172 4581 
L 2250 2725 
L 4256 0 
L 3456 0 
L 1825 2319 
L 1075 1588 
L 1075 0 
L 469 0 
z
" transform="scale(0.015625)"/>
       </defs>
       <use xlink:href="#ArialMT-63"/>
       <use xlink:href="#ArialMT-75" x="50"/>
       <use xlink:href="#ArialMT-6d" x="105.615234"/>
       <use xlink:href="#ArialMT-5f" x="188.916016"/>
       <use xlink:href="#ArialMT-50" x="244.53125"/>
       <use xlink:href="#ArialMT-4b" x="311.230469"/>
      </g>
     </g>
    </g>
    <g id="xtick_6">
     <g id="text_6">
      <!-- cum_CrdY -->
      <g style="fill: #262626" transform="translate(716.863594 270.706406)scale(0.11 -0.11)">
       <defs>
        <path id="ArialMT-43" d="M 3763 1606 
L 4369 1453 
Q 4178 706 3683 314 
Q 3188 -78 2472 -78 
Q 1731 -78 1267 223 
Q 803 525 561 1097 
Q 319 1669 319 2325 
Q 319 3041 592 3573 
Q 866 4106 1370 4382 
Q 1875 4659 2481 4659 
Q 3169 4659 3637 4309 
Q 4106 3959 4291 3325 
L 3694 3184 
Q 3534 3684 3231 3912 
Q 2928 4141 2469 4141 
Q 1941 4141 1586 3887 
Q 1231 3634 1087 3207 
Q 944 2781 944 2328 
Q 944 1744 1114 1308 
Q 1284 872 1643 656 
Q 2003 441 2422 441 
Q 2931 441 3284 734 
Q 3638 1028 3763 1606 
z
" transform="scale(0.015625)"/>
        <path id="ArialMT-72" d="M 416 0 
L 416 3319 
L 922 3319 
L 922 2816 
Q 1116 3169 1280 3281 
Q 1444 3394 1641 3394 
Q 1925 3394 2219 3213 
L 2025 2691 
Q 1819 2813 1613 2813 
Q 1428 2813 1281 2702 
Q 1134 2591 1072 2394 
Q 978 2094 978 1738 
L 978 0 
L 416 0 
z
" transform="scale(0.015625)"/>
        <path id="ArialMT-64" d="M 2575 0 
L 2575 419 
Q 2259 -75 1647 -75 
Q 1250 -75 917 144 
Q 584 363 401 755 
Q 219 1147 219 1656 
Q 219 2153 384 2558 
Q 550 2963 881 3178 
Q 1213 3394 1622 3394 
Q 1922 3394 2156 3267 
Q 2391 3141 2538 2938 
L 2538 4581 
L 3097 4581 
L 3097 0 
L 2575 0 
z
M 797 1656 
Q 797 1019 1065 703 
Q 1334 388 1700 388 
Q 2069 388 2326 689 
Q 2584 991 2584 1609 
Q 2584 2291 2321 2609 
Q 2059 2928 1675 2928 
Q 1300 2928 1048 2622 
Q 797 2316 797 1656 
z
" transform="scale(0.015625)"/>
        <path id="ArialMT-59" d="M 1784 0 
L 1784 1941 
L 19 4581 
L 756 4581 
L 1659 3200 
Q 1909 2813 2125 2425 
Q 2331 2784 2625 3234 
L 3513 4581 
L 4219 4581 
L 2391 1941 
L 2391 0 
L 1784 0 
z
" transform="scale(0.015625)"/>
       </defs>
       <use xlink:href="#ArialMT-63"/>
       <use xlink:href="#ArialMT-75" x="50"/>
       <use xlink:href="#ArialMT-6d" x="105.615234"/>
       <use xlink:href="#ArialMT-5f" x="188.916016"/>
       <use xlink:href="#ArialMT-43" x="244.53125"/>
       <use xlink:href="#ArialMT-72" x="316.748047"/>
       <use xlink:href="#ArialMT-64" x="350.048828"/>
       <use xlink:href="#ArialMT-59" x="405.664062"/>
      </g>
     </g>
    </g>
    <g id="xtick_7">
     <g id="text_7">
      <!-- cum_CrdR -->
      <g style="fill: #262626" transform="translate(845.375234 270.706406)scale(0.11 -0.11)">
       <defs>
        <path id="ArialMT-52" d="M 503 0 
L 503 4581 
L 2534 4581 
Q 3147 4581 3465 4457 
Q 3784 4334 3975 4021 
Q 4166 3709 4166 3331 
Q 4166 2844 3850 2509 
Q 3534 2175 2875 2084 
Q 3116 1969 3241 1856 
Q 3506 1613 3744 1247 
L 4541 0 
L 3778 0 
L 3172 953 
Q 2906 1366 2734 1584 
Q 2563 1803 2427 1890 
Q 2291 1978 2150 2013 
Q 2047 2034 1813 2034 
L 1109 2034 
L 1109 0 
L 503 0 
z
M 1109 2559 
L 2413 2559 
Q 2828 2559 3062 2645 
Q 3297 2731 3419 2920 
Q 3541 3109 3541 3331 
Q 3541 3656 3305 3865 
Q 3069 4075 2559 4075 
L 1109 4075 
L 1109 2559 
z
" transform="scale(0.015625)"/>
       </defs>
       <use xlink:href="#ArialMT-63"/>
       <use xlink:href="#ArialMT-75" x="50"/>
       <use xlink:href="#ArialMT-6d" x="105.615234"/>
       <use xlink:href="#ArialMT-5f" x="188.916016"/>
       <use xlink:href="#ArialMT-43" x="244.53125"/>
       <use xlink:href="#ArialMT-72" x="316.748047"/>
       <use xlink:href="#ArialMT-64" x="350.048828"/>
       <use xlink:href="#ArialMT-52" x="405.664062"/>
      </g>
     </g>
    </g>
    <g id="xtick_8">
     <g id="text_8">
      <!-- cum_GlsxMin -->
      <g style="fill: #262626" transform="translate(967.162266 270.706406)scale(0.11 -0.11)">
       <defs>
        <path id="ArialMT-78" d="M 47 0 
L 1259 1725 
L 138 3319 
L 841 3319 
L 1350 2541 
Q 1494 2319 1581 2169 
Q 1719 2375 1834 2534 
L 2394 3319 
L 3066 3319 
L 1919 1756 
L 3153 0 
L 2463 0 
L 1781 1031 
L 1600 1309 
L 728 0 
L 47 0 
z
" transform="scale(0.015625)"/>
       </defs>
       <use xlink:href="#ArialMT-63"/>
       <use xlink:href="#ArialMT-75" x="50"/>
       <use xlink:href="#ArialMT-6d" x="105.615234"/>
       <use xlink:href="#ArialMT-5f" x="188.916016"/>
       <use xlink:href="#ArialMT-47" x="244.53125"/>
       <use xlink:href="#ArialMT-6c" x="322.314453"/>
       <use xlink:href="#ArialMT-73" x="344.53125"/>
       <use xlink:href="#ArialMT-78" x="394.53125"/>
       <use xlink:href="#ArialMT-4d" x="444.53125"/>
       <use xlink:href="#ArialMT-69" x="527.832031"/>
       <use xlink:href="#ArialMT-6e" x="550.048828"/>
      </g>
     </g>
    </g>
   </g>
   <g id="matplotlib.axis_2">
    <g id="ytick_1">
     <g id="line2d_1">
      <path d="M 34.36 229.106759 
L 1064.88 229.106759 
" clip-path="url(#p03e30805a0)" style="fill: none; stroke: #cbcbcb"/>
     </g>
     <g id="text_9">
      <!-- 0 -->
      <g style="fill: #262626" transform="translate(21.242969 233.043556)scale(0.11 -0.11)">
       <defs>
        <path id="ArialMT-30" d="M 266 2259 
Q 266 3072 433 3567 
Q 600 4063 929 4331 
Q 1259 4600 1759 4600 
Q 2128 4600 2406 4451 
Q 2684 4303 2865 4023 
Q 3047 3744 3150 3342 
Q 3253 2941 3253 2259 
Q 3253 1453 3087 958 
Q 2922 463 2592 192 
Q 2263 -78 1759 -78 
Q 1097 -78 719 397 
Q 266 969 266 2259 
z
M 844 2259 
Q 844 1131 1108 757 
Q 1372 384 1759 384 
Q 2147 384 2411 759 
Q 2675 1134 2675 2259 
Q 2675 3391 2411 3762 
Q 2147 4134 1753 4134 
Q 1366 4134 1134 3806 
Q 844 3388 844 2259 
z
" transform="scale(0.015625)"/>
       </defs>
       <use xlink:href="#ArialMT-30"/>
      </g>
     </g>
    </g>
    <g id="ytick_2">
     <g id="line2d_2">
      <path d="M 34.36 187.351985 
L 1064.88 187.351985 
" clip-path="url(#p03e30805a0)" style="fill: none; stroke: #cbcbcb"/>
     </g>
     <g id="text_10">
      <!-- 5 -->
      <g style="fill: #262626" transform="translate(21.242969 191.288782)scale(0.11 -0.11)">
       <defs>
        <path id="ArialMT-35" d="M 266 1200 
L 856 1250 
Q 922 819 1161 601 
Q 1400 384 1738 384 
Q 2144 384 2425 690 
Q 2706 997 2706 1503 
Q 2706 1984 2436 2262 
Q 2166 2541 1728 2541 
Q 1456 2541 1237 2417 
Q 1019 2294 894 2097 
L 366 2166 
L 809 4519 
L 3088 4519 
L 3088 3981 
L 1259 3981 
L 1013 2750 
Q 1425 3038 1878 3038 
Q 2478 3038 2890 2622 
Q 3303 2206 3303 1553 
Q 3303 931 2941 478 
Q 2500 -78 1738 -78 
Q 1113 -78 717 272 
Q 322 622 266 1200 
z
" transform="scale(0.015625)"/>
       </defs>
       <use xlink:href="#ArialMT-35"/>
      </g>
     </g>
    </g>
    <g id="ytick_3">
     <g id="line2d_3">
      <path d="M 34.36 145.597212 
L 1064.88 145.597212 
" clip-path="url(#p03e30805a0)" style="fill: none; stroke: #cbcbcb"/>
     </g>
     <g id="text_11">
      <!-- 10 -->
      <g style="fill: #262626" transform="translate(15.125938 149.534009)scale(0.11 -0.11)">
       <defs>
        <path id="ArialMT-31" d="M 2384 0 
L 1822 0 
L 1822 3584 
Q 1619 3391 1289 3197 
Q 959 3003 697 2906 
L 697 3450 
Q 1169 3672 1522 3987 
Q 1875 4303 2022 4600 
L 2384 4600 
L 2384 0 
z
" transform="scale(0.015625)"/>
       </defs>
       <use xlink:href="#ArialMT-31"/>
       <use xlink:href="#ArialMT-30" x="55.615234"/>
      </g>
     </g>
    </g>
    <g id="ytick_4">
     <g id="line2d_4">
      <path d="M 34.36 103.842439 
L 1064.88 103.842439 
" clip-path="url(#p03e30805a0)" style="fill: none; stroke: #cbcbcb"/>
     </g>
     <g id="text_12">
      <!-- 15 -->
      <g style="fill: #262626" transform="translate(15.125938 107.779236)scale(0.11 -0.11)">
       <use xlink:href="#ArialMT-31"/>
       <use xlink:href="#ArialMT-35" x="55.615234"/>
      </g>
     </g>
    </g>
    <g id="ytick_5">
     <g id="line2d_5">
      <path d="M 34.36 62.087666 
L 1064.88 62.087666 
" clip-path="url(#p03e30805a0)" style="fill: none; stroke: #cbcbcb"/>
     </g>
     <g id="text_13">
      <!-- 20 -->
      <g style="fill: #262626" transform="translate(15.125938 66.024463)scale(0.11 -0.11)">
       <defs>
        <path id="ArialMT-32" d="M 3222 541 
L 3222 0 
L 194 0 
Q 188 203 259 391 
Q 375 700 629 1000 
Q 884 1300 1366 1694 
Q 2113 2306 2375 2664 
Q 2638 3022 2638 3341 
Q 2638 3675 2398 3904 
Q 2159 4134 1775 4134 
Q 1369 4134 1125 3890 
Q 881 3647 878 3216 
L 300 3275 
Q 359 3922 746 4261 
Q 1134 4600 1788 4600 
Q 2447 4600 2831 4234 
Q 3216 3869 3216 3328 
Q 3216 3053 3103 2787 
Q 2991 2522 2730 2228 
Q 2469 1934 1863 1422 
Q 1356 997 1212 845 
Q 1069 694 975 541 
L 3222 541 
z
" transform="scale(0.015625)"/>
       </defs>
       <use xlink:href="#ArialMT-32"/>
       <use xlink:href="#ArialMT-30" x="55.615234"/>
      </g>
     </g>
    </g>
   </g>
   <g id="PolyCollection_1">
    <defs>
     <path id="m73d97eebaf" d="M 101.570496 -41.927557 
L 95.964504 -41.927557 
L 94.907357 -42.295641 
L 93.559348 -42.663725 
L 91.881616 -43.031809 
L 89.843927 -43.399893 
L 87.42942 -43.767977 
L 84.63909 -44.136061 
L 81.495408 -44.504145 
L 78.044435 -44.872229 
L 74.355941 -45.240313 
L 70.521231 -45.608397 
L 66.648693 -45.976481 
L 62.857366 -46.344565 
L 59.269163 -46.71265 
L 56.000548 -47.080734 
L 53.154566 -47.448818 
L 50.814059 -47.816902 
L 49.036711 -48.184986 
L 47.852312 -48.55307 
L 47.262317 -48.921154 
L 47.2415 -49.289238 
L 47.741326 -49.657322 
L 48.694516 -50.025406 
L 50.020278 -50.39349 
L 51.629729 -50.761574 
L 53.43113 -51.129658 
L 55.334638 -51.497742 
L 57.256424 -51.865826 
L 59.122014 -52.23391 
L 60.868813 -52.601994 
L 62.447755 -52.970078 
L 63.824081 -53.338162 
L 64.977267 -53.706247 
L 65.900151 -54.074331 
L 66.597402 -54.442415 
L 67.083476 -54.810499 
L 67.380265 -55.178583 
L 67.514665 -55.546667 
L 67.51624 -55.914751 
L 67.415147 -56.282835 
L 67.240404 -56.650919 
L 67.018541 -57.019003 
L 66.772575 -57.387087 
L 66.521267 -57.755171 
L 66.27856 -58.123255 
L 66.053136 -58.491339 
L 65.848065 -58.859423 
L 65.660537 -59.227507 
L 65.481744 -59.595591 
L 65.296996 -59.963675 
L 65.086177 -60.331759 
L 64.824652 -60.699844 
L 64.484703 -61.067928 
L 64.037514 -61.436012 
L 63.455677 -61.804096 
L 62.716059 -62.17218 
L 61.802817 -62.540264 
L 60.710264 -62.908348 
L 59.445236 -63.276432 
L 58.028631 -63.644516 
L 56.495826 -64.0126 
L 54.895821 -64.380684 
L 53.289061 -64.748768 
L 51.744087 -65.116852 
L 50.333283 -65.484936 
L 49.128133 -65.85302 
L 48.19444 -66.221104 
L 47.587988 -66.589188 
L 47.351034 -66.957272 
L 47.509964 -67.325357 
L 48.074252 -67.693441 
L 49.036773 -68.061525 
L 50.375335 -68.429609 
L 52.055202 -68.797693 
L 54.032281 -69.165777 
L 56.256619 -69.533861 
L 58.675833 -69.901945 
L 61.238135 -70.270029 
L 63.89472 -70.638113 
L 66.60135 -71.006197 
L 69.319109 -71.374281 
L 72.014415 -71.742365 
L 74.658482 -72.110449 
L 77.226457 -72.478533 
L 79.696522 -72.846617 
L 82.049161 -73.214701 
L 84.266776 -73.582785 
L 86.333688 -73.950869 
L 88.236519 -74.318954 
L 89.964797 -74.687038 
L 91.511653 -75.055122 
L 92.874407 -75.423206 
L 94.054894 -75.79129 
L 95.059455 -76.159374 
L 95.898546 -76.527458 
L 96.586019 -76.895542 
L 97.138175 -77.263626 
L 97.572701 -77.63171 
L 97.90762 -77.999794 
L 98.160372 -78.367878 
L 99.374628 -78.367878 
L 99.374628 -78.367878 
L 99.62738 -77.999794 
L 99.962299 -77.63171 
L 100.396825 -77.263626 
L 100.948981 -76.895542 
L 101.636454 -76.527458 
L 102.475545 -76.159374 
L 103.480106 -75.79129 
L 104.660593 -75.423206 
L 106.023347 -75.055122 
L 107.570203 -74.687038 
L 109.298481 -74.318954 
L 111.201312 -73.950869 
L 113.268224 -73.582785 
L 115.485839 -73.214701 
L 117.838478 -72.846617 
L 120.308543 -72.478533 
L 122.876518 -72.110449 
L 125.520585 -71.742365 
L 128.215891 -71.374281 
L 130.93365 -71.006197 
L 133.64028 -70.638113 
L 136.296865 -70.270029 
L 138.859167 -69.901945 
L 141.278381 -69.533861 
L 143.502719 -69.165777 
L 145.479798 -68.797693 
L 147.159665 -68.429609 
L 148.498227 -68.061525 
L 149.460748 -67.693441 
L 150.025036 -67.325357 
L 150.183966 -66.957272 
L 149.947012 -66.589188 
L 149.34056 -66.221104 
L 148.406867 -65.85302 
L 147.201717 -65.484936 
L 145.790913 -65.116852 
L 144.245939 -64.748768 
L 142.639179 -64.380684 
L 141.039174 -64.0126 
L 139.506369 -63.644516 
L 138.089764 -63.276432 
L 136.824736 -62.908348 
L 135.732183 -62.540264 
L 134.818941 -62.17218 
L 134.079323 -61.804096 
L 133.497486 -61.436012 
L 133.050297 -61.067928 
L 132.710348 -60.699844 
L 132.448823 -60.331759 
L 132.238004 -59.963675 
L 132.053256 -59.595591 
L 131.874463 -59.227507 
L 131.686935 -58.859423 
L 131.481864 -58.491339 
L 131.25644 -58.123255 
L 131.013733 -57.755171 
L 130.762425 -57.387087 
L 130.516459 -57.019003 
L 130.294596 -56.650919 
L 130.119853 -56.282835 
L 130.01876 -55.914751 
L 130.020335 -55.546667 
L 130.154735 -55.178583 
L 130.451524 -54.810499 
L 130.937598 -54.442415 
L 131.634849 -54.074331 
L 132.557733 -53.706247 
L 133.710919 -53.338162 
L 135.087245 -52.970078 
L 136.666187 -52.601994 
L 138.412986 -52.23391 
L 140.278576 -51.865826 
L 142.200362 -51.497742 
L 144.10387 -51.129658 
L 145.905271 -50.761574 
L 147.514722 -50.39349 
L 148.840484 -50.025406 
L 149.793674 -49.657322 
L 150.2935 -49.289238 
L 150.272683 -48.921154 
L 149.682688 -48.55307 
L 148.498289 -48.184986 
L 146.720941 -47.816902 
L 144.380434 -47.448818 
L 141.534452 -47.080734 
L 138.265837 -46.71265 
L 134.677634 -46.344565 
L 130.886307 -45.976481 
L 127.013769 -45.608397 
L 123.179059 -45.240313 
L 119.490565 -44.872229 
L 116.039592 -44.504145 
L 112.89591 -44.136061 
L 110.10558 -43.767977 
L 107.691073 -43.399893 
L 105.653384 -43.031809 
L 103.975652 -42.663725 
L 102.627643 -42.295641 
L 101.570496 -41.927557 
z
" style="stroke: #3e3e3e; stroke-width: 3"/>
    </defs>
    <g clip-path="url(#p03e30805a0)">
     <use xlink:href="#m73d97eebaf" x="0" y="288" style="fill: #cb3335; stroke: #3e3e3e; stroke-width: 3"/>
    </g>
   </g>
   <g id="PolyCollection_2">
    <defs>
     <path id="m574ec65657" d="M 230.377192 -43.686104 
L 224.787808 -43.686104 
L 223.628462 -44.074315 
L 222.117327 -44.462526 
L 220.20184 -44.850738 
L 217.84166 -45.238949 
L 215.016422 -45.62716 
L 211.733201 -46.015372 
L 208.032523 -46.403583 
L 203.991652 -46.791794 
L 199.724124 -47.180006 
L 195.374912 -47.568217 
L 191.111266 -47.956428 
L 187.109969 -48.34464 
L 183.542413 -48.732851 
L 180.559368 -49.121062 
L 178.277431 -49.509274 
L 176.768921 -49.897485 
L 176.0565 -50.285696 
L 176.113013 -50.673908 
L 176.866306 -51.062119 
L 178.208093 -51.45033 
L 180.005495 -51.838542 
L 182.113694 -52.226753 
L 184.388208 -52.614964 
L 186.6956 -53.003176 
L 188.921772 -53.391387 
L 190.977433 -53.779598 
L 192.800677 -54.16781 
L 194.356882 -54.556021 
L 195.636376 -54.944232 
L 196.650418 -55.332444 
L 197.42611 -55.720655 
L 198.000885 -56.108866 
L 198.417136 -56.497077 
L 198.717483 -56.885289 
L 198.94102 -57.2735 
L 199.120716 -57.661711 
L 199.282005 -58.049923 
L 199.442418 -58.438134 
L 199.61204 -58.826345 
L 199.794539 -59.214557 
L 199.988489 -59.602768 
L 200.18879 -59.990979 
L 200.38803 -60.379191 
L 200.577713 -60.767402 
L 200.749297 -61.155613 
L 200.89503 -61.543825 
L 201.00857 -61.932036 
L 201.085383 -62.320247 
L 201.122906 -62.708459 
L 201.120508 -63.09667 
L 201.079262 -63.484881 
L 201.001634 -63.873093 
L 200.891168 -64.261304 
L 200.752293 -64.649515 
L 200.590312 -65.037727 
L 200.411645 -65.425938 
L 200.224259 -65.814149 
L 200.038206 -66.202361 
L 199.866089 -66.590572 
L 199.723274 -66.978783 
L 199.627675 -67.366995 
L 199.599019 -67.755206 
L 199.65758 -68.143417 
L 199.822507 -68.531629 
L 200.10996 -68.91984 
L 200.531352 -69.308051 
L 201.091983 -69.696263 
L 201.790319 -70.084474 
L 202.618061 -70.472685 
L 203.561014 -70.860897 
L 204.600624 -71.249108 
L 205.715935 -71.637319 
L 206.885661 -72.025531 
L 208.090038 -72.413742 
L 209.312207 -72.801953 
L 210.538942 -73.190165 
L 211.760701 -73.578376 
L 212.971066 -73.966587 
L 214.165764 -74.354799 
L 215.341496 -74.74301 
L 216.494826 -75.131221 
L 217.621323 -75.519433 
L 218.715092 -75.907644 
L 219.768734 -76.295855 
L 220.77371 -76.684067 
L 221.720981 -77.072278 
L 222.601829 -77.460489 
L 223.408667 -77.848701 
L 224.13576 -78.236912 
L 224.779719 -78.625123 
L 225.339757 -79.013335 
L 225.817676 -79.401546 
L 226.217622 -79.789757 
L 226.545661 -80.177969 
L 226.809247 -80.56618 
L 227.016643 -80.954391 
L 227.176376 -81.342603 
L 227.296751 -81.730814 
L 227.385485 -82.119025 
L 227.779515 -82.119025 
L 227.779515 -82.119025 
L 227.868249 -81.730814 
L 227.988624 -81.342603 
L 228.148357 -80.954391 
L 228.355753 -80.56618 
L 228.619339 -80.177969 
L 228.947378 -79.789757 
L 229.347324 -79.401546 
L 229.825243 -79.013335 
L 230.385281 -78.625123 
L 231.02924 -78.236912 
L 231.756333 -77.848701 
L 232.563171 -77.460489 
L 233.444019 -77.072278 
L 234.39129 -76.684067 
L 235.396266 -76.295855 
L 236.449908 -75.907644 
L 237.543677 -75.519433 
L 238.670174 -75.131221 
L 239.823504 -74.74301 
L 240.999236 -74.354799 
L 242.193934 -73.966587 
L 243.404299 -73.578376 
L 244.626058 -73.190165 
L 245.852793 -72.801953 
L 247.074962 -72.413742 
L 248.279339 -72.025531 
L 249.449065 -71.637319 
L 250.564376 -71.249108 
L 251.603986 -70.860897 
L 252.546939 -70.472685 
L 253.374681 -70.084474 
L 254.073017 -69.696263 
L 254.633648 -69.308051 
L 255.05504 -68.91984 
L 255.342493 -68.531629 
L 255.50742 -68.143417 
L 255.565981 -67.755206 
L 255.537325 -67.366995 
L 255.441726 -66.978783 
L 255.298911 -66.590572 
L 255.126794 -66.202361 
L 254.940741 -65.814149 
L 254.753355 -65.425938 
L 254.574688 -65.037727 
L 254.412707 -64.649515 
L 254.273832 -64.261304 
L 254.163366 -63.873093 
L 254.085738 -63.484881 
L 254.044492 -63.09667 
L 254.042094 -62.708459 
L 254.079617 -62.320247 
L 254.15643 -61.932036 
L 254.26997 -61.543825 
L 254.415703 -61.155613 
L 254.587287 -60.767402 
L 254.77697 -60.379191 
L 254.97621 -59.990979 
L 255.176511 -59.602768 
L 255.370461 -59.214557 
L 255.55296 -58.826345 
L 255.722582 -58.438134 
L 255.882995 -58.049923 
L 256.044284 -57.661711 
L 256.22398 -57.2735 
L 256.447517 -56.885289 
L 256.747864 -56.497077 
L 257.164115 -56.108866 
L 257.73889 -55.720655 
L 258.514582 -55.332444 
L 259.528624 -54.944232 
L 260.808118 -54.556021 
L 262.364323 -54.16781 
L 264.187567 -53.779598 
L 266.243228 -53.391387 
L 268.4694 -53.003176 
L 270.776792 -52.614964 
L 273.051306 -52.226753 
L 275.159505 -51.838542 
L 276.956907 -51.45033 
L 278.298694 -51.062119 
L 279.051987 -50.673908 
L 279.1085 -50.285696 
L 278.396079 -49.897485 
L 276.887569 -49.509274 
L 274.605632 -49.121062 
L 271.622587 -48.732851 
L 268.055031 -48.34464 
L 264.053734 -47.956428 
L 259.790088 -47.568217 
L 255.440876 -47.180006 
L 251.173348 -46.791794 
L 247.132477 -46.403583 
L 243.431799 -46.015372 
L 240.148578 -45.62716 
L 237.32334 -45.238949 
L 234.96316 -44.850738 
L 233.047673 -44.462526 
L 231.536538 -44.074315 
L 230.377192 -43.686104 
z
" style="stroke: #3e3e3e; stroke-width: 3"/>
    </defs>
    <g clip-path="url(#p03e30805a0)">
     <use xlink:href="#m574ec65657" x="0" y="288" style="fill: #477ca8; stroke: #3e3e3e; stroke-width: 3"/>
    </g>
   </g>
   <g id="PolyCollection_3">
    <defs>
     <path id="mcdb513fa01" d="M 361.578489 -49.59116 
L 351.216511 -49.59116 
L 347.585184 -50.263623 
L 342.453185 -50.936085 
L 335.852741 -51.608547 
L 328.182699 -52.28101 
L 320.227764 -52.953472 
L 313.03438 -53.625934 
L 307.658584 -54.298397 
L 304.8715 -54.970859 
L 304.942457 -55.643321 
L 307.590601 -56.315784 
L 312.11691 -56.988246 
L 317.646603 -57.660708 
L 323.373971 -58.333171 
L 328.722375 -59.005633 
L 333.388661 -59.678096 
L 337.295608 -60.350558 
L 340.502398 -61.02302 
L 343.119155 -61.695483 
L 345.251237 -62.367945 
L 346.977619 -63.040407 
L 348.354045 -63.71287 
L 349.426895 -64.385332 
L 350.245627 -65.057794 
L 350.867134 -65.730257 
L 351.35159 -66.402719 
L 351.753859 -67.075181 
L 352.115815 -67.747644 
L 352.463162 -68.420106 
L 352.807141 -69.092568 
L 353.148997 -69.765031 
L 353.484566 -70.437493 
L 353.807435 -71.109955 
L 354.110612 -71.782418 
L 354.387382 -72.45488 
L 354.631875 -73.127342 
L 354.839502 -73.799805 
L 355.007276 -74.472267 
L 355.134144 -75.14473 
L 355.221395 -75.817192 
L 355.272942 -76.489654 
L 355.295092 -77.162117 
L 355.295634 -77.834579 
L 355.2825 -78.507041 
L 355.262555 -79.179504 
L 355.24088 -79.851966 
L 355.220553 -80.524428 
L 355.202734 -81.196891 
L 355.186926 -81.869353 
L 355.171505 -82.541815 
L 355.15451 -83.214278 
L 355.134482 -83.88674 
L 355.110931 -84.559202 
L 355.084269 -85.231665 
L 355.055438 -85.904127 
L 355.0258 -86.576589 
L 354.997675 -87.249052 
L 354.97536 -87.921514 
L 354.965881 -88.593976 
L 354.97853 -89.266439 
L 355.02273 -89.938901 
L 355.10471 -90.611363 
L 355.224283 -91.283826 
L 355.373287 -91.956288 
L 355.536603 -92.628751 
L 355.695635 -93.301213 
L 355.833039 -93.973675 
L 355.937073 -94.646138 
L 356.00414 -95.3186 
L 356.038862 -95.991062 
L 356.051891 -96.663525 
L 356.056344 -97.335987 
L 356.06406 -98.008449 
L 356.08278 -98.680912 
L 356.114941 -99.353374 
L 356.158163 -100.025836 
L 356.206987 -100.698299 
L 356.255041 -101.370761 
L 356.296851 -102.043223 
L 356.328776 -102.715686 
L 356.349022 -103.388148 
L 356.357036 -104.06061 
L 356.352813 -104.733073 
L 356.336533 -105.405535 
L 356.308737 -106.077997 
L 356.270913 -106.75046 
L 356.226155 -107.422922 
L 356.179419 -108.095384 
L 356.137089 -108.767847 
L 356.105821 -109.440309 
L 356.090987 -110.112772 
L 356.09526 -110.785234 
L 356.117872 -111.457696 
L 356.154849 -112.130159 
L 356.20012 -112.802621 
L 356.247116 -113.475083 
L 356.29028 -114.147546 
L 356.326034 -114.820008 
L 356.353013 -115.49247 
L 356.371662 -116.164933 
L 356.423338 -116.164933 
L 356.423338 -116.164933 
L 356.441987 -115.49247 
L 356.468966 -114.820008 
L 356.50472 -114.147546 
L 356.547884 -113.475083 
L 356.59488 -112.802621 
L 356.640151 -112.130159 
L 356.677128 -111.457696 
L 356.69974 -110.785234 
L 356.704013 -110.112772 
L 356.689179 -109.440309 
L 356.657911 -108.767847 
L 356.615581 -108.095384 
L 356.568845 -107.422922 
L 356.524087 -106.75046 
L 356.486263 -106.077997 
L 356.458467 -105.405535 
L 356.442187 -104.733073 
L 356.437964 -104.06061 
L 356.445978 -103.388148 
L 356.466224 -102.715686 
L 356.498149 -102.043223 
L 356.539959 -101.370761 
L 356.588013 -100.698299 
L 356.636837 -100.025836 
L 356.680059 -99.353374 
L 356.71222 -98.680912 
L 356.73094 -98.008449 
L 356.738656 -97.335987 
L 356.743109 -96.663525 
L 356.756138 -95.991062 
L 356.79086 -95.3186 
L 356.857927 -94.646138 
L 356.961961 -93.973675 
L 357.099365 -93.301213 
L 357.258397 -92.628751 
L 357.421713 -91.956288 
L 357.570717 -91.283826 
L 357.69029 -90.611363 
L 357.77227 -89.938901 
L 357.81647 -89.266439 
L 357.829119 -88.593976 
L 357.81964 -87.921514 
L 357.797325 -87.249052 
L 357.7692 -86.576589 
L 357.739562 -85.904127 
L 357.710731 -85.231665 
L 357.684069 -84.559202 
L 357.660518 -83.88674 
L 357.64049 -83.214278 
L 357.623495 -82.541815 
L 357.608074 -81.869353 
L 357.592266 -81.196891 
L 357.574447 -80.524428 
L 357.55412 -79.851966 
L 357.532445 -79.179504 
L 357.5125 -78.507041 
L 357.499366 -77.834579 
L 357.499908 -77.162117 
L 357.522058 -76.489654 
L 357.573605 -75.817192 
L 357.660856 -75.14473 
L 357.787724 -74.472267 
L 357.955498 -73.799805 
L 358.163125 -73.127342 
L 358.407618 -72.45488 
L 358.684388 -71.782418 
L 358.987565 -71.109955 
L 359.310434 -70.437493 
L 359.646003 -69.765031 
L 359.987859 -69.092568 
L 360.331838 -68.420106 
L 360.679185 -67.747644 
L 361.041141 -67.075181 
L 361.44341 -66.402719 
L 361.927866 -65.730257 
L 362.549373 -65.057794 
L 363.368105 -64.385332 
L 364.440955 -63.71287 
L 365.817381 -63.040407 
L 367.543763 -62.367945 
L 369.675845 -61.695483 
L 372.292602 -61.02302 
L 375.499392 -60.350558 
L 379.406339 -59.678096 
L 384.072625 -59.005633 
L 389.421029 -58.333171 
L 395.148397 -57.660708 
L 400.67809 -56.988246 
L 405.204399 -56.315784 
L 407.852543 -55.643321 
L 407.9235 -54.970859 
L 405.136416 -54.298397 
L 399.76062 -53.625934 
L 392.567236 -52.953472 
L 384.612301 -52.28101 
L 376.942259 -51.608547 
L 370.341815 -50.936085 
L 365.209816 -50.263623 
L 361.578489 -49.59116 
z
" style="stroke: #3e3e3e; stroke-width: 3"/>
    </defs>
    <g clip-path="url(#p03e30805a0)">
     <use xlink:href="#mcdb513fa01" x="0" y="288" style="fill: #59a257; stroke: #3e3e3e; stroke-width: 3"/>
    </g>
   </g>
   <g id="PolyCollection_4">
    <defs>
     <path id="m5527c607e8" d="M 491.000967 -48.675824 
L 479.424033 -48.675824 
L 475.67405 -49.315473 
L 470.506599 -49.955122 
L 463.987031 -50.594771 
L 456.510196 -51.234419 
L 448.809733 -51.874068 
L 441.847369 -52.513717 
L 436.595291 -53.153365 
L 433.780171 -53.793014 
L 433.6865 -54.432663 
L 436.097549 -55.072312 
L 440.391951 -55.71196 
L 445.746317 -56.351609 
L 451.357003 -56.991258 
L 456.603258 -57.630906 
L 461.115833 -58.270555 
L 464.760834 -58.910204 
L 467.574807 -59.549852 
L 469.688792 -60.189501 
L 471.265669 -60.82915 
L 472.45934 -61.468799 
L 473.393884 -62.108447 
L 474.156944 -62.748096 
L 474.802001 -63.387745 
L 475.355885 -64.027393 
L 475.829093 -64.667042 
L 476.226682 -65.306691 
L 476.557281 -65.94634 
L 476.838075 -66.585988 
L 477.094694 -67.225637 
L 477.356542 -67.865286 
L 477.649465 -68.504934 
L 477.988458 -69.144583 
L 478.373138 -69.784232 
L 478.787962 -70.423881 
L 479.207553 -71.063529 
L 479.605416 -71.703178 
L 479.96274 -72.342827 
L 480.273846 -72.982475 
L 480.546439 -73.622124 
L 480.797243 -74.261773 
L 481.045469 -74.901421 
L 481.306931 -75.54107 
L 481.590547 -76.180719 
L 481.8975 -76.820368 
L 482.222255 -77.460016 
L 482.554535 -78.099665 
L 482.881664 -78.739314 
L 483.190986 -79.378962 
L 483.472022 -80.018611 
L 483.717859 -80.65826 
L 483.925324 -81.297909 
L 484.093985 -81.937557 
L 484.224653 -82.577206 
L 484.318319 -83.216855 
L 484.376179 -83.856503 
L 484.400634 -84.496152 
L 484.396552 -85.135801 
L 484.371941 -85.77545 
L 484.337551 -86.415098 
L 484.305527 -87.054747 
L 484.287531 -87.694396 
L 484.292799 -88.334044 
L 484.326471 -88.973693 
L 484.388452 -89.613342 
L 484.473125 -90.252991 
L 484.570223 -90.892639 
L 484.666906 -91.532288 
L 484.750639 -92.171937 
L 484.812034 -92.811585 
L 484.846749 -93.451234 
L 484.855912 -94.090883 
L 484.845118 -94.730531 
L 484.822554 -95.37018 
L 484.797014 -96.009829 
L 484.776354 -96.649478 
L 484.766575 -97.289126 
L 484.771417 -97.928775 
L 484.792214 -98.568424 
L 484.827876 -99.208072 
L 484.87505 -99.847721 
L 484.928551 -100.48737 
L 484.982145 -101.127019 
L 485.029583 -101.766667 
L 485.065679 -102.406316 
L 485.087212 -103.045965 
L 485.093484 -103.685613 
L 485.086452 -104.325262 
L 485.070399 -104.964911 
L 485.051146 -105.60456 
L 485.034858 -106.244208 
L 485.026686 -106.883857 
L 485.029603 -107.523506 
L 485.043819 -108.163154 
L 485.067012 -108.802803 
L 485.095243 -109.442452 
L 485.124224 -110.082101 
L 485.150432 -110.721749 
L 485.171744 -111.361398 
L 485.187508 -112.001047 
L 485.237492 -112.001047 
L 485.237492 -112.001047 
L 485.253256 -111.361398 
L 485.274568 -110.721749 
L 485.300776 -110.082101 
L 485.329757 -109.442452 
L 485.357988 -108.802803 
L 485.381181 -108.163154 
L 485.395397 -107.523506 
L 485.398314 -106.883857 
L 485.390142 -106.244208 
L 485.373854 -105.60456 
L 485.354601 -104.964911 
L 485.338548 -104.325262 
L 485.331516 -103.685613 
L 485.337788 -103.045965 
L 485.359321 -102.406316 
L 485.395417 -101.766667 
L 485.442855 -101.127019 
L 485.496449 -100.48737 
L 485.54995 -99.847721 
L 485.597124 -99.208072 
L 485.632786 -98.568424 
L 485.653583 -97.928775 
L 485.658425 -97.289126 
L 485.648646 -96.649478 
L 485.627986 -96.009829 
L 485.602446 -95.37018 
L 485.579882 -94.730531 
L 485.569088 -94.090883 
L 485.578251 -93.451234 
L 485.612966 -92.811585 
L 485.674361 -92.171937 
L 485.758094 -91.532288 
L 485.854777 -90.892639 
L 485.951875 -90.252991 
L 486.036548 -89.613342 
L 486.098529 -88.973693 
L 486.132201 -88.334044 
L 486.137469 -87.694396 
L 486.119473 -87.054747 
L 486.087449 -86.415098 
L 486.053059 -85.77545 
L 486.028448 -85.135801 
L 486.024366 -84.496152 
L 486.048821 -83.856503 
L 486.106681 -83.216855 
L 486.200347 -82.577206 
L 486.331015 -81.937557 
L 486.499676 -81.297909 
L 486.707141 -80.65826 
L 486.952978 -80.018611 
L 487.234014 -79.378962 
L 487.543336 -78.739314 
L 487.870465 -78.099665 
L 488.202745 -77.460016 
L 488.5275 -76.820368 
L 488.834453 -76.180719 
L 489.118069 -75.54107 
L 489.379531 -74.901421 
L 489.627757 -74.261773 
L 489.878561 -73.622124 
L 490.151154 -72.982475 
L 490.46226 -72.342827 
L 490.819584 -71.703178 
L 491.217447 -71.063529 
L 491.637038 -70.423881 
L 492.051862 -69.784232 
L 492.436542 -69.144583 
L 492.775535 -68.504934 
L 493.068458 -67.865286 
L 493.330306 -67.225637 
L 493.586925 -66.585988 
L 493.867719 -65.94634 
L 494.198318 -65.306691 
L 494.595907 -64.667042 
L 495.069115 -64.027393 
L 495.622999 -63.387745 
L 496.268056 -62.748096 
L 497.031116 -62.108447 
L 497.96566 -61.468799 
L 499.159331 -60.82915 
L 500.736208 -60.189501 
L 502.850193 -59.549852 
L 505.664166 -58.910204 
L 509.309167 -58.270555 
L 513.821742 -57.630906 
L 519.067997 -56.991258 
L 524.678683 -56.351609 
L 530.033049 -55.71196 
L 534.327451 -55.072312 
L 536.7385 -54.432663 
L 536.644829 -53.793014 
L 533.829709 -53.153365 
L 528.577631 -52.513717 
L 521.615267 -51.874068 
L 513.914804 -51.234419 
L 506.437969 -50.594771 
L 499.918401 -49.955122 
L 494.75095 -49.315473 
L 491.000967 -48.675824 
z
" style="stroke: #3e3e3e; stroke-width: 3"/>
    </defs>
    <g clip-path="url(#p03e30805a0)">
     <use xlink:href="#m5527c607e8" x="0" y="288" style="fill: #905998; stroke: #3e3e3e; stroke-width: 3"/>
    </g>
   </g>
   <g id="PolyCollection_5">
    <defs>
     <path id="m94b2b28d77" d="M 620.957468 -52.238368 
L 607.097532 -52.238368 
L 599.564821 -53.238783 
L 588.493981 -54.239197 
L 575.891624 -55.239611 
L 565.838364 -56.240026 
L 562.5015 -57.24044 
L 567.388587 -58.240855 
L 578.245938 -59.241269 
L 590.665137 -60.241683 
L 600.868679 -61.242098 
L 607.344863 -62.242512 
L 610.581834 -63.242926 
L 611.870152 -64.243341 
L 612.339916 -65.243755 
L 612.618042 -66.24417 
L 612.903961 -67.244584 
L 613.178447 -68.244998 
L 613.380732 -69.245413 
L 613.49462 -70.245827 
L 613.551767 -71.246241 
L 613.596367 -72.246656 
L 613.653972 -73.24707 
L 613.722532 -74.247485 
L 613.781771 -75.247899 
L 613.808785 -76.248313 
L 613.789951 -77.248728 
L 613.726048 -78.249142 
L 613.633198 -79.249556 
L 613.541249 -80.249971 
L 613.485616 -81.250385 
L 613.490118 -82.2508 
L 613.550734 -83.251214 
L 613.636824 -84.251628 
L 613.712238 -85.252043 
L 613.758231 -86.252457 
L 613.77917 -87.252872 
L 613.790391 -88.253286 
L 613.802269 -89.2537 
L 613.813085 -90.254115 
L 613.813436 -91.254529 
L 613.796644 -92.254943 
L 613.766107 -93.255358 
L 613.733478 -94.255772 
L 613.710186 -95.256187 
L 613.701188 -96.256601 
L 613.70629 -97.257015 
L 613.724795 -98.25743 
L 613.756122 -99.257844 
L 613.795917 -100.258258 
L 613.834409 -101.258673 
L 613.861498 -102.259087 
L 613.874264 -103.259502 
L 613.878535 -104.259916 
L 613.882265 -105.26033 
L 613.887839 -106.260745 
L 613.891767 -107.261159 
L 613.891576 -108.261574 
L 613.891315 -109.261988 
L 613.898985 -110.262402 
L 613.918875 -111.262817 
L 613.947111 -112.263231 
L 613.974126 -113.263645 
L 613.990055 -114.26406 
L 613.987782 -115.264474 
L 613.963483 -116.264889 
L 613.918241 -117.265303 
L 613.861567 -118.265717 
L 613.812034 -119.266132 
L 613.790066 -120.266546 
L 613.805762 -121.26696 
L 613.852044 -122.267375 
L 613.909875 -123.267789 
L 613.960691 -124.268204 
L 613.995352 -125.268618 
L 614.014394 -126.269032 
L 614.022974 -127.269447 
L 614.026176 -128.269861 
L 614.027172 -129.270275 
L 614.027431 -130.27069 
L 614.027488 -131.271104 
L 614.027498 -132.271519 
L 614.0275 -133.271933 
L 614.027499 -134.272347 
L 614.027496 -135.272762 
L 614.027477 -136.273176 
L 614.027386 -137.273591 
L 614.027017 -138.274005 
L 614.025772 -139.274419 
L 614.02227 -140.274834 
L 614.014115 -141.275248 
L 613.998526 -142.275662 
L 613.974447 -143.276077 
L 613.945336 -144.276491 
L 613.919869 -145.276906 
L 613.908247 -146.27732 
L 613.915741 -147.277734 
L 613.938911 -148.278149 
L 613.968105 -149.278563 
L 613.993817 -150.278977 
L 614.011344 -151.279392 
L 614.043656 -151.279392 
L 614.043656 -151.279392 
L 614.061183 -150.278977 
L 614.086895 -149.278563 
L 614.116089 -148.278149 
L 614.139259 -147.277734 
L 614.146753 -146.27732 
L 614.135131 -145.276906 
L 614.109664 -144.276491 
L 614.080553 -143.276077 
L 614.056474 -142.275662 
L 614.040885 -141.275248 
L 614.03273 -140.274834 
L 614.029228 -139.274419 
L 614.027983 -138.274005 
L 614.027614 -137.273591 
L 614.027523 -136.273176 
L 614.027504 -135.272762 
L 614.027501 -134.272347 
L 614.0275 -133.271933 
L 614.027502 -132.271519 
L 614.027512 -131.271104 
L 614.027569 -130.27069 
L 614.027828 -129.270275 
L 614.028824 -128.269861 
L 614.032026 -127.269447 
L 614.040606 -126.269032 
L 614.059648 -125.268618 
L 614.094309 -124.268204 
L 614.145125 -123.267789 
L 614.202956 -122.267375 
L 614.249238 -121.26696 
L 614.264934 -120.266546 
L 614.242966 -119.266132 
L 614.193433 -118.265717 
L 614.136759 -117.265303 
L 614.091517 -116.264889 
L 614.067218 -115.264474 
L 614.064945 -114.26406 
L 614.080874 -113.263645 
L 614.107889 -112.263231 
L 614.136125 -111.262817 
L 614.156015 -110.262402 
L 614.163685 -109.261988 
L 614.163424 -108.261574 
L 614.163233 -107.261159 
L 614.167161 -106.260745 
L 614.172735 -105.26033 
L 614.176465 -104.259916 
L 614.180736 -103.259502 
L 614.193502 -102.259087 
L 614.220591 -101.258673 
L 614.259083 -100.258258 
L 614.298878 -99.257844 
L 614.330205 -98.25743 
L 614.34871 -97.257015 
L 614.353812 -96.256601 
L 614.344814 -95.256187 
L 614.321522 -94.255772 
L 614.288893 -93.255358 
L 614.258356 -92.254943 
L 614.241564 -91.254529 
L 614.241915 -90.254115 
L 614.252731 -89.2537 
L 614.264609 -88.253286 
L 614.27583 -87.252872 
L 614.296769 -86.252457 
L 614.342762 -85.252043 
L 614.418176 -84.251628 
L 614.504266 -83.251214 
L 614.564882 -82.2508 
L 614.569384 -81.250385 
L 614.513751 -80.249971 
L 614.421802 -79.249556 
L 614.328952 -78.249142 
L 614.265049 -77.248728 
L 614.246215 -76.248313 
L 614.273229 -75.247899 
L 614.332468 -74.247485 
L 614.401028 -73.24707 
L 614.458633 -72.246656 
L 614.503233 -71.246241 
L 614.56038 -70.245827 
L 614.674268 -69.245413 
L 614.876553 -68.244998 
L 615.151039 -67.244584 
L 615.436958 -66.24417 
L 615.715084 -65.243755 
L 616.184848 -64.243341 
L 617.473166 -63.242926 
L 620.710137 -62.242512 
L 627.186321 -61.242098 
L 637.389863 -60.241683 
L 649.809062 -59.241269 
L 660.666413 -58.240855 
L 665.5535 -57.24044 
L 662.216636 -56.240026 
L 652.163376 -55.239611 
L 639.561019 -54.239197 
L 628.490179 -53.238783 
L 620.957468 -52.238368 
z
" style="stroke: #3e3e3e; stroke-width: 3"/>
    </defs>
    <g clip-path="url(#p03e30805a0)">
     <use xlink:href="#m94b2b28d77" x="0" y="288" style="fill: #df7f20; stroke: #3e3e3e; stroke-width: 3"/>
    </g>
   </g>
   <g id="PolyCollection_6">
    <defs>
     <path id="m657d3ba1bb" d="M 747.574364 -46.170162 
L 738.110636 -46.170162 
L 735.676406 -46.687635 
L 732.442014 -47.205108 
L 728.368905 -47.722581 
L 723.516534 -48.240054 
L 718.061876 -48.757527 
L 712.297187 -49.275 
L 706.601232 -49.792473 
L 701.386729 -50.309946 
L 697.03476 -50.827419 
L 693.832107 -51.344892 
L 691.927408 -51.862365 
L 691.3165 -52.379838 
L 691.858369 -52.897311 
L 693.31449 -53.414784 
L 695.399083 -53.932257 
L 697.827482 -54.44973 
L 700.353353 -54.967203 
L 702.790745 -55.484676 
L 705.021492 -56.002149 
L 706.991125 -56.519622 
L 708.697283 -57.037095 
L 710.17434 -57.554568 
L 711.477318 -58.072041 
L 712.667456 -58.589514 
L 713.801011 -59.106987 
L 714.921962 -59.62446 
L 716.058435 -60.141933 
L 717.222087 -60.659406 
L 718.40954 -61.176879 
L 719.605114 -61.694352 
L 720.784414 -62.211825 
L 721.918516 -62.729298 
L 722.978518 -63.246771 
L 723.940088 -63.764244 
L 724.787455 -64.281717 
L 725.516184 -64.79919 
L 726.13412 -65.316663 
L 726.660188 -65.834136 
L 727.12122 -66.351609 
L 727.547572 -66.869082 
L 727.96859 -67.386555 
L 728.408982 -67.904028 
L 728.886677 -68.421501 
L 729.412112 -68.938974 
L 729.988453 -69.456447 
L 730.612119 -69.97392 
L 731.273358 -70.491393 
L 731.957019 -71.008866 
L 732.64395 -71.526339 
L 733.313278 -72.043812 
L 733.945421 -72.561285 
L 734.525167 -73.078758 
L 735.04396 -73.596231 
L 735.500697 -74.113704 
L 735.900889 -74.631177 
L 736.254568 -75.14865 
L 736.573754 -75.666123 
L 736.870288 -76.183596 
L 737.154545 -76.701069 
L 737.435079 -77.218542 
L 737.718838 -77.736015 
L 738.011429 -78.253488 
L 738.316998 -78.770961 
L 738.637618 -79.288434 
L 738.9724 -79.805907 
L 739.316792 -80.32338 
L 739.662523 -80.840853 
L 739.998474 -81.358326 
L 740.312398 -81.875799 
L 740.593122 -82.393272 
L 740.832669 -82.910745 
L 741.027726 -83.428218 
L 741.180099 -83.945691 
L 741.29607 -84.463164 
L 741.384882 -84.980637 
L 741.4568 -85.49811 
L 741.521251 -86.015583 
L 741.585454 -86.533056 
L 741.653756 -87.050529 
L 741.727675 -87.568002 
L 741.806468 -88.085475 
L 741.88797 -88.602948 
L 741.969476 -89.120421 
L 742.048482 -89.637894 
L 742.123214 -90.155367 
L 742.192881 -90.67284 
L 742.257676 -91.190313 
L 742.318531 -91.707786 
L 742.376713 -92.225259 
L 742.433354 -92.742731 
L 742.489057 -93.260204 
L 742.54368 -93.777677 
L 742.59636 -94.29515 
L 742.645749 -94.812623 
L 742.690387 -95.330096 
L 742.72906 -95.847569 
L 742.761066 -96.365042 
L 742.786322 -96.882515 
L 742.805302 -97.399988 
L 742.879698 -97.399988 
L 742.879698 -97.399988 
L 742.898678 -96.882515 
L 742.923934 -96.365042 
L 742.95594 -95.847569 
L 742.994613 -95.330096 
L 743.039251 -94.812623 
L 743.08864 -94.29515 
L 743.14132 -93.777677 
L 743.195943 -93.260204 
L 743.251646 -92.742731 
L 743.308287 -92.225259 
L 743.366469 -91.707786 
L 743.427324 -91.190313 
L 743.492119 -90.67284 
L 743.561786 -90.155367 
L 743.636518 -89.637894 
L 743.715524 -89.120421 
L 743.79703 -88.602948 
L 743.878532 -88.085475 
L 743.957325 -87.568002 
L 744.031244 -87.050529 
L 744.099546 -86.533056 
L 744.163749 -86.015583 
L 744.2282 -85.49811 
L 744.300118 -84.980637 
L 744.38893 -84.463164 
L 744.504901 -83.945691 
L 744.657274 -83.428218 
L 744.852331 -82.910745 
L 745.091878 -82.393272 
L 745.372602 -81.875799 
L 745.686526 -81.358326 
L 746.022477 -80.840853 
L 746.368208 -80.32338 
L 746.7126 -79.805907 
L 747.047382 -79.288434 
L 747.368002 -78.770961 
L 747.673571 -78.253488 
L 747.966162 -77.736015 
L 748.249921 -77.218542 
L 748.530455 -76.701069 
L 748.814712 -76.183596 
L 749.111246 -75.666123 
L 749.430432 -75.14865 
L 749.784111 -74.631177 
L 750.184303 -74.113704 
L 750.64104 -73.596231 
L 751.159833 -73.078758 
L 751.739579 -72.561285 
L 752.371722 -72.043812 
L 753.04105 -71.526339 
L 753.727981 -71.008866 
L 754.411642 -70.491393 
L 755.072881 -69.97392 
L 755.696547 -69.456447 
L 756.272888 -68.938974 
L 756.798323 -68.421501 
L 757.276018 -67.904028 
L 757.71641 -67.386555 
L 758.137428 -66.869082 
L 758.56378 -66.351609 
L 759.024812 -65.834136 
L 759.55088 -65.316663 
L 760.168816 -64.79919 
L 760.897545 -64.281717 
L 761.744912 -63.764244 
L 762.706482 -63.246771 
L 763.766484 -62.729298 
L 764.900586 -62.211825 
L 766.079886 -61.694352 
L 767.27546 -61.176879 
L 768.462913 -60.659406 
L 769.626565 -60.141933 
L 770.763038 -59.62446 
L 771.883989 -59.106987 
L 773.017544 -58.589514 
L 774.207682 -58.072041 
L 775.51066 -57.554568 
L 776.987717 -57.037095 
L 778.693875 -56.519622 
L 780.663508 -56.002149 
L 782.894255 -55.484676 
L 785.331647 -54.967203 
L 787.857518 -54.44973 
L 790.285917 -53.932257 
L 792.37051 -53.414784 
L 793.826631 -52.897311 
L 794.3685 -52.379838 
L 793.757592 -51.862365 
L 791.852893 -51.344892 
L 788.65024 -50.827419 
L 784.298271 -50.309946 
L 779.083768 -49.792473 
L 773.387813 -49.275 
L 767.623124 -48.757527 
L 762.168466 -48.240054 
L 757.316095 -47.722581 
L 753.242986 -47.205108 
L 750.008594 -46.687635 
L 747.574364 -46.170162 
z
" style="stroke: #3e3e3e; stroke-width: 3"/>
    </defs>
    <g clip-path="url(#p03e30805a0)">
     <use xlink:href="#m657d3ba1bb" x="0" y="288" style="fill: #e6e64c; stroke: #3e3e3e; stroke-width: 3"/>
    </g>
   </g>
   <g id="PolyCollection_7">
    <defs>
     <path id="m0bfe8d8b4c" d="M 878.387173 -50.984769 
L 864.927827 -50.984769 
L 861.173342 -51.557835 
L 856.192147 -52.130901 
L 850.054682 -52.703967 
L 843.079425 -53.277033 
L 835.848834 -53.850099 
L 829.151229 -54.423165 
L 823.846751 -54.996231 
L 820.685641 -55.569297 
L 820.1315 -56.142363 
L 822.247459 -56.715429 
L 826.684347 -57.288495 
L 832.773922 -57.861561 
L 839.693167 -58.434627 
L 846.644252 -59.007693 
L 852.996812 -59.580759 
L 858.360931 -60.153825 
L 862.58806 -60.726891 
L 865.719934 -61.299957 
L 867.915057 -61.873023 
L 869.378821 -62.446089 
L 870.312573 -63.019155 
L 870.885499 -63.592221 
L 871.225385 -64.165287 
L 871.421245 -64.738353 
L 871.531269 -65.311419 
L 871.591639 -65.884485 
L 871.62399 -66.457551 
L 871.640858 -67.030617 
L 871.649287 -67.603683 
L 871.653039 -68.176749 
L 871.653838 -68.749815 
L 871.651936 -69.322882 
L 871.646189 -69.895948 
L 871.633737 -70.469014 
L 871.609384 -71.04208 
L 871.564854 -71.615146 
L 871.488235 -72.188212 
L 871.364065 -72.761278 
L 871.174585 -73.334344 
L 870.902507 -73.90741 
L 870.535229 -74.480476 
L 870.069773 -75.053542 
L 869.517101 -75.626608 
L 868.904255 -76.199674 
L 868.273108 -76.77274 
L 867.675515 -77.345806 
L 867.165803 -77.918872 
L 866.792413 -78.491938 
L 866.590662 -79.065004 
L 866.578013 -79.63807 
L 866.752411 -80.211136 
L 867.093465 -80.784202 
L 867.565936 -81.357268 
L 868.12488 -81.930334 
L 868.721783 -82.5034 
L 869.310834 -83.076466 
L 869.854341 -83.649532 
L 870.326313 -84.222598 
L 870.713624 -84.795664 
L 871.014841 -85.36873 
L 871.237341 -85.941796 
L 871.39373 -86.514862 
L 871.49849 -87.087928 
L 871.565457 -87.660994 
L 871.606349 -88.23406 
L 871.630215 -88.807126 
L 871.643524 -89.380192 
L 871.65059 -89.953258 
L 871.654102 -90.526324 
L 871.655592 -91.09939 
L 871.655789 -91.672456 
L 871.654829 -92.245522 
L 871.652339 -92.818588 
L 871.647425 -93.391654 
L 871.638632 -93.96472 
L 871.623944 -94.537786 
L 871.600923 -95.110852 
L 871.567083 -95.683918 
L 871.520512 -96.256985 
L 871.460678 -96.830051 
L 871.389216 -97.403117 
L 871.310394 -97.976183 
L 871.230987 -98.549249 
L 871.159402 -99.122315 
L 871.104178 -99.695381 
L 871.072243 -100.268447 
L 871.067426 -100.841513 
L 871.089705 -101.414579 
L 871.135381 -101.987645 
L 871.198074 -102.560711 
L 871.270173 -103.133777 
L 871.344292 -103.706843 
L 871.414365 -104.279909 
L 871.476226 -104.852975 
L 871.527679 -105.426041 
L 871.568225 -105.999107 
L 871.598588 -106.572173 
L 871.620234 -107.145239 
L 871.634929 -107.718305 
L 871.680071 -107.718305 
L 871.680071 -107.718305 
L 871.694766 -107.145239 
L 871.716412 -106.572173 
L 871.746775 -105.999107 
L 871.787321 -105.426041 
L 871.838774 -104.852975 
L 871.900635 -104.279909 
L 871.970708 -103.706843 
L 872.044827 -103.133777 
L 872.116926 -102.560711 
L 872.179619 -101.987645 
L 872.225295 -101.414579 
L 872.247574 -100.841513 
L 872.242757 -100.268447 
L 872.210822 -99.695381 
L 872.155598 -99.122315 
L 872.084013 -98.549249 
L 872.004606 -97.976183 
L 871.925784 -97.403117 
L 871.854322 -96.830051 
L 871.794488 -96.256985 
L 871.747917 -95.683918 
L 871.714077 -95.110852 
L 871.691056 -94.537786 
L 871.676368 -93.96472 
L 871.667575 -93.391654 
L 871.662661 -92.818588 
L 871.660171 -92.245522 
L 871.659211 -91.672456 
L 871.659408 -91.09939 
L 871.660898 -90.526324 
L 871.66441 -89.953258 
L 871.671476 -89.380192 
L 871.684785 -88.807126 
L 871.708651 -88.23406 
L 871.749543 -87.660994 
L 871.81651 -87.087928 
L 871.92127 -86.514862 
L 872.077659 -85.941796 
L 872.300159 -85.36873 
L 872.601376 -84.795664 
L 872.988687 -84.222598 
L 873.460659 -83.649532 
L 874.004166 -83.076466 
L 874.593217 -82.5034 
L 875.19012 -81.930334 
L 875.749064 -81.357268 
L 876.221535 -80.784202 
L 876.562589 -80.211136 
L 876.736987 -79.63807 
L 876.724338 -79.065004 
L 876.522587 -78.491938 
L 876.149197 -77.918872 
L 875.639485 -77.345806 
L 875.041892 -76.77274 
L 874.410745 -76.199674 
L 873.797899 -75.626608 
L 873.245227 -75.053542 
L 872.779771 -74.480476 
L 872.412493 -73.90741 
L 872.140415 -73.334344 
L 871.950935 -72.761278 
L 871.826765 -72.188212 
L 871.750146 -71.615146 
L 871.705616 -71.04208 
L 871.681263 -70.469014 
L 871.668811 -69.895948 
L 871.663064 -69.322882 
L 871.661162 -68.749815 
L 871.661961 -68.176749 
L 871.665713 -67.603683 
L 871.674142 -67.030617 
L 871.69101 -66.457551 
L 871.723361 -65.884485 
L 871.783731 -65.311419 
L 871.893755 -64.738353 
L 872.089615 -64.165287 
L 872.429501 -63.592221 
L 873.002427 -63.019155 
L 873.936179 -62.446089 
L 875.399943 -61.873023 
L 877.595066 -61.299957 
L 880.72694 -60.726891 
L 884.954069 -60.153825 
L 890.318188 -59.580759 
L 896.670748 -59.007693 
L 903.621833 -58.434627 
L 910.541078 -57.861561 
L 916.630653 -57.288495 
L 921.067541 -56.715429 
L 923.1835 -56.142363 
L 922.629359 -55.569297 
L 919.468249 -54.996231 
L 914.163771 -54.423165 
L 907.466166 -53.850099 
L 900.235575 -53.277033 
L 893.260318 -52.703967 
L 887.122853 -52.130901 
L 882.141658 -51.557835 
L 878.387173 -50.984769 
z
" style="stroke: #3e3e3e; stroke-width: 3"/>
    </defs>
    <g clip-path="url(#p03e30805a0)">
     <use xlink:href="#m0bfe8d8b4c" x="0" y="288" style="fill: #965a38; stroke: #3e3e3e; stroke-width: 3"/>
    </g>
   </g>
   <g id="PolyCollection_8">
    <defs>
     <path id="mcf881b1b7c" d="M 1005.733985 -52.486841 
L 995.211015 -52.486841 
L 981.29136 -54.32489 
L 959.692427 -56.162939 
L 948.9465 -58.000988 
L 960.121904 -59.839037 
L 978.935788 -61.677086 
L 991.188236 -63.515135 
L 996.742695 -65.353184 
L 999.075808 -67.191233 
L 999.921782 -69.029282 
L 1000.160144 -70.867331 
L 1000.282988 -72.70538 
L 1000.392429 -74.543429 
L 1000.451056 -76.381478 
L 1000.462082 -78.219527 
L 1000.438996 -80.057576 
L 1000.386511 -81.895625 
L 1000.343815 -83.733674 
L 1000.34972 -85.571724 
L 1000.362666 -87.409773 
L 1000.345553 -89.247822 
L 1000.348868 -91.085871 
L 1000.398389 -92.92392 
L 1000.446947 -94.761969 
L 1000.467485 -96.600018 
L 1000.471941 -98.438067 
L 1000.472465 -100.276116 
L 1000.472499 -102.114165 
L 1000.4725 -103.952214 
L 1000.4725 -105.790263 
L 1000.4725 -107.628312 
L 1000.4725 -109.466361 
L 1000.4725 -111.30441 
L 1000.4725 -113.142459 
L 1000.4725 -114.980508 
L 1000.4725 -116.818557 
L 1000.4725 -118.656606 
L 1000.4725 -120.494655 
L 1000.4725 -122.332704 
L 1000.4725 -124.170753 
L 1000.4725 -126.008802 
L 1000.4725 -127.846851 
L 1000.4725 -129.6849 
L 1000.4725 -131.522949 
L 1000.4725 -133.360998 
L 1000.4725 -135.199047 
L 1000.4725 -137.037096 
L 1000.4725 -138.875145 
L 1000.4725 -140.713194 
L 1000.4725 -142.551243 
L 1000.4725 -144.389292 
L 1000.4725 -146.227341 
L 1000.4725 -148.06539 
L 1000.4725 -149.903439 
L 1000.4725 -151.741488 
L 1000.4725 -153.579537 
L 1000.4725 -155.417586 
L 1000.4725 -157.255635 
L 1000.4725 -159.093684 
L 1000.4725 -160.931733 
L 1000.4725 -162.769782 
L 1000.4725 -164.607831 
L 1000.4725 -166.44588 
L 1000.4725 -168.283929 
L 1000.4725 -170.121978 
L 1000.4725 -171.960027 
L 1000.4725 -173.798076 
L 1000.4725 -175.636125 
L 1000.4725 -177.474174 
L 1000.4725 -179.312223 
L 1000.4725 -181.150272 
L 1000.4725 -182.988321 
L 1000.4725 -184.82637 
L 1000.4725 -186.664419 
L 1000.4725 -188.502468 
L 1000.4725 -190.340517 
L 1000.4725 -192.178566 
L 1000.4725 -194.016615 
L 1000.4725 -195.854664 
L 1000.4725 -197.692713 
L 1000.4725 -199.530762 
L 1000.4725 -201.368811 
L 1000.4725 -203.20686 
L 1000.4725 -205.044909 
L 1000.4725 -206.882958 
L 1000.4725 -208.721007 
L 1000.4725 -210.559056 
L 1000.4725 -212.397105 
L 1000.4725 -214.235154 
L 1000.4725 -216.073203 
L 1000.472499 -217.911252 
L 1000.47246 -219.749301 
L 1000.471882 -221.58735 
L 1000.467084 -223.425399 
L 1000.445539 -225.263448 
L 1000.396229 -227.101497 
L 1000.349896 -228.939546 
L 1000.360511 -230.777595 
L 1000.414374 -232.615644 
L 1000.455357 -234.453693 
L 1000.489643 -234.453693 
L 1000.489643 -234.453693 
L 1000.530626 -232.615644 
L 1000.584489 -230.777595 
L 1000.595104 -228.939546 
L 1000.548771 -227.101497 
L 1000.499461 -225.263448 
L 1000.477916 -223.425399 
L 1000.473118 -221.58735 
L 1000.47254 -219.749301 
L 1000.472501 -217.911252 
L 1000.4725 -216.073203 
L 1000.4725 -214.235154 
L 1000.4725 -212.397105 
L 1000.4725 -210.559056 
L 1000.4725 -208.721007 
L 1000.4725 -206.882958 
L 1000.4725 -205.044909 
L 1000.4725 -203.20686 
L 1000.4725 -201.368811 
L 1000.4725 -199.530762 
L 1000.4725 -197.692713 
L 1000.4725 -195.854664 
L 1000.4725 -194.016615 
L 1000.4725 -192.178566 
L 1000.4725 -190.340517 
L 1000.4725 -188.502468 
L 1000.4725 -186.664419 
L 1000.4725 -184.82637 
L 1000.4725 -182.988321 
L 1000.4725 -181.150272 
L 1000.4725 -179.312223 
L 1000.4725 -177.474174 
L 1000.4725 -175.636125 
L 1000.4725 -173.798076 
L 1000.4725 -171.960027 
L 1000.4725 -170.121978 
L 1000.4725 -168.283929 
L 1000.4725 -166.44588 
L 1000.4725 -164.607831 
L 1000.4725 -162.769782 
L 1000.4725 -160.931733 
L 1000.4725 -159.093684 
L 1000.4725 -157.255635 
L 1000.4725 -155.417586 
L 1000.4725 -153.579537 
L 1000.4725 -151.741488 
L 1000.4725 -149.903439 
L 1000.4725 -148.06539 
L 1000.4725 -146.227341 
L 1000.4725 -144.389292 
L 1000.4725 -142.551243 
L 1000.4725 -140.713194 
L 1000.4725 -138.875145 
L 1000.4725 -137.037096 
L 1000.4725 -135.199047 
L 1000.4725 -133.360998 
L 1000.4725 -131.522949 
L 1000.4725 -129.6849 
L 1000.4725 -127.846851 
L 1000.4725 -126.008802 
L 1000.4725 -124.170753 
L 1000.4725 -122.332704 
L 1000.4725 -120.494655 
L 1000.4725 -118.656606 
L 1000.4725 -116.818557 
L 1000.4725 -114.980508 
L 1000.4725 -113.142459 
L 1000.4725 -111.30441 
L 1000.4725 -109.466361 
L 1000.4725 -107.628312 
L 1000.4725 -105.790263 
L 1000.4725 -103.952214 
L 1000.472501 -102.114165 
L 1000.472535 -100.276116 
L 1000.473059 -98.438067 
L 1000.477515 -96.600018 
L 1000.498053 -94.761969 
L 1000.546611 -92.92392 
L 1000.596132 -91.085871 
L 1000.599447 -89.247822 
L 1000.582334 -87.409773 
L 1000.59528 -85.571724 
L 1000.601185 -83.733674 
L 1000.558489 -81.895625 
L 1000.506004 -80.057576 
L 1000.482918 -78.219527 
L 1000.493944 -76.381478 
L 1000.552571 -74.543429 
L 1000.662012 -72.70538 
L 1000.784856 -70.867331 
L 1001.023218 -69.029282 
L 1001.869192 -67.191233 
L 1004.202305 -65.353184 
L 1009.756764 -63.515135 
L 1022.009212 -61.677086 
L 1040.823096 -59.839037 
L 1051.9985 -58.000988 
L 1041.252573 -56.162939 
L 1019.65364 -54.32489 
L 1005.733985 -52.486841 
z
" style="stroke: #3e3e3e; stroke-width: 3"/>
    </defs>
    <g clip-path="url(#p03e30805a0)">
     <use xlink:href="#mcf881b1b7c" x="0" y="288" style="fill: #e890be; stroke: #3e3e3e; stroke-width: 3"/>
    </g>
   </g>
   <g id="line2d_6">
    <path d="M 98.7675 241.182818 
L 98.7675 214.521747 
" clip-path="url(#p03e30805a0)" style="fill: none; stroke: #3e3e3e; stroke-width: 3"/>
   </g>
   <g id="line2d_7">
    <path d="M 98.7675 237.889393 
L 98.7675 221.480294 
" clip-path="url(#p03e30805a0)" style="fill: none; stroke: #3e3e3e; stroke-width: 9"/>
   </g>
   <g id="line2d_8">
    <path d="M 227.5825 239.424272 
L 227.5825 210.7706 
" clip-path="url(#p03e30805a0)" style="fill: none; stroke: #3e3e3e; stroke-width: 3"/>
   </g>
   <g id="line2d_9">
    <path d="M 227.5825 237.222003 
L 227.5825 221.882931 
" clip-path="url(#p03e30805a0)" style="fill: none; stroke: #3e3e3e; stroke-width: 9"/>
   </g>
   <g id="line2d_10">
    <path d="M 356.3975 233.519215 
L 356.3975 221.496999 
" clip-path="url(#p03e30805a0)" style="fill: none; stroke: #3e3e3e; stroke-width: 3"/>
   </g>
   <g id="line2d_11">
    <path d="M 356.3975 233.519215 
L 356.3975 228.70346 
" clip-path="url(#p03e30805a0)" style="fill: none; stroke: #3e3e3e; stroke-width: 9"/>
   </g>
   <g id="line2d_12">
    <path d="M 485.2125 234.434551 
L 485.2125 214.519569 
" clip-path="url(#p03e30805a0)" style="fill: none; stroke: #3e3e3e; stroke-width: 3"/>
   </g>
   <g id="line2d_13">
    <path d="M 485.2125 234.434551 
L 485.2125 226.441401 
" clip-path="url(#p03e30805a0)" style="fill: none; stroke: #3e3e3e; stroke-width: 9"/>
   </g>
   <g id="line2d_14">
    <path d="M 614.0275 230.872007 
L 614.0275 230.872007 
" clip-path="url(#p03e30805a0)" style="fill: none; stroke: #3e3e3e; stroke-width: 3"/>
   </g>
   <g id="line2d_15">
    <path d="M 614.0275 230.872007 
L 614.0275 230.872007 
" clip-path="url(#p03e30805a0)" style="fill: none; stroke: #3e3e3e; stroke-width: 9"/>
   </g>
   <g id="line2d_16">
    <path d="M 742.8425 236.940213 
L 742.8425 206.635044 
" clip-path="url(#p03e30805a0)" style="fill: none; stroke: #3e3e3e; stroke-width: 3"/>
   </g>
   <g id="line2d_17">
    <path d="M 742.8425 236.624235 
L 742.8425 224.502167 
" clip-path="url(#p03e30805a0)" style="fill: none; stroke: #3e3e3e; stroke-width: 9"/>
   </g>
   <g id="line2d_18">
    <path d="M 871.6575 232.125606 
L 871.6575 232.125606 
" clip-path="url(#p03e30805a0)" style="fill: none; stroke: #3e3e3e; stroke-width: 3"/>
   </g>
   <g id="line2d_19">
    <path d="M 871.6575 232.125606 
L 871.6575 232.125606 
" clip-path="url(#p03e30805a0)" style="fill: none; stroke: #3e3e3e; stroke-width: 9"/>
   </g>
   <g id="line2d_20">
    <path d="M 1000.4725 230.623534 
L 1000.4725 227.696345 
" clip-path="url(#p03e30805a0)" style="fill: none; stroke: #3e3e3e; stroke-width: 3"/>
   </g>
   <g id="line2d_21">
    <path d="M 1000.4725 230.623534 
L 1000.4725 229.418221 
" clip-path="url(#p03e30805a0)" style="fill: none; stroke: #3e3e3e; stroke-width: 9"/>
   </g>
   <g id="patch_3">
    <path d="M 34.36 255.69875 
L 34.36 43.92 
" style="fill: none; stroke: #f0f0f0; stroke-width: 3; stroke-linejoin: miter; stroke-linecap: square"/>
   </g>
   <g id="patch_4">
    <path d="M 1064.88 255.69875 
L 1064.88 43.92 
" style="fill: none; stroke: #f0f0f0; stroke-width: 3; stroke-linejoin: miter; stroke-linecap: square"/>
   </g>
   <g id="patch_5">
    <path d="M 34.36 255.69875 
L 1064.88 255.69875 
" style="fill: none; stroke: #f0f0f0; stroke-width: 3; stroke-linejoin: miter; stroke-linecap: square"/>
   </g>
   <g id="patch_6">
    <path d="M 34.36 43.92 
L 1064.88 43.92 
" style="fill: none; stroke: #f0f0f0; stroke-width: 3; stroke-linejoin: miter; stroke-linecap: square"/>
   </g>
   <g id="PathCollection_1">
    <defs>
     <path id="m59dce0a552" d="M 0 3 
C 0.795609 3 1.55874 2.683901 2.12132 2.12132 
C 2.683901 1.55874 3 0.795609 3 0 
C 3 -0.795609 2.683901 -1.55874 2.12132 -2.12132 
C 1.55874 -2.683901 0.795609 -3 0 -3 
C -0.795609 -3 -1.55874 -2.683901 -2.12132 -2.12132 
C -2.683901 -1.55874 -3 -0.795609 -3 0 
C -3 0.795609 -2.683901 1.55874 -2.12132 2.12132 
C -1.55874 2.683901 -0.795609 3 0 3 
z
" style="stroke: #3e3e3e; stroke-width: 0.5"/>
    </defs>
    <g clip-path="url(#p03e30805a0)">
     <use xlink:href="#m59dce0a552" x="98.7675" y="229.022541" style="fill: #ffffff; stroke: #3e3e3e; stroke-width: 0.5"/>
    </g>
   </g>
   <g id="PathCollection_2">
    <g clip-path="url(#p03e30805a0)">
     <use xlink:href="#m59dce0a552" x="227.5825" y="230.71408" style="fill: #ffffff; stroke: #3e3e3e; stroke-width: 0.5"/>
    </g>
   </g>
   <g id="PathCollection_3">
    <g clip-path="url(#p03e30805a0)">
     <use xlink:href="#m59dce0a552" x="356.3975" y="231.93469" style="fill: #ffffff; stroke: #3e3e3e; stroke-width: 0.5"/>
    </g>
   </g>
   <g id="PathCollection_4">
    <g clip-path="url(#p03e30805a0)">
     <use xlink:href="#m59dce0a552" x="485.2125" y="233.771387" style="fill: #ffffff; stroke: #3e3e3e; stroke-width: 0.5"/>
    </g>
   </g>
   <g id="PathCollection_5">
    <g clip-path="url(#p03e30805a0)">
     <use xlink:href="#m59dce0a552" x="614.0275" y="230.872007" style="fill: #ffffff; stroke: #3e3e3e; stroke-width: 0.5"/>
    </g>
   </g>
   <g id="PathCollection_6">
    <g clip-path="url(#p03e30805a0)">
     <use xlink:href="#m59dce0a552" x="742.8425" y="230.563201" style="fill: #ffffff; stroke: #3e3e3e; stroke-width: 0.5"/>
    </g>
   </g>
   <g id="PathCollection_7">
    <g clip-path="url(#p03e30805a0)">
     <use xlink:href="#m59dce0a552" x="871.6575" y="232.125606" style="fill: #ffffff; stroke: #3e3e3e; stroke-width: 0.5"/>
    </g>
   </g>
   <g id="PathCollection_8">
    <g clip-path="url(#p03e30805a0)">
     <use xlink:href="#m59dce0a552" x="1000.4725" y="230.382632" style="fill: #ffffff; stroke: #3e3e3e; stroke-width: 0.5"/>
    </g>
   </g>
  </g>
  <g id="text_14">
   <!-- Violin Plot of all Continuous Variables -->
   <g style="fill: #262626" transform="translate(416.035547 16.496719)scale(0.15 -0.15)">
    <defs>
     <path id="ArialMT-56" d="M 1803 0 
L 28 4581 
L 684 4581 
L 1875 1253 
Q 2019 853 2116 503 
Q 2222 878 2363 1253 
L 3600 4581 
L 4219 4581 
L 2425 0 
L 1803 0 
z
" transform="scale(0.015625)"/>
     <path id="ArialMT-6f" d="M 213 1659 
Q 213 2581 725 3025 
Q 1153 3394 1769 3394 
Q 2453 3394 2887 2945 
Q 3322 2497 3322 1706 
Q 3322 1066 3130 698 
Q 2938 331 2570 128 
Q 2203 -75 1769 -75 
Q 1072 -75 642 372 
Q 213 819 213 1659 
z
M 791 1659 
Q 791 1022 1069 705 
Q 1347 388 1769 388 
Q 2188 388 2466 706 
Q 2744 1025 2744 1678 
Q 2744 2294 2464 2611 
Q 2184 2928 1769 2928 
Q 1347 2928 1069 2612 
Q 791 2297 791 1659 
z
" transform="scale(0.015625)"/>
     <path id="ArialMT-20" transform="scale(0.015625)"/>
     <path id="ArialMT-66" d="M 556 0 
L 556 2881 
L 59 2881 
L 59 3319 
L 556 3319 
L 556 3672 
Q 556 4006 616 4169 
Q 697 4388 901 4523 
Q 1106 4659 1475 4659 
Q 1713 4659 2000 4603 
L 1916 4113 
Q 1741 4144 1584 4144 
Q 1328 4144 1222 4034 
Q 1116 3925 1116 3625 
L 1116 3319 
L 1763 3319 
L 1763 2881 
L 1116 2881 
L 1116 0 
L 556 0 
z
" transform="scale(0.015625)"/>
     <path id="ArialMT-61" d="M 2588 409 
Q 2275 144 1986 34 
Q 1697 -75 1366 -75 
Q 819 -75 525 192 
Q 231 459 231 875 
Q 231 1119 342 1320 
Q 453 1522 633 1644 
Q 813 1766 1038 1828 
Q 1203 1872 1538 1913 
Q 2219 1994 2541 2106 
Q 2544 2222 2544 2253 
Q 2544 2597 2384 2738 
Q 2169 2928 1744 2928 
Q 1347 2928 1158 2789 
Q 969 2650 878 2297 
L 328 2372 
Q 403 2725 575 2942 
Q 747 3159 1072 3276 
Q 1397 3394 1825 3394 
Q 2250 3394 2515 3294 
Q 2781 3194 2906 3042 
Q 3031 2891 3081 2659 
Q 3109 2516 3109 2141 
L 3109 1391 
Q 3109 606 3145 398 
Q 3181 191 3288 0 
L 2700 0 
Q 2613 175 2588 409 
z
M 2541 1666 
Q 2234 1541 1622 1453 
Q 1275 1403 1131 1340 
Q 988 1278 909 1158 
Q 831 1038 831 891 
Q 831 666 1001 516 
Q 1172 366 1500 366 
Q 1825 366 2078 508 
Q 2331 650 2450 897 
Q 2541 1088 2541 1459 
L 2541 1666 
z
" transform="scale(0.015625)"/>
     <path id="ArialMT-62" d="M 941 0 
L 419 0 
L 419 4581 
L 981 4581 
L 981 2947 
Q 1338 3394 1891 3394 
Q 2197 3394 2470 3270 
Q 2744 3147 2920 2923 
Q 3097 2700 3197 2384 
Q 3297 2069 3297 1709 
Q 3297 856 2875 390 
Q 2453 -75 1863 -75 
Q 1275 -75 941 416 
L 941 0 
z
M 934 1684 
Q 934 1088 1097 822 
Q 1363 388 1816 388 
Q 2184 388 2453 708 
Q 2722 1028 2722 1663 
Q 2722 2313 2464 2622 
Q 2206 2931 1841 2931 
Q 1472 2931 1203 2611 
Q 934 2291 934 1684 
z
" transform="scale(0.015625)"/>
     <path id="ArialMT-65" d="M 2694 1069 
L 3275 997 
Q 3138 488 2766 206 
Q 2394 -75 1816 -75 
Q 1088 -75 661 373 
Q 234 822 234 1631 
Q 234 2469 665 2931 
Q 1097 3394 1784 3394 
Q 2450 3394 2872 2941 
Q 3294 2488 3294 1666 
Q 3294 1616 3291 1516 
L 816 1516 
Q 847 969 1125 678 
Q 1403 388 1819 388 
Q 2128 388 2347 550 
Q 2566 713 2694 1069 
z
M 847 1978 
L 2700 1978 
Q 2663 2397 2488 2606 
Q 2219 2931 1791 2931 
Q 1403 2931 1139 2672 
Q 875 2413 847 1978 
z
" transform="scale(0.015625)"/>
    </defs>
    <use xlink:href="#ArialMT-56"/>
    <use xlink:href="#ArialMT-69" x="64.949219"/>
    <use xlink:href="#ArialMT-6f" x="87.166016"/>
    <use xlink:href="#ArialMT-6c" x="142.78125"/>
    <use xlink:href="#ArialMT-69" x="164.998047"/>
    <use xlink:href="#ArialMT-6e" x="187.214844"/>
    <use xlink:href="#ArialMT-20" x="242.830078"/>
    <use xlink:href="#ArialMT-50" x="270.613281"/>
    <use xlink:href="#ArialMT-6c" x="337.3125"/>
    <use xlink:href="#ArialMT-6f" x="359.529297"/>
    <use xlink:href="#ArialMT-74" x="415.144531"/>
    <use xlink:href="#ArialMT-20" x="442.927734"/>
    <use xlink:href="#ArialMT-6f" x="470.710938"/>
    <use xlink:href="#ArialMT-66" x="526.326172"/>
    <use xlink:href="#ArialMT-20" x="554.109375"/>
    <use xlink:href="#ArialMT-61" x="581.892578"/>
    <use xlink:href="#ArialMT-6c" x="637.507812"/>
    <use xlink:href="#ArialMT-6c" x="659.724609"/>
    <use xlink:href="#ArialMT-20" x="681.941406"/>
    <use xlink:href="#ArialMT-43" x="709.724609"/>
    <use xlink:href="#ArialMT-6f" x="781.941406"/>
    <use xlink:href="#ArialMT-6e" x="837.556641"/>
    <use xlink:href="#ArialMT-74" x="893.171875"/>
    <use xlink:href="#ArialMT-69" x="920.955078"/>
    <use xlink:href="#ArialMT-6e" x="943.171875"/>
    <use xlink:href="#ArialMT-75" x="998.787109"/>
    <use xlink:href="#ArialMT-6f" x="1054.402344"/>
    <use xlink:href="#ArialMT-75" x="1110.017578"/>
    <use xlink:href="#ArialMT-73" x="1165.632812"/>
    <use xlink:href="#ArialMT-20" x="1215.632812"/>
    <use xlink:href="#ArialMT-56" x="1243.416016"/>
    <use xlink:href="#ArialMT-61" x="1302.740234"/>
    <use xlink:href="#ArialMT-72" x="1358.355469"/>
    <use xlink:href="#ArialMT-69" x="1391.65625"/>
    <use xlink:href="#ArialMT-61" x="1413.873047"/>
    <use xlink:href="#ArialMT-62" x="1469.488281"/>
    <use xlink:href="#ArialMT-6c" x="1525.103516"/>
    <use xlink:href="#ArialMT-65" x="1547.320312"/>
    <use xlink:href="#ArialMT-73" x="1602.935547"/>
   </g>
  </g>
 </g>
 <defs>
  <clipPath id="p03e30805a0">
   <rect x="34.36" y="43.92" width="1030.52" height="211.77875"/>
  </clipPath>
 </defs>
</svg>
